<svg width="161" height="47" viewBox="0 0 161 47" fill="none" xmlns="http://www.w3.org/2000/svg">
<path d="M154.768 0.162372C153.982 0.395177 153.669 0.547396 153.062 1.00405C151.186 2.39193 150.623 5.15872 151.793 7.2271C152.606 8.6687 154.313 9.6626 155.974 9.6626C157.287 9.6626 158.431 9.17908 159.369 8.22995C161.959 5.64224 160.887 1.3264 157.395 0.216097C156.537 -0.0525244 155.572 -0.0704324 154.768 0.162372ZM157.538 1.46966C158.967 2.15017 159.905 3.88725 159.637 5.3378C159.342 6.97639 158.091 8.23891 156.528 8.48962C154.974 8.74033 153.339 7.85388 152.642 6.36751C152.374 5.81236 152.356 5.69596 152.356 4.82742C152.356 3.94097 152.374 3.85143 152.651 3.27837C152.991 2.59787 153.652 1.88155 154.214 1.58606C154.902 1.23686 155.268 1.15627 156.153 1.18313C156.868 1.20999 157.082 1.25476 157.538 1.46966Z" fill="#242745"/>
<path d="M154.696 2.74989C154.562 2.89316 154.544 3.17968 154.544 4.8899C154.544 6.68071 154.562 6.86874 154.705 7.00305C154.919 7.20004 155.294 7.20004 155.446 7.01201C155.518 6.93142 155.589 6.5464 155.616 6.14347L155.661 5.41819L156.357 6.28673C156.992 7.07469 157.081 7.15527 157.358 7.15527C157.662 7.15527 157.939 6.91351 157.939 6.64489C157.939 6.59117 157.697 6.28673 157.403 5.97334C157.108 5.65995 156.867 5.39133 156.867 5.36447C156.867 5.33761 157.001 5.25702 157.152 5.18539C157.563 4.9884 157.76 4.66605 157.813 4.10195C157.858 3.69006 157.831 3.57366 157.653 3.30504C157.242 2.69617 156.965 2.58872 155.839 2.58872C154.982 2.58872 154.821 2.61558 154.696 2.74989ZM156.688 3.74379C156.938 4.21835 156.706 4.46906 156.027 4.46906H155.616V4.02136V3.57366H156.107C156.491 3.57366 156.608 3.60948 156.688 3.74379Z" fill="#242745"/>
<path d="M101.93 18.8848V37.6882H105.19H108.451V18.8848V0.0813084H105.19H101.93V18.8848Z" fill="#242745"/>
<path d="M14.5455 8.67767C12.5624 9.01792 11.0437 10.0566 9.72163 11.9907C9.57869 12.2056 9.56976 12.1518 9.56976 10.755L9.56083 9.30445H6.43422H3.30762V23.4966V37.6887H6.56822H9.81989L9.84669 27.499C9.87349 17.5063 9.88242 17.3094 10.0611 16.7273C10.3112 15.9215 10.6328 15.4021 11.1688 14.9186C11.7316 14.4082 12.348 14.1933 13.1788 14.1933C14.5455 14.1933 15.2155 14.7485 15.6086 16.217C15.7426 16.7273 15.7604 17.7929 15.7872 27.2304L15.823 37.6887H19.0746H22.3263L22.3531 27.499C22.3799 17.5063 22.3888 17.3094 22.5675 16.7273C22.8176 15.9215 23.1392 15.4021 23.6752 14.9186C24.238 14.4082 24.8544 14.1933 25.6852 14.1933C27.052 14.1933 27.7219 14.7485 28.115 16.217C28.249 16.7273 28.2669 17.7929 28.2937 27.2304L28.3294 37.6887H31.59H34.8506L34.8238 26.4246C34.7881 13.9158 34.8149 14.4888 34.1806 12.5995C33.8054 11.4803 33.4213 10.8356 32.6977 10.1014C31.6793 9.07165 30.3304 8.58813 28.4545 8.58813C25.846 8.58813 23.8807 9.6268 22.6926 11.6235C22.496 11.9548 22.2727 12.4115 22.1923 12.6443C22.1119 12.8771 22.0226 13.0651 21.9869 13.0651C21.9511 13.0651 21.8707 12.8771 21.8171 12.6353C21.433 11.1938 20.361 9.87751 19.03 9.22386C18.6101 9.01792 17.9937 8.79407 17.6453 8.72244C16.9843 8.57917 15.2602 8.56127 14.5455 8.67767Z" fill="#242745"/>
<path d="M44.0865 8.7219C41.4512 9.14274 39.6914 10.1904 38.5569 12.0259C37.7083 13.387 37.3599 14.6584 37.2795 16.6641L37.2259 17.9893H40.1291H43.0324L43.1307 16.9327C43.2468 15.6523 43.4701 15.0166 43.9972 14.4256C44.6136 13.7362 45.0513 13.566 46.1858 13.5571C46.9719 13.5571 47.1953 13.5929 47.5705 13.763C48.7228 14.2913 49.1874 15.3389 49.1159 17.2372C49.0623 18.7415 48.7139 19.3593 47.6062 19.9144C47.365 20.0398 46.168 20.4427 44.953 20.8098C40.7009 22.0903 39.6021 22.6006 38.414 23.8632C37.5296 24.8123 37.0115 25.8599 36.672 27.4C36.4755 28.2954 36.3951 30.8831 36.5291 31.886C36.9221 34.8498 38.1192 36.9002 40.013 37.8494C40.9331 38.315 41.6835 38.4403 43.1843 38.3866C45.8642 38.2792 47.2578 37.5807 48.5084 35.7004C48.8032 35.2616 49.0444 34.8587 49.0444 34.796C49.0444 34.7334 49.0712 34.7334 49.1248 34.7871C49.1695 34.8319 49.2946 35.2885 49.4018 35.8078C49.509 36.3182 49.6787 36.954 49.777 37.2136L49.9467 37.6882H53.0733C54.7885 37.6882 56.191 37.6613 56.191 37.6166C56.191 37.5807 56.0838 37.2315 55.9587 36.8376C55.4584 35.2706 55.4584 35.2348 55.387 24.6153C55.3244 15.1957 55.3155 14.7748 55.1458 14.0048C54.7974 12.4557 54.2703 11.4977 53.2877 10.5664C52.2425 9.59044 50.5095 8.90994 48.4816 8.68608C47.3471 8.56073 44.9798 8.57864 44.0865 8.7219ZM49.1963 26.9881C49.1606 29.7281 49.1427 30.0862 48.9819 30.5876C48.7318 31.3577 48.428 31.8412 47.8653 32.3784C47.3025 32.8978 46.8469 33.1574 46.1233 33.3455C44.5243 33.7663 43.5416 33.2291 43.0235 31.689C42.827 31.0891 42.7555 30.713 42.7287 29.8982C42.6572 28.2059 42.9431 27.1851 43.7292 26.3255C44.3099 25.7077 44.9709 25.3316 46.0518 25.0272C47.1685 24.7048 47.9189 24.3825 48.5978 23.9348C49.1516 23.5677 49.1784 23.5587 49.2142 23.7468C49.232 23.8542 49.2231 25.3137 49.1963 26.9881Z" fill="#242745"/>
<path d="M63.6574 8.73992C60.4594 9.42043 58.6102 12.1156 57.8956 17.1657C57.6097 19.1624 57.5293 20.5234 57.5293 23.4962C57.5293 26.4689 57.6097 27.8299 57.8956 29.8267C58.7531 35.8259 61.2187 38.5568 65.6049 38.3867C66.4625 38.3509 66.8198 38.2882 67.3558 38.1091C68.5349 37.6883 69.5176 36.8824 70.4198 35.602C70.6253 35.3244 70.8218 35.0916 70.8576 35.0916C70.8933 35.0916 70.929 37.7689 70.929 41.0461V47.0005L74.1718 46.9826L77.4056 46.9557L77.4324 28.1254L77.4502 9.30402H74.3236H71.197V10.7814C71.197 11.5963 71.1702 12.2589 71.1345 12.2589C71.0898 12.2499 70.8397 11.9096 70.5717 11.4888C69.6159 9.99348 68.3295 9.0354 66.8644 8.72201C66.0694 8.55189 64.4614 8.56084 63.6574 8.73992ZM68.526 14.3631C69.6963 14.766 70.3126 16.0733 70.6789 18.9296C70.8397 20.1563 70.8397 26.836 70.6789 28.0627C70.393 30.3102 70.0089 31.4563 69.3121 32.1189C68.66 32.7546 67.5344 32.9785 66.5071 32.683C65.8818 32.495 65.1314 31.7428 64.8634 31.0175C64.3453 29.6476 64.1398 27.9195 64.0773 24.3916C64.0058 20.5413 64.2202 17.9984 64.7294 16.3598C65.3011 14.5511 66.793 13.7631 68.526 14.3631Z" fill="#242745"/>
<path d="M90.9817 8.64234C89.1414 8.94678 87.8015 9.86904 86.7295 11.5793C86.4615 12.0001 86.2203 12.3493 86.1846 12.3493C86.1399 12.3493 86.1131 11.6598 86.1131 10.8271V9.30494H83.0312H79.9492V28.1084V46.9119H83.1652H86.3811V41.0112C86.3811 37.7429 86.4168 35.0836 86.4615 35.0567C86.5062 35.0299 86.6848 35.2358 86.8724 35.5223C87.06 35.7999 87.5335 36.3551 87.9355 36.749C89.1772 37.9847 90.5618 38.4861 92.4556 38.3787C93.608 38.316 94.2512 38.1548 95.1803 37.6982C97.7977 36.4088 99.218 33.1943 99.6826 27.4548C99.8076 25.9773 99.8076 21.1601 99.6915 19.5931C99.2448 13.8625 97.8066 10.5854 95.1803 9.29598C94.7872 9.10795 94.2244 8.8841 93.9296 8.80351C93.3936 8.6692 91.4998 8.56175 90.9817 8.64234ZM90.8209 14.2744C91.7142 14.543 92.3663 15.3668 92.7147 16.6472C93.5276 19.6827 93.5276 27.3115 92.7147 30.3469C92.2323 32.1288 91.2318 32.9436 89.6685 32.8361C87.2208 32.657 86.4704 30.4454 86.4704 23.4971C86.4704 18.1157 86.9439 15.6175 88.1409 14.7042C88.8198 14.1849 89.9186 14.0058 90.8209 14.2744Z" fill="#0F83C4"/>
<path d="M117.963 8.7219C115.328 9.14274 113.568 10.1904 112.434 12.0259C111.585 13.387 111.237 14.6584 111.156 16.6641L111.103 17.9893H114.006H116.909L117.008 16.9327C117.124 15.6523 117.347 15.0166 117.874 14.4256C118.491 13.7362 118.928 13.566 120.063 13.5571C120.849 13.5571 121.072 13.5929 121.447 13.763C122.6 14.2913 123.064 15.3389 122.993 17.2372C122.939 18.7415 122.591 19.3593 121.483 19.9144C121.242 20.0398 120.045 20.4427 118.83 20.8098C114.578 22.0903 113.479 22.6006 112.291 23.8632C111.407 24.8123 110.888 25.8599 110.549 27.4C110.352 28.2954 110.272 30.8831 110.406 31.886C110.799 34.8498 111.996 36.9002 113.89 37.8494C114.81 38.315 115.56 38.4403 117.061 38.3866C119.741 38.2792 121.135 37.5807 122.385 35.7004C122.68 35.2616 122.921 34.8587 122.921 34.796C122.921 34.7334 122.948 34.7334 123.002 34.7871C123.046 34.8319 123.172 35.2885 123.279 35.8078C123.386 36.3182 123.556 36.954 123.654 37.2136L123.824 37.6882H126.95C128.665 37.6882 130.068 37.6613 130.068 37.6166C130.068 37.5807 129.961 37.2315 129.836 36.8376C129.335 35.2706 129.335 35.2348 129.264 24.6153C129.201 15.1957 129.192 14.7748 129.023 14.0048C128.674 12.4557 128.147 11.4977 127.165 10.5664C126.119 9.59044 124.386 8.90994 122.359 8.68608C121.224 8.56073 118.857 8.57864 117.963 8.7219ZM123.073 26.9881C123.038 29.7281 123.02 30.0862 122.859 30.5876C122.609 31.3577 122.305 31.8412 121.742 32.3784C121.179 32.8978 120.724 33.1574 120 33.3455C118.401 33.7663 117.419 33.2291 116.9 31.689C116.704 31.0891 116.632 30.713 116.606 29.8982C116.534 28.2059 116.82 27.1851 117.606 26.3255C118.187 25.7077 118.848 25.3316 119.929 25.0272C121.045 24.7048 121.796 24.3825 122.475 23.9348C123.029 23.5677 123.055 23.5587 123.091 23.7468C123.109 23.8542 123.1 25.3137 123.073 26.9881Z" fill="#242745"/>
<path d="M143.288 8.72195C141.251 9.15175 139.857 10.1904 138.687 12.1334L138.374 12.6528V10.9784V9.30396H135.248H132.121V23.4961V37.6882H135.382H138.642V27.7493C138.642 19.028 138.66 17.7208 138.785 17.1119C139.134 15.4017 139.964 14.4883 141.412 14.2287C142.457 14.0406 143.573 14.3182 144.083 14.9002C144.431 15.3032 144.69 16.0284 144.806 16.9328C144.86 17.4074 144.896 21.2845 144.896 27.6776V37.6882H148.156H151.426L151.39 26.1107C151.354 13.4855 151.381 14.0317 150.845 12.4558C150.202 10.5844 148.862 9.31292 146.995 8.80254C146.253 8.60555 144.065 8.55183 143.288 8.72195Z" fill="#242745"/>
<path d="M0 23.5857V37.7778H1.07198H2.14396V23.5857V9.39356H1.07198H0V23.5857Z" fill="#0F83C4"/>
</svg>
