<svg width="905" height="190" viewBox="0 0 905 190" fill="none" xmlns="http://www.w3.org/2000/svg">
<path d="M111.655 29.1831C135.337 34.135 155.682 53.44 161.666 75.354H111.655V29.1831Z" fill="white" stroke="white" stroke-width="0.276668"/>
<path d="M161.397 120.694C154.046 141.832 134.687 158.351 111.575 162.942V120.694H161.397Z" fill="white" stroke="white" stroke-width="0.276668"/>
<path d="M93.2877 150.685C63.1918 150.685 38.7842 126.288 38.7842 96.1813C38.7842 67.0067 63.1835 41.6777 93.2877 41.6777" stroke="white" stroke-width="20.7501" stroke-miterlimit="10"/>
<path d="M182.067 63.1115V7.57324H5V63.1115" stroke="white" stroke-width="8.30003" stroke-miterlimit="10"/>
<path d="M182.067 122.562V184.64H5V122.562" stroke="white" stroke-width="8.30003" stroke-miterlimit="10"/>
<path d="M239.916 118.94C220.868 118.94 208.139 105.753 208.139 85.9727C208.139 66.2837 220.868 53.0966 239.916 53.0966C254.752 53.0966 266.474 61.5217 269.038 74.2509L261.254 77.0898C259.331 67.6573 250.814 61.3385 240.191 61.3385C226.454 61.3385 217.205 71.2288 217.205 85.9727C217.205 100.808 226.454 110.699 240.191 110.699C250.814 110.699 259.331 104.38 261.254 94.9473L269.038 97.7862C266.474 110.515 254.752 118.94 239.916 118.94ZM307.871 118.94C288.914 118.94 276.277 105.753 276.277 85.9727C276.277 66.2837 288.914 53.0966 307.871 53.0966C326.736 53.0966 339.373 66.2837 339.373 85.9727C339.373 105.753 326.736 118.94 307.871 118.94ZM307.871 110.699C321.333 110.699 330.307 100.808 330.307 85.9727C330.307 71.2288 321.333 61.3385 307.871 61.3385C294.317 61.3385 285.343 71.2288 285.343 85.9727C285.343 100.717 294.317 110.699 307.871 110.699ZM393.895 54.1039H402.504V117.933H392.613L358.455 66.5584V117.933H349.847V54.1039H359.737L393.895 105.387V54.1039ZM459.798 54.1039H468.406V117.933H458.515L424.357 66.5584V117.933H415.749V54.1039H425.639L459.798 105.387V54.1039ZM490.259 109.874H525.791V117.933H481.651V54.1039H524.234V62.1627H490.259V82.1265H519.106V89.819H490.259V109.874ZM561.467 118.94C542.419 118.94 529.69 105.753 529.69 85.9727C529.69 66.2837 542.419 53.0966 561.467 53.0966C576.302 53.0966 588.024 61.5217 590.589 74.2509L582.804 77.0898C580.881 67.6573 572.365 61.3385 561.742 61.3385C548.005 61.3385 538.756 71.2288 538.756 85.9727C538.756 100.808 548.005 110.699 561.742 110.699C572.365 110.699 580.881 104.38 582.804 94.9473L590.589 97.7862C588.024 110.515 576.302 118.94 561.467 118.94ZM646.869 54.1039V62.1627H624.798V117.933H616.19V62.1627H594.029V54.1039H646.869ZM721.354 53.7376V63.9942H700.291V117.933H689.302V63.9942H668.148V53.7376H721.354ZM740.4 107.676H774.009V117.933H729.411V53.7376H772.727V63.9942H740.4V80.936H767.782V90.6432H740.4V107.676ZM825.917 63.9942H794.139V82.7675H821.338V92.5663H794.139V117.933H783.15V53.7376H825.917V63.9942Z" fill="white"/>
</svg>
