<svg width="913" height="190" viewBox="0 0 913 190" fill="none" xmlns="http://www.w3.org/2000/svg">
<path d="M112.604 28.5015C136.496 33.4973 157.022 52.9736 163.06 75.0825H112.604V28.5015Z" fill="#0B1320" stroke="#0B1320" stroke-width="0.279127"/>
<path d="M162.788 120.826C155.371 142.152 135.84 158.818 112.522 163.451V120.826H162.788Z" fill="#0B1320" stroke="#0B1320" stroke-width="0.279127"/>
<path d="M94.072 151.083C63.7086 151.083 39.084 126.47 39.084 96.0949C39.084 66.661 63.7002 41.1069 94.072 41.1069" stroke="#0B1320" stroke-width="20.9345" stroke-miterlimit="10"/>
<path d="M183.641 62.7309V6.69897H5V62.7309" stroke="#0B1320" stroke-width="8.37381" stroke-miterlimit="10"/>
<path d="M183.641 122.71V185.34H5V122.71" stroke="#0B1320" stroke-width="8.37381" stroke-miterlimit="10"/>
<path d="M242.003 119.016C222.786 119.016 209.944 105.712 209.944 85.7555C209.944 65.8915 222.786 52.5872 242.003 52.5872C256.971 52.5872 268.797 61.0871 271.384 73.9295L263.53 76.7936C261.59 67.2773 252.998 60.9023 242.28 60.9023C228.422 60.9023 219.09 70.8806 219.09 85.7555C219.09 100.723 228.422 110.701 242.28 110.701C252.998 110.701 261.59 104.326 263.53 94.8099L271.384 97.674C268.797 110.516 256.971 119.016 242.003 119.016ZM310.562 119.016C291.437 119.016 278.687 105.712 278.687 85.7555C278.687 65.8915 291.437 52.5872 310.562 52.5872C329.594 52.5872 342.344 65.8915 342.344 85.7555C342.344 105.712 329.594 119.016 310.562 119.016ZM310.562 110.701C324.143 110.701 333.198 100.723 333.198 85.7555C333.198 70.8806 324.143 60.9023 310.562 60.9023C296.888 60.9023 287.834 70.8806 287.834 85.7555C287.834 100.63 296.888 110.701 310.562 110.701ZM397.351 53.6035H406.036V118H396.058L361.596 66.1686V118H352.911V53.6035H362.889L397.351 105.342V53.6035ZM463.839 53.6035H472.524V118H462.546L428.084 66.1686V118H419.399V53.6035H429.377L463.839 105.342V53.6035ZM494.572 109.87H530.419V118H485.887V53.6035H528.849V61.7339H494.572V81.8751H523.675V89.636H494.572V109.87ZM566.412 119.016C547.195 119.016 534.353 105.712 534.353 85.7555C534.353 65.8915 547.195 52.5872 566.412 52.5872C581.38 52.5872 593.206 61.0871 595.793 73.9295L587.939 76.7936C585.999 67.2773 577.407 60.9023 566.689 60.9023C552.831 60.9023 543.499 70.8806 543.499 85.7555C543.499 100.723 552.831 110.701 566.689 110.701C577.407 110.701 585.999 104.326 587.939 94.8099L595.793 97.674C593.206 110.516 581.38 119.016 566.412 119.016ZM652.573 53.6035V61.7339H630.307V118H621.622V61.7339H599.263V53.6035H652.573ZM727.72 53.2339V63.5817H706.47V118H695.384V63.5817H674.041V53.2339H727.72ZM746.936 107.652H780.843V118H735.849V53.2339H779.55V63.5817H746.936V80.674H774.561V90.4675H746.936V107.652ZM833.213 63.5817H801.153V82.5218H828.593V92.4077H801.153V118H790.066V53.2339H833.213V63.5817Z" fill="black"/>
</svg>
