<svg width="544" height="544" viewBox="0 0 544 544" fill="none" xmlns="http://www.w3.org/2000/svg">
<path d="M422.507 224.854H398.692C397.863 224.869 397.073 225.206 396.487 225.792C395.9 226.378 395.564 227.168 395.549 227.997V240.69C395.564 241.519 395.9 242.31 396.487 242.896C397.073 243.482 397.863 243.818 398.692 243.833H400.626C400.602 245.629 399.913 247.352 398.692 248.669C398.571 248.807 398.489 248.974 398.454 249.154C398.42 249.334 398.434 249.521 398.496 249.693C398.558 249.866 398.664 250.019 398.805 250.136C398.946 250.254 399.115 250.332 399.296 250.361C404.253 250.845 407.517 247.339 407.517 243.954H422.386C423.215 243.939 424.005 243.603 424.592 243.017C425.178 242.43 425.514 241.64 425.529 240.811V228.118C425.568 227.7 425.519 227.279 425.384 226.881C425.249 226.483 425.032 226.119 424.747 225.811C424.462 225.503 424.115 225.258 423.729 225.094C423.343 224.929 422.927 224.847 422.507 224.854Z" fill="#F1BD19" stroke="#231F20" stroke-width="1.20889" stroke-linecap="round" stroke-linejoin="round"/>
<path d="M399.659 230.173H421.419" stroke="#231F20" stroke-width="1.20889" stroke-linecap="round" stroke-linejoin="round"/>
<path d="M399.659 234.645H421.419" stroke="#231F20" stroke-width="1.20889" stroke-linecap="round" stroke-linejoin="round"/>
<path d="M399.659 238.998H421.419" stroke="#231F20" stroke-width="1.20889" stroke-linecap="round" stroke-linejoin="round"/>
<path d="M377.173 445.476C377.204 449.901 375.564 454.175 372.579 457.444C370.902 459.307 368.851 460.798 366.56 461.818C364.269 462.838 361.789 463.365 359.282 463.365C356.774 463.365 354.294 462.838 352.003 461.818C349.712 460.798 347.662 459.307 345.984 457.444C343 454.175 341.359 449.901 341.39 445.476C341.39 440.73 343.275 436.18 346.63 432.824C349.986 429.469 354.537 427.584 359.282 427.584C364.027 427.584 368.578 429.469 371.933 432.824C375.288 436.18 377.173 440.73 377.173 445.476Z" fill="#ECECEC" stroke="#696992" stroke-width="1.20889" stroke-linecap="round" stroke-linejoin="round"/>
<path d="M359.282 451.761C364.823 451.761 369.316 447.269 369.316 441.727C369.316 436.186 364.823 431.693 359.282 431.693C353.74 431.693 349.248 436.186 349.248 441.727C349.248 447.269 353.74 451.761 359.282 451.761Z" fill="#F6D1A7" stroke="#696992" stroke-width="1.20889" stroke-linecap="round" stroke-linejoin="round"/>
<path d="M362.788 444.751C362.788 444.27 362.979 443.809 363.319 443.469C363.659 443.129 364.12 442.938 364.601 442.938C365.082 442.938 365.543 443.129 365.883 443.469C366.223 443.809 366.414 444.27 366.414 444.751" stroke="#696992" stroke-width="1.20889" stroke-linecap="round" stroke-linejoin="round"/>
<path d="M352.149 444.751C352.149 444.27 352.34 443.809 352.68 443.469C353.02 443.129 353.481 442.938 353.962 442.938C354.443 442.938 354.904 443.129 355.244 443.469C355.585 443.809 355.776 444.27 355.776 444.751" stroke="#696992" stroke-width="1.20889" stroke-linecap="round" stroke-linejoin="round"/>
<path d="M354.567 448.256C355.927 449.276 357.581 449.827 359.282 449.827C360.982 449.827 362.636 449.276 363.996 448.256" stroke="#696992" stroke-width="1.20889" stroke-linecap="round" stroke-linejoin="round"/>
<path d="M422.99 347.797C422.97 351.989 421.423 356.029 418.638 359.161C417.062 360.942 415.127 362.369 412.96 363.349C410.793 364.328 408.444 364.837 406.066 364.843C403.686 364.85 401.332 364.346 399.163 363.366C396.994 362.386 395.061 360.952 393.493 359.161C390.708 356.029 389.161 351.989 389.141 347.797C389.141 343.309 390.924 339.004 394.098 335.83C397.272 332.656 401.577 330.873 406.066 330.873C410.554 330.873 414.859 332.656 418.033 335.83C421.207 339.004 422.99 343.309 422.99 347.797Z" fill="#ECECEC" stroke="#231F20" stroke-width="1.20889" stroke-linecap="round" stroke-linejoin="round"/>
<path d="M406.066 353.721C411.34 353.721 415.616 349.445 415.616 344.17C415.616 338.896 411.34 334.62 406.066 334.62C400.791 334.62 396.516 338.896 396.516 344.17C396.516 349.445 400.791 353.721 406.066 353.721Z" fill="#F6D1A7" stroke="#231F20" stroke-width="1.20889" stroke-linecap="round" stroke-linejoin="round"/>
<path d="M406.066 334.62C403.684 334.605 401.384 335.495 399.633 337.111C397.883 338.727 396.811 340.948 396.637 343.324H407.638C408.149 343.324 408.65 343.176 409.079 342.897C409.508 342.618 409.847 342.22 410.055 341.753L410.418 341.027L411.264 342.115C411.51 342.461 411.837 342.741 412.216 342.931C412.596 343.121 413.016 343.214 413.44 343.203H415.737C415.424 340.85 414.274 338.688 412.499 337.112C410.723 335.536 408.44 334.652 406.066 334.62Z" fill="#D6A500" stroke="#231F20" stroke-width="1.20889" stroke-linecap="round" stroke-linejoin="round"/>
<path d="M409.451 346.95C409.451 346.501 409.629 346.071 409.946 345.753C410.264 345.436 410.694 345.258 411.143 345.258C411.592 345.258 412.022 345.436 412.34 345.753C412.657 346.071 412.836 346.501 412.836 346.95" stroke="#231F20" stroke-width="1.20889" stroke-linecap="round" stroke-linejoin="round"/>
<path d="M399.175 346.95C399.175 346.501 399.354 346.071 399.671 345.753C399.988 345.436 400.419 345.258 400.868 345.258C401.317 345.258 401.747 345.436 402.064 345.753C402.382 346.071 402.56 346.501 402.56 346.95" stroke="#231F20" stroke-width="1.20889" stroke-linecap="round" stroke-linejoin="round"/>
<path d="M401.593 350.336C402.876 351.315 404.453 351.826 406.066 351.787C407.67 351.769 409.23 351.263 410.539 350.336" stroke="#231F20" stroke-width="1.20889" stroke-linecap="round" stroke-linejoin="round"/>
<path d="M418.638 359.161C417.062 360.942 415.127 362.369 412.96 363.348C410.793 364.327 408.444 364.837 406.066 364.842C403.686 364.849 401.332 364.345 399.163 363.365C396.994 362.385 395.061 360.951 393.493 359.161C394.483 358.152 395.679 357.368 396.999 356.864L402.197 355.171C402.553 355.07 402.928 355.061 403.288 355.145C403.647 355.23 403.98 355.405 404.252 355.655L404.857 356.259C405.235 356.61 405.731 356.805 406.247 356.805C406.763 356.805 407.259 356.61 407.637 356.259L408.242 355.655C408.51 355.399 408.843 355.22 409.204 355.135C409.565 355.05 409.942 355.062 410.297 355.171L415.495 356.864C416.713 357.363 417.792 358.152 418.638 359.161Z" fill="#424242" stroke="#231F20" stroke-width="1.20889" stroke-linecap="round" stroke-linejoin="round"/>
<path d="M331.356 325.07C331.372 329.362 329.775 333.504 326.883 336.675C325.258 338.5 323.265 339.96 321.036 340.96C318.807 341.96 316.391 342.477 313.948 342.478C309.337 342.459 304.92 340.619 301.66 337.358C298.399 334.098 296.559 329.681 296.54 325.07C296.54 320.453 298.374 316.025 301.639 312.761C304.903 309.496 309.331 307.662 313.948 307.662C318.565 307.662 322.993 309.496 326.257 312.761C329.522 316.025 331.356 320.453 331.356 325.07Z" fill="#ECECEC" stroke="#231F20" stroke-width="1.20889" stroke-linecap="round" stroke-linejoin="round"/>
<path d="M313.949 331.235C319.357 331.235 323.741 326.851 323.741 321.443C323.741 316.035 319.357 311.651 313.949 311.651C308.541 311.651 304.157 316.035 304.157 321.443C304.157 326.851 308.541 331.235 313.949 331.235Z" fill="#F6D1A7" stroke="#231F20" stroke-width="1.20889" stroke-linecap="round" stroke-linejoin="round"/>
<path d="M313.948 311.651C311.524 311.642 309.184 312.544 307.393 314.179C305.601 315.813 304.49 318.061 304.277 320.476H315.52C316.035 320.492 316.543 320.35 316.975 320.069C317.407 319.788 317.743 319.382 317.938 318.905L318.3 318.18L319.147 319.268C319.392 319.613 319.719 319.894 320.099 320.083C320.478 320.273 320.899 320.366 321.323 320.356H323.62C323.379 317.962 322.255 315.743 320.467 314.134C318.678 312.525 316.354 311.639 313.948 311.651Z" fill="#FF8C56" stroke="#231F20" stroke-width="1.20889" stroke-linecap="round" stroke-linejoin="round"/>
<path d="M317.454 324.345C317.454 323.864 317.645 323.402 317.985 323.062C318.325 322.722 318.787 322.531 319.267 322.531C319.748 322.531 320.21 322.722 320.55 323.062C320.89 323.402 321.081 323.864 321.081 324.345" stroke="#231F20" stroke-width="1.20889" stroke-linecap="round" stroke-linejoin="round"/>
<path d="M307.058 324.345C307.058 323.864 307.249 323.402 307.589 323.062C307.929 322.722 308.39 322.531 308.871 322.531C309.352 322.531 309.813 322.722 310.153 323.062C310.493 323.402 310.684 323.864 310.684 324.345" stroke="#231F20" stroke-width="1.20889" stroke-linecap="round" stroke-linejoin="round"/>
<path d="M309.354 327.729C310.691 328.693 312.301 329.201 313.948 329.18C315.586 329.143 317.18 328.64 318.542 327.729" stroke="#231F20" stroke-width="1.20889" stroke-linecap="round" stroke-linejoin="round"/>
<path d="M326.883 336.797C325.258 338.621 323.265 340.081 321.036 341.081C318.807 342.081 316.392 342.599 313.948 342.6C311.503 342.613 309.083 342.103 306.851 341.102C304.62 340.101 302.629 338.633 301.013 336.797C301.994 335.72 303.247 334.927 304.64 334.5L309.959 332.687C310.314 332.585 310.69 332.576 311.049 332.661C311.409 332.746 311.741 332.921 312.014 333.17L312.619 333.775C312.996 334.126 313.493 334.321 314.009 334.321C314.524 334.321 315.021 334.126 315.399 333.775L316.003 333.17C316.272 332.915 316.604 332.735 316.965 332.65C317.327 332.565 317.704 332.578 318.059 332.687L323.378 334.5C324.743 334.913 325.96 335.711 326.883 336.797Z" fill="#ADD676" stroke="#231F20" stroke-width="1.20889" stroke-linecap="round" stroke-linejoin="round"/>
<path d="M368.59 342.116C368.596 340.872 368.208 339.658 367.481 338.649C366.755 337.639 365.727 336.885 364.545 336.496C363.364 336.107 362.089 336.102 360.905 336.481C359.72 336.861 358.686 337.607 357.952 338.611C357.217 337.607 356.183 336.861 354.999 336.481C353.814 336.102 352.54 336.107 351.358 336.496C350.177 336.885 349.149 337.639 348.422 338.649C347.695 339.658 347.307 340.872 347.314 342.116C347.314 342.116 346.467 348.403 358.073 355.535C369.436 348.403 368.59 342.116 368.59 342.116Z" fill="#EC6F39" stroke="#231F20" stroke-width="1.20889" stroke-linecap="round" stroke-linejoin="round"/>
<path d="M498.546 254.713L507.371 263.659" stroke="#ECECEC" stroke-width="1.20889" stroke-linecap="round" stroke-linejoin="round"/>
<path d="M507.371 254.713L498.546 263.659" stroke="#ECECEC" stroke-width="1.20889" stroke-linecap="round" stroke-linejoin="round"/>
<path d="M341.511 290.738L350.457 299.563" stroke="#ECECEC" stroke-width="1.20889" stroke-linecap="round" stroke-linejoin="round"/>
<path d="M350.457 290.738L341.511 299.563" stroke="#ECECEC" stroke-width="1.20889" stroke-linecap="round" stroke-linejoin="round"/>
<path d="M326.642 451.399C329.179 451.399 331.235 449.342 331.235 446.805C331.235 444.268 329.179 442.211 326.642 442.211C324.105 442.211 322.048 444.268 322.048 446.805C322.048 449.342 324.105 451.399 326.642 451.399Z" stroke="#ECECEC" stroke-width="1.20889" stroke-linecap="round" stroke-linejoin="round"/>
<path d="M502.898 315.398C505.435 315.398 507.492 313.342 507.492 310.805C507.492 308.268 505.435 306.211 502.898 306.211C500.361 306.211 498.304 308.268 498.304 310.805C498.304 313.342 500.361 315.398 502.898 315.398Z" stroke="#ECECEC" stroke-width="1.20889" stroke-linecap="round" stroke-linejoin="round"/>
<path d="M410.539 404.614C413.076 404.614 415.132 402.558 415.132 400.021C415.132 397.483 413.076 395.427 410.539 395.427C408.002 395.427 405.945 397.483 405.945 400.021C405.945 402.558 408.002 404.614 410.539 404.614Z" stroke="#ECECEC" stroke-width="1.20889" stroke-linecap="round" stroke-linejoin="round"/>
<path d="M396.596 429.019L390.698 434.917L396.596 440.815L402.494 434.917L396.596 429.019Z" stroke="#ECECEC" stroke-width="1.20889" stroke-linecap="round" stroke-linejoin="round"/>
<path d="M330.973 406.26L325.075 412.158L330.973 418.056L336.871 412.158L330.973 406.26Z" stroke="#ECECEC" stroke-width="1.20889" stroke-linecap="round" stroke-linejoin="round"/>
<path d="M332.327 343.727L326.429 349.625L332.327 355.523L338.225 349.625L332.327 343.727Z" stroke="#ECECEC" stroke-width="1.20889" stroke-linecap="round" stroke-linejoin="round"/>
<path d="M389.031 371.288L383.132 377.187L389.031 383.085L394.929 377.186L389.031 371.288Z" stroke="#ECECEC" stroke-width="1.20889" stroke-linecap="round" stroke-linejoin="round"/>
<path d="M455.872 310.806C458.409 310.806 460.465 308.749 460.465 306.212C460.465 303.675 458.409 301.618 455.872 301.618C453.335 301.618 451.278 303.675 451.278 306.212C451.278 308.749 453.335 310.806 455.872 310.806Z" stroke="#ECECEC" stroke-width="1.20889" stroke-linecap="round" stroke-linejoin="round"/>
<path d="M399.175 269.823C401.712 269.823 403.769 267.767 403.769 265.23C403.769 262.692 401.712 260.636 399.175 260.636C396.638 260.636 394.581 262.692 394.581 265.23C394.581 267.767 396.638 269.823 399.175 269.823Z" stroke="#ECECEC" stroke-width="1.20889" stroke-linecap="round" stroke-linejoin="round"/>
<path d="M441.492 343.725L435.594 349.623L441.492 355.521L447.39 349.623L441.492 343.725Z" stroke="#ECECEC" stroke-width="1.20889" stroke-linecap="round" stroke-linejoin="round"/>
<path d="M441.487 274.455L435.588 280.354L441.487 286.252L447.385 280.354L441.487 274.455Z" stroke="#ECECEC" stroke-width="1.20889" stroke-linecap="round" stroke-linejoin="round"/>
<path d="M412.594 446.442L413.077 454.784L404.736 454.3L405.341 462.521L396.999 462.037L397.604 470.258L389.262 469.774L389.746 477.994L381.525 477.511L382.009 485.852L373.789 485.248" stroke="#ECECEC" stroke-width="1.20889" stroke-linecap="round" stroke-linejoin="round"/>
<path d="M509.789 373.062L510.272 381.283L502.052 380.799L502.535 389.02L494.194 388.536L494.798 396.878L486.457 396.273L486.941 404.615L478.72 404.01L479.204 412.351L470.983 411.868" stroke="#ECECEC" stroke-width="1.20889" stroke-linecap="round" stroke-linejoin="round"/>
<path d="M377.052 291.463L377.536 299.683L369.316 299.2L369.799 307.541L361.579 306.937L362.062 315.278L353.721 314.794L354.325 323.015L345.984 322.531L346.468 330.752L338.247 330.268" stroke="#ECECEC" stroke-width="1.20889" stroke-linecap="round" stroke-linejoin="round"/>
<path d="M320.476 362.908L320.96 371.25L312.739 370.645L313.223 378.986L305.002 378.503L305.486 386.723L297.145 386.24L297.749 394.46L289.408 393.977L290.012 402.197L281.671 401.714" stroke="#ECECEC" stroke-width="1.20889" stroke-linecap="round" stroke-linejoin="round"/>
<path d="M268.978 391.076L271.154 389.021" stroke="#ECECEC" stroke-width="1.20889" stroke-linecap="round" stroke-linejoin="round"/>
<path d="M272.604 387.449L293.156 366.897" stroke="#ECECEC" stroke-width="1.20889" stroke-linecap="round" stroke-linejoin="round" stroke-dasharray="5.38 2.15"/>
<path d="M293.881 366.172L296.057 363.996" stroke="#ECECEC" stroke-width="1.20889" stroke-linecap="round" stroke-linejoin="round"/>
<path d="M359.04 275.747L361.216 273.571" stroke="#ECECEC" stroke-width="1.20889" stroke-linecap="round" stroke-linejoin="round"/>
<path d="M362.788 272.12L383.218 251.569" stroke="#ECECEC" stroke-width="1.20889" stroke-linecap="round" stroke-linejoin="round" stroke-dasharray="5.38 2.15"/>
<path d="M384.064 250.845L386.12 248.669" stroke="#ECECEC" stroke-width="1.20889" stroke-linecap="round" stroke-linejoin="round"/>
<path d="M364.963 281.671L367.139 279.616" stroke="#ECECEC" stroke-width="1.20889" stroke-linecap="round" stroke-linejoin="round"/>
<path d="M368.832 277.802L380.075 266.681" stroke="#ECECEC" stroke-width="1.20889" stroke-linecap="round" stroke-linejoin="round" stroke-dasharray="6.08 2.43"/>
<path d="M380.921 265.834L383.097 263.658" stroke="#ECECEC" stroke-width="1.20889" stroke-linecap="round" stroke-linejoin="round"/>
<path d="M459.861 329.301L462.037 327.125" stroke="#ECECEC" stroke-width="1.20889" stroke-linecap="round" stroke-linejoin="round"/>
<path d="M463.73 325.432L493.106 295.936" stroke="#ECECEC" stroke-width="1.20889" stroke-linecap="round" stroke-linejoin="round" stroke-dasharray="6.12 2.44"/>
<path d="M493.952 295.09L496.128 293.035" stroke="#ECECEC" stroke-width="1.20889" stroke-linecap="round" stroke-linejoin="round"/>
<path d="M466.389 339.214L468.565 337.159" stroke="#ECECEC" stroke-width="1.20889" stroke-linecap="round" stroke-linejoin="round"/>
<path d="M470.258 335.346L487.666 318.059" stroke="#ECECEC" stroke-width="1.20889" stroke-linecap="round" stroke-linejoin="round" stroke-dasharray="6.12 2.44"/>
<path d="M488.512 317.212L490.567 315.036" stroke="#ECECEC" stroke-width="1.20889" stroke-linecap="round" stroke-linejoin="round"/>
<path d="M314.553 398.572L316.608 396.396" stroke="#ECECEC" stroke-width="1.20889" stroke-linecap="round" stroke-linejoin="round"/>
<path d="M318.421 394.702L335.709 377.415" stroke="#ECECEC" stroke-width="1.20889" stroke-linecap="round" stroke-linejoin="round" stroke-dasharray="6.12 2.44"/>
<path d="M336.555 376.449L338.731 374.394" stroke="#ECECEC" stroke-width="1.20889" stroke-linecap="round" stroke-linejoin="round"/>
<path d="M406.549 384.427L408.725 382.251" stroke="#ECECEC" stroke-width="1.20889" stroke-linecap="round" stroke-linejoin="round"/>
<path d="M410.418 380.558L427.705 363.15" stroke="#ECECEC" stroke-width="1.20889" stroke-linecap="round" stroke-linejoin="round" stroke-dasharray="6.12 2.44"/>
<path d="M428.672 362.304L430.727 360.249" stroke="#ECECEC" stroke-width="1.20889" stroke-linecap="round" stroke-linejoin="round"/>
<path d="M380.921 332.202L382.976 330.026" stroke="#ECECEC" stroke-width="1.20889" stroke-linecap="round" stroke-linejoin="round"/>
<path d="M384.789 328.334L402.076 311.047" stroke="#ECECEC" stroke-width="1.20889" stroke-linecap="round" stroke-linejoin="round" stroke-dasharray="6.12 2.44"/>
<path d="M402.922 310.2L405.098 308.024" stroke="#ECECEC" stroke-width="1.20889" stroke-linecap="round" stroke-linejoin="round"/>
<path d="M371.733 325.554L373.909 323.378" stroke="#ECECEC" stroke-width="1.20889" stroke-linecap="round" stroke-linejoin="round"/>
<path d="M375.481 321.686L386.24 310.927" stroke="#ECECEC" stroke-width="1.20889" stroke-linecap="round" stroke-linejoin="round" stroke-dasharray="5.85 2.35"/>
<path d="M387.086 310.2L389.262 308.024" stroke="#ECECEC" stroke-width="1.20889" stroke-linecap="round" stroke-linejoin="round"/>
<path d="M453.817 229.568L454.421 237.789L446.08 237.305L446.563 245.647L438.343 245.042L438.826 253.383L430.606 252.779L431.089 261.12L422.748 260.637L423.353 268.857L415.011 268.374" stroke="#ECECEC" stroke-width="1.20889" stroke-linecap="round" stroke-linejoin="round"/>
<path d="M447.894 265.23L449.949 263.054" stroke="#ECECEC" stroke-width="1.20889" stroke-linecap="round" stroke-linejoin="round"/>
<path d="M451.762 261.361L469.049 243.953" stroke="#ECECEC" stroke-width="1.20889" stroke-linecap="round" stroke-linejoin="round" stroke-dasharray="6.12 2.44"/>
<path d="M469.896 243.108L472.071 241.053" stroke="#ECECEC" stroke-width="1.20889" stroke-linecap="round" stroke-linejoin="round"/>
<path d="M238.514 481.5L240.569 479.324" stroke="#ECECEC" stroke-width="1.20889" stroke-linecap="round" stroke-linejoin="round"/>
<path d="M242.382 477.632L271.758 448.256" stroke="#ECECEC" stroke-width="1.20889" stroke-linecap="round" stroke-linejoin="round" stroke-dasharray="6.12 2.44"/>
<path d="M272.604 447.409L274.78 445.233" stroke="#ECECEC" stroke-width="1.20889" stroke-linecap="round" stroke-linejoin="round"/>
<path d="M453.212 408.967L455.268 406.791" stroke="#ECECEC" stroke-width="1.20889" stroke-linecap="round" stroke-linejoin="round"/>
<path d="M456.718 405.341L471.104 390.955" stroke="#ECECEC" stroke-width="1.20889" stroke-linecap="round" stroke-linejoin="round" stroke-dasharray="5.09 2.03"/>
<path d="M471.829 390.23L474.005 388.054" stroke="#ECECEC" stroke-width="1.20889" stroke-linecap="round" stroke-linejoin="round"/>
<path d="M423.232 300.53H388.9C388.258 300.53 387.644 300.275 387.19 299.822C386.737 299.369 386.482 298.754 386.482 298.112V279.254C386.482 278.612 386.737 277.998 387.19 277.544C387.644 277.091 388.258 276.836 388.9 276.836H423.232C423.873 276.836 424.488 277.091 424.942 277.544C425.395 277.998 425.65 278.612 425.65 279.254V298.233C425.647 298.544 425.581 298.852 425.457 299.137C425.333 299.422 425.153 299.68 424.928 299.894C424.702 300.108 424.436 300.275 424.144 300.384C423.853 300.493 423.543 300.543 423.232 300.53Z" fill="#ECECEC" stroke="#231F20" stroke-width="1.20889" stroke-linecap="round" stroke-linejoin="round"/>
<path d="M425.65 282.275H386.482V285.781H425.65V282.275Z" fill="#F1BD19" stroke="#231F20" stroke-width="1.20889" stroke-linecap="round" stroke-linejoin="round"/>
<path d="M400.746 294.002H388.537V295.694H400.746V294.002Z" fill="#ECECEC" stroke="#231F20" stroke-width="1.20889" stroke-linecap="round" stroke-linejoin="round"/>
<path d="M415.858 294.002H403.648V295.694H415.858V294.002Z" fill="#ECECEC" stroke="#231F20" stroke-width="1.20889" stroke-linecap="round" stroke-linejoin="round"/>
<path d="M446.805 402.561H97.92C94.632 402.562 91.3789 401.887 88.3633 400.576C85.3476 399.266 82.6339 397.349 80.3911 394.945L79.7866 394.34V384.307H464.818V394.34L464.213 394.945C461.994 397.347 459.302 399.264 456.306 400.574C453.31 401.885 450.075 402.561 446.805 402.561Z" fill="#F2F2F4" stroke="#6E6E6E" stroke-width="2.41778" stroke-linecap="round" stroke-linejoin="round"/>
<path d="M464.939 384.307H79.9077V394.34H464.939V384.307Z" fill="#F2F2F4" stroke="#6E6E6E" stroke-width="2.41778" stroke-linecap="round" stroke-linejoin="round"/>
<path d="M272.363 389.747H302.948C306.455 389.824 309.905 388.856 312.861 386.966L316.729 384.307H227.997L231.865 386.966C234.813 388.872 238.269 389.841 241.778 389.747H272.363Z" fill="#F2F2F4" stroke="#6E6E6E" stroke-width="2.41778" stroke-linecap="round" stroke-linejoin="round"/>
<path d="M435.563 384.307H109.163V192.577C109.156 191.924 109.28 191.277 109.527 190.672C109.774 190.068 110.139 189.519 110.6 189.058C111.062 188.596 111.611 188.231 112.215 187.984C112.819 187.738 113.467 187.614 114.119 187.62H430.606C431.259 187.614 431.906 187.738 432.511 187.984C433.115 188.231 433.664 188.596 434.126 189.058C434.587 189.519 434.952 190.068 435.199 190.672C435.446 191.277 435.569 191.924 435.563 192.577V384.307Z" fill="#F2F2F4" stroke="#6E6E6E" stroke-width="2.41778" stroke-linecap="round" stroke-linejoin="round"/>
<path d="M423.716 199.587H121.131V372.216H423.716V199.587Z" fill="white" stroke="#6E6E6E" stroke-width="2.41778" stroke-miterlimit="10"/>
<path d="M174.201 200.796H122.219V371.007H174.201V200.796Z" fill="#0F7CFF"/>
<path d="M137.935 257.01C175.991 257.01 206.841 226.159 206.841 188.103C206.841 150.047 175.991 119.196 137.935 119.196C99.8784 119.196 69.0278 150.047 69.0278 188.103C69.0278 226.159 99.8784 257.01 137.935 257.01Z" fill="#F2F2F4"/>
<path d="M137.935 257.01C175.991 257.01 206.841 226.159 206.841 188.103C206.841 150.047 175.991 119.196 137.935 119.196C99.8784 119.196 69.0278 150.047 69.0278 188.103C69.0278 226.159 99.8784 257.01 137.935 257.01Z" stroke="#696992" stroke-width="3.62667" stroke-miterlimit="10"/>
<mask id="mask0_1515_330" style="mask-type:luminance" maskUnits="userSpaceOnUse" x="79" y="137" width="119" height="120">
<path d="M138.418 256.285C171.133 256.285 197.653 229.764 197.653 197.049C197.653 164.334 171.133 137.813 138.418 137.813C105.703 137.813 79.1821 164.334 79.1821 197.049C79.1821 229.764 105.703 256.285 138.418 256.285Z" fill="white"/>
</mask>
<g mask="url(#mask0_1515_330)">
<path d="M177.827 205.874C187.015 234.645 173.475 256.405 138.055 256.405C100.7 256.405 89.8203 234.645 98.6452 205.874C104.206 187.74 102.03 167.915 107.712 158.969C115.811 146.155 123.186 141.198 137.934 141.198C151.957 141.198 160.782 145.671 166.585 158.123C171.299 168.036 171.783 187.257 177.827 205.874Z" fill="#0F7CFF"/>
<path d="M137.692 141.077C123.669 141.077 116.174 145.55 107.833 158.606C104.811 163.321 104.085 171.058 103.118 180.124C102.272 187.982 101.426 197.049 98.7661 205.511C94.0515 220.622 95.1395 233.194 101.547 241.778C108.195 250.844 120.405 255.317 137.692 255.317C154.617 255.317 167.068 250.361 173.959 240.931C180.487 231.986 181.575 219.655 176.981 205.39C174.381 196.586 172.362 187.621 170.937 178.553C169.486 169.97 168.156 162.595 165.739 157.518C160.54 146.034 152.078 141.077 137.692 141.077Z" stroke="#07346B" stroke-width="1.20889" stroke-miterlimit="10"/>
<path d="M87.4023 273.088C87.4023 251.933 110.25 234.767 138.297 234.767C166.343 234.767 189.191 251.933 189.191 273.088" fill="white"/>
<path d="M87.4023 273.088C87.4023 251.933 110.25 234.767 138.297 234.767C166.343 234.767 189.191 251.933 189.191 273.088" stroke="#5D5C74" stroke-width="1.20889" stroke-miterlimit="10"/>
<path d="M149.781 176.498C138.901 176.498 129.472 172.025 124.878 165.618C123.065 172.992 117.988 178.311 111.822 179.158V202.731C111.822 211.798 117.504 223.161 126.45 228.843V237.91C126.45 242.987 129.593 250.119 138.055 250.119C146.155 250.119 149.902 242.987 149.902 237.91V229.448C159.452 224.008 164.53 212.16 164.53 202.731V172.751C162.958 175.652 159.09 176.498 149.781 176.498Z" fill="#FBD7CE"/>
<path d="M137.934 250.24C128.988 250.24 125.845 242.624 125.845 237.547V228.601C117.383 223.04 111.218 212.039 111.218 202.247V178.674C111.218 178.432 111.46 178.311 111.58 178.19C117.504 177.465 122.46 172.387 124.274 165.134C124.395 164.892 124.516 164.771 124.636 164.771C124.73 164.773 124.822 164.796 124.906 164.838C124.989 164.88 125.062 164.94 125.12 165.013C129.835 171.662 139.143 175.651 149.54 175.651C159.09 175.651 162.354 174.805 163.804 172.146C163.925 171.904 164.167 171.904 164.409 171.904C164.651 171.904 164.772 172.146 164.772 172.387V202.368C164.772 211.314 160.178 223.523 150.144 229.447V237.547C150.265 242.745 146.517 250.24 137.934 250.24ZM112.185 179.036V202.247C112.185 211.797 118.229 222.556 126.571 227.996C126.692 228.117 126.812 228.238 126.812 228.359V237.426C126.812 242.14 129.835 249.031 137.934 249.031C145.671 249.031 149.298 242.261 149.298 237.426V228.963C149.298 228.843 149.419 228.601 149.54 228.601C159.09 223.161 163.925 211.193 163.925 202.247V173.838C161.628 176.135 157.276 176.619 149.781 176.619C139.385 176.619 130.076 172.75 124.999 166.343C122.944 173.234 118.108 178.19 112.185 179.036Z" fill="#07346B"/>
<path d="M143.495 211.918C143.495 211.918 141.198 214.578 138.296 214.578C135.395 214.578 133.098 211.918 133.098 211.918C134.82 212.161 136.557 212.282 138.296 212.281C140.036 212.289 141.773 212.168 143.495 211.918Z" fill="#07346B"/>
<path d="M138.659 204.907C138.266 204.912 137.876 204.828 137.52 204.661C137.164 204.493 136.851 204.246 136.604 203.94C136.341 203.505 136.254 202.986 136.362 202.489L136.846 202.61C136.779 202.788 136.755 202.979 136.776 203.168C136.797 203.357 136.863 203.539 136.967 203.698C137.16 203.927 137.4 204.111 137.672 204.237C137.943 204.363 138.239 204.429 138.538 204.429C138.838 204.429 139.134 204.363 139.405 204.237C139.677 204.111 139.917 203.927 140.11 203.698C140.22 203.519 140.289 203.317 140.31 203.107C140.33 202.898 140.304 202.686 140.231 202.489L140.594 202.247C140.703 202.499 140.75 202.774 140.729 203.048C140.708 203.322 140.62 203.587 140.473 203.819C140.321 204.166 140.065 204.457 139.74 204.652C139.415 204.847 139.037 204.936 138.659 204.907Z" fill="#07346B"/>
<path d="M119.801 189.433C119.544 189.408 119.296 189.325 119.076 189.191C118.901 188.995 118.794 188.748 118.772 188.486C118.75 188.224 118.814 187.962 118.955 187.74C119.549 187.089 120.28 186.578 121.095 186.244C121.91 185.909 122.789 185.76 123.669 185.806C124.358 185.848 125.026 186.056 125.616 186.415C126.206 186.773 126.7 187.269 127.054 187.861C127.214 188.086 127.279 188.365 127.234 188.637C127.188 188.909 127.037 189.152 126.812 189.312C126.588 189.472 126.309 189.537 126.037 189.491C125.765 189.446 125.522 189.294 125.362 189.07C125.162 188.763 124.894 188.506 124.58 188.317C124.266 188.129 123.913 188.014 123.548 187.982C122.985 187.934 122.419 188.018 121.894 188.228C121.369 188.438 120.901 188.768 120.526 189.191C120.306 189.325 120.058 189.408 119.801 189.433Z" fill="#07346B"/>
<path d="M157.76 189.433C157.503 189.408 157.255 189.325 157.034 189.191C156.612 188.762 156.101 188.432 155.537 188.223C154.973 188.014 154.37 187.932 153.77 187.982C153.323 188.005 152.886 188.125 152.489 188.334C152.093 188.543 151.746 188.835 151.474 189.191C151.313 189.415 151.07 189.567 150.798 189.612C150.526 189.658 150.247 189.593 150.023 189.433C149.798 189.272 149.647 189.03 149.602 188.758C149.556 188.485 149.621 188.207 149.781 187.982C150.242 187.393 150.828 186.914 151.497 186.579C152.166 186.245 152.902 186.063 153.65 186.048C154.549 185.989 155.45 186.133 156.286 186.467C157.123 186.802 157.874 187.32 158.485 187.982C158.661 188.183 158.758 188.441 158.758 188.707C158.758 188.974 158.661 189.232 158.485 189.433C158.243 189.312 158.002 189.433 157.76 189.433Z" fill="#07346B"/>
</g>
<path d="M92.9638 131.889L90.3042 128.263" stroke="white" stroke-width="2.41778" stroke-miterlimit="10"/>
<path d="M88.974 126.57L86.3145 122.822" stroke="white" stroke-width="2.41778" stroke-miterlimit="10"/>
<path d="M85.1059 121.251L82.4463 117.504" stroke="white" stroke-width="2.41778" stroke-miterlimit="10"/>
<path d="M81.237 115.932L78.4565 112.185" stroke="white" stroke-width="2.41778" stroke-miterlimit="10"/>
<path d="M77.2482 110.493L74.4678 106.866" stroke="white" stroke-width="2.41778" stroke-miterlimit="10"/>
<path d="M73.2587 105.173L70.5991 101.426" stroke="white" stroke-width="2.41778" stroke-miterlimit="10"/>
<path d="M69.3903 99.854L66.6099 96.1064" stroke="white" stroke-width="2.41778" stroke-miterlimit="10"/>
<path d="M68.9067 269.944L72.1707 266.56" stroke="white" stroke-width="2.41778" stroke-miterlimit="10"/>
<path d="M73.6211 265.11L76.7642 261.725" stroke="white" stroke-width="2.41778" stroke-miterlimit="10"/>
<path d="M78.0942 260.394L81.3582 256.889" stroke="white" stroke-width="2.41778" stroke-miterlimit="10"/>
<path d="M82.8091 255.559L85.9522 252.054" stroke="white" stroke-width="2.41778" stroke-miterlimit="10"/>
<path d="M87.4023 250.723L90.5455 247.338" stroke="white" stroke-width="2.41778" stroke-miterlimit="10"/>
<path d="M197.17 139.868L200.797 136.967" stroke="white" stroke-width="2.41778" stroke-miterlimit="10"/>
<path d="M202.247 135.758L205.874 132.735" stroke="white" stroke-width="2.41778" stroke-miterlimit="10"/>
<path d="M207.445 131.406L210.951 128.505" stroke="white" stroke-width="2.41778" stroke-miterlimit="10"/>
<path d="M212.522 127.175L216.028 124.273" stroke="white" stroke-width="2.41778" stroke-miterlimit="10"/>
<path d="M217.6 123.065L221.227 120.164" stroke="white" stroke-width="2.41778" stroke-miterlimit="10"/>
<path d="M240.086 123.79C251.836 123.79 261.362 114.264 261.362 102.514C261.362 90.7631 251.836 81.2373 240.086 81.2373C228.335 81.2373 218.809 90.7631 218.809 102.514C218.809 114.264 228.335 123.79 240.086 123.79Z" fill="white" stroke="#696992" stroke-width="2.41778" stroke-miterlimit="10"/>
<path d="M232.59 103.602C232.641 103.836 232.638 104.079 232.583 104.313C232.527 104.546 232.42 104.764 232.27 104.951C232.119 105.138 231.928 105.289 231.712 105.392C231.495 105.495 231.258 105.549 231.018 105.549C230.779 105.549 230.542 105.495 230.325 105.392C230.109 105.289 229.918 105.138 229.767 104.951C229.617 104.764 229.51 104.546 229.454 104.313C229.399 104.079 229.396 103.836 229.447 103.602C229.447 103.185 229.612 102.785 229.907 102.491C230.202 102.196 230.602 102.03 231.018 102.03C231.435 102.03 231.835 102.196 232.13 102.491C232.424 102.785 232.59 103.185 232.59 103.602Z" fill="#FACAB8"/>
<path d="M231.019 105.778C230.507 105.711 230.042 105.445 229.725 105.038C229.408 104.63 229.265 104.114 229.327 103.602C229.298 103.367 229.321 103.129 229.394 102.904C229.468 102.68 229.589 102.474 229.75 102.301C229.912 102.128 230.109 101.993 230.328 101.904C230.547 101.816 230.783 101.776 231.019 101.788C231.252 101.786 231.484 101.832 231.698 101.924C231.913 102.016 232.106 102.151 232.265 102.322C232.424 102.493 232.546 102.695 232.623 102.915C232.7 103.135 232.73 103.369 232.711 103.602C232.756 103.857 232.747 104.12 232.684 104.372C232.621 104.623 232.506 104.859 232.347 105.064C232.188 105.269 231.987 105.439 231.758 105.561C231.53 105.684 231.278 105.758 231.019 105.778ZM231.019 102.272C230.85 102.271 230.682 102.306 230.527 102.374C230.371 102.442 230.232 102.542 230.118 102.668C230.004 102.793 229.918 102.941 229.865 103.102C229.812 103.263 229.793 103.433 229.81 103.602C229.81 104.569 230.415 105.294 231.019 105.294C231.623 105.294 232.228 104.569 232.228 103.602C232.272 103.429 232.273 103.248 232.23 103.075C232.187 102.902 232.102 102.743 231.982 102.611C231.862 102.479 231.711 102.379 231.543 102.32C231.375 102.261 231.195 102.244 231.019 102.272Z" fill="#07346B"/>
<path d="M236.701 114.361C234.041 113.394 232.832 110.734 231.865 106.745C231.256 104.624 230.971 102.423 231.019 100.217C231.019 93.568 234.525 91.0293 239.965 91.0293C245.405 91.0293 249.152 92.48 249.152 99.1288C249.152 109.163 245.888 115.086 239.965 115.086" fill="#FBD7CE"/>
<path d="M239.964 115.449C239.9 115.449 239.839 115.423 239.793 115.378C239.748 115.333 239.722 115.271 239.722 115.207C239.722 115.143 239.748 115.081 239.793 115.036C239.839 114.991 239.9 114.965 239.964 114.965C245.646 114.965 248.91 109.284 248.91 99.3706C248.91 92.8426 245.283 91.5128 239.964 91.5128C237.646 91.3703 235.36 92.1038 233.557 93.568C231.986 95.0186 231.26 97.3155 231.26 100.459C231.204 102.665 231.489 104.867 232.106 106.987C233.436 112.185 234.887 113.636 236.821 114.361C236.942 114.482 237.063 114.603 236.942 114.603C236.821 114.603 236.7 114.844 236.7 114.724C233.92 113.756 232.711 111.097 231.744 107.108C231.119 104.948 230.833 102.705 230.898 100.459C230.898 94.1724 233.92 91.0293 240.085 91.0293C245.042 91.0293 249.635 91.9964 249.635 99.3706C249.514 109.525 246.009 115.449 239.964 115.449Z" fill="#07346B"/>
<path d="M240.085 106.503H239.843C239.635 106.47 239.438 106.386 239.27 106.26C239.101 106.134 238.966 105.968 238.876 105.777C238.755 105.657 238.876 105.536 238.997 105.415C239.118 105.294 239.239 105.415 239.36 105.536C239.428 105.637 239.517 105.721 239.622 105.784C239.726 105.847 239.843 105.886 239.964 105.898C240.111 105.963 240.276 105.974 240.431 105.93C240.586 105.886 240.72 105.789 240.81 105.657C240.87 105.567 240.902 105.462 240.902 105.354C240.902 105.247 240.87 105.142 240.81 105.052C240.285 104.047 240.034 102.921 240.085 101.788C240.085 101.667 240.206 101.546 240.327 101.667C240.448 101.788 240.569 101.788 240.448 101.909C240.473 102.918 240.72 103.909 241.173 104.81C241.291 104.967 241.354 105.158 241.354 105.354C241.354 105.551 241.291 105.741 241.173 105.898C241.08 106.102 240.924 106.27 240.728 106.379C240.532 106.488 240.307 106.531 240.085 106.503Z" fill="#07346B"/>
<path d="M235.129 102.031C235.008 102.031 235.008 102.031 235.008 101.91C234.981 101.889 234.958 101.861 234.943 101.83C234.927 101.798 234.919 101.764 234.919 101.729C234.919 101.694 234.927 101.659 234.943 101.628C234.958 101.596 234.981 101.569 235.008 101.547C235.162 101.384 235.35 101.256 235.559 101.172C235.768 101.089 235.992 101.052 236.217 101.064C236.387 101.067 236.554 101.113 236.702 101.197C236.85 101.282 236.974 101.402 237.063 101.547C237.184 101.668 237.184 101.789 236.942 101.91C236.701 102.031 236.701 102.031 236.58 101.789C236.522 101.715 236.449 101.655 236.365 101.614C236.282 101.572 236.19 101.549 236.096 101.547C235.955 101.543 235.815 101.574 235.688 101.638C235.561 101.701 235.452 101.794 235.371 101.91C235.25 102.031 235.25 102.031 235.129 102.031Z" fill="#07346B"/>
<path d="M244.921 102.031C244.8 102.031 244.8 102.031 244.8 101.91C244.571 101.69 244.27 101.561 243.954 101.547C243.697 101.572 243.449 101.655 243.228 101.789C243.196 101.853 243.14 101.902 243.072 101.925C243.004 101.947 242.93 101.942 242.866 101.91C242.802 101.878 242.753 101.822 242.73 101.754C242.708 101.686 242.713 101.611 242.745 101.547C242.995 101.27 243.34 101.098 243.712 101.064C243.936 101.052 244.161 101.089 244.37 101.172C244.579 101.256 244.767 101.384 244.921 101.547C244.948 101.569 244.971 101.596 244.986 101.628C245.002 101.659 245.01 101.694 245.01 101.729C245.01 101.764 245.002 101.798 244.986 101.83C244.971 101.861 244.948 101.889 244.921 101.91V102.031Z" fill="#07346B"/>
<path d="M239.965 109.767C239.678 109.803 239.388 109.753 239.13 109.624C238.871 109.495 238.657 109.293 238.514 109.042C238.393 108.921 238.393 108.8 238.635 108.679C238.877 108.559 238.877 108.559 238.998 108.8C239.344 109.063 239.773 109.192 240.206 109.163C240.445 109.194 240.688 109.153 240.903 109.046C241.119 108.938 241.297 108.768 241.415 108.559C241.431 108.527 241.453 108.499 241.48 108.475C241.507 108.452 241.538 108.434 241.572 108.423C241.605 108.412 241.641 108.407 241.676 108.41C241.712 108.412 241.746 108.422 241.778 108.438C241.81 108.454 241.838 108.476 241.861 108.502C241.885 108.529 241.902 108.56 241.914 108.594C241.925 108.628 241.929 108.663 241.927 108.699C241.924 108.734 241.915 108.769 241.899 108.8C241.685 109.035 241.423 109.221 241.131 109.346C240.839 109.472 240.524 109.533 240.206 109.526L239.965 109.767Z" fill="#07346B"/>
<path d="M248.427 106.02C249.026 105.99 249.594 105.739 250.018 105.314C250.443 104.89 250.694 104.322 250.724 103.723C250.845 102.514 249.636 102.151 248.789 102.272" fill="#FACAB8"/>
<path d="M248.547 106.262H248.426C248.362 106.262 248.301 106.236 248.255 106.191C248.21 106.145 248.185 106.084 248.185 106.02C248.185 105.956 248.21 105.894 248.255 105.849C248.301 105.803 248.362 105.778 248.426 105.778C248.642 105.802 248.86 105.783 249.068 105.72C249.276 105.658 249.469 105.554 249.635 105.415C250.091 104.969 250.351 104.361 250.361 103.723C250.372 103.422 250.287 103.126 250.119 102.877C249.727 102.615 249.26 102.488 248.789 102.514C248.725 102.514 248.663 102.489 248.618 102.443C248.573 102.398 248.547 102.336 248.547 102.272C248.547 102.208 248.573 102.147 248.618 102.101C248.663 102.056 248.725 102.03 248.789 102.03C249.089 101.97 249.399 101.983 249.694 102.067C249.988 102.151 250.258 102.304 250.481 102.514C250.654 102.661 250.788 102.848 250.872 103.059C250.956 103.269 250.988 103.497 250.965 103.723C250.871 104.494 250.532 105.214 249.998 105.778C249.583 106.098 249.072 106.269 248.547 106.262Z" fill="#07346B"/>
<path d="M55.488 101.789C67.5057 101.789 77.248 92.0463 77.248 80.0285C77.248 68.0108 67.5057 58.2686 55.488 58.2686C43.4703 58.2686 33.728 68.0108 33.728 80.0285C33.728 92.0463 43.4703 101.789 55.488 101.789Z" fill="white" stroke="#696992" stroke-width="2.41778" stroke-miterlimit="10"/>
<path d="M55.488 303.189C67.5057 303.189 77.248 293.447 77.248 281.429C77.248 269.411 67.5057 259.669 55.488 259.669C43.4703 259.669 33.728 269.411 33.728 281.429C33.728 293.447 43.4703 303.189 55.488 303.189Z" fill="white" stroke="#696992" stroke-width="2.41778" stroke-miterlimit="10"/>
<path d="M51.7404 95.2602C48.3555 94.0514 47.0258 90.6665 45.696 86.0727C44.9813 83.4343 44.6555 80.7057 44.7289 77.9731C44.7289 69.8736 48.96 66.7305 55.8507 66.7305C62.7413 66.7305 67.2142 68.4229 67.2142 76.7642C67.2142 89.0949 63.104 96.3482 55.8507 96.3482" fill="#FBD7CE"/>
<path d="M55.7297 96.59C55.6656 96.59 55.6041 96.5646 55.5588 96.5192C55.5134 96.4739 55.4879 96.4124 55.4879 96.3482C55.4879 96.2841 55.5134 96.2226 55.5588 96.1773C55.6041 96.1319 55.6656 96.1065 55.7297 96.1065C62.7413 96.1065 66.8515 88.974 66.8515 76.8851C66.8515 68.7856 62.3786 67.214 55.7297 67.214C52.2239 67.214 49.6853 67.9394 47.8719 69.7527C46.0586 71.566 45.0915 74.4674 45.0915 78.2149C45.0623 80.9054 45.3875 83.588 46.0586 86.1936C47.751 92.7216 49.5644 94.414 51.8613 95.2602C51.9822 95.3811 52.103 95.502 52.103 95.6229C52.103 95.7438 51.8613 95.8647 51.7404 95.8647C48.3555 94.6558 46.9048 91.3918 45.575 86.3145C44.8005 83.6861 44.4335 80.9545 44.487 78.2149C44.487 70.478 48.1137 66.7305 55.8506 66.7305C61.895 66.7305 67.4559 67.9394 67.4559 77.006C67.335 89.2158 63.1039 96.59 55.7297 96.59Z" fill="#07346B"/>
<path d="M55.8506 85.7099H55.4879C55.0163 85.6073 54.5915 85.3524 54.279 84.9846C54.247 84.9204 54.2417 84.8462 54.2644 84.7782C54.287 84.7102 54.3358 84.654 54.3999 84.6219C54.464 84.5898 54.5383 84.5846 54.6063 84.6072C54.6743 84.6299 54.7305 84.6787 54.7626 84.7428C54.9418 84.9823 55.1979 85.153 55.4879 85.2263C55.676 85.2672 55.8706 85.2667 56.0585 85.2249C56.2463 85.1832 56.4229 85.1012 56.5759 84.9846C56.6968 84.7428 56.6968 84.6219 56.455 84.2592C55.8233 82.9809 55.4925 81.5749 55.4879 80.149C55.6088 80.0281 55.7297 79.9072 55.8506 79.9072C55.9715 79.9072 56.0924 80.149 56.0924 80.2699C56.1575 81.5331 56.487 82.7686 57.0595 83.8966C57.1786 84.0979 57.2415 84.3275 57.2415 84.5614C57.2415 84.7954 57.1786 85.025 57.0595 85.2263C56.9386 85.4681 56.5759 85.7099 55.8506 85.7099Z" fill="#07346B"/>
<path d="M49.8066 80.0284C49.6857 80.0284 49.6857 80.0284 49.5648 79.9075C49.5372 79.8861 49.5148 79.8586 49.4994 79.8271C49.4841 79.7957 49.4761 79.7612 49.4761 79.7262C49.4761 79.6912 49.4841 79.6567 49.4994 79.6253C49.5148 79.5939 49.5372 79.5664 49.5648 79.5449C49.7435 79.3389 49.9674 79.1772 50.2191 79.0723C50.4708 78.9674 50.7434 78.9223 51.0154 78.9404C51.4517 79.0476 51.8367 79.3043 52.1034 79.6658C52.2243 79.7867 52.2243 80.0284 51.9826 80.0284C51.7408 80.0284 51.6199 80.1493 51.6199 79.9075C51.6199 79.6658 51.2572 79.6658 51.0154 79.5449C50.6583 79.5358 50.3115 79.6659 50.0483 79.9075C49.9275 80.0284 49.9274 80.0284 49.8066 80.0284Z" fill="#07346B"/>
<path d="M61.6536 80.0283C61.5327 80.0283 61.5327 80.0283 61.4119 79.9074C61.1024 79.6636 60.7177 79.5353 60.3239 79.5447C60.1824 79.5407 60.0422 79.5717 59.9157 79.635C59.7891 79.6983 59.6802 79.7918 59.5985 79.9074C59.5665 79.9715 59.5102 80.0203 59.4422 80.043C59.3742 80.0656 59.3 80.0603 59.2359 80.0283C59.1717 79.9962 59.123 79.94 59.1003 79.872C59.0776 79.804 59.0829 79.7297 59.115 79.6656C59.2544 79.4765 59.4366 79.3232 59.6468 79.2181C59.8569 79.113 60.0889 79.0593 60.3239 79.0612C60.5955 79.0467 60.867 79.0934 61.1181 79.1981C61.3692 79.3027 61.5935 79.4625 61.7745 79.6656C61.8021 79.6871 61.8245 79.7146 61.8399 79.746C61.8552 79.7774 61.8632 79.812 61.8632 79.847C61.8632 79.8819 61.8552 79.9165 61.8399 79.9479C61.8245 79.9793 61.8021 80.0068 61.7745 80.0283H61.6536Z" fill="#07346B"/>
<path d="M55.6088 89.458C55.2882 89.4918 54.9643 89.4429 54.668 89.3159C54.3717 89.1889 54.1129 88.9881 53.9163 88.7326C53.7954 88.6118 53.7954 88.37 54.0372 88.37C54.279 88.37 54.3999 88.2491 54.3999 88.4909C54.5652 88.6739 54.7729 88.8136 55.0047 88.8979C55.2365 88.9822 55.4854 89.0085 55.7297 88.9744C56.016 89.0101 56.3066 88.9603 56.5647 88.8312C56.8229 88.7022 57.037 88.4996 57.1803 88.2491C57.3012 88.1282 57.4221 88.0073 57.543 88.1282C57.6639 88.2491 57.7848 88.37 57.6639 88.4909C57.4362 88.8181 57.1265 89.0798 56.7658 89.2496C56.4051 89.4193 56.006 89.4912 55.6088 89.458Z" fill="#07346B"/>
<path d="M45.6961 85.1056C45.3428 85.0676 45.0009 84.9578 44.6915 84.7831C44.3821 84.6083 44.1115 84.3723 43.8965 84.0893C43.6815 83.8064 43.5265 83.4826 43.441 83.1376C43.3555 82.7927 43.3413 82.434 43.3992 82.0834C43.4661 81.8059 43.5903 81.5454 43.7639 81.3189C43.9375 81.0923 44.1566 80.9047 44.4072 80.768C44.6578 80.6313 44.9342 80.5487 45.2187 80.5254C45.5031 80.5021 45.7893 80.5386 46.0588 80.6327" fill="#FACAB8"/>
<path d="M45.6959 85.3476C44.9529 85.2783 44.2629 84.9332 43.7616 84.3805C43.475 84.0528 43.2619 83.6674 43.1368 83.2503C43.0117 82.8332 42.9774 82.3942 43.0363 81.9627C43.0976 81.4425 43.3574 80.9661 43.7616 80.633C44.1086 80.4402 44.4908 80.3195 44.8854 80.2779C45.2801 80.2364 45.6791 80.2749 46.0585 80.3912C46.1794 80.5121 46.3003 80.633 46.3003 80.7539C46.3003 80.8747 46.0585 80.9956 45.9376 80.9956C45.6547 80.9121 45.3571 80.8905 45.0651 80.9322C44.7731 80.9739 44.4934 81.078 44.2452 81.2374C43.9499 81.4907 43.739 81.8281 43.6408 82.2045C43.5905 82.5703 43.6183 82.9427 43.7225 83.2969C43.8267 83.6512 44.0049 83.9793 44.2452 84.2596C44.4077 84.4915 44.6255 84.6793 44.8787 84.8059C45.132 84.9325 45.4128 84.9941 45.6959 84.985C45.8168 84.985 45.9376 85.1059 45.9376 85.3476H45.6959Z" fill="#07346B"/>
<path d="M66.0054 84.9852C66.7399 84.9758 67.4416 84.6798 67.9611 84.1604C68.4805 83.641 68.7764 82.9392 68.7858 82.2047C68.7927 81.9248 68.732 81.6473 68.6088 81.3959C68.4857 81.1444 68.3036 80.9264 68.0782 80.7603C67.8528 80.5942 67.5906 80.4849 67.3139 80.4417C67.0372 80.3985 66.7542 80.4227 66.4889 80.5123" fill="#FACAB8"/>
<path d="M66.2472 85.3476H66.0054C65.8846 85.3476 65.7637 85.2267 65.7637 84.9849C65.7637 84.7431 65.8846 84.7431 66.1263 84.7431C66.3893 84.7882 66.6592 84.7677 66.9123 84.6833C67.1654 84.5989 67.3937 84.4534 67.577 84.2596C67.8839 84.0132 68.1306 83.7 68.2982 83.3438C68.4657 82.9877 68.5499 82.598 68.5441 82.2045C68.5532 81.8473 68.4231 81.5005 68.1814 81.2374C67.9483 81.047 67.6732 80.9149 67.379 80.8519C67.0847 80.7888 66.7797 80.7966 66.489 80.8747C66.3681 80.8747 66.2472 80.7538 66.1263 80.6329C66.0054 80.512 66.2472 80.3911 66.3681 80.2702C66.7625 80.2015 67.1678 80.2318 67.5476 80.3584C67.9274 80.485 68.2698 80.704 68.5441 80.9956C68.9145 81.3901 69.1292 81.9055 69.1486 82.4462C69.0722 83.3778 68.6392 84.244 67.9397 84.864C67.4192 85.1507 66.8406 85.316 66.2472 85.3476Z" fill="#07346B"/>
<path d="M441.728 412.715H417.913C417.084 412.73 416.294 413.066 415.708 413.653C415.122 414.239 414.786 415.029 414.77 415.858V428.551C414.786 429.38 415.122 430.171 415.708 430.757C416.294 431.343 417.084 431.679 417.913 431.694H419.847C419.823 433.49 419.134 435.213 417.913 436.53C417.792 436.668 417.71 436.835 417.676 437.015C417.641 437.195 417.655 437.381 417.717 437.554C417.779 437.727 417.885 437.88 418.026 437.997C418.167 438.115 418.337 438.193 418.518 438.222C423.474 438.706 426.738 435.2 426.738 431.815H441.607C442.436 431.8 443.227 431.464 443.813 430.878C444.399 430.291 444.735 429.501 444.75 428.672V415.858C444.767 415.451 444.701 415.045 444.556 414.664C444.411 414.283 444.191 413.936 443.909 413.642C443.627 413.349 443.288 413.115 442.913 412.956C442.539 412.797 442.135 412.715 441.728 412.715Z" fill="#0F7CFF"/>
<path d="M359.282 431.693C356.784 431.695 354.376 432.623 352.522 434.298C350.669 435.973 349.502 438.275 349.248 440.76H360.853C361.381 440.762 361.899 440.616 362.348 440.338C362.797 440.061 363.159 439.662 363.392 439.189L363.755 438.463L364.601 439.672C364.863 440.031 365.21 440.318 365.611 440.508C366.012 440.698 366.455 440.785 366.898 440.76H369.195C368.985 438.279 367.848 435.969 366.011 434.288C364.174 432.608 361.771 431.682 359.282 431.693Z" fill="#0F7CFF"/>
<path d="M372.58 457.444C370.902 459.308 368.851 460.798 366.56 461.818C364.27 462.838 361.79 463.365 359.282 463.365C356.774 463.365 354.295 462.838 352.004 461.818C349.713 460.798 347.662 459.308 345.984 457.444C347.004 456.328 348.295 455.495 349.732 455.026L355.172 453.213C355.527 453.104 355.904 453.091 356.265 453.176C356.626 453.261 356.958 453.441 357.227 453.696L357.831 454.301C358.016 454.501 358.24 454.662 358.49 454.771C358.74 454.881 359.009 454.938 359.282 454.938C359.555 454.938 359.825 454.881 360.074 454.771C360.324 454.662 360.548 454.501 360.733 454.301L361.337 453.696C361.593 453.421 361.925 453.228 362.291 453.142C362.657 453.056 363.04 453.081 363.392 453.213L368.832 455.026C370.269 455.495 371.56 456.328 372.58 457.444Z" fill="#0F7CFF"/>
<path d="M475.698 269.34L477.027 271.999C477.223 272.427 477.527 272.797 477.908 273.072C478.289 273.348 478.736 273.519 479.203 273.571L482.226 274.054C482.748 274.132 483.238 274.355 483.641 274.696C484.044 275.037 484.344 275.484 484.507 275.986C484.671 276.488 484.691 277.026 484.565 277.539C484.44 278.052 484.174 278.52 483.797 278.89L481.621 280.945C481.277 281.262 481.019 281.661 480.871 282.105C480.723 282.549 480.69 283.024 480.775 283.484L481.258 286.506C481.343 287.027 481.282 287.561 481.083 288.049C480.883 288.538 480.553 288.962 480.128 289.274C479.703 289.587 479.2 289.776 478.674 289.821C478.148 289.866 477.62 289.764 477.148 289.528L474.489 288.078C474.086 287.84 473.627 287.715 473.159 287.715C472.691 287.715 472.232 287.84 471.829 288.078L469.17 289.528C468.698 289.764 468.17 289.866 467.644 289.821C467.118 289.776 466.615 289.587 466.19 289.274C465.765 288.962 465.434 288.538 465.235 288.049C465.035 287.561 464.975 287.027 465.059 286.506L465.543 283.484C465.618 283.024 465.58 282.552 465.433 282.11C465.286 281.668 465.033 281.268 464.697 280.945L462.521 278.89C462.144 278.52 461.878 278.052 461.753 277.539C461.627 277.026 461.647 276.488 461.81 275.986C461.974 275.484 462.274 275.037 462.677 274.696C463.08 274.355 463.57 274.132 464.092 274.054L467.114 273.571C467.576 273.502 468.015 273.323 468.393 273.049C468.772 272.776 469.08 272.416 469.29 271.999L470.62 269.34C470.863 268.876 471.228 268.488 471.675 268.217C472.123 267.946 472.636 267.803 473.159 267.803C473.682 267.803 474.195 267.946 474.643 268.217C475.09 268.488 475.455 268.876 475.698 269.34Z" fill="white"/>
<path d="M363.15 256.888H293.156V234.645C293.156 232.08 294.175 229.62 295.988 227.806C297.802 225.993 300.262 224.974 302.827 224.974H363.15C365.715 224.974 368.175 225.993 369.989 227.806C371.803 229.62 372.822 232.08 372.822 234.645V247.217C372.822 249.782 371.803 252.242 369.989 254.056C368.175 255.869 365.715 256.888 363.15 256.888Z" fill="#0F7CFF"/>
<path d="M396.515 252.053C394.316 252.053 392.165 251.401 390.336 250.179C388.507 248.957 387.082 247.22 386.24 245.187C385.398 243.155 385.178 240.919 385.607 238.762C386.036 236.604 387.096 234.622 388.651 233.067C390.206 231.512 392.188 230.452 394.346 230.023C396.503 229.594 398.739 229.814 400.771 230.656C402.804 231.498 404.541 232.923 405.763 234.752C406.985 236.581 407.637 238.732 407.637 240.931C407.634 243.88 406.461 246.707 404.376 248.792C402.291 250.877 399.464 252.05 396.515 252.053ZM396.515 232.227C394.794 232.227 393.111 232.738 391.68 233.694C390.248 234.651 389.133 236.01 388.474 237.6C387.815 239.191 387.643 240.941 387.979 242.629C388.314 244.318 389.143 245.869 390.361 247.086C391.578 248.303 393.129 249.132 394.817 249.468C396.506 249.804 398.256 249.632 399.846 248.973C401.437 248.314 402.796 247.198 403.752 245.767C404.709 244.336 405.219 242.653 405.219 240.931C405.216 238.624 404.298 236.412 402.666 234.78C401.035 233.149 398.823 232.231 396.515 232.227Z" fill="#0F7CFF"/>
<path d="M363.15 346.346H293.156V324.103C293.156 321.538 294.175 319.078 295.988 317.264C297.802 315.451 300.262 314.432 302.827 314.432H363.15C365.715 314.432 368.175 315.451 369.989 317.264C371.803 319.078 372.822 321.538 372.822 324.103V336.675C372.822 339.24 371.803 341.7 369.989 343.514C368.175 345.327 365.715 346.346 363.15 346.346Z" fill="#0F7CFF"/>
<path d="M396.515 341.511C394.316 341.511 392.165 340.859 390.336 339.637C388.507 338.415 387.082 336.678 386.24 334.645C385.398 332.613 385.178 330.377 385.607 328.22C386.036 326.062 387.096 324.08 388.651 322.525C390.206 320.97 392.188 319.91 394.346 319.481C396.503 319.052 398.739 319.272 400.771 320.114C402.804 320.956 404.541 322.381 405.763 324.21C406.985 326.039 407.637 328.19 407.637 330.389C407.634 333.338 406.461 336.165 404.376 338.25C402.291 340.335 399.464 341.508 396.515 341.511ZM396.515 321.685C394.794 321.685 393.111 322.196 391.68 323.152C390.248 324.109 389.133 325.468 388.474 327.058C387.815 328.649 387.643 330.399 387.979 332.087C388.314 333.776 389.143 335.327 390.361 336.544C391.578 337.761 393.129 338.59 394.817 338.926C396.506 339.262 398.256 339.09 399.846 338.431C401.437 337.772 402.796 336.656 403.752 335.225C404.709 333.794 405.219 332.111 405.219 330.389C405.216 328.082 404.298 325.87 402.666 324.238C401.035 322.607 398.823 321.689 396.515 321.685Z" fill="#0F7CFF"/>
<path d="M48.1137 71.083C49.6853 72.7754 52.4657 74.9514 58.9937 75.435C61.895 75.6768 63.9502 75.1932 64.9173 76.4021C66.0548 78.0661 66.5685 80.0782 66.3679 82.0839C66.247 82.8092 68.6648 79.9079 68.6648 79.9079C67.6977 78.4572 69.6319 75.1932 69.0275 70.8412C68.7857 69.0279 65.0382 65.0385 59.719 63.7088C57.6286 63.0746 55.4033 63.0327 53.2905 63.5876C51.1777 64.1425 49.2601 65.2724 47.751 66.8519C46.4213 68.0607 44.6079 67.5772 43.1573 70.4785C41.9484 73.1381 44.0035 78.0945 43.6408 79.6661C43.5199 80.3914 44.1244 80.1496 45.575 81.963C46.1795 82.6883 46.3004 79.787 46.3004 78.2154C46.7546 75.8022 47.3602 73.4201 48.1137 71.083Z" fill="#0F7CFF"/>
<path d="M66.3681 82.4463C66.2765 82.4335 66.1915 82.3911 66.1263 82.3254C66.0054 82.2045 66.0054 82.2045 66.0054 82.0836C66.2115 80.1706 65.741 78.2459 64.6757 76.6436C63.9503 75.9183 62.9832 75.9183 61.1699 75.9183C60.4024 75.9324 59.6348 75.892 58.873 75.7974C52.7077 75.4347 49.8063 73.3796 48.2348 71.6872C47.5577 73.8323 46.9928 76.0113 46.5423 78.2152C46.5423 78.457 46.4214 78.9405 46.4214 79.1823C46.3006 81.6001 46.1797 82.4463 45.5752 82.4463C45.4543 82.4463 45.3334 82.3254 45.2126 82.2045C44.7613 81.6897 44.2767 81.2052 43.7619 80.7539C43.5585 80.6604 43.3902 80.5045 43.2815 80.3089C43.1727 80.1132 43.1293 79.8879 43.1574 79.6659C43.1788 78.7657 43.0564 77.8679 42.7948 77.0063C42.4321 74.8303 41.8277 72.2916 42.6739 70.4783C42.9248 69.7898 43.3438 69.1748 43.8927 68.6893C44.4415 68.2037 45.103 67.8629 45.817 67.6979C46.3616 67.5366 46.8592 67.2463 47.2677 66.8516C48.3873 65.7094 49.7224 64.8007 51.1958 64.1781C52.6691 63.5556 54.2513 63.2316 55.8508 63.225C57.0769 63.207 58.2989 63.37 59.4774 63.7085C61.9096 64.4116 64.1722 65.6047 66.1263 67.2143C67.4846 68.1845 68.4666 69.5935 68.9068 71.2036C69.0471 73.1855 68.9252 75.1772 68.5441 77.1272C68.3023 78.457 68.0606 79.6659 68.4232 80.1494C68.4508 80.1709 68.4732 80.1984 68.4886 80.2298C68.5039 80.2612 68.5119 80.2958 68.5119 80.3307C68.5119 80.3657 68.5039 80.4003 68.4886 80.4317C68.4732 80.4631 68.4508 80.4906 68.4232 80.5121C66.8517 82.4463 66.489 82.4463 66.3681 82.4463ZM56.0926 63.5876C54.5478 63.6016 53.0221 63.9304 51.6087 64.554C50.1953 65.1776 48.9239 66.0828 47.8721 67.2143C47.364 67.6261 46.7924 67.9527 46.1797 68.1814C45.5426 68.342 44.9552 68.6579 44.47 69.1009C43.9848 69.5439 43.6169 70.1002 43.3992 70.7201C42.6739 72.2916 43.1574 74.8303 43.641 76.8854C43.914 77.8687 44.0362 78.8877 44.0037 79.9076C43.8828 80.1494 43.8828 80.1494 44.3663 80.3912L45.6961 81.721C45.8544 80.8839 45.9353 80.0341 45.9379 79.1823C45.9379 78.8196 46.0588 78.457 46.0588 78.2152C46.4856 75.7961 47.0918 73.412 47.8721 71.0827C47.8776 71.0204 47.9048 70.9621 47.949 70.9179C47.9932 70.8736 48.0516 70.8464 48.1139 70.841C48.2348 70.841 48.3557 70.841 48.3557 70.9619C49.8063 72.6543 52.4659 74.8303 58.873 75.193C59.5937 75.2934 60.3216 75.3339 61.049 75.3139C62.8623 75.3139 64.1921 75.3139 65.0383 76.281C66.1681 77.8111 66.6855 79.7082 66.489 81.6001C66.8517 81.2374 67.4561 80.5121 68.0606 79.9076C67.8006 78.8292 67.8424 77.6999 68.1815 76.6436C68.6223 74.7838 68.7449 72.8627 68.5441 70.9619C68.3023 69.2694 64.6757 65.2801 59.4774 64.0712C58.3817 63.7326 57.2393 63.5694 56.0926 63.5876Z" fill="#07346B"/>
<path d="M49.0811 69.6318L49.2019 69.7527C49.2672 69.8184 49.3521 69.8608 49.4437 69.8736L49.6855 70.1154C49.8064 70.2363 49.9273 70.2363 49.9273 70.3572C49.9273 70.4781 50.1691 70.4781 50.2899 70.599C50.4108 70.7198 50.5317 70.7198 50.6526 70.8407C50.7735 70.9616 50.8944 71.0825 51.0153 71.0825C51.1362 71.0825 51.2571 71.2034 51.3779 71.3243C51.4988 71.4452 51.6197 71.4452 51.7406 71.5661C51.8615 71.6869 51.9824 71.687 52.1033 71.8078C52.2242 71.9287 52.3451 71.9287 52.3451 72.0496C52.4078 72.1186 52.494 72.1617 52.5868 72.1705C52.7077 72.2914 52.7077 72.2914 52.8286 72.2914C52.8914 72.3604 52.9776 72.4035 53.0704 72.4123H52.5868C52.5212 72.4202 52.4546 72.4134 52.3919 72.3925C52.3292 72.3716 52.2719 72.3371 52.2242 72.2914C52.1033 72.2914 51.9824 72.1705 51.8615 72.1705C51.8137 72.1248 51.7564 72.0903 51.6937 72.0694C51.631 72.0485 51.5645 72.0417 51.4988 72.0496C51.3779 71.9287 51.2571 71.9287 51.1362 71.8078C51.0153 71.687 50.8944 71.5661 50.7735 71.5661C50.6526 71.5661 50.5317 71.3243 50.4108 71.3243L50.0482 70.9616C49.9273 70.8407 49.8064 70.7198 49.8064 70.599C49.8064 70.4781 49.6855 70.3572 49.5646 70.2363C49.4956 70.1735 49.4525 70.0873 49.4437 69.9945C49.3228 69.8736 49.3228 69.8736 49.3228 69.7527L49.0811 69.6318Z" fill="#07346B"/>
<path d="M67.9397 282.759C67.9397 283.968 67.2144 285.056 66.2473 285.056C65.6691 284.998 65.131 284.734 64.7314 284.313C64.3318 283.891 64.0975 283.339 64.0713 282.759C64.0975 282.178 64.3318 281.627 64.7314 281.205C65.131 280.783 65.6691 280.519 66.2473 280.462C67.0935 280.462 67.9397 281.55 67.9397 282.759Z" fill="#EDEFF0"/>
<path d="M66.1266 285.298C65.4533 285.298 64.8075 285.031 64.3315 284.554C63.8554 284.078 63.5879 283.433 63.5879 282.759C63.5879 282.086 63.8554 281.44 64.3315 280.964C64.8075 280.488 65.4533 280.221 66.1266 280.221C66.7332 280.291 67.2882 280.596 67.6724 281.07C68.0567 281.545 68.2395 282.151 68.1817 282.759C68.222 283.062 68.2002 283.37 68.1174 283.665C68.0347 283.959 67.8928 284.233 67.7005 284.471C67.5081 284.709 67.2694 284.904 66.9987 285.047C66.7281 285.189 66.4313 285.274 66.1266 285.298ZM66.1266 280.825C65.6136 280.825 65.1216 281.029 64.7589 281.392C64.3961 281.754 64.1923 282.246 64.1923 282.759C64.1923 283.272 64.3961 283.764 64.7589 284.127C65.1216 284.49 65.6136 284.694 66.1266 284.694C66.9728 284.694 67.5772 283.847 67.5772 282.759C67.6204 282.536 67.6163 282.306 67.5652 282.084C67.514 281.862 67.417 281.653 67.2804 281.471C67.1438 281.289 66.9705 281.137 66.7718 281.026C66.5731 280.915 66.3533 280.846 66.1266 280.825Z" fill="#07346B"/>
<path d="M47.9931 284.692C48.0094 284.978 47.9692 285.265 47.8747 285.535C47.7801 285.805 47.6332 286.054 47.4423 286.267C47.2514 286.481 47.0202 286.654 46.7621 286.778C46.504 286.902 46.2239 286.974 45.938 286.989C45.3288 286.989 44.7446 286.747 44.3139 286.317C43.8831 285.886 43.6411 285.302 43.6411 284.692C43.6411 284.083 43.8831 283.499 44.3139 283.068C44.7446 282.637 45.3288 282.396 45.938 282.396C46.2272 282.401 46.5122 282.466 46.7751 282.586C47.0381 282.707 47.2733 282.88 47.4662 283.096C47.6591 283.312 47.8054 283.565 47.8961 283.839C47.9867 284.114 48.0198 284.404 47.9931 284.692Z" fill="#EDEFF0"/>
<path d="M46.0585 287.352C45.3531 287.352 44.6767 287.072 44.1779 286.573C43.6791 286.075 43.3989 285.398 43.3989 284.693C43.3989 283.987 43.6791 283.311 44.1779 282.812C44.6767 282.313 45.3531 282.033 46.0585 282.033C46.7093 282.098 47.3105 282.409 47.738 282.904C48.1654 283.399 48.3864 284.04 48.3554 284.693C48.3886 285.02 48.3547 285.351 48.2557 285.664C48.1567 285.978 47.9948 286.268 47.7798 286.517C47.5648 286.766 47.3012 286.969 47.0052 287.112C46.7093 287.256 46.3871 287.338 46.0585 287.352ZM46.0585 282.638C45.5255 282.674 45.0239 282.903 44.6461 283.28C44.2684 283.658 44.0401 284.16 44.0034 284.693C44.0586 285.219 44.2929 285.71 44.667 286.084C45.0411 286.458 45.5323 286.693 46.0585 286.748C46.5525 286.693 47.0057 286.448 47.3217 286.064C47.6378 285.68 47.7917 285.188 47.7509 284.693C47.7714 284.202 47.61 283.721 47.2977 283.342C46.9854 282.962 46.5441 282.712 46.0585 282.638Z" fill="#07346B"/>
<path d="M52.5865 296.178C50.1687 294.969 48.4763 292.068 47.2674 287.957C46.542 285.54 44.4869 285.661 44.4869 282.517C44.4413 280.97 44.7085 279.429 45.2725 277.987C45.8365 276.545 46.6857 275.231 47.7693 274.125C48.8528 273.019 50.1485 272.143 51.5786 271.549C53.0087 270.956 54.5439 270.657 56.0923 270.67C62.1367 270.67 66.126 272.242 66.126 279.616C66.126 290.738 61.1696 297.024 56.0923 297.024" fill="#FBD7CE"/>
<path d="M56.0926 297.266C56.0285 297.266 55.967 297.24 55.9217 297.195C55.8763 297.15 55.8509 297.088 55.8509 297.024C55.8509 296.96 55.8763 296.898 55.9217 296.853C55.967 296.808 56.0285 296.782 56.0926 296.782C60.8073 296.782 65.8846 290.738 65.8846 279.616C65.8846 272.484 62.0162 271.033 56.0926 271.033C54.5841 271.011 53.0868 271.294 51.6904 271.865C50.2939 272.437 49.0272 273.284 47.9661 274.356C46.9049 275.428 46.0713 276.704 45.5151 278.106C44.9588 279.509 44.6915 281.009 44.7291 282.517C44.7198 283.087 44.8338 283.652 45.0633 284.174C45.2929 284.696 45.6325 285.161 46.0589 285.54C46.7701 286.135 47.2773 286.938 47.5095 287.836C48.5975 291.947 50.29 294.606 52.7078 295.936C52.8286 296.057 52.9495 296.178 52.8286 296.299C52.7078 296.42 52.5869 296.54 52.466 296.42C49.9273 295.09 48.114 292.309 47.026 287.957C46.8009 287.182 46.3853 286.476 45.8171 285.902C45.3372 285.483 44.9577 284.961 44.7066 284.375C44.4555 283.789 44.3393 283.154 44.3664 282.517C44.2975 280.872 44.586 279.231 45.2121 277.707C45.8382 276.184 46.787 274.814 47.9931 273.692C50.2849 271.642 53.2595 270.521 56.3344 270.549C61.7744 270.549 66.7309 271.758 66.7309 279.737C66.9032 284.257 65.8149 288.735 63.5878 292.672C61.4118 295.573 58.7522 297.266 56.0926 297.266Z" fill="#07346B"/>
<path d="M56.2136 287.594H55.851C55.6303 287.552 55.4204 287.467 55.2335 287.342C55.0466 287.217 54.8866 287.057 54.763 286.869C54.6421 286.748 54.763 286.627 54.8839 286.507C55.0047 286.386 55.1256 286.507 55.2465 286.627C55.331 286.74 55.4405 286.831 55.5664 286.894C55.6923 286.957 55.8311 286.99 55.9719 286.99C56.1395 287.044 56.319 287.05 56.49 287.007C56.6609 286.965 56.8164 286.875 56.939 286.748C56.9987 286.659 57.0306 286.554 57.0306 286.446C57.0306 286.338 56.9987 286.233 56.939 286.144C56.379 285.011 56.0502 283.778 55.9719 282.517C56.0927 282.396 56.2136 282.275 56.3345 282.275C56.4554 282.275 56.5763 282.517 56.5763 282.638C56.5863 283.741 56.8776 284.823 57.4225 285.781C57.5406 285.961 57.6035 286.171 57.6035 286.386C57.6035 286.6 57.5406 286.811 57.4225 286.99C57.2934 287.19 57.1132 287.351 56.9006 287.457C56.688 287.564 56.4508 287.611 56.2136 287.594Z" fill="#07346B"/>
<path d="M502.898 230.777C502.904 229.533 502.516 228.319 501.789 227.309C501.062 226.299 500.035 225.546 498.853 225.156C497.671 224.767 496.397 224.762 495.212 225.142C494.028 225.522 492.994 226.267 492.259 227.271C491.525 226.267 490.491 225.522 489.306 225.142C488.122 224.762 486.847 224.767 485.666 225.156C484.484 225.546 483.456 226.299 482.73 227.309C482.003 228.319 481.615 229.533 481.621 230.777C481.621 230.777 480.775 237.063 492.38 244.195C503.744 237.063 502.898 230.777 502.898 230.777Z" fill="white" stroke="#696992" stroke-width="1.20889" stroke-linecap="round" stroke-linejoin="round"/>
<path d="M225.82 303.19H295.815V280.947C295.815 278.382 294.796 275.922 292.982 274.108C291.169 272.294 288.709 271.275 286.144 271.275H225.82C223.255 271.275 220.795 272.294 218.982 274.108C217.168 275.922 216.149 278.382 216.149 280.947V293.519C216.133 294.793 216.372 296.058 216.852 297.239C217.333 298.42 218.044 299.492 218.946 300.394C219.847 301.295 220.92 302.007 222.1 302.487C223.281 302.967 224.546 303.206 225.82 303.19Z" fill="#4B465C"/>
<path d="M192.334 298.354C190.135 298.354 187.984 297.702 186.155 296.48C184.326 295.257 182.901 293.52 182.059 291.488C181.217 289.456 180.997 287.22 181.426 285.062C181.855 282.905 182.914 280.923 184.47 279.368C186.025 277.812 188.007 276.753 190.164 276.324C192.322 275.895 194.558 276.115 196.59 276.957C198.623 277.799 200.36 279.224 201.582 281.053C202.804 282.882 203.456 285.032 203.456 287.232C203.453 290.181 202.28 293.008 200.195 295.093C198.11 297.178 195.283 298.351 192.334 298.354ZM192.334 278.528C190.613 278.528 188.93 279.039 187.499 279.995C186.067 280.951 184.952 282.311 184.293 283.901C183.634 285.492 183.462 287.242 183.797 288.93C184.133 290.619 184.962 292.17 186.18 293.387C187.397 294.604 188.948 295.433 190.636 295.769C192.325 296.105 194.075 295.932 195.665 295.274C197.255 294.615 198.615 293.499 199.571 292.068C200.528 290.636 201.038 288.954 201.038 287.232C201.035 284.925 200.117 282.713 198.485 281.081C196.854 279.449 194.642 278.531 192.334 278.528Z" fill="#4B465C"/>
<path d="M248.91 102.392C249.972 99.0331 250.221 95.4698 249.636 91.9958C249.404 90.9458 249.039 89.93 248.548 88.9736C246.855 89.3363 246.372 88.2483 241.778 87.7647C238.514 87.402 236.942 88.3691 236.338 88.9736C235.282 88.6898 234.158 88.8195 233.195 89.3363C231.14 90.1825 229.568 92.4794 230.656 99.6118C230.917 101.454 231.321 103.273 231.865 105.052C231.865 105.052 231.502 99.37 232.228 97.194C232.297 97.1313 232.34 97.0451 232.348 96.9523L232.711 96.2269C233.92 94.7763 236.217 94.5345 237.063 95.5016C237.855 96.1139 238.845 96.4149 239.844 96.3478C240.841 96.4029 241.826 96.1031 242.624 95.5016C243.591 94.5345 246.734 95.018 247.58 97.194C248.427 99.37 247.943 105.052 247.943 105.052C248.437 104.237 248.766 103.334 248.91 102.392Z" fill="#4B465C" stroke="#07346B" stroke-width="1.20889" stroke-miterlimit="10"/>
<path d="M47.7511 283.363C47.7053 282.204 47.9116 281.049 48.3555 279.978C49.0233 278.204 49.7902 276.468 50.6524 274.78C54.1582 277.923 57.7849 278.648 60.928 279.495C64.0711 280.341 64.4338 281.308 64.4338 284.451C64.4338 287.594 63.4666 291.825 62.8622 292.551C62.2578 293.276 63.104 296.298 65.0382 296.056C67.6978 295.694 66.9724 291.704 67.3351 290.012C67.5769 288.561 72.0498 285.418 71.4453 282.396C71.0826 279.736 69.8738 279.132 67.8186 275.263C66.0053 271.637 65.5218 268.494 61.2906 266.801C54.2791 264.142 50.048 266.68 48.8391 268.252C47.7511 269.582 45.696 269.944 44.9707 271.637C44.0035 273.692 45.2124 275.263 44.2453 277.56C43.2782 279.857 40.6187 281.912 40.3769 283.967C40.0142 287.473 44.9707 289.407 45.2124 290.133C45.4542 291.1 44.8498 295.21 47.5093 295.694C49.8062 296.056 49.4435 293.034 49.4435 293.034C48.4976 290.89 47.9252 288.601 47.7511 286.264C47.2886 286.069 46.8872 285.753 46.5894 285.348C46.2916 284.944 46.1082 284.467 46.0586 283.967C45.9378 282.275 46.9049 281.912 46.9049 281.912" fill="#4B465C"/>
<path d="M64.7962 296.54C64.4103 296.532 64.0348 296.414 63.7137 296.2C63.3925 295.986 63.139 295.684 62.9829 295.331C62.3785 294.364 62.2576 293.035 62.7411 292.551C63.3456 291.705 64.1918 287.595 64.1918 284.451C64.1918 281.308 63.8291 280.462 60.9278 279.737C60.686 279.616 60.3233 279.616 60.0816 279.495C57.3011 278.77 54.0371 278.044 50.894 275.385C50.5313 276.352 49.2016 279.011 48.718 280.099C48.3382 281.144 48.1737 282.254 48.2345 283.363C48.2345 283.428 48.209 283.489 48.1636 283.534C48.1183 283.58 48.0568 283.605 47.9927 283.605C47.9286 283.605 47.8671 283.58 47.8217 283.534C47.7764 283.489 47.7509 283.428 47.7509 283.363C47.6652 282.163 47.8727 280.96 48.3553 279.858C48.718 278.528 50.6522 274.78 50.6522 274.659C50.6522 274.539 50.7731 274.539 50.894 274.539C51.0149 274.539 51.0149 274.539 51.1358 274.659C53.7821 276.862 56.9427 278.359 60.3233 279.011C60.5651 279.132 60.9278 279.132 61.1696 279.253C64.3127 280.099 64.7962 281.308 64.7962 284.451C64.7962 287.595 63.8291 291.947 63.1038 292.793C63.0011 293.18 62.9803 293.584 63.0427 293.98C63.1052 294.375 63.2495 294.753 63.4665 295.09C63.5999 295.356 63.8082 295.578 64.0658 295.729C64.3234 295.879 64.6193 295.951 64.9171 295.936C66.6096 295.694 66.7305 293.397 66.7305 291.584C66.7106 291.097 66.7512 290.61 66.8513 290.133C67.1926 289.286 67.6841 288.508 68.302 287.836C69.5109 286.386 71.2033 284.451 70.9616 282.638C70.7547 281.257 70.1689 279.959 69.2691 278.891C68.5539 277.846 67.9077 276.756 67.3349 275.627C66.9722 274.901 66.6096 274.055 66.2469 273.33C65.038 270.791 64.1918 268.615 60.9278 267.285C53.7953 264.626 49.806 267.285 48.9598 268.494C48.4758 269.112 47.8551 269.608 47.1465 269.945C46.2835 270.311 45.5625 270.948 45.0913 271.758C44.7935 272.611 44.6702 273.516 44.7287 274.418C44.8968 275.519 44.7717 276.644 44.366 277.682C43.8813 278.783 43.2288 279.803 42.4318 280.704C41.5608 281.621 40.9369 282.744 40.6185 283.968C40.3767 286.265 42.6736 287.836 44.2451 288.924C44.9705 289.529 45.454 289.771 45.454 290.133C45.5672 290.526 45.6081 290.935 45.5749 291.342C45.6958 292.914 45.6958 295.211 47.63 295.452C47.7977 295.506 47.9772 295.512 48.1481 295.47C48.3191 295.427 48.4746 295.337 48.5971 295.211C49.2016 294.727 49.2016 293.518 49.2016 293.035C48.3077 290.915 47.7372 288.674 47.5091 286.386C47.0442 286.129 46.6477 285.765 46.3532 285.323C46.0587 284.881 45.8746 284.375 45.8167 283.847C45.6958 281.792 46.7838 281.55 46.9047 281.55C47.0256 281.55 47.1465 281.671 47.2673 281.792C47.3882 281.913 47.1465 282.034 47.0256 282.155C46.9047 282.275 46.3002 282.396 46.3002 283.847C46.3602 284.296 46.5221 284.726 46.7735 285.103C47.025 285.48 47.3593 285.795 47.7509 286.023L47.9927 286.265C48.4762 290.738 49.5642 292.914 49.6851 292.914V293.035C49.7725 293.98 49.5149 294.924 48.9598 295.694C48.7666 295.869 48.533 295.994 48.28 296.057C48.0269 296.121 47.7621 296.12 47.5091 296.057C45.2122 295.694 45.0913 292.914 44.9705 291.342C44.9705 290.979 44.8496 290.496 44.8496 290.375C44.8496 290.254 44.1242 289.891 43.7616 289.529C42.19 288.441 39.6513 286.748 40.014 284.089C40.1349 282.88 41.102 281.792 42.0691 280.462C42.7718 279.603 43.3798 278.671 43.8825 277.682C44.1621 276.7 44.2845 275.68 44.2451 274.659C44.1399 273.677 44.264 272.684 44.6078 271.758C45.153 270.831 45.9492 270.076 46.9047 269.582C47.5659 269.279 48.1459 268.823 48.5971 268.252C49.6851 266.923 53.9162 263.9 61.2905 266.802C64.6753 268.131 65.7633 270.428 66.9722 273.088C67.214 273.813 67.6976 274.539 68.0602 275.385C68.7856 276.835 69.39 277.803 69.8736 278.649C70.73 279.835 71.3085 281.198 71.566 282.638C71.9287 284.814 70.2362 286.748 68.7856 288.32C68.288 288.725 67.8961 289.244 67.6434 289.834C67.3908 290.423 67.2849 291.065 67.3349 291.705C67.3349 293.639 67.214 296.419 65.038 296.661C64.9171 296.54 64.9171 296.54 64.7962 296.54Z" fill="#07346B"/>
<path d="M50.7734 282.638C50.6525 282.638 50.6525 282.638 50.5316 282.517C50.504 282.496 50.4816 282.468 50.4662 282.437C50.4509 282.405 50.4429 282.371 50.4429 282.336C50.4429 282.301 50.4509 282.266 50.4662 282.235C50.4816 282.204 50.504 282.176 50.5316 282.155C50.6928 281.966 50.8999 281.823 51.1329 281.738C51.3659 281.653 51.6168 281.63 51.8614 281.671C52.2451 281.752 52.5878 281.966 52.8285 282.275C52.9494 282.396 52.9494 282.517 52.7076 282.638C52.4658 282.759 52.4658 282.759 52.3449 282.517C52.2874 282.443 52.2141 282.384 52.1305 282.342C52.0468 282.3 51.9549 282.277 51.8614 282.275C51.6196 282.275 51.136 282.396 51.0151 282.638H50.7734Z" fill="#07346B"/>
<path d="M61.4114 282.639C61.2905 282.639 61.2905 282.639 61.1697 282.518C60.9065 282.276 60.5597 282.146 60.2025 282.155C60.0635 282.164 59.9277 282.201 59.8031 282.263C59.6785 282.325 59.5676 282.412 59.4772 282.518C59.4294 282.564 59.3722 282.598 59.3094 282.619C59.2467 282.64 59.1802 282.647 59.1145 282.639C58.9937 282.639 58.9937 282.397 58.9937 282.276C59.2809 281.962 59.6629 281.749 60.0817 281.672C60.3361 281.654 60.5909 281.7 60.823 281.806C61.0552 281.911 61.2574 282.073 61.4114 282.276C61.6532 282.397 61.6532 282.518 61.4114 282.639Z" fill="#07346B"/>
<path d="M56.0924 290.979C55.7906 291 55.4884 290.945 55.2138 290.818C54.9391 290.691 54.7008 290.497 54.5208 290.254C54.3999 290.133 54.3999 290.012 54.6417 289.891C54.8835 289.771 54.8835 289.771 55.0044 290.012C55.3504 290.275 55.7797 290.404 56.2133 290.375C56.8177 290.375 57.4221 290.133 57.543 289.771C57.6639 289.65 57.7848 289.529 57.9057 289.65C58.0266 289.771 58.1475 289.891 58.0266 290.012C57.8398 290.286 57.5863 290.507 57.2901 290.655C56.994 290.803 56.6649 290.873 56.3341 290.859L56.0924 290.979Z" fill="#07346B"/>
<path d="M51.3779 272.362L51.6197 272.604L51.8615 272.846L52.1033 273.088L52.345 273.329L52.7077 273.692L53.0704 274.055L53.433 274.417L53.7957 274.78C53.9166 274.901 54.0375 275.022 54.1584 275.022C54.2793 275.022 54.4002 275.264 54.521 275.264C54.6419 275.264 54.7628 275.385 54.8837 275.505C55.0046 275.626 55.1255 275.626 55.1255 275.747C55.1255 275.868 55.2464 275.868 55.3673 275.868C55.43 275.937 55.5162 275.98 55.609 275.989H55.3673C55.2464 275.989 55.1255 275.989 55.1255 275.868C55.1255 275.747 54.8837 275.747 54.7628 275.747C54.6419 275.747 54.6419 275.626 54.521 275.626C54.4002 275.626 54.4002 275.505 54.2793 275.505C54.1584 275.505 54.0375 275.385 53.9166 275.264C53.7957 275.143 53.6748 275.143 53.433 275.022C53.1913 274.901 53.3122 274.901 53.1913 274.901H53.0704C52.8286 274.659 52.4659 274.417 52.345 274.176C52.2242 273.934 52.1033 273.934 52.1033 273.813C52.1033 273.692 51.9824 273.571 51.8615 273.45C51.7406 273.329 51.7406 273.209 51.6197 273.088C51.5507 273.025 51.5076 272.939 51.4988 272.846C51.4254 272.695 51.3842 272.53 51.3779 272.362Z" fill="#07346B"/>
<path d="M65.4009 282.396C65.4009 282.364 65.3882 282.334 65.3655 282.311C65.3429 282.288 65.3121 282.276 65.2801 282.276C65.2801 282.244 65.2673 282.213 65.2446 282.19C65.222 282.167 65.1912 282.155 65.1592 282.155C65.0935 282.089 65.051 282.005 65.0383 281.913C65.0383 281.792 64.9174 281.792 64.9174 281.671C64.9174 281.55 64.7965 281.55 64.7965 281.429C64.7965 281.308 64.6756 281.308 64.6756 281.188C64.6756 281.067 64.5547 281.067 64.5547 280.946C64.5547 280.825 64.4338 280.825 64.4338 280.704C64.4338 280.583 64.3129 280.583 64.3129 280.462C64.3129 280.341 64.192 280.341 64.192 280.22C64.192 280.1 64.0712 280.1 64.0712 279.979C64.0712 279.858 63.9503 279.858 63.9503 279.737C63.9503 279.705 63.9375 279.674 63.9149 279.651C63.8922 279.629 63.8614 279.616 63.8294 279.616L63.7085 279.495C63.8294 279.616 63.8294 279.616 63.9503 279.737L64.0712 279.858L64.192 279.979L64.3129 280.1C64.4338 280.22 64.4338 280.22 64.4338 280.341C64.4338 280.462 64.5547 280.462 64.5547 280.583C64.6237 280.646 64.6668 280.732 64.6756 280.825C64.7733 281.011 64.8153 281.22 64.7965 281.429V281.913C65.4009 282.034 65.4009 282.276 65.4009 282.396Z" fill="#07346B"/>
<path d="M418.88 418.155H440.64" stroke="white" stroke-width="1.20889" stroke-linecap="round" stroke-linejoin="round"/>
<path d="M418.88 422.507H440.64" stroke="white" stroke-width="1.20889" stroke-linecap="round" stroke-linejoin="round"/>
<path d="M418.88 426.858H440.64" stroke="white" stroke-width="1.20889" stroke-linecap="round" stroke-linejoin="round"/>
<path d="M308.146 236.822H353.962" stroke="white" stroke-width="1.20889" stroke-miterlimit="10"/>
<path d="M308.146 242.02H345.379" stroke="white" stroke-width="1.20889" stroke-miterlimit="10"/>
<path d="M308.146 247.098H327.488" stroke="white" stroke-width="1.20889" stroke-miterlimit="10"/>
<path d="M308.146 326.279H353.962" stroke="white" stroke-width="1.20889" stroke-miterlimit="10"/>
<path d="M308.146 331.478H345.379" stroke="white" stroke-width="1.20889" stroke-miterlimit="10"/>
<path d="M308.146 336.555H327.488" stroke="white" stroke-width="1.20889" stroke-miterlimit="10"/>
<path d="M280.704 283.122H235.008" stroke="white" stroke-width="1.20889" stroke-miterlimit="10"/>
<path d="M280.704 288.32H243.47" stroke="white" stroke-width="1.20889" stroke-miterlimit="10"/>
<path d="M280.704 293.397H261.482" stroke="white" stroke-width="1.20889" stroke-miterlimit="10"/>
</svg>
