<svg width="728" height="728" viewBox="0 0 728 728" fill="none" xmlns="http://www.w3.org/2000/svg">
<path d="M565.414 300.907H533.544C532.435 300.928 531.377 301.377 530.592 302.162C529.808 302.946 529.358 304.004 529.337 305.113V322.1C529.358 323.209 529.808 324.267 530.592 325.051C531.377 325.835 532.435 326.285 533.544 326.306H536.132C536.1 328.709 535.178 331.015 533.544 332.777C533.382 332.961 533.272 333.186 533.226 333.427C533.179 333.668 533.199 333.917 533.281 334.148C533.364 334.379 533.507 334.583 533.695 334.741C533.883 334.898 534.11 335.002 534.352 335.042C540.985 335.689 545.353 330.997 545.353 326.468H565.252C566.361 326.447 567.419 325.997 568.203 325.213C568.988 324.428 569.438 323.371 569.458 322.261V305.275C569.511 304.716 569.445 304.151 569.264 303.619C569.084 303.087 568.793 302.599 568.412 302.187C568.03 301.775 567.566 301.448 567.049 301.227C566.533 301.007 565.975 300.898 565.414 300.907Z" fill="#F1BD19" stroke="#231F20" stroke-width="1.20889" stroke-linecap="round" stroke-linejoin="round"/>
<path d="M534.837 308.025H563.957" stroke="#231F20" stroke-width="1.20889" stroke-linecap="round" stroke-linejoin="round"/>
<path d="M534.837 314.01H563.957" stroke="#231F20" stroke-width="1.20889" stroke-linecap="round" stroke-linejoin="round"/>
<path d="M534.837 319.835H563.957" stroke="#231F20" stroke-width="1.20889" stroke-linecap="round" stroke-linejoin="round"/>
<path d="M504.746 596.151C504.788 602.074 502.592 607.794 498.599 612.167C496.353 614.661 493.609 616.656 490.543 618.021C487.478 619.386 484.159 620.092 480.803 620.092C477.447 620.092 474.129 619.386 471.063 618.021C467.997 616.656 465.253 614.661 463.008 612.167C459.014 607.794 456.818 602.074 456.86 596.151C456.86 589.801 459.383 583.711 463.873 579.221C468.363 574.731 474.453 572.208 480.803 572.208C487.153 572.208 493.243 574.731 497.733 579.221C502.224 583.711 504.746 589.801 504.746 596.151Z" fill="#ECECEC" stroke="#696992" stroke-width="1.20889" stroke-linecap="round" stroke-linejoin="round"/>
<path d="M480.804 604.563C488.219 604.563 494.231 598.551 494.231 591.136C494.231 583.72 488.219 577.708 480.804 577.708C473.388 577.708 467.376 583.72 467.376 591.136C467.376 598.551 473.388 604.563 480.804 604.563Z" fill="#F6D1A7" stroke="#696992" stroke-width="1.20889" stroke-linecap="round" stroke-linejoin="round"/>
<path d="M485.495 595.181C485.495 594.537 485.751 593.92 486.206 593.465C486.661 593.01 487.278 592.754 487.922 592.754C488.565 592.754 489.183 593.01 489.638 593.465C490.093 593.92 490.348 594.537 490.348 595.181" stroke="#696992" stroke-width="1.20889" stroke-linecap="round" stroke-linejoin="round"/>
<path d="M471.258 595.181C471.258 594.537 471.514 593.92 471.969 593.465C472.424 593.01 473.041 592.754 473.685 592.754C474.329 592.754 474.946 593.01 475.401 593.465C475.856 593.92 476.112 594.537 476.112 595.181" stroke="#696992" stroke-width="1.20889" stroke-linecap="round" stroke-linejoin="round"/>
<path d="M474.494 599.872C476.314 601.237 478.528 601.975 480.804 601.975C483.079 601.975 485.293 601.237 487.113 599.872" stroke="#696992" stroke-width="1.20889" stroke-linecap="round" stroke-linejoin="round"/>
<path d="M566.06 465.435C566.034 471.044 563.963 476.45 560.236 480.642C558.128 483.026 555.538 484.935 552.638 486.246C549.739 487.557 546.594 488.238 543.412 488.246C540.227 488.255 537.077 487.581 534.174 486.269C531.272 484.957 528.685 483.039 526.587 480.642C522.86 476.45 520.789 471.044 520.763 465.435C520.763 459.428 523.149 453.667 527.396 449.42C531.644 445.172 537.405 442.786 543.412 442.786C549.418 442.786 555.179 445.172 559.427 449.42C563.674 453.667 566.06 459.428 566.06 465.435Z" fill="#ECECEC" stroke="#231F20" stroke-width="1.20889" stroke-linecap="round" stroke-linejoin="round"/>
<path d="M543.411 473.362C550.47 473.362 556.192 467.64 556.192 460.581C556.192 453.523 550.47 447.801 543.411 447.801C536.353 447.801 530.631 453.523 530.631 460.581C530.631 467.64 536.353 473.362 543.411 473.362Z" fill="#F6D1A7" stroke="#231F20" stroke-width="1.20889" stroke-linecap="round" stroke-linejoin="round"/>
<path d="M543.412 447.801C540.223 447.78 537.146 448.972 534.803 451.134C532.46 453.297 531.027 456.269 530.793 459.449H545.515C546.2 459.449 546.87 459.25 547.444 458.877C548.018 458.503 548.472 457.972 548.75 457.346L549.236 456.375L550.368 457.831C550.697 458.294 551.134 458.669 551.642 458.923C552.15 459.177 552.713 459.302 553.28 459.287H556.354C555.935 456.138 554.396 453.245 552.02 451.136C549.644 449.027 546.588 447.843 543.412 447.801Z" fill="#D6A500" stroke="#231F20" stroke-width="1.20889" stroke-linecap="round" stroke-linejoin="round"/>
<path d="M547.941 464.302C547.941 463.701 548.18 463.125 548.605 462.7C549.029 462.276 549.606 462.037 550.206 462.037C550.807 462.037 551.383 462.276 551.808 462.7C552.233 463.125 552.471 463.701 552.471 464.302" stroke="#231F20" stroke-width="1.20889" stroke-linecap="round" stroke-linejoin="round"/>
<path d="M534.19 464.302C534.19 463.701 534.429 463.125 534.854 462.7C535.279 462.276 535.855 462.037 536.455 462.037C537.056 462.037 537.632 462.276 538.057 462.7C538.482 463.125 538.72 463.701 538.72 464.302" stroke="#231F20" stroke-width="1.20889" stroke-linecap="round" stroke-linejoin="round"/>
<path d="M537.426 468.832C539.142 470.142 541.254 470.827 543.412 470.773C545.558 470.749 547.646 470.072 549.398 468.832" stroke="#231F20" stroke-width="1.20889" stroke-linecap="round" stroke-linejoin="round"/>
<path d="M560.237 480.642C558.128 483.025 555.539 484.935 552.639 486.246C549.739 487.556 546.594 488.238 543.412 488.245C540.227 488.254 537.077 487.58 534.175 486.269C531.272 484.957 528.685 483.038 526.587 480.642C527.911 479.291 529.512 478.243 531.278 477.568L538.235 475.303C538.71 475.167 539.213 475.155 539.694 475.268C540.176 475.382 540.62 475.616 540.985 475.95L541.794 476.759C542.3 477.229 542.964 477.49 543.654 477.49C544.345 477.49 545.009 477.229 545.515 476.759L546.324 475.95C546.684 475.608 547.128 475.368 547.611 475.254C548.095 475.14 548.599 475.157 549.074 475.303L556.03 477.568C557.661 478.236 559.104 479.291 560.237 480.642Z" fill="#424242" stroke="#231F20" stroke-width="1.20889" stroke-linecap="round" stroke-linejoin="round"/>
<path d="M443.433 435.021C443.454 440.765 441.318 446.307 437.447 450.551C435.272 452.992 432.605 454.946 429.622 456.284C426.639 457.623 423.406 458.315 420.137 458.317C413.966 458.291 408.056 455.828 403.692 451.465C399.329 447.102 396.866 441.191 396.841 435.021C396.841 428.842 399.295 422.917 403.664 418.548C408.033 414.179 413.958 411.725 420.137 411.725C426.315 411.725 432.241 414.179 436.61 418.548C440.978 422.917 443.433 428.842 443.433 435.021Z" fill="#ECECEC" stroke="#231F20" stroke-width="1.20889" stroke-linecap="round" stroke-linejoin="round"/>
<path d="M420.137 443.271C427.374 443.271 433.241 437.404 433.241 430.167C433.241 422.929 427.374 417.062 420.137 417.062C412.9 417.062 407.033 422.929 407.033 430.167C407.033 437.404 412.9 443.271 420.137 443.271Z" fill="#F6D1A7" stroke="#231F20" stroke-width="1.20889" stroke-linecap="round" stroke-linejoin="round"/>
<path d="M420.137 417.063C416.892 417.05 413.761 418.257 411.364 420.445C408.967 422.632 407.479 425.64 407.195 428.872H422.24C422.93 428.894 423.609 428.704 424.187 428.328C424.766 427.952 425.215 427.408 425.476 426.769L425.961 425.799L427.093 427.255C427.422 427.718 427.86 428.092 428.368 428.346C428.875 428.6 429.438 428.725 430.005 428.711H433.079C432.757 425.507 431.253 422.539 428.86 420.385C426.467 418.231 423.357 417.047 420.137 417.063Z" fill="#FF8C56" stroke="#231F20" stroke-width="1.20889" stroke-linecap="round" stroke-linejoin="round"/>
<path d="M424.829 434.05C424.829 433.406 425.084 432.789 425.539 432.334C425.994 431.879 426.612 431.623 427.255 431.623C427.899 431.623 428.516 431.879 428.971 432.334C429.426 432.789 429.682 433.406 429.682 434.05" stroke="#231F20" stroke-width="1.20889" stroke-linecap="round" stroke-linejoin="round"/>
<path d="M410.916 434.05C410.916 433.406 411.171 432.789 411.626 432.334C412.081 431.879 412.699 431.623 413.342 431.623C413.986 431.623 414.603 431.879 415.058 432.334C415.513 432.789 415.769 433.406 415.769 434.05" stroke="#231F20" stroke-width="1.20889" stroke-linecap="round" stroke-linejoin="round"/>
<path d="M413.989 438.579C415.778 439.868 417.933 440.549 420.137 440.52C422.329 440.471 424.461 439.797 426.284 438.579" stroke="#231F20" stroke-width="1.20889" stroke-linecap="round" stroke-linejoin="round"/>
<path d="M437.447 450.714C435.272 453.155 432.605 455.108 429.622 456.447C426.639 457.785 423.407 458.478 420.137 458.479C416.864 458.497 413.626 457.814 410.639 456.474C407.653 455.134 404.989 453.17 402.827 450.714C404.14 449.272 405.816 448.211 407.68 447.64L414.798 445.213C415.274 445.077 415.776 445.065 416.258 445.179C416.739 445.292 417.183 445.527 417.548 445.86L418.357 446.669C418.863 447.139 419.528 447.4 420.218 447.4C420.908 447.4 421.572 447.139 422.078 446.669L422.887 445.86C423.247 445.518 423.691 445.278 424.175 445.164C424.658 445.051 425.163 445.067 425.637 445.213L432.756 447.64C434.582 448.193 436.211 449.26 437.447 450.714Z" fill="#ADD676" stroke="#231F20" stroke-width="1.20889" stroke-linecap="round" stroke-linejoin="round"/>
<path d="M493.26 457.831C493.268 456.167 492.749 454.542 491.777 453.191C490.804 451.839 489.429 450.831 487.848 450.31C486.267 449.789 484.561 449.782 482.976 450.29C481.39 450.799 480.007 451.796 479.024 453.14C478.041 451.796 476.657 450.799 475.072 450.29C473.487 449.782 471.781 449.789 470.2 450.31C468.619 450.831 467.243 451.839 466.271 453.191C465.299 454.542 464.779 456.167 464.787 457.831C464.787 457.831 463.655 466.244 479.186 475.789C494.393 466.244 493.26 457.831 493.26 457.831Z" fill="#EC6F39" stroke="#231F20" stroke-width="1.20889" stroke-linecap="round" stroke-linejoin="round"/>
<path d="M667.171 340.866L678.981 352.838" stroke="#ECECEC" stroke-width="1.20889" stroke-linecap="round" stroke-linejoin="round"/>
<path d="M678.981 340.866L667.171 352.838" stroke="#ECECEC" stroke-width="1.20889" stroke-linecap="round" stroke-linejoin="round"/>
<path d="M457.022 389.075L468.994 400.885" stroke="#ECECEC" stroke-width="1.20889" stroke-linecap="round" stroke-linejoin="round"/>
<path d="M468.994 389.075L457.022 400.885" stroke="#ECECEC" stroke-width="1.20889" stroke-linecap="round" stroke-linejoin="round"/>
<path d="M437.123 604.078C440.518 604.078 443.271 601.326 443.271 597.931C443.271 594.536 440.518 591.783 437.123 591.783C433.728 591.783 430.976 594.536 430.976 597.931C430.976 601.326 433.728 604.078 437.123 604.078Z" stroke="#ECECEC" stroke-width="1.20889" stroke-linecap="round" stroke-linejoin="round"/>
<path d="M672.996 422.078C676.391 422.078 679.143 419.326 679.143 415.931C679.143 412.536 676.391 409.783 672.996 409.783C669.6 409.783 666.848 412.536 666.848 415.931C666.848 419.326 669.6 422.078 672.996 422.078Z" stroke="#ECECEC" stroke-width="1.20889" stroke-linecap="round" stroke-linejoin="round"/>
<path d="M549.397 541.47C552.792 541.47 555.545 538.718 555.545 535.322C555.545 531.927 552.792 529.175 549.397 529.175C546.002 529.175 543.25 531.927 543.25 535.322C543.25 538.718 546.002 541.47 549.397 541.47Z" stroke="#ECECEC" stroke-width="1.20889" stroke-linecap="round" stroke-linejoin="round"/>
<path d="M530.739 574.127L522.846 582.021L530.739 589.914L538.632 582.021L530.739 574.127Z" stroke="#ECECEC" stroke-width="1.20889" stroke-linecap="round" stroke-linejoin="round"/>
<path d="M442.92 543.671L435.026 551.564L442.92 559.458L450.813 551.564L442.92 543.671Z" stroke="#ECECEC" stroke-width="1.20889" stroke-linecap="round" stroke-linejoin="round"/>
<path d="M444.732 459.988L436.839 467.881L444.732 475.774L452.625 467.881L444.732 459.988Z" stroke="#ECECEC" stroke-width="1.20889" stroke-linecap="round" stroke-linejoin="round"/>
<path d="M520.614 496.87L512.721 504.764L520.614 512.657L528.508 504.764L520.614 496.87Z" stroke="#ECECEC" stroke-width="1.20889" stroke-linecap="round" stroke-linejoin="round"/>
<path d="M610.064 415.931C613.459 415.931 616.211 413.179 616.211 409.783C616.211 406.388 613.459 403.636 610.064 403.636C606.668 403.636 603.916 406.388 603.916 409.783C603.916 413.179 606.668 415.931 610.064 415.931Z" stroke="#ECECEC" stroke-width="1.20889" stroke-linecap="round" stroke-linejoin="round"/>
<path d="M534.19 361.087C537.585 361.087 540.338 358.335 540.338 354.94C540.338 351.544 537.585 348.792 534.19 348.792C530.795 348.792 528.042 351.544 528.042 354.94C528.042 358.335 530.795 361.087 534.19 361.087Z" stroke="#ECECEC" stroke-width="1.20889" stroke-linecap="round" stroke-linejoin="round"/>
<path d="M590.82 459.984L582.927 467.877L590.82 475.77L598.713 467.877L590.82 459.984Z" stroke="#ECECEC" stroke-width="1.20889" stroke-linecap="round" stroke-linejoin="round"/>
<path d="M590.813 367.286L582.92 375.179L590.813 383.072L598.706 375.179L590.813 367.286Z" stroke="#ECECEC" stroke-width="1.20889" stroke-linecap="round" stroke-linejoin="round"/>
<path d="M552.148 597.445L552.795 608.608L541.632 607.961L542.441 618.962L531.279 618.315L532.087 629.316L520.925 628.668L521.572 639.669L510.571 639.022L511.218 650.185L500.217 649.376" stroke="#ECECEC" stroke-width="1.20889" stroke-linecap="round" stroke-linejoin="round"/>
<path d="M682.217 499.246L682.864 510.247L671.863 509.6L672.51 520.601L661.347 519.954L662.156 531.116L650.994 530.307L651.641 541.47L640.64 540.661L641.287 551.824L630.286 551.177" stroke="#ECECEC" stroke-width="1.20889" stroke-linecap="round" stroke-linejoin="round"/>
<path d="M504.584 390.046L505.232 401.047L494.231 400.4L494.878 411.562L483.877 410.753L484.524 421.916L473.361 421.269L474.17 432.27L463.008 431.623L463.655 442.624L452.654 441.977" stroke="#ECECEC" stroke-width="1.20889" stroke-linecap="round" stroke-linejoin="round"/>
<path d="M428.873 485.657L429.52 496.82L418.519 496.011L419.166 507.174L408.165 506.527L408.813 517.527L397.65 516.88L398.459 527.881L387.296 527.234L388.105 538.235L376.942 537.588" stroke="#ECECEC" stroke-width="1.20889" stroke-linecap="round" stroke-linejoin="round"/>
<path d="M359.956 523.351L362.868 520.601" stroke="#ECECEC" stroke-width="1.20889" stroke-linecap="round" stroke-linejoin="round"/>
<path d="M364.809 518.497L392.311 490.995" stroke="#ECECEC" stroke-width="1.20889" stroke-linecap="round" stroke-linejoin="round" stroke-dasharray="5.38 2.15"/>
<path d="M393.282 490.024L396.194 487.112" stroke="#ECECEC" stroke-width="1.20889" stroke-linecap="round" stroke-linejoin="round"/>
<path d="M480.48 369.015L483.392 366.103" stroke="#ECECEC" stroke-width="1.20889" stroke-linecap="round" stroke-linejoin="round"/>
<path d="M485.495 364.161L512.836 336.659" stroke="#ECECEC" stroke-width="1.20889" stroke-linecap="round" stroke-linejoin="round" stroke-dasharray="5.38 2.15"/>
<path d="M513.968 335.689L516.718 332.777" stroke="#ECECEC" stroke-width="1.20889" stroke-linecap="round" stroke-linejoin="round"/>
<path d="M488.407 376.942L491.319 374.191" stroke="#ECECEC" stroke-width="1.20889" stroke-linecap="round" stroke-linejoin="round"/>
<path d="M493.584 371.764L508.629 356.881" stroke="#ECECEC" stroke-width="1.20889" stroke-linecap="round" stroke-linejoin="round" stroke-dasharray="6.08 2.43"/>
<path d="M509.762 355.749L512.674 352.837" stroke="#ECECEC" stroke-width="1.20889" stroke-linecap="round" stroke-linejoin="round"/>
<path d="M615.402 440.682L618.314 437.77" stroke="#ECECEC" stroke-width="1.20889" stroke-linecap="round" stroke-linejoin="round"/>
<path d="M620.58 435.505L659.892 396.031" stroke="#ECECEC" stroke-width="1.20889" stroke-linecap="round" stroke-linejoin="round" stroke-dasharray="6.12 2.44"/>
<path d="M661.024 394.901L663.936 392.15" stroke="#ECECEC" stroke-width="1.20889" stroke-linecap="round" stroke-linejoin="round"/>
<path d="M624.138 453.949L627.05 451.199" stroke="#ECECEC" stroke-width="1.20889" stroke-linecap="round" stroke-linejoin="round"/>
<path d="M629.315 448.771L652.611 425.637" stroke="#ECECEC" stroke-width="1.20889" stroke-linecap="round" stroke-linejoin="round" stroke-dasharray="6.12 2.44"/>
<path d="M653.744 424.504L656.494 421.592" stroke="#ECECEC" stroke-width="1.20889" stroke-linecap="round" stroke-linejoin="round"/>
<path d="M420.946 533.382L423.696 530.47" stroke="#ECECEC" stroke-width="1.20889" stroke-linecap="round" stroke-linejoin="round"/>
<path d="M426.123 528.205L449.257 505.07" stroke="#ECECEC" stroke-width="1.20889" stroke-linecap="round" stroke-linejoin="round" stroke-dasharray="6.12 2.44"/>
<path d="M450.389 503.777L453.301 501.026" stroke="#ECECEC" stroke-width="1.20889" stroke-linecap="round" stroke-linejoin="round"/>
<path d="M544.059 514.454L546.971 511.542" stroke="#ECECEC" stroke-width="1.20889" stroke-linecap="round" stroke-linejoin="round"/>
<path d="M549.235 509.277L572.37 485.981" stroke="#ECECEC" stroke-width="1.20889" stroke-linecap="round" stroke-linejoin="round" stroke-dasharray="6.12 2.44"/>
<path d="M573.664 484.848L576.414 482.098" stroke="#ECECEC" stroke-width="1.20889" stroke-linecap="round" stroke-linejoin="round"/>
<path d="M509.762 444.565L512.512 441.653" stroke="#ECECEC" stroke-width="1.20889" stroke-linecap="round" stroke-linejoin="round"/>
<path d="M514.938 439.388L538.073 416.254" stroke="#ECECEC" stroke-width="1.20889" stroke-linecap="round" stroke-linejoin="round" stroke-dasharray="6.12 2.44"/>
<path d="M539.205 415.121L542.117 412.209" stroke="#ECECEC" stroke-width="1.20889" stroke-linecap="round" stroke-linejoin="round"/>
<path d="M497.467 435.668L500.379 432.756" stroke="#ECECEC" stroke-width="1.20889" stroke-linecap="round" stroke-linejoin="round"/>
<path d="M502.482 430.491L516.88 416.093" stroke="#ECECEC" stroke-width="1.20889" stroke-linecap="round" stroke-linejoin="round" stroke-dasharray="5.85 2.35"/>
<path d="M518.013 415.121L520.925 412.209" stroke="#ECECEC" stroke-width="1.20889" stroke-linecap="round" stroke-linejoin="round"/>
<path d="M607.313 307.217L608.122 318.218L596.96 317.571L597.607 328.733L586.606 327.924L587.253 339.087L576.252 338.278L576.899 349.441L565.737 348.794L566.546 359.795L555.383 359.147" stroke="#ECECEC" stroke-width="1.20889" stroke-linecap="round" stroke-linejoin="round"/>
<path d="M599.387 354.939L602.137 352.027" stroke="#ECECEC" stroke-width="1.20889" stroke-linecap="round" stroke-linejoin="round"/>
<path d="M604.564 349.763L627.698 326.467" stroke="#ECECEC" stroke-width="1.20889" stroke-linecap="round" stroke-linejoin="round" stroke-dasharray="6.12 2.44"/>
<path d="M628.831 325.336L631.743 322.586" stroke="#ECECEC" stroke-width="1.20889" stroke-linecap="round" stroke-linejoin="round"/>
<path d="M319.187 644.361L321.937 641.449" stroke="#ECECEC" stroke-width="1.20889" stroke-linecap="round" stroke-linejoin="round"/>
<path d="M324.364 639.184L363.676 599.872" stroke="#ECECEC" stroke-width="1.20889" stroke-linecap="round" stroke-linejoin="round" stroke-dasharray="6.12 2.44"/>
<path d="M364.809 598.739L367.721 595.827" stroke="#ECECEC" stroke-width="1.20889" stroke-linecap="round" stroke-linejoin="round"/>
<path d="M606.505 547.294L609.255 544.382" stroke="#ECECEC" stroke-width="1.20889" stroke-linecap="round" stroke-linejoin="round"/>
<path d="M611.196 542.441L630.448 523.189" stroke="#ECECEC" stroke-width="1.20889" stroke-linecap="round" stroke-linejoin="round" stroke-dasharray="5.09 2.03"/>
<path d="M631.418 522.219L634.33 519.307" stroke="#ECECEC" stroke-width="1.20889" stroke-linecap="round" stroke-linejoin="round"/>
<path d="M566.385 402.179H520.44C519.582 402.179 518.759 401.838 518.152 401.231C517.545 400.625 517.204 399.802 517.204 398.944V373.706C517.204 372.848 517.545 372.025 518.152 371.418C518.759 370.812 519.582 370.471 520.44 370.471H566.385C567.243 370.471 568.066 370.812 568.672 371.418C569.279 372.025 569.62 372.848 569.62 373.706V399.105C569.616 399.522 569.528 399.933 569.362 400.315C569.196 400.696 568.955 401.041 568.653 401.328C568.352 401.614 567.995 401.838 567.605 401.984C567.216 402.13 566.8 402.197 566.385 402.179Z" fill="#ECECEC" stroke="#231F20" stroke-width="1.20889" stroke-linecap="round" stroke-linejoin="round"/>
<path d="M569.62 377.751H517.204V382.443H569.62V377.751Z" fill="#F1BD19" stroke="#231F20" stroke-width="1.20889" stroke-linecap="round" stroke-linejoin="round"/>
<path d="M536.293 393.444H519.954V395.709H536.293V393.444Z" fill="#ECECEC" stroke="#231F20" stroke-width="1.20889" stroke-linecap="round" stroke-linejoin="round"/>
<path d="M556.515 393.444H540.176V395.709H556.515V393.444Z" fill="#ECECEC" stroke="#231F20" stroke-width="1.20889" stroke-linecap="round" stroke-linejoin="round"/>
<path d="M597.931 538.72H131.04C126.64 538.722 122.287 537.818 118.251 536.065C114.215 534.311 110.584 531.746 107.582 528.528L106.773 527.72V514.292H622.036V527.72L621.227 528.528C618.257 531.743 614.654 534.308 610.645 536.062C606.636 537.816 602.307 538.721 597.931 538.72Z" fill="#F2F2F4" stroke="white" stroke-width="2.41778" stroke-linecap="round" stroke-linejoin="round"/>
<path d="M622.197 514.292H106.935V527.72H622.197V514.292Z" fill="#F2F2F4" stroke="white" stroke-width="2.41778" stroke-linecap="round" stroke-linejoin="round"/>
<path d="M364.486 521.572H405.416C410.109 521.676 414.727 520.38 418.681 517.851L423.858 514.292H305.113L310.29 517.851C314.235 520.401 318.86 521.699 323.556 521.572H364.486Z" fill="#F2F2F4" stroke="white" stroke-width="2.41778" stroke-linecap="round" stroke-linejoin="round"/>
<path d="M582.885 514.292H146.085V257.712C146.077 256.839 146.242 255.972 146.573 255.164C146.903 254.355 147.391 253.621 148.009 253.003C148.626 252.385 149.361 251.897 150.17 251.567C150.978 251.236 151.845 251.071 152.718 251.079H576.252C577.126 251.071 577.992 251.236 578.801 251.567C579.61 251.897 580.344 252.385 580.962 253.003C581.579 253.621 582.068 254.355 582.398 255.164C582.728 255.972 582.894 256.839 582.885 257.712V514.292Z" fill="#F2F2F4" stroke="white" stroke-width="2.41778" stroke-linecap="round" stroke-linejoin="round"/>
<path d="M567.031 267.095H162.102V498.113H567.031V267.095Z" fill="white" stroke="white" stroke-width="2.41778" stroke-miterlimit="10"/>
<path d="M233.122 268.712H163.558V496.495H233.122V268.712Z" fill="#0F7CFF"/>
<path d="M184.589 343.939C235.517 343.939 276.802 302.654 276.802 251.726C276.802 200.798 235.517 159.513 184.589 159.513C133.661 159.513 92.3755 200.798 92.3755 251.726C92.3755 302.654 133.661 343.939 184.589 343.939Z" fill="#F2F2F4"/>
<path d="M184.589 343.939C235.517 343.939 276.802 302.654 276.802 251.726C276.802 200.798 235.517 159.513 184.589 159.513C133.661 159.513 92.3755 200.798 92.3755 251.726C92.3755 302.654 133.661 343.939 184.589 343.939Z" stroke="#696992" stroke-width="3.62667" stroke-miterlimit="10"/>
<mask id="mask0_1515_330" style="mask-type:luminance" maskUnits="userSpaceOnUse" x="105" y="184" width="160" height="159">
<path d="M185.235 342.969C229.016 342.969 264.507 307.478 264.507 263.698C264.507 219.918 229.016 184.427 185.235 184.427C141.455 184.427 105.964 219.918 105.964 263.698C105.964 307.478 141.455 342.969 185.235 342.969Z" fill="white"/>
</mask>
<g mask="url(#mask0_1515_330)">
<path d="M237.975 275.508C250.27 314.011 232.151 343.131 184.75 343.131C134.761 343.131 120.201 314.011 132.011 275.508C139.452 251.241 136.54 224.71 144.144 212.738C154.983 195.59 164.852 188.957 184.588 188.957C203.355 188.957 215.164 194.943 222.93 211.606C229.239 224.872 229.886 250.594 237.975 275.508Z" fill="#0F7CFF"/>
<path d="M184.265 188.796C165.499 188.796 155.468 194.782 144.306 212.254C140.261 218.563 139.291 228.917 137.996 241.05C136.864 251.566 135.732 263.699 132.172 275.023C125.863 295.246 127.319 312.071 135.893 323.557C144.791 335.69 161.131 341.676 184.265 341.676C206.914 341.676 223.577 335.043 232.798 322.424C241.534 310.453 242.99 293.951 236.843 274.862C233.363 263.08 230.661 251.083 228.754 238.947C226.812 227.461 225.033 217.592 221.797 210.798C214.841 195.429 203.516 188.796 184.265 188.796Z" stroke="#07346B" stroke-width="1.20889" stroke-miterlimit="10"/>
<path d="M116.965 365.456C116.965 337.145 147.541 314.173 185.073 314.173C222.606 314.173 253.182 337.145 253.182 365.456" fill="white"/>
<path d="M116.965 365.456C116.965 337.145 147.541 314.173 185.073 314.173C222.606 314.173 253.182 337.145 253.182 365.456" stroke="#5D5C74" stroke-width="1.20889" stroke-miterlimit="10"/>
<path d="M200.443 236.196C185.883 236.196 173.264 230.21 167.117 221.636C164.69 231.504 157.895 238.622 149.645 239.755V271.302C149.645 283.435 157.248 298.642 169.22 306.246V318.379C169.22 325.174 173.426 334.718 184.75 334.718C195.589 334.718 200.605 325.174 200.605 318.379V307.054C213.385 299.774 220.18 283.92 220.18 271.302V231.181C218.077 235.063 212.9 236.196 200.443 236.196Z" fill="#FBD7CE"/>
<path d="M184.588 334.88C172.617 334.88 168.411 324.688 168.411 317.893V305.922C157.086 298.48 148.835 283.758 148.835 270.654V239.107C148.835 238.784 149.159 238.622 149.321 238.46C157.248 237.49 163.881 230.695 166.307 220.988C166.469 220.665 166.631 220.503 166.793 220.503C166.918 220.505 167.041 220.536 167.153 220.592C167.265 220.648 167.363 220.728 167.44 220.826C173.749 229.724 186.206 235.063 200.119 235.063C212.899 235.063 217.267 233.93 219.209 230.371C219.371 230.048 219.694 230.048 220.018 230.048C220.341 230.048 220.503 230.371 220.503 230.695V270.816C220.503 282.787 214.355 299.127 200.928 307.054V317.893C201.09 324.85 196.075 334.88 184.588 334.88ZM150.13 239.593V270.654C150.13 283.434 158.219 297.833 169.381 305.113C169.543 305.274 169.705 305.436 169.705 305.598V317.731C169.705 324.041 173.749 333.262 184.588 333.262C194.942 333.262 199.795 324.202 199.795 317.731V306.407C199.795 306.245 199.957 305.922 200.119 305.922C212.899 298.642 219.371 282.626 219.371 270.654V232.636C216.297 235.71 210.473 236.357 200.443 236.357C186.53 236.357 174.073 231.18 167.278 222.606C164.528 231.827 158.057 238.46 150.13 239.593Z" fill="#07346B"/>
<path d="M192.03 283.597C192.03 283.597 188.956 287.156 185.073 287.156C181.19 287.156 178.117 283.597 178.117 283.597C180.421 283.921 182.746 284.083 185.073 284.082C187.401 284.093 189.726 283.931 192.03 283.597Z" fill="#07346B"/>
<path d="M185.559 274.213C185.032 274.221 184.511 274.109 184.034 273.884C183.558 273.66 183.139 273.33 182.809 272.919C182.456 272.337 182.34 271.643 182.485 270.978L183.132 271.14C183.043 271.378 183.011 271.634 183.039 271.887C183.067 272.14 183.155 272.383 183.294 272.596C183.552 272.902 183.874 273.148 184.238 273.317C184.601 273.486 184.997 273.574 185.397 273.574C185.798 273.574 186.194 273.486 186.557 273.317C186.92 273.148 187.242 272.902 187.5 272.596C187.648 272.356 187.739 272.086 187.767 271.805C187.795 271.525 187.759 271.242 187.662 270.978L188.148 270.654C188.295 270.991 188.357 271.359 188.329 271.726C188.3 272.093 188.183 272.447 187.986 272.757C187.782 273.222 187.44 273.612 187.005 273.873C186.57 274.133 186.065 274.253 185.559 274.213Z" fill="#07346B"/>
<path d="M160.322 253.507C159.978 253.473 159.646 253.363 159.351 253.183C159.117 252.921 158.974 252.59 158.945 252.24C158.916 251.889 159.002 251.539 159.189 251.242C159.984 250.371 160.962 249.687 162.053 249.239C163.144 248.792 164.321 248.592 165.498 248.654C166.42 248.709 167.314 248.989 168.104 249.468C168.893 249.947 169.554 250.612 170.028 251.404C170.243 251.704 170.329 252.077 170.269 252.441C170.208 252.806 170.005 253.131 169.705 253.345C169.404 253.56 169.031 253.646 168.667 253.585C168.303 253.525 167.978 253.322 167.763 253.022C167.496 252.611 167.138 252.266 166.718 252.014C166.297 251.762 165.825 251.609 165.337 251.566C164.583 251.501 163.825 251.614 163.123 251.895C162.421 252.176 161.794 252.617 161.292 253.183C160.997 253.363 160.665 253.473 160.322 253.507Z" fill="#07346B"/>
<path d="M211.12 253.507C210.776 253.473 210.445 253.363 210.149 253.183C209.585 252.61 208.901 252.167 208.146 251.888C207.391 251.608 206.584 251.498 205.781 251.565C205.183 251.596 204.598 251.757 204.067 252.037C203.536 252.316 203.072 252.707 202.708 253.183C202.493 253.484 202.168 253.686 201.804 253.747C201.44 253.808 201.067 253.721 200.766 253.507C200.466 253.292 200.263 252.967 200.203 252.603C200.142 252.239 200.228 251.866 200.443 251.565C201.06 250.777 201.844 250.136 202.74 249.688C203.635 249.24 204.619 248.997 205.62 248.977C206.823 248.899 208.029 249.091 209.148 249.539C210.268 249.986 211.273 250.679 212.091 251.565C212.326 251.834 212.456 252.179 212.456 252.536C212.456 252.893 212.326 253.238 212.091 253.507C211.767 253.345 211.444 253.507 211.12 253.507Z" fill="#07346B"/>
</g>
<path d="M124.407 176.499L120.848 171.646" stroke="white" stroke-width="2.41778" stroke-miterlimit="10"/>
<path d="M119.068 169.38L115.509 164.365" stroke="white" stroke-width="2.41778" stroke-miterlimit="10"/>
<path d="M113.892 162.263L110.333 157.248" stroke="white" stroke-width="2.41778" stroke-miterlimit="10"/>
<path d="M108.715 155.145L104.994 150.13" stroke="white" stroke-width="2.41778" stroke-miterlimit="10"/>
<path d="M103.376 147.865L99.6553 143.012" stroke="white" stroke-width="2.41778" stroke-miterlimit="10"/>
<path d="M98.0371 140.748L94.478 135.732" stroke="white" stroke-width="2.41778" stroke-miterlimit="10"/>
<path d="M92.8605 133.628L89.1396 128.613" stroke="white" stroke-width="2.41778" stroke-miterlimit="10"/>
<path d="M92.2134 361.25L96.5814 356.72" stroke="white" stroke-width="2.41778" stroke-miterlimit="10"/>
<path d="M98.5225 354.779L102.729 350.249" stroke="white" stroke-width="2.41778" stroke-miterlimit="10"/>
<path d="M104.509 348.469L108.877 343.777" stroke="white" stroke-width="2.41778" stroke-miterlimit="10"/>
<path d="M110.818 341.998L115.024 337.307" stroke="white" stroke-width="2.41778" stroke-miterlimit="10"/>
<path d="M116.965 335.527L121.171 330.997" stroke="white" stroke-width="2.41778" stroke-miterlimit="10"/>
<path d="M263.86 187.177L268.713 183.294" stroke="white" stroke-width="2.41778" stroke-miterlimit="10"/>
<path d="M270.654 181.676L275.507 177.632" stroke="white" stroke-width="2.41778" stroke-miterlimit="10"/>
<path d="M277.611 175.852L282.302 171.97" stroke="white" stroke-width="2.41778" stroke-miterlimit="10"/>
<path d="M284.405 170.19L289.097 166.308" stroke="white" stroke-width="2.41778" stroke-miterlimit="10"/>
<path d="M291.2 164.69L296.054 160.808" stroke="white" stroke-width="2.41778" stroke-miterlimit="10"/>
<path d="M321.291 165.661C337.016 165.661 349.764 152.913 349.764 137.188C349.764 121.463 337.016 108.715 321.291 108.715C305.566 108.715 292.818 121.463 292.818 137.188C292.818 152.913 305.566 165.661 321.291 165.661Z" fill="white" stroke="#696992" stroke-width="2.41778" stroke-miterlimit="10"/>
<path d="M311.261 138.644C311.328 138.958 311.325 139.283 311.251 139.596C311.177 139.908 311.034 140.2 310.832 140.45C310.63 140.7 310.375 140.901 310.085 141.04C309.796 141.178 309.479 141.25 309.158 141.25C308.836 141.25 308.519 141.178 308.23 141.04C307.94 140.901 307.685 140.7 307.483 140.45C307.281 140.2 307.138 139.908 307.064 139.596C306.99 139.283 306.987 138.958 307.054 138.644C307.054 138.086 307.276 137.551 307.67 137.157C308.065 136.763 308.6 136.541 309.158 136.541C309.715 136.541 310.25 136.763 310.645 137.157C311.039 137.551 311.261 138.086 311.261 138.644Z" fill="#FACAB8"/>
<path d="M309.158 141.555C308.473 141.467 307.85 141.111 307.426 140.565C307.002 140.02 306.81 139.329 306.893 138.643C306.855 138.329 306.886 138.011 306.984 137.71C307.082 137.409 307.244 137.134 307.46 136.903C307.676 136.671 307.94 136.49 308.233 136.372C308.526 136.253 308.842 136.2 309.158 136.217C309.47 136.214 309.779 136.275 310.066 136.398C310.354 136.521 310.612 136.703 310.825 136.931C311.038 137.159 311.201 137.43 311.304 137.724C311.407 138.019 311.447 138.332 311.423 138.643C311.482 138.986 311.47 139.337 311.386 139.674C311.302 140.011 311.148 140.327 310.935 140.601C310.722 140.875 310.453 141.102 310.147 141.266C309.841 141.43 309.504 141.529 309.158 141.555ZM309.158 136.864C308.931 136.863 308.706 136.909 308.499 137.001C308.291 137.092 308.105 137.226 307.953 137.393C307.8 137.561 307.684 137.759 307.613 137.975C307.542 138.19 307.517 138.418 307.54 138.643C307.54 139.938 308.349 140.908 309.158 140.908C309.967 140.908 310.775 139.938 310.775 138.643C310.835 138.413 310.835 138.17 310.778 137.939C310.72 137.708 310.606 137.494 310.446 137.318C310.286 137.141 310.084 137.008 309.859 136.928C309.634 136.849 309.393 136.827 309.158 136.864Z" fill="#07346B"/>
<path d="M316.761 153.041C313.202 151.747 311.584 148.188 310.29 142.849C309.475 140.011 309.093 137.066 309.157 134.113C309.157 125.216 313.849 121.818 321.129 121.818C328.409 121.818 333.424 123.76 333.424 132.657C333.424 146.085 329.056 154.012 321.129 154.012" fill="#FBD7CE"/>
<path d="M321.129 154.497C321.043 154.497 320.961 154.463 320.9 154.403C320.84 154.342 320.806 154.26 320.806 154.174C320.806 154.088 320.84 154.006 320.9 153.945C320.961 153.884 321.043 153.85 321.129 153.85C328.733 153.85 333.101 146.247 333.101 132.981C333.101 124.245 328.247 122.465 321.129 122.465C318.027 122.275 314.967 123.256 312.555 125.216C310.452 127.157 309.481 130.231 309.481 134.437C309.405 137.39 309.787 140.337 310.613 143.173C312.393 150.129 314.334 152.071 316.923 153.041C317.085 153.203 317.246 153.365 317.085 153.365C316.923 153.365 316.761 153.689 316.761 153.527C313.04 152.233 311.422 148.673 310.128 143.335C309.292 140.445 308.91 137.444 308.996 134.437C308.996 126.025 313.04 121.818 321.291 121.818C327.924 121.818 334.071 123.113 334.071 132.981C333.909 146.57 329.218 154.497 321.129 154.497Z" fill="#07346B"/>
<path d="M321.291 142.526H320.967C320.689 142.482 320.425 142.371 320.2 142.202C319.974 142.032 319.793 141.811 319.673 141.556C319.511 141.394 319.673 141.232 319.835 141.07C319.997 140.909 320.158 141.07 320.32 141.232C320.411 141.367 320.531 141.481 320.671 141.564C320.81 141.648 320.967 141.701 321.129 141.718C321.326 141.804 321.547 141.819 321.754 141.76C321.96 141.701 322.14 141.571 322.261 141.394C322.341 141.274 322.384 141.134 322.384 140.99C322.384 140.846 322.341 140.705 322.261 140.585C321.558 139.24 321.223 137.733 321.291 136.217C321.291 136.055 321.453 135.894 321.614 136.055C321.776 136.217 321.938 136.217 321.776 136.379C321.809 137.729 322.141 139.055 322.747 140.262C322.904 140.472 322.989 140.727 322.989 140.99C322.989 141.252 322.904 141.507 322.747 141.718C322.622 141.99 322.413 142.215 322.151 142.36C321.889 142.506 321.588 142.564 321.291 142.526Z" fill="#07346B"/>
<path d="M314.658 136.541C314.496 136.541 314.496 136.541 314.496 136.38C314.459 136.351 314.429 136.314 314.409 136.272C314.388 136.23 314.377 136.184 314.377 136.137C314.377 136.09 314.388 136.044 314.409 136.002C314.429 135.96 314.459 135.923 314.496 135.894C314.703 135.675 314.954 135.504 315.234 135.392C315.513 135.28 315.813 135.231 316.114 135.247C316.342 135.251 316.565 135.313 316.763 135.426C316.961 135.539 317.127 135.7 317.246 135.894C317.408 136.056 317.408 136.218 317.085 136.38C316.761 136.541 316.761 136.541 316.599 136.218C316.522 136.119 316.424 136.039 316.312 135.983C316.2 135.927 316.077 135.897 315.952 135.894C315.763 135.889 315.575 135.93 315.406 136.015C315.237 136.1 315.091 136.225 314.981 136.38C314.82 136.541 314.82 136.541 314.658 136.541Z" fill="#07346B"/>
<path d="M327.762 136.541C327.6 136.541 327.6 136.541 327.6 136.38C327.294 136.086 326.891 135.913 326.467 135.894C326.124 135.928 325.792 136.038 325.497 136.218C325.454 136.304 325.379 136.369 325.288 136.399C325.197 136.43 325.097 136.422 325.011 136.38C324.926 136.337 324.86 136.261 324.83 136.17C324.8 136.079 324.807 135.98 324.85 135.894C325.185 135.524 325.647 135.293 326.144 135.247C326.444 135.231 326.745 135.28 327.024 135.392C327.304 135.504 327.555 135.675 327.762 135.894C327.799 135.923 327.829 135.96 327.849 136.002C327.87 136.044 327.88 136.09 327.88 136.137C327.88 136.184 327.87 136.23 327.849 136.272C327.829 136.314 327.799 136.351 327.762 136.38V136.541Z" fill="#07346B"/>
<path d="M321.129 146.895C320.746 146.943 320.357 146.876 320.012 146.703C319.666 146.531 319.38 146.259 319.188 145.924C319.026 145.762 319.026 145.601 319.35 145.439C319.673 145.277 319.673 145.277 319.835 145.601C320.298 145.952 320.873 146.125 321.453 146.086C321.772 146.128 322.097 146.073 322.385 145.929C322.673 145.785 322.912 145.558 323.07 145.277C323.092 145.235 323.121 145.197 323.157 145.166C323.193 145.134 323.235 145.111 323.28 145.096C323.325 145.081 323.372 145.075 323.42 145.078C323.467 145.081 323.513 145.094 323.556 145.115C323.598 145.137 323.636 145.166 323.667 145.202C323.698 145.238 323.722 145.279 323.737 145.325C323.752 145.37 323.758 145.417 323.755 145.465C323.752 145.512 323.739 145.558 323.718 145.601C323.431 145.915 323.081 146.164 322.69 146.331C322.3 146.499 321.878 146.581 321.453 146.571L321.129 146.895Z" fill="#07346B"/>
<path d="M332.453 141.88C333.256 141.84 334.015 141.504 334.583 140.936C335.151 140.368 335.488 139.608 335.527 138.806C335.689 137.188 334.071 136.703 332.938 136.864" fill="#FACAB8"/>
<path d="M332.615 142.202H332.453C332.367 142.202 332.285 142.168 332.224 142.108C332.163 142.047 332.129 141.965 332.129 141.879C332.129 141.793 332.163 141.711 332.224 141.65C332.285 141.589 332.367 141.555 332.453 141.555C332.741 141.588 333.033 141.561 333.311 141.478C333.589 141.395 333.848 141.256 334.071 141.07C334.68 140.473 335.029 139.658 335.041 138.805C335.057 138.403 334.943 138.006 334.718 137.673C334.193 137.322 333.568 137.152 332.938 137.187C332.852 137.187 332.77 137.153 332.709 137.092C332.649 137.032 332.615 136.95 332.615 136.864C332.615 136.778 332.649 136.696 332.709 136.635C332.77 136.574 332.852 136.54 332.938 136.54C333.34 136.46 333.755 136.477 334.149 136.589C334.543 136.702 334.904 136.907 335.203 137.187C335.434 137.384 335.613 137.635 335.726 137.916C335.839 138.198 335.881 138.503 335.85 138.805C335.724 139.837 335.271 140.801 334.556 141.555C334.001 141.984 333.316 142.212 332.615 142.202Z" fill="#07346B"/>
<path d="M74.2557 136.218C90.3383 136.218 103.376 123.18 103.376 107.098C103.376 91.015 90.3383 77.9775 74.2557 77.9775C58.1732 77.9775 45.1357 91.015 45.1357 107.098C45.1357 123.18 58.1732 136.218 74.2557 136.218Z" fill="white" stroke="#696992" stroke-width="2.41778" stroke-miterlimit="10"/>
<path d="M74.2557 405.738C90.3383 405.738 103.376 392.701 103.376 376.618C103.376 360.536 90.3383 347.498 74.2557 347.498C58.1732 347.498 45.1357 360.536 45.1357 376.618C45.1357 392.701 58.1732 405.738 74.2557 405.738Z" fill="white" stroke="#696992" stroke-width="2.41778" stroke-miterlimit="10"/>
<path d="M69.2409 127.481C64.7111 125.864 62.9316 121.334 61.152 115.186C60.1956 111.655 59.7596 108.004 59.8578 104.347C59.8578 93.508 65.52 89.3018 74.7413 89.3018C83.9627 89.3018 89.9485 91.5666 89.9485 102.729C89.9485 119.231 84.448 128.937 74.7413 128.937" fill="#FBD7CE"/>
<path d="M74.5795 129.261C74.4937 129.261 74.4114 129.227 74.3507 129.166C74.2901 129.105 74.256 129.023 74.256 128.937C74.256 128.851 74.2901 128.769 74.3507 128.709C74.4114 128.648 74.4937 128.614 74.5795 128.614C83.9626 128.614 89.4631 119.069 89.4631 102.891C89.4631 92.052 83.4773 89.9489 74.5795 89.9489C69.888 89.9489 66.4906 90.9195 64.064 93.3462C61.6373 95.7729 60.3431 99.6555 60.3431 104.671C60.3041 108.271 60.7392 111.861 61.6373 115.348C63.9022 124.084 66.3289 126.349 69.4026 127.481C69.5644 127.643 69.7262 127.805 69.7262 127.967C69.7262 128.128 69.4026 128.29 69.2409 128.29C64.7111 126.672 62.7697 122.304 60.9902 115.51C59.9536 111.992 59.4626 108.337 59.5342 104.671C59.5342 94.3169 64.3875 89.3018 74.7413 89.3018C82.8302 89.3018 90.272 90.9195 90.272 103.053C90.1102 119.392 84.448 129.261 74.5795 129.261Z" fill="#07346B"/>
<path d="M74.7414 114.7H74.2561C73.6249 114.563 73.0565 114.221 72.6383 113.729C72.5954 113.643 72.5883 113.544 72.6187 113.453C72.649 113.362 72.7143 113.287 72.8001 113.244C72.8859 113.201 72.9852 113.194 73.0762 113.224C73.1673 113.255 73.2425 113.32 73.2854 113.406C73.5253 113.726 73.8679 113.955 74.2561 114.053C74.5077 114.107 74.7682 114.107 75.0196 114.051C75.271 113.995 75.5072 113.885 75.7121 113.729C75.8738 113.406 75.8738 113.244 75.5503 112.759C74.7049 111.048 74.2622 109.166 74.2561 107.258C74.4178 107.096 74.5796 106.935 74.7414 106.935C74.9032 106.935 75.065 107.258 75.065 107.42C75.1522 109.11 75.5931 110.764 76.3592 112.273C76.5186 112.543 76.6027 112.85 76.6027 113.163C76.6027 113.476 76.5186 113.783 76.3592 114.053C76.1974 114.376 75.7121 114.7 74.7414 114.7Z" fill="#07346B"/>
<path d="M66.6527 107.097C66.4909 107.097 66.4909 107.097 66.3292 106.935C66.2922 106.906 66.2623 106.87 66.2417 106.828C66.2211 106.786 66.2104 106.739 66.2104 106.693C66.2104 106.646 66.2211 106.6 66.2417 106.557C66.2623 106.515 66.2922 106.479 66.3292 106.45C66.5683 106.174 66.868 105.958 67.2048 105.817C67.5417 105.677 67.9064 105.617 68.2705 105.641C68.8544 105.784 69.3695 106.128 69.7265 106.612C69.8883 106.773 69.8883 107.097 69.5647 107.097C69.2412 107.097 69.0794 107.259 69.0794 106.935C69.0794 106.612 68.5941 106.612 68.2705 106.45C67.7925 106.438 67.3285 106.612 66.9763 106.935C66.8145 107.097 66.8145 107.097 66.6527 107.097Z" fill="#07346B"/>
<path d="M82.5068 107.097C82.345 107.097 82.345 107.097 82.1833 106.935C81.7692 106.608 81.2543 106.437 80.7273 106.449C80.538 106.444 80.3503 106.486 80.181 106.57C80.0116 106.655 79.8658 106.78 79.7566 106.935C79.7137 107.021 79.6384 107.086 79.5474 107.116C79.4564 107.146 79.3571 107.139 79.2713 107.097C79.1854 107.054 79.1202 106.978 79.0899 106.887C79.0595 106.796 79.0666 106.697 79.1095 106.611C79.2961 106.358 79.54 106.153 79.8212 106.012C80.1024 105.872 80.4129 105.8 80.7273 105.802C81.0908 105.783 81.4541 105.845 81.7901 105.985C82.1262 106.126 82.4264 106.339 82.6686 106.611C82.7056 106.64 82.7355 106.677 82.756 106.719C82.7766 106.761 82.7873 106.807 82.7873 106.854C82.7873 106.901 82.7766 106.947 82.756 106.989C82.7355 107.031 82.7056 107.068 82.6686 107.097H82.5068Z" fill="#07346B"/>
<path d="M74.4175 119.716C73.9885 119.761 73.5551 119.696 73.1586 119.526C72.7621 119.356 72.4157 119.087 72.1526 118.745C71.9909 118.583 71.9909 118.26 72.3144 118.26C72.638 118.26 72.7998 118.098 72.7998 118.421C73.0211 118.666 73.2989 118.853 73.6091 118.966C73.9193 119.079 74.2524 119.114 74.5793 119.069C74.9626 119.116 75.3514 119.05 75.6968 118.877C76.0423 118.704 76.3289 118.433 76.5207 118.098C76.6824 117.936 76.8442 117.774 77.006 117.936C77.1678 118.098 77.3295 118.26 77.1678 118.421C76.8631 118.859 76.4487 119.21 75.9659 119.437C75.4832 119.664 74.9492 119.76 74.4175 119.716Z" fill="#07346B"/>
<path d="M61.1518 113.891C60.679 113.841 60.2215 113.694 59.8074 113.46C59.3933 113.226 59.0313 112.91 58.7435 112.531C58.4558 112.153 58.2483 111.719 58.1339 111.258C58.0195 110.796 58.0005 110.316 58.0781 109.847C58.1675 109.476 58.3337 109.127 58.566 108.824C58.7984 108.521 59.0916 108.27 59.427 108.087C59.7623 107.904 60.1322 107.793 60.5129 107.762C60.8936 107.731 61.2766 107.78 61.6372 107.906" fill="#FACAB8"/>
<path d="M61.1518 114.214C60.1576 114.122 59.2341 113.66 58.5633 112.92C58.1797 112.482 57.8946 111.966 57.7271 111.408C57.5597 110.849 57.5138 110.262 57.5927 109.685C57.6746 108.988 58.0224 108.351 58.5633 107.905C59.0276 107.647 59.5391 107.485 60.0672 107.43C60.5954 107.374 61.1293 107.426 61.6371 107.581C61.7989 107.743 61.9607 107.905 61.9607 108.067C61.9607 108.229 61.6371 108.39 61.4753 108.39C61.0967 108.279 60.6985 108.25 60.3076 108.305C59.9168 108.361 59.5426 108.501 59.2104 108.714C58.8153 109.053 58.5331 109.504 58.4016 110.008C58.3343 110.498 58.3716 110.996 58.511 111.47C58.6504 111.944 58.8888 112.383 59.2104 112.758C59.4279 113.069 59.7193 113.32 60.0583 113.489C60.3972 113.659 60.773 113.741 61.1518 113.729C61.3136 113.729 61.4753 113.891 61.4753 114.214H61.1518Z" fill="#07346B"/>
<path d="M88.3311 113.73C89.314 113.718 90.2531 113.322 90.9482 112.626C91.6433 111.931 92.0394 110.992 92.0519 110.009C92.0612 109.635 91.98 109.263 91.8151 108.927C91.6503 108.59 91.4067 108.299 91.105 108.076C90.8033 107.854 90.4524 107.708 90.0822 107.65C89.7119 107.592 89.3332 107.625 88.9782 107.744" fill="#FACAB8"/>
<path d="M88.6539 114.215H88.3304C88.1686 114.215 88.0068 114.053 88.0068 113.729C88.0068 113.406 88.1686 113.406 88.4922 113.406C88.844 113.466 89.2053 113.439 89.544 113.326C89.8827 113.213 90.1882 113.018 90.4335 112.759C90.8442 112.429 91.1743 112.01 91.3986 111.533C91.6228 111.057 91.7354 110.535 91.7277 110.009C91.7398 109.531 91.5658 109.066 91.2424 108.714C90.9304 108.46 90.5623 108.283 90.1685 108.198C89.7747 108.114 89.3665 108.124 88.9775 108.229C88.8157 108.229 88.6539 108.067 88.4922 107.905C88.3304 107.744 88.6539 107.582 88.8157 107.42C89.3435 107.328 89.8859 107.369 90.3942 107.538C90.9024 107.708 91.3606 108.001 91.7277 108.391C92.2233 108.919 92.5107 109.608 92.5366 110.332C92.4345 111.579 91.8549 112.738 90.9188 113.568C90.2223 113.951 89.448 114.173 88.6539 114.215Z" fill="#07346B"/>
<path d="M591.136 552.31H559.266C558.157 552.33 557.099 552.78 556.314 553.564C555.53 554.349 555.08 555.407 555.06 556.516V573.502C555.08 574.612 555.53 575.669 556.314 576.454C557.099 577.238 558.157 577.688 559.266 577.709H561.854C561.822 580.112 560.9 582.418 559.266 584.18C559.104 584.364 558.994 584.588 558.948 584.829C558.902 585.07 558.921 585.319 559.003 585.55C559.086 585.781 559.229 585.986 559.417 586.144C559.606 586.301 559.833 586.405 560.075 586.445C566.708 587.092 571.076 582.4 571.076 577.87H590.974C592.083 577.85 593.141 577.4 593.926 576.616C594.71 575.831 595.16 574.773 595.18 573.664V556.516C595.202 555.971 595.114 555.428 594.92 554.918C594.727 554.409 594.432 553.944 594.055 553.551C593.677 553.158 593.224 552.845 592.722 552.632C592.22 552.419 591.681 552.309 591.136 552.31Z" fill="#0F7CFF"/>
<path d="M480.804 577.708C477.461 577.711 474.238 578.953 471.758 581.194C469.277 583.435 467.716 586.516 467.376 589.841H482.907C483.613 589.845 484.306 589.649 484.907 589.277C485.508 588.905 485.992 588.372 486.304 587.738L486.789 586.768L487.922 588.386C488.272 588.865 488.737 589.25 489.273 589.504C489.81 589.759 490.402 589.875 490.996 589.841H494.069C493.789 586.522 492.268 583.429 489.809 581.181C487.351 578.932 484.135 577.692 480.804 577.708Z" fill="#0F7CFF"/>
<path d="M498.599 612.167C496.354 614.661 493.61 616.655 490.544 618.021C487.478 619.386 484.16 620.091 480.804 620.091C477.448 620.091 474.129 619.386 471.064 618.021C467.998 616.655 465.254 614.661 463.008 612.167C464.373 610.673 466.1 609.558 468.023 608.931L475.303 606.504C475.778 606.359 476.283 606.342 476.766 606.456C477.249 606.569 477.694 606.809 478.054 607.152L478.863 607.96C479.109 608.229 479.41 608.444 479.744 608.59C480.078 608.737 480.439 608.813 480.804 608.813C481.169 608.813 481.53 608.737 481.864 608.59C482.198 608.444 482.498 608.229 482.745 607.96L483.554 607.152C483.897 606.783 484.341 606.525 484.831 606.41C485.32 606.295 485.833 606.328 486.304 606.504L493.584 608.931C495.507 609.558 497.235 610.673 498.599 612.167Z" fill="#0F7CFF"/>
<path d="M636.596 360.441L638.375 364C638.637 364.572 639.043 365.067 639.554 365.436C640.064 365.804 640.661 366.034 641.287 366.103L645.332 366.75C646.03 366.854 646.686 367.152 647.226 367.608C647.765 368.065 648.167 368.663 648.385 369.335C648.603 370.007 648.63 370.727 648.462 371.413C648.294 372.1 647.939 372.726 647.435 373.221L644.523 375.971C644.062 376.396 643.717 376.93 643.519 377.524C643.321 378.118 643.276 378.753 643.39 379.369L644.037 383.413C644.151 384.11 644.069 384.825 643.802 385.479C643.535 386.132 643.093 386.7 642.524 387.118C641.955 387.536 641.282 387.789 640.578 387.849C639.875 387.909 639.168 387.774 638.537 387.458L634.978 385.516C634.438 385.199 633.824 385.032 633.198 385.032C632.572 385.032 631.958 385.199 631.419 385.516L627.86 387.458C627.228 387.774 626.522 387.909 625.818 387.849C625.114 387.789 624.441 387.536 623.872 387.118C623.303 386.7 622.861 386.132 622.594 385.479C622.327 384.825 622.246 384.11 622.359 383.413L623.006 379.369C623.107 378.753 623.056 378.122 622.859 377.53C622.662 376.938 622.324 376.403 621.874 375.971L618.962 373.221C618.458 372.726 618.102 372.1 617.934 371.413C617.766 370.727 617.793 370.007 618.011 369.335C618.23 368.663 618.631 368.065 619.171 367.608C619.71 367.152 620.366 366.854 621.065 366.75L625.109 366.103C625.727 366.01 626.314 365.771 626.821 365.405C627.327 365.039 627.739 364.557 628.021 364L629.801 360.441C630.125 359.82 630.614 359.301 631.212 358.938C631.811 358.575 632.498 358.384 633.198 358.384C633.898 358.384 634.585 358.575 635.184 358.938C635.783 359.301 636.271 359.82 636.596 360.441Z" fill="white"/>
<path d="M485.98 343.777H392.311V314.01C392.311 310.577 393.675 307.285 396.102 304.858C398.529 302.431 401.821 301.067 405.253 301.067H485.98C489.413 301.067 492.705 302.431 495.132 304.858C497.559 307.285 498.923 310.577 498.923 314.01V330.834C498.923 334.267 497.559 337.559 495.132 339.986C492.705 342.413 489.413 343.777 485.98 343.777Z" fill="#0F7CFF"/>
<path d="M530.631 337.306C527.687 337.306 524.809 336.433 522.362 334.798C519.914 333.162 518.007 330.838 516.88 328.118C515.754 325.399 515.459 322.406 516.033 319.519C516.607 316.632 518.025 313.98 520.106 311.898C522.188 309.817 524.84 308.399 527.727 307.825C530.614 307.251 533.607 307.546 536.326 308.672C539.046 309.799 541.37 311.706 543.006 314.154C544.641 316.601 545.514 319.479 545.514 322.423C545.51 326.369 543.94 330.152 541.15 332.942C538.36 335.732 534.577 337.302 530.631 337.306ZM530.631 310.775C528.327 310.775 526.075 311.458 524.159 312.738C522.244 314.018 520.751 315.837 519.869 317.965C518.988 320.094 518.757 322.436 519.206 324.695C519.656 326.955 520.765 329.03 522.394 330.659C524.023 332.288 526.099 333.397 528.358 333.847C530.618 334.296 532.96 334.066 535.088 333.184C537.217 332.302 539.036 330.809 540.316 328.894C541.595 326.978 542.279 324.726 542.279 322.423C542.274 319.335 541.046 316.374 538.862 314.191C536.679 312.007 533.719 310.779 530.631 310.775Z" fill="#0F7CFF"/>
<path d="M485.98 463.493H392.311V433.725C392.311 430.293 393.675 427.001 396.102 424.574C398.529 422.147 401.821 420.783 405.253 420.783H485.98C489.413 420.783 492.705 422.147 495.132 424.574C497.559 427.001 498.923 430.293 498.923 433.725V450.55C498.923 453.983 497.559 457.275 495.132 459.702C492.705 462.129 489.413 463.493 485.98 463.493Z" fill="#0F7CFF"/>
<path d="M530.631 457.022C527.687 457.022 524.809 456.149 522.362 454.514C519.914 452.878 518.007 450.554 516.88 447.834C515.754 445.115 515.459 442.122 516.033 439.235C516.607 436.348 518.025 433.696 520.106 431.614C522.188 429.533 524.84 428.115 527.727 427.541C530.614 426.967 533.607 427.261 536.326 428.388C539.046 429.514 541.37 431.422 543.006 433.87C544.641 436.317 545.514 439.195 545.514 442.138C545.51 446.084 543.94 449.868 541.15 452.658C538.36 455.448 534.577 457.018 530.631 457.022ZM530.631 430.49C528.327 430.49 526.075 431.174 524.159 432.453C522.244 433.733 520.751 435.553 519.869 437.681C518.988 439.809 518.757 442.151 519.206 444.411C519.656 446.67 520.765 448.746 522.394 450.375C524.023 452.004 526.099 453.113 528.358 453.563C530.618 454.012 532.96 453.781 535.088 452.9C537.217 452.018 539.036 450.525 540.316 448.61C541.595 446.694 542.279 444.442 542.279 442.138C542.274 439.051 541.046 436.09 538.862 433.907C536.679 431.723 533.719 430.495 530.631 430.49Z" fill="#0F7CFF"/>
<path d="M64.3878 95.1252C66.4909 97.3901 70.2118 100.302 78.9478 100.949C82.8304 101.273 85.5806 100.626 86.8749 102.243C88.3971 104.47 89.0846 107.163 88.8162 109.847C88.6544 110.818 91.89 106.935 91.89 106.935C90.5958 104.994 93.1842 100.626 92.3753 94.8016C92.0518 92.375 87.0366 87.0363 79.9184 85.2567C77.121 84.4082 74.143 84.352 71.3155 85.0946C68.4881 85.8371 65.9219 87.3493 63.9024 89.463C62.1229 91.0807 59.6962 90.4336 57.7549 94.3163C56.1371 97.8754 58.8873 104.508 58.402 106.611C58.2402 107.582 59.0491 107.259 60.9904 109.685C61.7993 110.656 61.9611 106.773 61.9611 104.67C62.5689 101.441 63.3794 98.2528 64.3878 95.1252Z" fill="#0F7CFF"/>
<path d="M88.8161 110.332C88.6935 110.315 88.5798 110.258 88.4926 110.17C88.3308 110.008 88.3308 110.008 88.3308 109.847C88.6065 107.286 87.9769 104.711 86.5512 102.567C85.5806 101.596 84.2863 101.596 81.8597 101.596C80.8325 101.615 79.8054 101.561 78.7859 101.434C70.5352 100.949 66.6526 98.1985 64.5494 95.9336C63.6434 98.8044 62.8874 101.72 62.2845 104.67C62.2845 104.993 62.1228 105.64 62.1228 105.964C61.961 109.199 61.7992 110.332 60.9903 110.332C60.8285 110.332 60.6668 110.17 60.505 110.008C59.9011 109.319 59.2526 108.671 58.5637 108.067C58.2914 107.942 58.0662 107.733 57.9207 107.471C57.7752 107.21 57.7171 106.908 57.7548 106.611C57.7834 105.406 57.6195 104.205 57.2694 103.052C56.7841 100.14 55.9752 96.7425 57.1077 94.3159C57.4435 93.3945 58.0041 92.5715 58.7386 91.9217C59.4732 91.2719 60.3584 90.8159 61.3139 90.595C62.0427 90.3792 62.7086 89.9907 63.2552 89.4625C64.7535 87.9339 66.5403 86.7178 68.5119 85.8847C70.4836 85.0516 72.601 84.6181 74.7414 84.6092C76.3822 84.5852 78.0176 84.8033 79.5948 85.2563C82.8495 86.1972 85.8775 87.7938 88.4926 89.9479C90.3102 91.2463 91.6244 93.1319 92.2134 95.2865C92.4013 97.9388 92.2381 100.604 91.7281 103.214C91.4046 104.993 91.081 106.611 91.5663 107.258C91.6033 107.287 91.6332 107.324 91.6538 107.366C91.6743 107.408 91.685 107.454 91.685 107.501C91.685 107.548 91.6743 107.594 91.6538 107.636C91.6332 107.678 91.6033 107.715 91.5663 107.743C89.4632 110.332 88.9779 110.332 88.8161 110.332ZM75.065 85.0945C72.9977 85.1133 70.956 85.5533 69.0645 86.3878C67.173 87.2222 65.4716 88.4336 64.0641 89.9479C63.3841 90.499 62.6192 90.9361 61.7992 91.2421C60.9467 91.457 60.1606 91.8797 59.5113 92.4726C58.862 93.0654 58.3697 93.8099 58.0783 94.6394C57.1077 96.7425 57.7548 100.14 58.4019 102.89C58.7672 104.206 58.9308 105.57 58.8872 106.935C58.7254 107.258 58.7254 107.258 59.3725 107.582L61.1521 109.361C61.3639 108.241 61.4722 107.104 61.4757 105.964C61.4757 105.479 61.6374 104.993 61.6374 104.67C62.2087 101.432 63.0198 98.2419 64.0641 95.1248C64.0714 95.0414 64.1078 94.9633 64.167 94.9041C64.2262 94.8449 64.3043 94.8085 64.3877 94.8012C64.5494 94.8012 64.7112 94.8012 64.7112 94.963C66.6525 97.2279 70.2117 100.14 78.7859 100.625C79.7504 100.76 80.7244 100.814 81.6979 100.787C84.1245 100.787 85.9041 100.787 87.0366 102.081C88.5485 104.129 89.2409 106.668 88.9779 109.199C89.4632 108.714 90.2721 107.743 91.081 106.935C90.7331 105.491 90.789 103.98 91.2428 102.567C91.8328 100.078 91.9969 97.5067 91.7281 94.963C91.4046 92.6981 86.5512 87.3594 79.5948 85.7417C78.1284 85.2885 76.5996 85.0701 75.065 85.0945Z" fill="#07346B"/>
<path d="M65.6821 93.1836L65.8439 93.3454C65.9312 93.4332 66.0448 93.4901 66.1675 93.5072L66.491 93.8307C66.6528 93.9925 66.8146 93.9925 66.8146 94.1543C66.8146 94.316 67.1381 94.316 67.2999 94.4778C67.4617 94.6396 67.6235 94.6396 67.7852 94.8014C67.947 94.9631 68.1088 95.1249 68.2706 95.1249C68.4324 95.1249 68.5941 95.2867 68.7559 95.4485C68.9177 95.6103 69.0795 95.6103 69.2412 95.772C69.403 95.9338 69.5648 95.9338 69.7266 96.0956C69.8884 96.2574 70.0501 96.2574 70.0501 96.4191C70.1341 96.5114 70.2495 96.5691 70.3737 96.5809C70.5355 96.7427 70.5355 96.7427 70.6972 96.7427C70.7812 96.835 70.8966 96.8927 71.0208 96.9045H70.3737C70.2859 96.9151 70.1968 96.906 70.1129 96.8781C70.0289 96.8501 69.9523 96.8039 69.8884 96.7427C69.7266 96.7427 69.5648 96.5809 69.403 96.5809C69.3391 96.5198 69.2624 96.4736 69.1785 96.4456C69.0946 96.4176 69.0055 96.4086 68.9177 96.4191C68.7559 96.2574 68.5941 96.2574 68.4324 96.0956C68.2706 95.9338 68.1088 95.772 67.947 95.772C67.7852 95.772 67.6235 95.4485 67.4617 95.4485L66.9764 94.9632C66.8146 94.8014 66.6528 94.6396 66.6528 94.4778C66.6528 94.316 66.491 94.1543 66.3292 93.9925C66.2369 93.9085 66.1793 93.7932 66.1675 93.6689C66.0057 93.5072 66.0057 93.5072 66.0057 93.3454L65.6821 93.1836Z" fill="#07346B"/>
<path d="M90.9191 378.398C90.9191 380.016 89.9484 381.472 88.6542 381.472C87.8805 381.395 87.1603 381.042 86.6256 380.477C86.0908 379.913 85.7772 379.175 85.7422 378.398C85.7772 377.621 86.0908 376.883 86.6256 376.319C87.1603 375.754 87.8805 375.401 88.6542 375.324C89.7866 375.324 90.9191 376.78 90.9191 378.398Z" fill="#EDEFF0"/>
<path d="M88.4926 381.796C87.5915 381.796 86.7274 381.438 86.0903 380.801C85.4532 380.163 85.0952 379.299 85.0952 378.398C85.0952 377.497 85.4532 376.633 86.0903 375.996C86.7274 375.359 87.5915 375.001 88.4926 375.001C89.3044 375.095 90.0471 375.503 90.5613 376.138C91.0755 376.773 91.3201 377.585 91.2428 378.398C91.2968 378.804 91.2675 379.216 91.1568 379.61C91.0461 380.004 90.8562 380.371 90.5988 380.689C90.3414 381.007 90.0219 381.269 89.6597 381.459C89.2976 381.65 88.9004 381.764 88.4926 381.796ZM88.4926 375.81C87.8061 375.81 87.1477 376.083 86.6622 376.568C86.1768 377.053 85.9041 377.712 85.9041 378.398C85.9041 379.085 86.1768 379.743 86.6622 380.229C87.1477 380.714 87.8061 380.987 88.4926 380.987C89.625 380.987 90.4339 379.854 90.4339 378.398C90.4916 378.099 90.4861 377.791 90.4177 377.494C90.3493 377.197 90.2195 376.918 90.0367 376.674C89.8538 376.43 89.622 376.227 89.356 376.079C89.0901 375.93 88.796 375.838 88.4926 375.81Z" fill="#07346B"/>
<path d="M64.2259 380.986C64.2477 381.368 64.1938 381.752 64.0673 382.113C63.9409 382.475 63.7442 382.808 63.4887 383.094C63.2332 383.379 62.9239 383.611 62.5785 383.777C62.233 383.943 61.8582 384.039 61.4756 384.06C60.6604 384.06 59.8786 383.736 59.3021 383.159C58.7257 382.583 58.4019 381.801 58.4019 380.986C58.4019 380.171 58.7257 379.389 59.3021 378.812C59.8786 378.236 60.6604 377.912 61.4756 377.912C61.8627 377.919 62.244 378.006 62.5959 378.168C62.9478 378.329 63.2626 378.561 63.5207 378.85C63.7788 379.138 63.9746 379.477 64.096 379.844C64.2173 380.212 64.2615 380.6 64.2259 380.986Z" fill="#EDEFF0"/>
<path d="M61.6372 384.546C60.6933 384.546 59.788 384.171 59.1206 383.504C58.4531 382.836 58.0781 381.931 58.0781 380.987C58.0781 380.043 58.4531 379.138 59.1206 378.47C59.788 377.803 60.6933 377.428 61.6372 377.428C62.5082 377.514 63.3127 377.931 63.8848 378.594C64.4568 379.256 64.7526 380.113 64.711 380.987C64.7555 381.425 64.7101 381.867 64.5777 382.287C64.4452 382.707 64.2285 383.095 63.9407 383.428C63.653 383.762 63.3003 384.033 62.9042 384.225C62.5081 384.417 62.077 384.526 61.6372 384.546ZM61.6372 378.237C60.924 378.286 60.2527 378.591 59.7471 379.097C59.2416 379.602 58.9361 380.274 58.887 380.987C58.961 381.691 59.2745 382.348 59.7751 382.849C60.2758 383.35 60.9331 383.663 61.6372 383.737C62.2984 383.664 62.9049 383.335 63.3278 382.822C63.7507 382.308 63.9567 381.65 63.9021 380.987C63.9295 380.33 63.7136 379.686 63.2957 379.179C62.8777 378.671 62.2872 378.336 61.6372 378.237Z" fill="#07346B"/>
<path d="M70.3731 396.355C67.1376 394.738 64.8727 390.855 63.2549 385.355C62.2842 382.119 59.534 382.281 59.534 378.075C59.473 376.003 59.8306 373.941 60.5853 372.011C61.3401 370.081 62.4765 368.324 63.9266 366.843C65.3766 365.363 67.1105 364.191 69.0243 363.396C70.9382 362.602 72.9926 362.202 75.0647 362.22C83.1536 362.22 88.4922 364.323 88.4922 374.192C88.4922 389.075 81.8594 397.488 75.0647 397.488" fill="#FBD7CE"/>
<path d="M75.0652 397.812C74.9794 397.812 74.8971 397.778 74.8364 397.717C74.7757 397.657 74.7416 397.574 74.7416 397.489C74.7416 397.403 74.7757 397.32 74.8364 397.26C74.8971 397.199 74.9794 397.165 75.0652 397.165C81.3745 397.165 88.1692 389.076 88.1692 374.193C88.1692 364.648 82.9923 362.706 75.0652 362.706C73.0464 362.677 71.0426 363.056 69.1739 363.821C67.3052 364.585 65.61 365.718 64.1899 367.154C62.7699 368.589 61.6542 370.296 60.9099 372.173C60.1655 374.049 59.8078 376.057 59.8581 378.075C59.8456 378.838 59.9982 379.594 60.3054 380.292C60.6125 380.99 61.067 381.614 61.6376 382.12C62.5894 382.917 63.2682 383.992 63.579 385.194C65.035 390.694 67.2998 394.253 70.5354 396.033C70.6972 396.194 70.859 396.356 70.6972 396.518C70.5354 396.68 70.3736 396.841 70.2118 396.68C66.8145 394.9 64.3878 391.179 62.9318 385.355C62.6306 384.318 62.0744 383.372 61.3141 382.605C60.6719 382.044 60.164 381.345 59.828 380.561C59.492 379.777 59.3364 378.927 59.3727 378.075C59.2805 375.873 59.6666 373.677 60.5045 371.638C61.3423 369.599 62.612 367.767 64.2261 366.265C67.2931 363.522 71.2738 362.022 75.3887 362.059C82.6687 362.059 89.3016 363.677 89.3016 374.354C89.5322 380.403 88.0758 386.396 85.0954 391.665C82.1834 395.547 78.6243 397.812 75.0652 397.812Z" fill="#07346B"/>
<path d="M75.2271 384.869H74.7418C74.4465 384.813 74.1656 384.698 73.9155 384.531C73.6654 384.365 73.4513 384.149 73.2858 383.899C73.124 383.737 73.2858 383.575 73.4475 383.413C73.6093 383.251 73.7711 383.413 73.9329 383.575C74.0459 383.726 74.1924 383.848 74.3609 383.932C74.5294 384.016 74.7152 384.06 74.9035 384.06C75.1279 384.133 75.3682 384.141 75.5969 384.084C75.8257 384.026 76.0338 383.906 76.1978 383.737C76.2777 383.617 76.3204 383.476 76.3204 383.332C76.3204 383.188 76.2777 383.048 76.1978 382.928C75.4483 381.412 75.0084 379.762 74.9035 378.075C75.0653 377.913 75.2271 377.751 75.3889 377.751C75.5506 377.751 75.7124 378.075 75.7124 378.236C75.7259 379.712 76.1156 381.16 76.8449 382.443C77.0028 382.683 77.087 382.964 77.087 383.251C77.087 383.539 77.0028 383.82 76.8449 384.06C76.6721 384.327 76.4309 384.543 76.1464 384.686C75.8619 384.828 75.5444 384.891 75.2271 384.869Z" fill="#07346B"/>
<path d="M672.996 308.833C673.004 307.169 672.484 305.544 671.512 304.193C670.54 302.841 669.164 301.833 667.583 301.312C666.002 300.791 664.296 300.784 662.711 301.292C661.126 301.801 659.742 302.798 658.759 304.142C657.776 302.798 656.393 301.801 654.807 301.292C653.222 300.784 651.516 300.791 649.935 301.312C648.354 301.833 646.979 302.841 646.006 304.193C645.034 305.544 644.515 307.169 644.523 308.833C644.523 308.833 643.39 317.246 658.921 326.791C674.128 317.246 672.996 308.833 672.996 308.833Z" fill="white" stroke="#696992" stroke-width="1.20889" stroke-linecap="round" stroke-linejoin="round"/>
<path d="M302.201 405.74H395.87V375.972C395.87 372.54 394.507 369.248 392.08 366.821C389.653 364.394 386.361 363.03 382.928 363.03H302.201C298.769 363.03 295.477 364.394 293.05 366.821C290.622 369.248 289.259 372.54 289.259 375.972V392.797C289.237 394.503 289.557 396.196 290.2 397.776C290.842 399.356 291.795 400.791 293.001 401.997C294.207 403.204 295.643 404.156 297.223 404.799C298.803 405.441 300.495 405.761 302.201 405.74Z" fill="#4B465C"/>
<path d="M257.388 399.268C254.445 399.268 251.567 398.395 249.12 396.76C246.672 395.124 244.764 392.8 243.638 390.08C242.511 387.361 242.217 384.368 242.791 381.481C243.365 378.594 244.783 375.942 246.864 373.86C248.946 371.779 251.598 370.361 254.485 369.787C257.372 369.213 260.365 369.507 263.084 370.634C265.804 371.76 268.128 373.668 269.764 376.116C271.399 378.563 272.272 381.441 272.272 384.385C272.268 388.331 270.698 392.114 267.908 394.904C265.118 397.694 261.334 399.264 257.388 399.268ZM257.388 372.737C255.085 372.737 252.833 373.42 250.917 374.7C249.002 375.979 247.509 377.799 246.627 379.927C245.745 382.055 245.515 384.397 245.964 386.657C246.414 388.916 247.523 390.992 249.152 392.621C250.781 394.25 252.857 395.359 255.116 395.809C257.376 396.258 259.718 396.027 261.846 395.146C263.974 394.264 265.793 392.771 267.073 390.856C268.353 388.94 269.036 386.688 269.036 384.385C269.032 381.297 267.804 378.336 265.62 376.153C263.437 373.969 260.476 372.741 257.388 372.737Z" fill="#4B465C"/>
<path d="M333.101 137.025C334.521 132.529 334.854 127.761 334.071 123.112C333.762 121.707 333.273 120.347 332.615 119.067C330.35 119.553 329.703 118.097 323.556 117.45C319.188 116.964 317.085 118.259 316.276 119.067C314.863 118.688 313.359 118.861 312.07 119.553C309.319 120.685 307.216 123.759 308.672 133.304C309.021 135.769 309.562 138.203 310.29 140.584C310.29 140.584 309.805 132.98 310.775 130.068C310.868 129.984 310.925 129.869 310.937 129.745L311.422 128.774C313.04 126.833 316.114 126.509 317.246 127.803C318.307 128.623 319.63 129.026 320.967 128.936C322.302 129.01 323.621 128.608 324.688 127.803C325.982 126.509 330.189 127.156 331.321 130.068C332.454 132.98 331.806 140.584 331.806 140.584C332.467 139.494 332.907 138.285 333.101 137.025Z" fill="#4B465C" stroke="#07346B" stroke-width="1.20889" stroke-miterlimit="10"/>
<path d="M63.9021 379.206C63.8409 377.656 64.1169 376.11 64.711 374.676C65.6047 372.302 66.6309 369.98 67.7848 367.72C72.4763 371.926 77.3297 372.897 81.5359 374.029C85.7421 375.162 86.2274 376.456 86.2274 380.662C86.2274 384.868 84.9332 390.531 84.1243 391.501C83.3155 392.472 84.4479 396.516 87.0363 396.193C90.5954 395.708 89.6248 390.369 90.1101 388.104C90.4337 386.163 96.4194 381.956 95.6106 377.912C95.1252 374.353 93.5074 373.544 90.7572 368.367C88.3306 363.514 87.6835 359.308 82.0212 357.043C72.6381 353.484 66.9759 356.881 65.3581 358.984C63.9021 360.764 61.1519 361.249 60.1812 363.514C58.887 366.264 60.5048 368.367 59.2106 371.441C57.9163 374.515 54.3572 377.265 54.0337 380.015C53.5483 384.707 60.1812 387.295 60.5048 388.266C60.8283 389.56 60.0195 395.06 63.5786 395.708C66.6523 396.193 66.167 392.148 66.167 392.148C64.9011 389.28 64.1351 386.216 63.9021 383.089C63.2831 382.827 62.7461 382.404 62.3475 381.863C61.9489 381.322 61.7035 380.684 61.6372 380.015C61.4755 377.75 62.7697 377.265 62.7697 377.265" fill="#4B465C"/>
<path d="M86.7123 396.84C86.1959 396.829 85.6933 396.671 85.2636 396.384C84.8338 396.098 84.4946 395.695 84.2856 395.222C83.4767 393.928 83.3149 392.148 83.9621 391.501C84.7709 390.369 85.9034 384.868 85.9034 380.662C85.9034 376.456 85.4181 375.324 81.5354 374.353C81.2118 374.191 80.7265 374.191 80.4029 374.029C76.6821 373.059 72.314 372.088 68.1078 368.529C67.6225 369.823 65.8429 373.382 65.1958 374.838C64.6876 376.236 64.4674 377.721 64.5487 379.206C64.5487 379.292 64.5146 379.374 64.454 379.435C64.3933 379.496 64.311 379.53 64.2252 379.53C64.1394 379.53 64.0571 379.496 63.9964 379.435C63.9357 379.374 63.9016 379.292 63.9016 379.206C63.7869 377.6 64.0645 375.99 64.7105 374.515C65.1958 372.735 67.7843 367.72 67.7843 367.558C67.7843 367.396 67.946 367.396 68.1078 367.396C68.2696 367.396 68.2696 367.396 68.4314 367.558C71.9728 370.506 76.2024 372.509 80.7265 373.382C81.0501 373.544 81.5354 373.544 81.8589 373.706C86.0652 374.838 86.7123 376.456 86.7123 380.662C86.7123 384.868 85.4181 390.692 84.4474 391.825C84.3099 392.343 84.2821 392.884 84.3657 393.413C84.4493 393.942 84.6424 394.448 84.9327 394.899C85.1113 395.256 85.3901 395.553 85.7348 395.754C86.0796 395.955 86.4754 396.051 86.8741 396.031C89.1389 395.708 89.3007 392.634 89.3007 390.207C89.2741 389.556 89.3285 388.904 89.4625 388.266C89.9192 387.133 90.5769 386.091 91.4038 385.192C93.0216 383.251 95.2865 380.662 94.9629 378.236C94.6861 376.387 93.9021 374.651 92.698 373.22C91.7409 371.822 90.8762 370.363 90.1096 368.852C89.6243 367.882 89.1389 366.749 88.6536 365.779C87.0358 362.381 85.9034 359.469 81.5354 357.69C71.9905 354.131 66.6518 357.69 65.5194 359.308C64.8717 360.134 64.041 360.798 63.0927 361.249C61.9379 361.739 60.973 362.591 60.3425 363.676C59.9439 364.817 59.7789 366.028 59.8572 367.235C60.0822 368.708 59.9148 370.215 59.3718 371.603C58.7232 373.076 57.85 374.441 56.7834 375.647C55.6178 376.874 54.7829 378.377 54.3567 380.015C54.0332 383.089 57.1069 385.192 59.21 386.648C60.1807 387.457 60.8278 387.78 60.8278 388.266C60.9792 388.791 61.0341 389.339 60.9896 389.884C61.1514 391.987 61.1514 395.06 63.7398 395.384C63.9642 395.456 64.2044 395.464 64.4332 395.407C64.6619 395.35 64.8701 395.23 65.0341 395.06C65.8429 394.413 65.8429 392.796 65.8429 392.148C64.6468 389.313 63.8833 386.313 63.5781 383.251C62.9559 382.907 62.4253 382.42 62.0312 381.828C61.637 381.237 61.3907 380.56 61.3132 379.853C61.1514 377.103 62.6074 376.78 62.7692 376.78C62.9309 376.78 63.0927 376.941 63.2545 377.103C63.4163 377.265 63.0927 377.427 62.9309 377.588C62.7692 377.75 61.9603 377.912 61.9603 379.853C62.0405 380.455 62.2572 381.029 62.5937 381.534C62.9301 382.039 63.3775 382.46 63.9016 382.765L64.2252 383.089C64.8723 389.075 66.3283 391.987 66.49 391.987V392.148C66.607 393.413 66.2622 394.677 65.5194 395.708C65.2608 395.942 64.9483 396.109 64.6096 396.194C64.2709 396.278 63.9166 396.278 63.5781 396.193C60.5043 395.708 60.3425 391.987 60.1807 389.884C60.1807 389.398 60.0189 388.751 60.0189 388.589C60.0189 388.428 59.0483 387.942 58.5629 387.457C56.4598 386.001 53.0625 383.736 53.5478 380.177C53.7096 378.559 55.0038 377.103 56.298 375.324C57.2384 374.174 58.052 372.927 58.7247 371.603C59.099 370.289 59.2628 368.924 59.21 367.558C59.0692 366.244 59.2354 364.915 59.6954 363.676C60.425 362.435 61.4906 361.425 62.7692 360.764C63.6541 360.358 64.4302 359.748 65.0341 358.984C66.4901 357.204 72.1523 353.16 82.0207 357.043C86.5505 358.822 88.0065 361.896 89.6243 365.455C89.9478 366.426 90.5949 367.396 91.0803 368.529C92.0509 370.47 92.8598 371.764 93.5069 372.897C94.6531 374.484 95.4272 376.309 95.7718 378.236C96.2572 381.148 93.9923 383.736 92.0509 385.839C91.3851 386.381 90.8606 387.076 90.5225 387.865C90.1844 388.654 90.0427 389.513 90.1096 390.369C90.1096 392.957 89.9478 396.678 87.0358 397.002C86.874 396.84 86.874 396.84 86.7123 396.84Z" fill="#07346B"/>
<path d="M67.9467 378.236C67.7849 378.236 67.7849 378.236 67.6231 378.074C67.5861 378.045 67.5562 378.008 67.5357 377.966C67.5151 377.924 67.5044 377.878 67.5044 377.831C67.5044 377.784 67.5151 377.738 67.5357 377.696C67.5562 377.654 67.5861 377.617 67.6231 377.588C67.8388 377.336 68.116 377.144 68.4278 377.031C68.7396 376.918 69.0754 376.887 69.4027 376.941C69.9162 377.049 70.3748 377.336 70.6969 377.75C70.8587 377.912 70.8587 378.074 70.5351 378.236C70.2115 378.397 70.2116 378.397 70.0498 378.074C69.9728 377.975 69.8747 377.895 69.7628 377.839C69.6508 377.783 69.5278 377.753 69.4027 377.75C69.0791 377.75 68.432 377.912 68.2702 378.236H67.9467Z" fill="#07346B"/>
<path d="M82.1828 378.237C82.021 378.237 82.021 378.237 81.8593 378.075C81.5071 377.751 81.0431 377.577 80.565 377.59C80.379 377.601 80.1972 377.65 80.0304 377.734C79.8637 377.817 79.7154 377.933 79.5944 378.075C79.5305 378.136 79.4538 378.182 79.3699 378.21C79.2859 378.238 79.1969 378.247 79.109 378.237C78.9473 378.237 78.9473 377.913 78.9473 377.751C79.3317 377.331 79.8429 377.047 80.4033 376.942C80.7437 376.919 81.0847 376.98 81.3954 377.122C81.7061 377.263 81.9767 377.479 82.1828 377.751C82.5064 377.913 82.5064 378.075 82.1828 378.237Z" fill="#07346B"/>
<path d="M75.0648 389.399C74.661 389.427 74.2566 389.353 73.8891 389.183C73.5215 389.013 73.2026 388.754 72.9617 388.429C72.8 388.267 72.8 388.105 73.1235 387.943C73.4471 387.782 73.4471 387.782 73.6088 388.105C74.0719 388.457 74.6465 388.629 75.2266 388.59C76.0355 388.59 76.8444 388.267 77.0062 387.782C77.168 387.62 77.3297 387.458 77.4915 387.62C77.6533 387.782 77.8151 387.943 77.6533 388.105C77.4033 388.471 77.0641 388.767 76.6677 388.965C76.2714 389.163 75.8311 389.257 75.3884 389.238L75.0648 389.399Z" fill="#07346B"/>
<path d="M68.7554 364.485L69.0789 364.809L69.4025 365.132L69.726 365.456L70.0496 365.78L70.5349 366.265L71.0203 366.75L71.5056 367.236L71.9909 367.721C72.1527 367.883 72.3145 368.044 72.4763 368.044C72.638 368.044 72.7998 368.368 72.9616 368.368C73.1234 368.368 73.2852 368.53 73.4469 368.692C73.6087 368.853 73.7705 368.853 73.7705 369.015C73.7705 369.177 73.9323 369.177 74.094 369.177C74.178 369.269 74.2934 369.327 74.4176 369.339H74.094C73.9323 369.339 73.7705 369.339 73.7705 369.177C73.7705 369.015 73.4469 369.015 73.2851 369.015C73.1234 369.015 73.1234 368.853 72.9616 368.853C72.7998 368.853 72.7998 368.692 72.638 368.692C72.4763 368.692 72.3145 368.53 72.1527 368.368C71.9909 368.206 71.8291 368.206 71.5056 368.044C71.182 367.883 71.3438 367.883 71.182 367.883H71.0203C70.6967 367.559 70.2114 367.236 70.0496 366.912C69.8878 366.588 69.726 366.588 69.726 366.427C69.726 366.265 69.5643 366.103 69.4025 365.941C69.2407 365.78 69.2407 365.618 69.0789 365.456C68.9866 365.372 68.9289 365.257 68.9171 365.132C68.8189 364.93 68.7638 364.71 68.7554 364.485Z" fill="#07346B"/>
<path d="M87.5222 377.913C87.5222 377.87 87.5052 377.829 87.4748 377.799C87.4445 377.768 87.4033 377.751 87.3604 377.751C87.3604 377.708 87.3434 377.667 87.3131 377.637C87.2827 377.606 87.2416 377.589 87.1987 377.589C87.1108 377.502 87.054 377.388 87.0369 377.266C87.0369 377.104 86.8751 377.104 86.8751 376.942C86.8751 376.781 86.7133 376.781 86.7133 376.619C86.7133 376.457 86.5515 376.457 86.5515 376.295C86.5515 376.133 86.3898 376.133 86.3898 375.972C86.3898 375.81 86.228 375.81 86.228 375.648C86.228 375.486 86.0662 375.486 86.0662 375.325C86.0662 375.163 85.9044 375.163 85.9044 375.001C85.9044 374.839 85.7427 374.839 85.7427 374.677C85.7427 374.516 85.5809 374.516 85.5809 374.354C85.5809 374.311 85.5638 374.27 85.5335 374.239C85.5032 374.209 85.462 374.192 85.4191 374.192L85.2573 374.03C85.4192 374.192 85.4191 374.192 85.5809 374.354L85.7427 374.516L85.9044 374.677L86.0662 374.839C86.228 375.001 86.228 375.001 86.228 375.163C86.228 375.324 86.3898 375.325 86.3898 375.486C86.4821 375.57 86.5397 375.686 86.5515 375.81C86.6823 376.058 86.7385 376.339 86.7133 376.619V377.266C87.5222 377.428 87.5222 377.751 87.5222 377.913Z" fill="#07346B"/>
<path d="M560.56 559.59H589.68" stroke="white" stroke-width="1.20889" stroke-linecap="round" stroke-linejoin="round"/>
<path d="M560.56 565.413H589.68" stroke="white" stroke-width="1.20889" stroke-linecap="round" stroke-linejoin="round"/>
<path d="M560.56 571.236H589.68" stroke="white" stroke-width="1.20889" stroke-linecap="round" stroke-linejoin="round"/>
<path d="M412.372 316.923H473.685" stroke="white" stroke-width="1.20889" stroke-miterlimit="10"/>
<path d="M412.372 323.88H462.199" stroke="white" stroke-width="1.20889" stroke-miterlimit="10"/>
<path d="M412.372 330.675H438.256" stroke="white" stroke-width="1.20889" stroke-miterlimit="10"/>
<path d="M412.372 436.639H473.685" stroke="white" stroke-width="1.20889" stroke-miterlimit="10"/>
<path d="M412.372 443.595H462.199" stroke="white" stroke-width="1.20889" stroke-miterlimit="10"/>
<path d="M412.372 450.39H438.256" stroke="white" stroke-width="1.20889" stroke-miterlimit="10"/>
<path d="M375.648 378.884H314.496" stroke="white" stroke-width="1.20889" stroke-miterlimit="10"/>
<path d="M375.648 385.84H325.82" stroke="white" stroke-width="1.20889" stroke-miterlimit="10"/>
<path d="M375.647 392.635H349.925" stroke="white" stroke-width="1.20889" stroke-miterlimit="10"/>
</svg>
