<svg xmlns="http://www.w3.org/2000/svg" width="103.245" height="80.001" viewBox="0 0 103.245 80.001">
  <g id="Grupo_20675" data-name="Grupo 20675" transform="translate(-345.503 -1529.388)">
    <path id="Caminho_38336" data-name="Caminho 38336" d="M299.425,139.043A74.057,74.057,0,0,1,257.535,152a75.663,75.663,0,0,1-51.089-19.52c-1.08-.95,0-2.289,1.123-1.511a103.086,103.086,0,0,0,51.176,13.56,101.305,101.305,0,0,0,38.867-7.989C299.684,135.589,301.282,137.662,299.425,139.043Z" transform="translate(139.503 1457.388)" fill="#f0a041" fill-rule="evenodd"/>
    <path id="Caminho_38337" data-name="Caminho 38337" d="M304.131,133.689c-1.468-1.857-9.587-.907-13.214-.432-1.123,0-1.3-.864-.3-1.555,6.478-4.534,17.275-3.239,18.311-1.727s-.3,12.178-6.391,17.274c-.907.777-1.814.345-1.382-.648C302.49,143.189,305.557,135.545,304.131,133.689Z" transform="translate(139.504 1457.388)" fill="#f0a041" fill-rule="evenodd"/>
    <path id="Caminho_38338" data-name="Caminho 38338" d="M264.185,108.037A22.289,22.289,0,0,1,262.112,120a9.242,9.242,0,0,1-7.816,5.1c-4.319,0-6.867-3.282-6.867-8.162,0-9.588,8.637-11.358,16.8-11.358ZM275.544,135.5a2.335,2.335,0,0,1-2.678.3,28.583,28.583,0,0,1-6.434-7.644,22.369,22.369,0,0,1-18.613,8.162,15.981,15.981,0,0,1-16.886-17.577,19.09,19.09,0,0,1,12.049-18.267,76.4,76.4,0,0,1,21.2-3.93V95.081a14.3,14.3,0,0,0-1.382-8.162,7.559,7.559,0,0,0-6.305-2.937,8.636,8.636,0,0,0-9.069,6.78,2.417,2.417,0,0,1-1.986,2.073l-10.926-1.209a1.988,1.988,0,0,1-1.685-2.332c2.505-13.258,14.511-17.274,25.221-17.274a25.566,25.566,0,0,1,17.015,5.614c5.484,5.139,4.966,11.962,4.966,19.39V114.6a15.284,15.284,0,0,0,4.319,10.45,2.2,2.2,0,0,1,0,3.023c-2.289,1.9-6.392,5.485-8.638,7.471Z" transform="translate(139.503 1457.388)" fill-rule="evenodd"/>
  </g>
</svg>
