<?xml version="1.0" encoding="UTF-8"?><svg id="Camada_2" xmlns="http://www.w3.org/2000/svg" viewBox="0 0 160 30"><defs><style>.cls-1{fill:#fff;}.cls-2{fill:red;}.cls-3{fill:#ff0101;}.cls-4{fill:#70006a;}.cls-5{fill:#73046d;}.cls-6{fill:#71016b;}</style></defs><g id="Camada_1-2"><g><rect class="cls-1" width="160" height="30"/><g id="ZRHSFf.tif"><g><path class="cls-2" d="M39.54,5.42c1.5,0,3.01,0,4.51,0,.09,0,.08-.12,.08,.85,0,.45,0,.89,0,1.34,0,.21,0,.3-.03,.29-.02,0-.03,0-.05,0-3.01,0-6.02,0-9.03,0-.08,0-.07,.09-.07-.81,0-.45,0-.89,0-1.34,0-.24,0-.34,.03-.34,.02,0,.04,0,.06,0,1.5,0,3,0,4.5,0Z"/><path class="cls-3" d="M39.53,24.58h-4.48s-.03,0-.04,0c-.08,0-.07,.05-.07-.75,0-.42,0-.85,0-1.27,0-.29,0-.45,.04-.42,.02,.01,.03,0,.05,0,3.01,0,6.01,0,9.02,0q.08,0,.08,.89c0,.35,0,.71,0,1.06,0,.48,0,.48-.05,.49-.02,0-.04,0-.05,0h-4.49Z"/><path class="cls-2" d="M43.86,16.39c0-1.1,0-2.21,0-3.31,0-1.5-.56-2.23-2.01-2.66-1.08-.31-2.18-.32-3.28-.17-.66,.09-1.29,.26-1.86,.61-.78,.49-1.28,1.16-1.4,2.09-.04,.26,0,.4,.3,.4,.63,0,1.27-.01,1.9,0,.27,0,.36-.12,.42-.36,.1-.44,.36-.77,.79-.92,.6-.21,1.21-.2,1.8-.02,.46,.14,.73,.57,.73,1.09,0,.48-.18,.72-.72,.9-.38,.13-.77,.2-1.17,.23-.84,.07-1.68,.19-2.49,.44-.83,.25-1.5,.74-1.75,1.59-.49,1.63,.12,3.52,2.41,3.77,1.38,.15,2.66-.06,3.77-.97,.16,.15,.11,.33,.15,.48,.06,.19,.15,.32,.39,.32,.74-.01,1.49,0,2.29,0-.33-1.2-.27-2.35-.27-3.49Zm-2.72,.7c-.22,.73-.72,1.14-1.46,1.25-.32,.05-.66,.03-.99,0-.62-.06-1.01-.42-1.09-.93-.09-.63,.16-1.12,.73-1.38,.19-.09,.4-.16,.6-.19,.76-.14,1.53-.19,2.29-.47,.06,.61,.07,1.17-.09,1.71Z"/><path class="cls-4" d="M53.36,11.87c1.9-2.4,4.6-2.38,5.89-.08,.27-.3,.46-.65,.76-.91,1.05-.89,2.93-1.07,4.11-.36,.82,.49,1.16,1.27,1.26,2.17,.05,.42,.04,.84,.04,1.27,0,1.83,0,3.67,0,5.5,0,.17,.07,.42-.21,.43-.3,.01-.63,.11-.88-.08-.15-.11-.06-.35-.06-.54,0-1.88,0-3.76,0-5.64,0-.45-.03-.89-.18-1.32-.21-.63-.64-1.01-1.3-1.15-1.72-.35-2.85,.39-3.22,2.09-.1,.44-.12,.88-.12,1.33,0,1.6,0,3.2,0,4.79,0,.17,.08,.38-.13,.51-.12,.07-.9,.03-.96-.05-.12-.16-.07-.36-.07-.54,0-1.79,0-3.57,0-5.36,0-.4-.02-.8-.07-1.19-.16-1.09-.9-1.69-2-1.66-1.41,.05-2.36,.89-2.64,2.37-.08,.44-.13,.88-.12,1.33,0,1.55,0,3.1,0,4.65,0,.17,.09,.42-.2,.45-.3,.03-.62,.11-.89-.06-.16-.11-.08-.35-.08-.53,0-2.04,0-4.09,0-6.13,0-.78,0-1.55,0-2.33,0-.48,.02-.48,.54-.48,.54,0,.54,0,.56,.47,0,.3,0,.61,0,1.06Z"/><path class="cls-4" d="M90.47,12c-1.33-2.37-4.33-2.27-5.79-1.23-.42,.3-.74,.69-1.13,1.1,0-.39,0-.77,0-1.16,0-.14,0-.28-.17-.34-.52-.21-.9,.03-.91,.58,0,.05,0,.09,0,.14v11.55c0,.16,0,.33,0,.49,0,.1,.02,.22,.11,.24,.3,.08,.62,.1,.9,0,.25-.08,.14-.37,.15-.57,0-1.31,0-2.63,0-3.94,0-.14-.1-.33,.1-.43,.04,.03,.09,.05,.11,.09,1.09,2.08,5.09,2.4,6.59-.21,1.18-2.06,1.18-4.25,.03-6.32Zm-.81,5.33c-.48,1.06-1.25,1.76-2.45,1.84-1.25,.09-2.24-.38-2.92-1.45-.34-.55-.49-1.15-.58-1.79-.13-.9-.06-1.78,.18-2.64,.37-1.33,1.32-2.06,2.78-2.19,1.29-.11,2.31,.47,2.91,1.66,.39,.77,.52,1.6,.52,2.29-.01,.9-.13,1.61-.43,2.28Z"/><path class="cls-4" d="M104.72,18.94c-.06-.01-.12-.03-.19-.03-.67-.07-.77-.17-.79-.81,0-.19,0-.38,0-.56,0-1.48,.01-2.96,0-4.44-.02-1.68-.9-2.69-2.46-2.92-.73-.11-1.45-.11-2.17,0-1.48,.24-2.52,1.24-2.69,2.59-.06,.5-.06,.51,.45,.52,.59,.01,.59,.02,.72-.54,.17-.72,.58-1.22,1.28-1.46,.88-.3,1.76-.3,2.62,.02,.9,.33,1.35,1.5,.95,2.36-.1,.22-.26,.38-.5,.48-.2,.08-.41,.1-.62,.14-1.11,.17-2.25,.19-3.33,.53-1.58,.5-2.16,1.36-2.01,3,.08,.91,.55,1.58,1.38,1.99,1.65,.81,3.74,.35,4.91-1.07,.09-.1,.13-.25,.35-.31,.02,.17,.03,.31,.06,.45,.15,.7,.49,.99,1.22,1.03,.88,.05,.93,0,.82-.96Zm-2.22-2.23c-.04,.4-.21,.76-.43,1.1-.71,1.07-2.32,1.64-3.55,1.26-.54-.17-.96-.48-1.22-.99-.41-.81-.16-1.66,.62-2.12,.58-.34,1.22-.47,1.87-.57,.9-.14,1.81-.2,2.7-.53,.07,.64,.06,1.25,0,1.85Z"/><path class="cls-4" d="M118.25,15.45c1.06,0,2.12,0,3.17,0,1.01,0,2.02,0,3.03,0,.61,0,.62-.01,.59-.64-.03-.66-.14-1.31-.36-1.93-.61-1.75-1.95-2.75-3.75-2.79-1.85-.04-3.28,.89-3.95,2.61-.59,1.52-.6,3.08-.12,4.63,.52,1.67,1.67,2.65,3.42,2.81,2.27,.2,3.75-.6,4.47-2.58,.08-.23,.31-.53,.1-.71-.22-.2-.59-.11-.88-.06-.29,.05-.26,.36-.35,.56-.47,1.12-1.29,1.77-2.52,1.84-1.28,.08-2.22-.46-2.86-1.55-.29-.5-.43-1.04-.51-1.6-.07-.52-.03-.57,.49-.58Zm-.46-1.4c.15-.6,.33-1.17,.69-1.68,1.2-1.74,3.64-1.71,4.79,.07,.31,.48,.49,1.01,.57,1.57,.04,.33-.05,.46-.41,.46-.89-.02-1.78,0-2.67,0-.87,0-1.74,0-2.6,0-.3,0-.43-.08-.35-.41Z"/><path class="cls-4" d="M68.33,14.83c.32-.07,.47-.27,.63-.41,1.3-1.12,2.62-2.22,3.87-3.4,.65-.62,1.32-.79,2.29-.6-1.35,1.21-2.67,2.31-3.99,3.48,1.43,1.98,2.84,3.93,4.21,5.83-.05,.19-.13,.17-.2,.17q-1.14,.03-1.82-.9c-.89-1.22-1.77-2.43-2.65-3.65-.14-.19-.24-.4-.5-.57-.55,.46-1.1,.92-1.66,1.38-.2,.16-.17,.37-.17,.58,0,.87,0,1.74,0,2.61,0,.55-.01,.55-.53,.55-.62,0-.63,0-.63-.6,0-4,0-7.99,0-11.99,0-.2-.11-.48,.13-.57,.28-.1,.6-.08,.9,0,.1,.03,.12,.14,.12,.23,0,.16,0,.33,0,.49,0,2.21,0,4.42,0,6.63v.73Z"/><path class="cls-4" d="M114.82,16.56c.09,1.32-1.07,3.13-2.81,3.5-2.8,.58-5.15-1.12-5.48-4.03-.12-1.01-.07-2.01,.28-2.99,1.06-2.94,4.01-3.45,6.04-2.57,1.23,.53,1.84,1.52,1.97,2.82-.22,.13-.41,.07-.59,.09-.39,.06-.56-.1-.7-.48-.71-1.93-3.05-2.45-4.59-1.04-.79,.72-1.14,1.66-1.25,2.69-.13,1.2,.08,2.35,.81,3.34,.71,.97,1.69,1.43,2.88,1.25,1.12-.17,1.84-.87,2.21-1.94,.27-.78,.27-.78,1.12-.71,.04,0,.08,.04,.12,.05Z"/><path class="cls-6" d="M80.7,19.01c.1,.96,.1,.96-.75,.98-.26,0-.52,0-.77-.04-1.06-.14-1.47-.58-1.52-1.66-.02-.52,0-1.03,0-1.55,0-1.53,0-3.05,0-4.58,0-.9,.1-.81-.85-.81-.09,0-.19,0-.28,0-.53-.02-.54-.05-.55-.56,0-.33,.12-.48,.45-.45,.05,0,.09,0,.14,0,.34-.04,.78,.16,1-.11,.21-.25,.06-.68,.07-1.02,.01-.45,.01-.89,0-1.34,0-.26,.08-.4,.36-.38,.09,0,.19,0,.28,0,.52,0,.53,0,.54,.55,0,.56,0,1.13,0,1.69,0,.6,0,.6,.63,.6,.33,0,.66,0,.99,0,.38,0,.31,.28,.31,.5,0,.21,.09,.5-.29,.51-.38,0-.75,0-1.13,0-.49,.01-.5,.02-.51,.53,0,1.01,0,2.02,0,3.03,0,.87,0,1.74,0,2.61,0,.26,.01,.52,.06,.77,.08,.48,.25,.66,.73,.71,.35,.04,.7,0,1.09,0Z"/><path class="cls-5" d="M93.06,13.33c0-2.02,0-4.04,0-6.06,0-.19-.11-.47,.18-.54,.29-.07,.61-.08,.9,.02,.05,.02,.08,.11,.09,.18,.02,.14,.02,.28,.02,.42,0,3.92,0,7.85,0,11.77,0,.82-.07,.87-.89,.78-.2-.02-.3-.09-.3-.29,0-.16,0-.33,0-.49,0-1.93,0-3.85,0-5.78Z"/></g></g></g></g></svg>