<svg xmlns="http://www.w3.org/2000/svg" viewBox="0 0 160 30"><defs><style>.cls-1{fill:#fff;}.cls-2{fill:#013f83;}.cls-3{fill:#ff0400;}.cls-4{fill:#013f84;}</style></defs><title>Carrefour</title><g id="Camada_2" data-name="Camada 2"><g id="Camada_1-2" data-name="Camada 1"><rect class="cls-1" width="160" height="30"/><path class="cls-2" d="M116.43,14.65a22.5,22.5,0,0,1,.8-6.24,7.19,7.19,0,0,1,1.39-2.79,3.22,3.22,0,0,1,2.59-1.22,5,5,0,0,1,3,.9,2.07,2.07,0,0,1,.71.79.86.86,0,0,1-.17,1.12,4.26,4.26,0,0,0-1.24,2.06,2.79,2.79,0,0,0,2.07,3.33,2.64,2.64,0,0,0,3.15-2.17,5.77,5.77,0,0,0-.59-3.78,8.41,8.41,0,0,0-.72-1.23.7.7,0,0,1-.11-.23.14.14,0,0,1,.07-.17.14.14,0,0,1,.16,0,.86.86,0,0,1,.14.13l8.8,8.51a1.74,1.74,0,0,1,0,2.6l-8.8,8.51s-.09.09-.15.13a.15.15,0,0,1-.16,0,.16.16,0,0,1-.06-.17.83.83,0,0,1,.16-.29,7.16,7.16,0,0,0,1.37-4.11,3.65,3.65,0,0,0-.3-1.42,2.6,2.6,0,0,0-2.63-1.63,2.84,2.84,0,0,0-2.4,2.11,3.07,3.07,0,0,0,.47,2.39,5.16,5.16,0,0,0,.76.93.89.89,0,0,1,.17,1.17,2.24,2.24,0,0,1-.73.77,4.83,4.83,0,0,1-3.45.87,3.48,3.48,0,0,1-2.48-1.76,10,10,0,0,1-1.31-3.53A27.85,27.85,0,0,1,116.43,14.65Z"/><path class="cls-3" d="M114.57,5.19c.15,0,.17.13.12.25a2.34,2.34,0,0,1-.2.27,14.8,14.8,0,0,0-3.15,6.71,14.59,14.59,0,0,0,2.77,11.71l.45.58c.08.11.25.25.1.38s-.27-.06-.36-.16l-7-6.71-1.79-1.74a1.74,1.74,0,0,1,0-2.63l8.76-8.48A.58.58,0,0,1,114.57,5.19Z"/><path class="cls-4" d="M23,15.31a6.38,6.38,0,0,0,1.12,3.9,3,3,0,0,0,3.23,1.22,2.57,2.57,0,0,0,1.21-.66c.3-.29.48-.54.13-1a1.17,1.17,0,0,1,0-1.46,1.26,1.26,0,0,1,2.27.48,2.33,2.33,0,0,1-.49,2.05,5,5,0,0,1-4.93,2,5.5,5.5,0,0,1-4.74-3.89,7,7,0,0,1,1.62-7.73,5.42,5.42,0,0,1,7.23-.35A3.09,3.09,0,0,1,31,12.33a1.42,1.42,0,0,1-.89,1.36,1.32,1.32,0,0,1-1.4-.44,1.3,1.3,0,0,1,0-1.66.43.43,0,0,0,0-.62,2.89,2.89,0,0,0-4.14-.18,5.11,5.11,0,0,0-1.42,2.91A6.65,6.65,0,0,0,23,15.31Z"/><path class="cls-4" d="M89,20.44a3.55,3.55,0,0,1-2.22,1.33A2.89,2.89,0,0,1,83.36,19c-.13-1.21-.07-2.42-.09-3.63,0-.92-.11-1.06-1-1.19-.22,0-.27-.13-.27-.32a.79.79,0,0,1,.25-.6,2.54,2.54,0,0,1,2.37-.67,1,1,0,0,1,.79,1,23.79,23.79,0,0,1,0,2.67,12.26,12.26,0,0,0,.14,2.5c.2.9.58,1.3,1.32,1.36A1.7,1.7,0,0,0,88.77,19,3.4,3.4,0,0,0,89,17.79c0-.86,0-1.71,0-2.57,0-.69-.25-1-.93-1-.46,0-.41-.27-.34-.55a1,1,0,0,1,.4-.53,2.6,2.6,0,0,1,.94-.47c1.41-.4,2.11.14,2.1,1.6q0,2.43,0,4.86c0,.83.17,1.05,1,1.17.22,0,.27.12.27.32a.8.8,0,0,1-.41.69,2.78,2.78,0,0,1-1.24.45c-1,.16-1.34-.06-1.64-1C89.11,20.64,89.07,20.56,89,20.44Z"/><path class="cls-4" d="M41,20.51c-.69-.13-.87-.42-.87-1.15,0-1.43,0-2.86,0-4.3a2.15,2.15,0,0,0-1.3-2.21,5.75,5.75,0,0,0-4.65.13,1.73,1.73,0,0,0-.94,1,1.15,1.15,0,0,0,.26,1.29,1,1,0,0,0,1.2.17,1,1,0,0,0,.6-1.15c-.09-.45.13-.51.45-.55a5.45,5.45,0,0,1,.72-.09A1.43,1.43,0,0,1,38.06,15c0,.47,0,1,0,1.46a5.6,5.6,0,0,0-3.59-.1,2.62,2.62,0,0,0-2,2.55,2.81,2.81,0,0,0,2.08,2.71,3.92,3.92,0,0,0,3.77-.91,4.52,4.52,0,0,0,.31.46,1.71,1.71,0,0,0,2.66-.07C41.38,20.84,41.49,20.61,41,20.51Zm-4.67-.15a1.49,1.49,0,0,1-1.59-1.55c0-1,.64-1.53,1.79-1.52s1.56.35,1.56,1.48A1.57,1.57,0,0,1,36.32,20.36Z"/><path class="cls-4" d="M76.8,12.45A4.57,4.57,0,0,0,72.07,17a4.6,4.6,0,1,0,9.2.13A4.39,4.39,0,0,0,76.8,12.45Zm1.76,6.81a2,2,0,0,1-1.75,1.27,1.79,1.79,0,0,1-1.75-1.09,5.2,5.2,0,0,1-.18-4.64,1.87,1.87,0,0,1,3.37-.23,4.59,4.59,0,0,1,.67,2.74A4.38,4.38,0,0,1,78.56,19.26Z"/><path class="cls-4" d="M69.26,16.82c0,.82,0,1.64,0,2.46s.24,1.07,1,1.24c.22.05.41.08.45.34a.51.51,0,0,1-.33.53,1.32,1.32,0,0,1-.42.15,9.67,9.67,0,0,1-3.22,0,2,2,0,0,1-.47-.17.45.45,0,0,1-.25-.46.39.39,0,0,1,.31-.4,1,1,0,0,0,.79-1.09c0-1.75,0-3.5,0-5.25,0-.25-.11-.32-.34-.32a5,5,0,0,1-.55,0c-.24,0-.55.09-.57-.33a.71.71,0,0,1,.52-.81c.29-.09.7.18.86-.17a2.91,2.91,0,0,0,.06-.94,7.53,7.53,0,0,1,.07-.83c.39-2.1,2.21-3.1,4.49-2.47a2.76,2.76,0,0,1,1.43.82,1.41,1.41,0,0,1,.22,1.7,1.08,1.08,0,0,1-1.37.4A1,1,0,0,1,71.4,10c.22-.52-.08-.62-.44-.7a1.29,1.29,0,0,0-1.72,1.12,13.33,13.33,0,0,0-.06,2c0,.28.17.28.36.28.47,0,.93,0,1.4,0,.26,0,.64-.16.67.33a.77.77,0,0,1-.6.89,3.79,3.79,0,0,1-.83,0c-.92,0-.92,0-.92.92v2Z"/><path class="cls-4" d="M59.2,17.08c.83,0,1.65,0,2.46,0s1.61,0,2.41,0c.43,0,.58-.16.68-.54a3.34,3.34,0,0,0-2-3.84,4.47,4.47,0,0,0-5.54,2.09,5,5,0,0,0-.5,3.2,4.58,4.58,0,0,0,7,3.15,1.8,1.8,0,0,0,.92-1.33.61.61,0,0,0-.22-.66c-.19-.12-.29.16-.43.26a3.33,3.33,0,0,1-3.38.4,2.75,2.75,0,0,1-1.67-2.34C58.81,17.17,58.88,17.07,59.2,17.08Zm1.3-3.41a1.82,1.82,0,0,1,2.11,1.23c.27.82.1,1-.73,1.06H59.2c-.16,0-.33.06-.35-.22A2.15,2.15,0,0,1,60.5,13.67Z"/><path class="cls-4" d="M52.8,13.89A3.39,3.39,0,0,1,54,12.66a1.6,1.6,0,0,1,1.65,0,1.19,1.19,0,0,1,.58,1.29,1.1,1.1,0,0,1-.92,1,1,1,0,0,1-1.2-.67c-.11-.26-.23-.24-.42-.12A1.83,1.83,0,0,0,53,15.4a19.94,19.94,0,0,0-.09,4.23.93.93,0,0,0,.86.89c.26,0,.42.15.44.41a.49.49,0,0,1-.4.54,7.24,7.24,0,0,1-3.64,0,.5.5,0,0,1-.4-.48c0-.26.13-.38.38-.47a1,1,0,0,0,.72-1.07c0-1.47,0-2.95,0-4.42,0-.57-.28-.8-.84-.82s-.58-.21-.4-.65a2.28,2.28,0,0,1,1.89-1,1.27,1.27,0,0,1,1.19,1C52.72,13.63,52.75,13.72,52.8,13.89Z"/><path class="cls-4" d="M45.34,13.89a3,3,0,0,1,1.48-1.34,1.5,1.5,0,0,1,1.62.25,1.21,1.21,0,0,1,.32,1.33,1.05,1.05,0,0,1-1,.81,1,1,0,0,1-1.08-.61c-.14-.36-.31-.3-.53-.13a2,2,0,0,0-.71,1.35,21.82,21.82,0,0,0-.08,4,1,1,0,0,0,.87,1c.24.05.43.11.44.4a.48.48,0,0,1-.38.54,7,7,0,0,1-3.63,0,.49.49,0,0,1-.42-.52c0-.27.19-.36.42-.44a1,1,0,0,0,.67-.94c0-1.52,0-3.05,0-4.58,0-.56-.28-.81-.87-.76s-.44-.2-.4-.5a.78.78,0,0,1,.3-.52A2.4,2.4,0,0,1,44,12.55C44.67,12.53,45,12.9,45.34,13.89Z"/><path class="cls-4" d="M96.47,13.88a3.55,3.55,0,0,1,1-1.11,1.77,1.77,0,0,1,1.65-.23,1.21,1.21,0,0,1,.77,1.29,1.17,1.17,0,0,1-.87,1.1,1.08,1.08,0,0,1-1.26-.68c-.16-.33-.31-.18-.46-.06a2.07,2.07,0,0,0-.77,1.55,25.93,25.93,0,0,0,0,3.74,1,1,0,0,0,.83,1c.27,0,.46.13.46.44a.51.51,0,0,1-.45.55,7.76,7.76,0,0,1-3.49,0,.53.53,0,0,1-.47-.54c0-.28.17-.37.4-.45a1,1,0,0,0,.7-1.1c0-1.45,0-2.9,0-4.35,0-.63-.29-.88-.93-.83-.39,0-.4-.16-.38-.42a1,1,0,0,1,.38-.66,2.52,2.52,0,0,1,1.54-.59,1.11,1.11,0,0,1,1.07.67C96.29,13.41,96.36,13.62,96.47,13.88Z"/></g></g></svg>