<?xml version="1.0" encoding="UTF-8"?>
<svg id="Camada_2" data-name="Camada 2" xmlns="http://www.w3.org/2000/svg" viewBox="0 0 160 30">
  <defs>
    <style>
      .cls-1 {
        fill: none;
      }

      .cls-2 {
        fill: #e5233e;
      }

      .cls-2, .cls-3 {
        fill-rule: evenodd;
      }

      .cls-3 {
        fill: #00103d;
      }
    </style>
  </defs>
  <g id="Camada_1-2" data-name="Camada 1">
    <g>
      <rect class="cls-1" width="160" height="30"/>
      <g>
        <path class="cls-3" d="m44.22,7.04c-.75.16-1.34.44-1.88.88-1.49,1.23-1.87,3.57-.86,5.3.12.21.4.55.66.81.37.37.53.49.94.69.73.36,1.17.46,2.02.46s1.29-.1,1.97-.44c.65-.33,1.25-.93,1.57-1.6.2-.4.42-1.03.38-1.07-.01-.01-1.93-.33-1.98-.33-.02,0-.03.04-.03.1,0,.18-.36.83-.58,1.02-.12.11-.35.25-.51.33-.26.12-.35.13-.84.13-.69,0-1.02-.12-1.44-.51-.61-.57-.86-1.4-.68-2.27.15-.68.53-1.18,1.13-1.48.39-.19.4-.2.99-.2.51,0,.64.02.85.11.47.22.89.7,1.03,1.19.04.14.09.22.15.22.16,0,1.85-.28,1.88-.31.05-.05-.24-.9-.4-1.18-.51-.87-1.19-1.42-2.15-1.74-.44-.14-.58-.16-1.19-.18-.47-.01-.82,0-1.04.06Z"/>
        <path class="cls-3" d="m60.7,7.03c-.94.22-1.67.76-1.99,1.48-.24.56-.26,1.33-.05,1.91.2.53.8,1.02,1.57,1.28.15.05.69.18,1.2.29.52.11,1.03.25,1.14.3.23.11.34.28.35.51,0,.23-.14.44-.43.58-.29.15-.91.16-1.34.03-.38-.12-.76-.46-.88-.8l-.09-.25h-1c-.8,0-1,.02-1,.07,0,.19.22.91.37,1.18.35.65,1.13,1.23,2.01,1.46.53.15,1.82.16,2.37.03,1.18-.3,1.94-1.05,2.1-2.08.11-.7-.06-1.31-.48-1.77-.38-.42-.89-.65-1.99-.91-1.64-.39-1.85-.49-1.93-.86-.05-.26.02-.43.23-.64.43-.43,1.4-.4,1.83.05.11.11.23.32.28.46l.09.26h1.96v-.15c0-.23-.15-.73-.3-1.02-.32-.6-1.05-1.13-1.85-1.36-.43-.12-1.75-.16-2.18-.06Z"/>
        <path class="cls-3" d="m76.94,7.06c-1.32.32-2.09,1.24-2.09,2.47,0,1.02.43,1.65,1.44,2.07.17.07.79.23,1.39.37,1.16.25,1.31.31,1.48.53.09.11.11.19.09.38-.05.45-.46.65-1.24.61-.73-.04-1.24-.35-1.41-.9l-.07-.21-.99-.02h-1s0,.13,0,.13c0,.08.04.28.08.43.29,1.06,1.13,1.85,2.34,2.16.57.15,1.84.13,2.39-.02.9-.26,1.48-.71,1.83-1.41.19-.38.19-.4.19-1.01,0-.57-.01-.65-.14-.92-.16-.34-.49-.69-.84-.9s-.82-.35-1.94-.62c-.56-.13-1.08-.28-1.17-.34-.46-.29-.37-.97.17-1.21.31-.14.98-.15,1.26-.02.26.11.56.46.63.74l.06.23h1c1.12,0,1.04.04.94-.43-.22-1.06-1.12-1.89-2.34-2.14-.55-.11-1.56-.1-2.05.02Z"/>
        <path class="cls-3" d="m52.53,7.21c-.06.12-2.51,5.93-3.1,7.32l-.22.53h2.13l.07-.17c.04-.09.16-.39.26-.67l.19-.5h1.67s1.67.03,1.67.03l.25.66.26.66h1.06c.99,0,1.06,0,1.03-.09-.02-.05-.77-1.85-1.68-4l-1.65-3.9h-1.88l-.06.14Zm1.5,3.54c.26.67.47,1.23.46,1.24s-.45.01-.98,0l-.96-.02.43-1.12c.49-1.26.53-1.37.56-1.34.02.01.23.57.49,1.24Z"/>
        <path class="cls-3" d="m68.89,7.15c-.07.12-3.33,7.86-3.33,7.89,0,.01.48.02,1.06.02h1.05l.25-.66.26-.66,1.66-.02h1.66s.25.62.25.62c.13.35.26.65.29.68.02.02.5.03,1.07.03l1.04-.02-1.67-3.97-1.67-3.97-.94-.02c-.86-.01-.95,0-.99.08Zm1.46,3.58l.48,1.24-.96.02c-.53,0-.97,0-.98,0-.02-.03.93-2.53.96-2.51.01.01.23.57.5,1.26Z"/>
        <g>
          <path class="cls-2" d="m92.35,10.5c-.84,1.9-1.64,3.69-1.77,4l-.25.56h1.23l.44-1.01.44-1.01h1.97s1.97,0,1.97,0l.44,1.01.44,1.01h1.23l-.25-.56c-.13-.31-.93-2.1-1.77-4l-1.52-3.44h-1.06l-1.52,3.44Zm2.83-.21c.38.89.7,1.64.7,1.67,0,.02-.66.04-1.48.04s-1.48-.02-1.48-.04c0-.02.33-.8.74-1.74.52-1.21.75-1.68.78-1.63.03.04.36.81.74,1.7Z"/>
          <path class="cls-2" d="m114.45,7.23c-.04.09-.82,1.84-1.72,3.88-.9,2.04-1.67,3.76-1.69,3.83l-.05.12h1.22l.44-1.01.44-1.01h1.97s1.97.03,1.97.03l.43.99.43.99.61.02c.33,0,.6,0,.6-.03s-.79-1.82-1.75-3.99l-1.75-3.95-.53-.02-.53-.02-.07.17Zm1.36,3.02c.4.93.73,1.71.73,1.72,0,.02-.66.03-1.48.03-1.06,0-1.48-.02-1.48-.06,0-.03.28-.71.62-1.5.34-.79.67-1.55.73-1.69.06-.14.11-.24.12-.23s.35.79.75,1.72Z"/>
          <path class="cls-2" d="m83.01,11.07l.02,3.96h2.15c1.85,0,2.2-.02,2.51-.09.76-.19,1.4-.65,1.67-1.21.18-.36.23-.96.13-1.4-.13-.58-.64-1.11-1.25-1.32l-.26-.09.17-.07c.29-.11.69-.54.85-.89.12-.28.15-.38.15-.82,0-.46-.01-.52-.17-.84-.19-.39-.45-.65-.88-.87-.56-.29-.88-.32-3.1-.32h-2v3.96Zm4.25-2.84c.37.13.7.44.78.75.13.49-.08,1.03-.49,1.28-.43.24-.67.28-2.09.28h-1.31v-2.45l1.42.02c1.22.02,1.45.04,1.7.12Zm.36,3.48c.4.14.7.45.77.79.13.62-.26,1.19-.96,1.41-.31.09-.48.1-1.82.1h-1.47v-2.45l1.6.02c1.42.02,1.63.03,1.88.12Z"/>
          <polygon class="cls-2" points="99.77 11.09 99.77 15.06 100.34 15.06 100.91 15.06 100.91 13.37 100.91 11.69 103.09 11.69 105.27 11.69 105.27 13.37 105.27 15.07 105.84 15.05 106.39 15.03 106.41 11.07 106.42 7.12 105.85 7.12 105.27 7.12 105.27 8.86 105.27 10.6 103.09 10.6 100.91 10.6 100.91 8.86 100.91 7.12 100.34 7.12 99.77 7.12 99.77 11.09"/>
          <polygon class="cls-2" points="108.55 11.09 108.55 15.06 109.12 15.06 109.69 15.06 109.69 11.09 109.69 7.12 109.12 7.12 108.55 7.12 108.55 11.09"/>
        </g>
        <g>
          <path class="cls-3" d="m84.04,17.97c-.39.06-.96.35-1.26.64-.53.51-.77,1.1-.77,1.87,0,1.8,1.59,2.96,3.34,2.41.32-.1.74-.34.9-.52.1-.1.09-.11-.17-.37l-.27-.26-.28.19c-.35.24-.67.32-1.17.29-.64-.04-1.08-.34-1.36-.92-.11-.25-.13-.36-.13-.81s.02-.56.14-.82c.28-.6.8-.92,1.48-.92.45,0,.67.06,1,.29l.28.18.28-.28.28-.28-.26-.19c-.36-.26-.75-.43-1.15-.49-.38-.06-.48-.06-.88,0Z"/>
          <path class="cls-3" d="m41.57,20.49v2.47h.83v-1.54s.03-1.54.03-1.54l.65,1.07.65,1.07h.57l.65-1.07.65-1.07.02,1.54v1.54h.84v-4.93h-.6s-.91,1.51-.91,1.51c-.5.83-.92,1.51-.93,1.51s-.44-.67-.93-1.51l-.91-1.5h-.3s-.3,0-.3,0v2.47Z"/>
          <path class="cls-3" d="m48.18,20.44c-.55,1.34-1,2.45-1,2.47s.19.04.43.03l.43-.02.18-.46.18-.45h1.06s1.06.03,1.06.03l.18.46.18.45h.44c.24,0,.44-.02.44-.04,0-.02-.45-1.13-.99-2.47l-1-2.43h-.59l-1,2.42Zm1.67-.11c.19.5.34.92.33.93-.02.01-.35.02-.76.01l-.73-.02.37-.92c.2-.5.38-.92.39-.92s.19.41.39.91Z"/>
          <path class="cls-3" d="m52.42,20.49v2.47h.83v-1.04c0-.97,0-1.04.09-1.04.06,0,.39.38.92,1.04l.83,1.03h.53s.53,0,.53,0l-.85-1.03-.85-1.02.27-.08c.38-.12.56-.22.77-.45.23-.26.32-.52.32-.94s-.15-.75-.47-1.04c-.36-.32-.59-.36-1.84-.36h-1.08v2.47Zm2.21-1.66c.38.18.48.78.18,1.12-.17.19-.41.24-1.05.25h-.51v-1.45h.6c.44,0,.65.02.78.08Z"/>
          <path class="cls-3" d="m56.73,20.49v2.47h.83v-1.2s.03-1.2.03-1.2l1.06,1.2,1.06,1.2h1.09l-.13-.14c-.79-.86-2.17-2.42-2.16-2.46.01-.03.51-.56,1.12-1.19l1.11-1.15h-1.07l-1.04,1.1-1.04,1.1-.02-1.1v-1.1h-.84v2.47Z"/>
          <polygon class="cls-3" points="61.35 20.49 61.35 22.95 63.01 22.95 64.67 22.95 64.67 22.59 64.67 22.23 63.43 22.23 62.18 22.23 62.18 21.52 62.18 20.82 63.31 20.81 64.44 20.8 64.44 20.43 64.44 20.07 63.31 20.06 62.18 20.04 62.18 19.4 62.18 18.75 63.43 18.75 64.67 18.75 64.67 18.38 64.67 18.02 63.01 18.02 61.35 18.02 61.35 20.49"/>
          <polygon class="cls-3" points="64.99 18.38 64.99 18.75 65.79 18.75 66.6 18.75 66.6 20.85 66.6 22.95 67.01 22.95 67.43 22.95 67.43 20.85 67.43 18.75 68.23 18.75 69.04 18.75 69.04 18.38 69.04 18.02 67.01 18.02 64.99 18.02 64.99 18.38"/>
          <path class="cls-3" d="m69.71,20.48v2.47h.83v-1.87h.7c.86,0,1.16-.09,1.53-.46.29-.29.42-.62.42-1.07,0-.63-.28-1.1-.82-1.36-.3-.15-.3-.15-1.47-.16l-1.18-.02v2.47Zm2.23-1.64c.54.27.57,1.09.04,1.41-.15.09-.26.1-.8.1h-.64v-1.61h.61c.47,0,.65.02.79.09Z"/>
          <polygon class="cls-3" points="73.92 20.49 73.92 22.95 75.5 22.95 77.08 22.95 77.08 22.59 77.08 22.23 75.92 22.23 74.75 22.23 74.75 20.12 74.75 18.02 74.33 18.02 73.92 18.02 73.92 20.49"/>
          <path class="cls-3" d="m79.22,18.24c-.18.4-1.93,4.66-1.93,4.69,0,.02.19.03.43.03h.44l.18-.46.18-.45,1.06-.02h1.06s.18.46.18.46l.18.47h.9l-.42-1.03c-.23-.56-.68-1.67-1-2.45l-.58-1.43-.3-.02-.3-.02-.09.22Zm.39,3.04c-.4,0-.74,0-.75-.01-.01-.02.15-.45.35-.97l.38-.94.37.96.37.95-.73.02Z"/>
          <polygon class="cls-3" points="87.05 20.49 87.05 22.95 88.74 22.95 90.43 22.95 90.43 22.59 90.43 22.23 89.15 22.23 87.88 22.23 87.88 21.52 87.88 20.82 89.01 20.81 90.14 20.8 90.14 20.43 90.14 20.07 89.01 20.06 87.88 20.04 87.88 19.4 87.88 18.75 89.13 18.75 90.37 18.75 90.37 18.38 90.37 18.02 88.71 18.02 87.05 18.02 87.05 20.49"/>
        </g>
      </g>
    </g>
  </g>
</svg>