<svg xmlns="http://www.w3.org/2000/svg" viewBox="0 0 160.36 30"><defs><style>.cls-1{fill:#fff;}.cls-2{fill:#003d8c;}.cls-3{fill:#fed300;}.cls-4{fill:#fe7b00;}.cls-5{fill:#053f8e;}.cls-6{fill:#043e8d;}.cls-7{fill:#0b4491;}.cls-8{fill:#06408e;}.cls-9{fill:#164b95;}.cls-10{fill:#003285;}.cls-11{fill:#134a94;}.cls-12{fill:#003185;}</style></defs><title>logo lojas colombo</title><g id="Camada_2" data-name="Camada 2"><g id="Camada_1-2" data-name="Camada 1"><rect class="cls-1" width="160.36" height="30"/><g id="ZZfm4T.tif"><path class="cls-2" d="M102.7,11.56c2.19,0,4.39,0,6.58,0a5.61,5.61,0,0,1,3,.67,3.59,3.59,0,0,1,1.74,3.11c0,2.48,0,4.95,0,7.43,0,.63-.26.85-.86.83-1,0-1.91,0-2.86,0-.69,0-.87-.3-.86-.92q0-3.15,0-6.29a2,2,0,0,0-2.85-1.95c-.45.16-.26.53-.26.8,0,2.41,0,4.83,0,7.24,0,.9-.28,1.19-1.16,1.12a20.36,20.36,0,0,0-2.47,0c-.67,0-.91-.24-.9-.89,0-2,0-4.07,0-6.1a2,2,0,0,0-2.66-2.2c-.58.1-.4.49-.4.79,0,2.44,0,4.89,0,7.33,0,.86-.28,1.13-1.1,1.07s-1.78,0-2.67,0c-.57,0-.81-.2-.81-.77,0-3.34,0-6.67,0-10,0-1,.37-1.28,1.37-1.29h7.06Z"/><path class="cls-2" d="M128.44,15a4.66,4.66,0,0,0-4.59-3.71c-1.11-.05-2.22-.06-3.33,0-.72,0-1-.13-1-.93s0-1.77,0-2.66-.23-1.36-1.22-1.26a10.53,10.53,0,0,1-2.1,0c-.92-.08-1.21.28-1.21,1.19,0,4.41,0,8.82,0,13.23a6.16,6.16,0,0,0,.07.95,1.81,1.81,0,0,0,2,1.78c1.08,0,2.16,0,3.24,0s2.1,0,3.14,0a5.07,5.07,0,0,0,5.18-5A11.43,11.43,0,0,0,128.44,15ZM122,20.7c-2.26.15-2.46,0-2.46-2.28V17.27c0-.76,0-1.52,0-2.28,0-.39.1-.58.54-.56.66,0,1.33,0,2,0a2.91,2.91,0,0,1,2.59,3.29A2.67,2.67,0,0,1,122,20.7Z"/><path class="cls-3" d="M29.15,15.79a5,5,0,0,0-.21-3.29,1,1,0,0,1-.41-.51,6.07,6.07,0,0,0-2.68-2.87c-.23-.12-.6-.22-.5-.57s.41-.27.66-.26a41.65,41.65,0,0,1,4.74.06,23.63,23.63,0,0,0,4.37,0c3.79-.26,5.14,1.94,5.74,4.56a6.8,6.8,0,0,1-2.7,7.29,4.38,4.38,0,0,1-2.52.71c-1.21,0-2.42,0-3.62,0a1.33,1.33,0,0,1-.72.22c-1.74,0-3.48,0-5.22,0-.28,0-.67,0-.74-.29s.31-.44.55-.55a5.61,5.61,0,0,0,3-3.93A1.51,1.51,0,0,1,29.15,15.79Z"/><path class="cls-2" d="M54.25,23.87A14.61,14.61,0,0,1,49,23a7.24,7.24,0,0,1-4.47-4.87,10.91,10.91,0,0,1,0-6.1c1-3.71,3.78-5.41,7.37-6A18.63,18.63,0,0,1,56.54,6c.61.06.91.32.88,1,0,.92-.05,1.84,0,2.76,0,.6-.13.77-.75.65a8.46,8.46,0,0,0-3.78,0,4.39,4.39,0,0,0-3.7,4.62,4.29,4.29,0,0,0,3.89,4.44,10.54,10.54,0,0,0,4.26-.12c.73-.16,1.09-.05,1,.8a12.33,12.33,0,0,0,0,2.19c.08.83-.32,1.11-1.06,1.23A23.24,23.24,0,0,1,54.25,23.87Z"/><path class="cls-4" d="M29.15,15.79c0,2-1.22,3.79-3.85,5.16H32a7.4,7.4,0,0,1-.94,4,5,5,0,0,1-4.47,2.58c-3.17,0-6.34,0-9.75,0a6.15,6.15,0,0,0,3.83-6,6.55,6.55,0,0,0-3.78-6.09h10.4A3.54,3.54,0,0,1,29.15,15.79Z"/><path class="cls-2" d="M72.41,14.84c-.9-2.5-2.89-3.48-5.42-3.6H66v-.07c-.76.08-1.52.12-2.27.24A4.83,4.83,0,0,0,60,14a7.36,7.36,0,0,0-.11,6.87,4.8,4.8,0,0,0,3.83,2.78c2.67.41,5.39.62,7.46-1.44S73.36,17.5,72.41,14.84ZM66,20.64c-1.78,0-2.8-1.12-2.8-3.11s1-3.09,2.83-3.08,2.77,1.19,2.77,3.16A2.7,2.7,0,0,1,66,20.64Z"/><path class="cls-2" d="M142.7,14.17c-1.1-2.27-3.16-2.86-5.47-2.95h-.57v0c-.64.05-1.27.09-1.9.17a5.19,5.19,0,0,0-4.82,4.31,7.76,7.76,0,0,0,0,3.86,5.16,5.16,0,0,0,4.52,4.16,12.64,12.64,0,0,0,2.37.2c2.2-.1,4.36-.39,5.64-2.53A7.17,7.17,0,0,0,142.7,14.17Zm-6.1,6.46a2.71,2.71,0,0,1-2.79-3c0-2,1-3.13,2.8-3.14s2.82,1.14,2.83,3.11S138.39,20.65,136.6,20.63Z"/><path class="cls-2" d="M87.11,11.23a15.19,15.19,0,0,0-2.86.14,5.24,5.24,0,0,0-4.57,4.13,8.16,8.16,0,0,0-.22,2.65,5.54,5.54,0,0,0,5.15,5.61c.5.06,1,.08,1.52.12,4.09.21,6.61-1.74,7-5.46C93.65,14.32,91.21,11.43,87.11,11.23Zm-.82,9.41c-1.74,0-2.75-1.14-2.76-3.06s1-3.12,2.79-3.13,2.84,1.18,2.83,3.11S88.07,20.66,86.29,20.64Z"/><path class="cls-2" d="M30.75,8.35c-1.76.22-3.54,0-5.53.16a6.2,6.2,0,0,1,3.72,4,5,5,0,0,1-3.54,1.13c-1.39-.09-2.8,0-4.2,0H16.8a5.67,5.67,0,0,0,3.54-5A6,6,0,0,0,17.78,3a.56.56,0,0,1,.54-.32h7.73c-2.34,0-5.55-.08-8.76.06-.17,0-.29-.08-.43-.32h9.28a3.91,3.91,0,0,1,4.17,2.91A7.09,7.09,0,0,1,30.75,8.35Z"/><path class="cls-2" d="M78.42,15.1c0,2.47,0,5,0,7.43,0,.8-.19,1.17-1.07,1.11a23.77,23.77,0,0,0-2.67,0c-.57,0-.8-.22-.79-.79,0-5.17,0-10.35,0-15.52,0-.59.26-.79.81-.77.92,0,1.85,0,2.77,0,.7,0,1,.23.94.94C78.4,10,78.42,12.56,78.42,15.1Z"/><path class="cls-5" d="M62.26,5.63c-1,0-1.66.7-1.67,1.89s.61,2,1.66,2,1.63-.76,1.63-1.94S63.27,5.65,62.26,5.63Zm.5,2.45c0,.32-.12.66-.53.66s-.48-.34-.53-.66a2.16,2.16,0,0,1-.05-.56c.07-.47-.08-1.19.63-1.16s.43.73.54,1.09S62.79,7.9,62.76,8.08Z"/><path class="cls-6" d="M67,5.65c-.39,0-1.09-.1-1.06.46s.64.12,1,.19a1.21,1.21,0,0,0,.19,0c.26.05.53.12.53.43s-.3.24-.5.3a8.42,8.42,0,0,0-.89.29,1.06,1.06,0,0,0-.66,1.15,1.1,1.1,0,0,0,.91,1c1.57.44,2.2,0,2.2-1.65C68.71,6,68.36,5.55,67,5.65Zm.67,2.59c0,.34.07.7-.44.67a.58.58,0,0,1-.63-.66.7.7,0,0,1,.76-.69C67.94,7.56,67.58,8,67.69,8.24Z"/><path class="cls-7" d="M60.27,6.8c0,.69,0,1.39,0,2.09,0,.35,0,.59-.5.59s-.62-.14-.62-.6c0-1.45,0-2.91,0-4.37,0-.41.16-.54.56-.54s.56.14.55.55C60.26,5.28,60.27,6,60.27,6.8Z"/><path class="cls-8" d="M69.88,9.51a2.67,2.67,0,0,1-.47-.07c-.22,0-.46-.12-.4-.42s.18-.4.47-.33.69.14.8-.26-.28-.51-.56-.65a1,1,0,0,1-.56-1.56A1.52,1.52,0,0,1,71,5.75c.14.08.3.16.21.36s-.11.38-.38.3-.68-.17-.76.28.29.45.54.58c.56.28.94.67.75,1.36S70.71,9.51,69.88,9.51Z"/><path class="cls-9" d="M65.31,7.71a15.43,15.43,0,0,1,0,1.8,1.61,1.61,0,0,1-1.13,1.41.56.56,0,0,1-.44,0,.38.38,0,0,1-.06-.52c.93-.81.47-1.89.57-2.86a9.84,9.84,0,0,0,0-1.33c0-.41.13-.56.55-.55s.6.08.58.52,0,1,0,1.52Z"/><path class="cls-10" d="M17.29,2.77a.77.77,0,0,1,.62-.15h8.93a.42.42,0,0,1,.36.18c-2.33,0-4.66,0-7,0A4.8,4.8,0,0,0,17.78,3Z"/><path class="cls-11" d="M65.38,4.55a.54.54,0,0,1-.54.57c-.32,0-.57-.13-.6-.46s.21-.51.53-.54A.57.57,0,0,1,65.38,4.55Z"/><path class="cls-12" d="M119.35,14.68v5.07h-.09v-5.1Z"/></g></g></g></svg>