<svg xmlns="http://www.w3.org/2000/svg" width="92.147" height="68.886" viewBox="0 0 92.147 68.886">
  <g id="Grupo_257" data-name="Grupo 257" transform="translate(-1233.403 -44.011)">
    <g id="Grupo_179" data-name="Grupo 179" transform="translate(1233.403 44.011)">
      <path id="Caminho_464" data-name="Caminho 464" d="M2212.841,503.97c-8.985-.071-17.781,0-26.766-.064,5.748,7.855,11.815,15.021,17.547,22.877,4.67-5.661,8.545-11.312,13.215-16.972C2218.646,507.139,2215.975,503.842,2212.841,503.97Z" transform="translate(-2145.698 -503.906)" fill="#023b6d" fill-rule="evenodd"/>
      <path id="Caminho_465" data-name="Caminho 465" d="M2218.135,549.636h-32.068c8.146-10.253,22.724-29.68,30.87-39.933,1.417-2.834-.561-5.167-3.348-5.789,5.029.112,6.764.047,8.722,1.9,4.967,6.341,9.752,12.921,14.72,19.275,1.471,1.806.829,3.043-.656,4.826l-12.759,16.631a8.556,8.556,0,0,1-5.482,3.1Z" transform="translate(-2145.717 -503.889)" fill="#0074a8" fill-rule="evenodd"/>
      <path id="Caminho_466" data-name="Caminho 466" d="M2184.519,540.355c8.988.071,17.923-.122,26.9-.051-5.749-7.852-11.643-14.933-17.375-22.785-4.67,5.661-8.677,11.352-13.347,17.013C2179.251,537.085,2181.006,539.912,2184.519,540.355Z" transform="translate(-2159.715 -471.485)" fill="#c86b06" fill-rule="evenodd"/>
      <path id="Caminho_467" data-name="Caminho 467" d="M2193.867,510.768h32.068c-8.146,10.25-22.728,29.681-30.874,39.93-1.417,2.837.562,5.171,3.351,5.789-5.032-.108-6.763-.047-8.725-1.9-4.968-6.337-9.75-12.921-14.717-19.275-1.475-1.809-.832-3.061.657-4.829l12.755-16.631a8.534,8.534,0,0,1,5.486-3.1Z" transform="translate(-2174.135 -487.604)" fill="#fcca03" fill-rule="evenodd"/>
    </g>
  </g>
</svg>
