<svg id="ifoodsvg" xmlns="http://www.w3.org/2000/svg" width="98.364" height="51.982" viewBox="0 0 98.364 51.982">
  <path id="Caminho_38520" data-name="Caminho 38520" d="M-4,254.552H3.486l4.16-20.692H.159Zm4.571-23.16H8.089L9.324,225.2H1.81ZM6.4,260.375h7.487l4.574-22.355h5.615l.828-4.159H19.395l.209-.936c.312-1.764.936-3.744,3.743-3.744a10.82,10.82,0,0,1,4.783.832l.833-4.367a16.439,16.439,0,0,0-5.407-.937c-6.031,0-10.189,3.536-11.75,9.151h-2.6l-.832,4.159h2.6Z" transform="translate(4 -224.71)" fill="#ea1d2c"/>
  <path id="Caminho_38521" data-name="Caminho 38521" d="M240.72,258.838c8.838,0,14.973-8.007,14.973-14.558,0-4.887-4.471-6.967-8.838-6.967-9.673,0-14.973,8.635-14.973,14.558,0,4.887,4.575,6.967,8.838,6.967m23.709,0c8.838,0,14.973-8.007,14.973-14.558,0-4.887-4.575-6.967-8.943-6.967-9.67,0-14.972,8.63-14.972,14.558,0,4.887,4.679,6.967,8.942,6.967m27.138-.416h7.382L304.979,229h-7.486l-1.768,8.734-3.119-.312c-7.278,0-13.933,9.357-13.933,16.013,0,2.7,1.763,5.407,4.783,5.407,4.263,0,7.278-2.08,8.524-4.16h.415Zm-23.085,15.493a28.9,28.9,0,0,1-20.8,6.55,19.68,19.68,0,0,1-18.2-16.221h.415a18.668,18.668,0,0,0,14.558,10.4c6.858.832,15.077-2.287,19.547-6.55l-4.991-3.847H274.1l-3.331,16.014-2.184-6.239Z" transform="translate(-206.614 -228.58)" fill="#ea1d2c"/>
</svg>
