<svg xmlns="http://www.w3.org/2000/svg" xmlns:xlink="http://www.w3.org/1999/xlink" width="68.952" height="80.359" viewBox="0 0 68.952 80.359">
  <defs>
    <linearGradient id="linear-gradient" x1="17.217" y1="43.568" x2="34.484" y2="31.136" gradientUnits="objectBoundingBox">
      <stop offset="0" stop-color="#c00d3e"/>
      <stop offset="0.3" stop-color="#cf133c"/>
      <stop offset="0.73" stop-color="#e01837"/>
      <stop offset="1" stop-color="#e71a34"/>
    </linearGradient>
  </defs>
  <path id="jadlog" d="M47.912,35.862a1.224,1.224,0,0,1-1.16,0l-1.869-1.128a1.289,1.289,0,0,1-.387-.419v-.032a1.224,1.224,0,0,1-.226-.58l-.032-2.191a1.166,1.166,0,0,1,.548-.967L67.212,17.464,35.733.29A2.707,2.707,0,0,0,34.476,0a2.739,2.739,0,0,0-1.257.29L1.74,17.4,37.022,37.924a1.211,1.211,0,0,1,.548.967V68.856a1.153,1.153,0,0,1-.58.967l-1.9,1.063a1.256,1.256,0,0,1-.58.129,1.128,1.128,0,0,1-.644-.129L32,69.822a1.192,1.192,0,0,1-.612-.967V42.209a.741.741,0,0,0-.322-.548L0,23.618v35.41a2.777,2.777,0,0,0,1.257,2.159l32,18.881a2.458,2.458,0,0,0,1.224.29,2.358,2.358,0,0,0,1.257-.322l32-18.817a2.8,2.8,0,0,0,1.224-2.159V23.618Z" transform="translate(0 0)" fill="url(#linear-gradient)"/>
</svg>
