<svg xmlns="http://www.w3.org/2000/svg" width="80.114" height="79.752" viewBox="0 0 80.114 79.752">
  <path id="Caminho_38565" data-name="Caminho 38565" d="M97.251,72.528c-3.393,1.432-4.8,3.166-6.132,7.589a28.155,28.155,0,0,1-1.206,3.267c-1.282,2.563-6.257,8.067-10.077,11.183L78.177,95.9v3.267c0,2.563.075,3.191.327,3.015.151-.15,1.106-.854,2.061-1.608,5.579-4.272,8.494-7.061,11.61-11.107a18.621,18.621,0,0,0,3.87-7.438,13.14,13.14,0,0,1,1.106-2.89c1.332-2.01,4.951-2.237,6.684-.4,1.207,1.256,1.935,3.794,1.835,6.408-.126,3.393-1.257,6.157-4.448,10.881a39.915,39.915,0,0,0-2.286,3.694L97.879,101.9c-.352.779-.452,1.232-.276,1.257q4.349.443,8.72.578c4.825.176,6.886.88,8.016,2.739a5.738,5.738,0,0,1,.151,4.473,14.646,14.646,0,0,0-.528,6.057,8.272,8.272,0,0,1-1.382,6.006c-1.433,2.287-1.709,2.99-1.86,4.85a11.42,11.42,0,0,1-4.071,7.765,20.882,20.882,0,0,0-2.489,3.116A18.646,18.646,0,0,1,98.03,144.9c-4.85,2.286-12.062,2.286-22.114-.025q-2.232-.545-4.5-.93c-2.035-.4-4.875-.477-17.364-.477l-13.947-.026-.075,1.936c-.075,1.885-.05,1.96.5,1.985l1.206.1,4.775.226q5.117.2,10.228.528c12.389.528,11.56.428,20.179,2.262q2.862.668,5.78,1.056a87.906,87.906,0,0,0,11.183.075,21.119,21.119,0,0,0,7.614-2.564,25.89,25.89,0,0,0,6.458-6.483,29.52,29.52,0,0,1,3.141-3.794,15.231,15.231,0,0,0,4.8-9.775,5.454,5.454,0,0,1,1.282-3.243,14.575,14.575,0,0,0,1.758-3.895,26.7,26.7,0,0,0,.327-4.925,19.118,19.118,0,0,1,.477-5.4,11.4,11.4,0,0,0-.3-6.76,9.622,9.622,0,0,0-5.378-5.1,20.408,20.408,0,0,0-7.162-1.156,2.483,2.483,0,0,1-.829-.1,32.431,32.431,0,0,0,4.4-9.248,24.5,24.5,0,0,0,.326-7.413,11.56,11.56,0,0,0-6.207-8.871,7.212,7.212,0,0,0-3.769-.854A6.562,6.562,0,0,0,97.251,72.528Z" transform="translate(-40 -72)" fill="#f0b131"/>
</svg>
