<svg xmlns="http://www.w3.org/2000/svg" width="80.909" height="58.662" viewBox="0 0 80.909 58.662">
  <g id="Camada_2" data-name="Camada 2" transform="translate(-0.045 0.002)">
    <g id="Camada_1" data-name="Camada 1" transform="translate(0.045 -0.002)">
      <path id="Caminho_38431" data-name="Caminho 38431" d="M80.41,23.857A27.975,27.975,0,0,0,60.851,1.606,28.078,28.078,0,0,0,32.092,7.774a1.159,1.159,0,0,1-1.533.307,21.876,21.876,0,0,0-7.837-1.5,20.888,20.888,0,0,0-4.4.409A22.762,22.762,0,1,0,30.559,50.708a1.261,1.261,0,0,1,1.5.273,28.452,28.452,0,0,0,22.353,7.531,29.168,29.168,0,0,0,26-34.654ZM50.322,52.071a22.83,22.83,0,0,1-21.16-20.786c0-1.908,0-1.908-2.044-1.908H23.71c-1.022,0-1.056.2-1.022,1.056a29.3,29.3,0,0,0,3.987,13.63l.477.852a15.743,15.743,0,0,1-17.037-5.248A15.436,15.436,0,0,1,8.172,22.153a15.538,15.538,0,0,1,15.3-9A16.151,16.151,0,0,1,38.737,27.844c0,1.567,0,1.567,1.67,1.567h3.85c1.295,0,1.124,0,1.056-1.056a22.353,22.353,0,0,0-7.224-15.64c-.681-.647-.784-.886,0-1.5a22.728,22.728,0,1,1,12.233,40.89Z" transform="translate(-0.045 0.002)" fill="#2c3357"/>
    </g>
  </g>
</svg>
