<svg xmlns="http://www.w3.org/2000/svg" viewBox="0 0 160 30"><defs><style>.cls-1{fill:#fff;}.cls-2{fill:#0c29ce;}</style></defs><title>Olist</title><g id="Camada_2" data-name="Camada 2"><g id="Camada_1-2" data-name="Camada 1"><rect class="cls-1" width="160" height="30"/><path class="cls-2" d="M67.25,18.26a8.28,8.28,0,0,1-8.5,8.59,8.38,8.38,0,0,1-8.64-8.63,8.31,8.31,0,0,1,8.61-8.51A8.24,8.24,0,0,1,67.25,18.26Zm-8.38-4.78A3.67,3.67,0,0,0,55.64,15a5.47,5.47,0,0,0-.93,4.61,4.22,4.22,0,0,0,3.89,3.55,3.92,3.92,0,0,0,3.94-3.22,7.58,7.58,0,0,0,.06-3.11A3.81,3.81,0,0,0,58.87,13.48Z"/><path class="cls-2" d="M97.53,11.86c-.67.73-1.31,1.43-1.94,2.15a1,1,0,0,0-.21.32c-1.1-.45-2-.85-2.95-1.18a1.24,1.24,0,0,0-.93,0,2.79,2.79,0,0,0-1.15,1c-.29.54.11,1.06.58,1.36a18.07,18.07,0,0,0,1.95,1c.87.44,1.78.81,2.63,1.3,3.2,1.82,2.67,6.36-.07,8a8.42,8.42,0,0,1-6.9.61A8.58,8.58,0,0,1,84.75,24l2.69-2.35c.24.2.63.54,1,.84A4,4,0,0,0,92,23.3a1.5,1.5,0,0,0,1.26-1.11,1.37,1.37,0,0,0-.79-1.52c-.72-.41-1.49-.74-2.24-1.1-.53-.26-1.07-.49-1.59-.77a4.42,4.42,0,0,1-2.59-4.42,4.68,4.68,0,0,1,3.38-4.29A8.15,8.15,0,0,1,97.53,11.86Z"/><path class="cls-2" d="M99,13.67V10h1.91c.21-1.09.4-2.12.64-3.15,0-.18.26-.45.41-.46,1.1,0,2.2,0,3.36,0V10h4.12v3.62h-4.07c0,.35,0,.61,0,.87q0,3,0,6.05c0,.17,0,.35,0,.52.07,1.81,1,2.42,2.67,1.84l.63-.22,1.31,3.12a1.5,1.5,0,0,1-.24.22,7.65,7.65,0,0,1-4.88.68c-2.32-.42-3.79-2.38-3.85-5,0-2.31,0-4.63,0-6.94,0-1.28,0-1.12-1.1-1.13Z"/><path class="cls-2" d="M74.27,26.46H70V3.13h4.29Z"/><path class="cls-2" d="M82.39,26.46H78.11V10.09h4.28Z"/><path class="cls-2" d="M82.41,4.05V7.66H78.1V4.05Z"/></g></g></svg>