<svg xmlns="http://www.w3.org/2000/svg" width="80.001" height="89.865" viewBox="0 0 80.001 89.865">
  <g id="Grupo_20841" data-name="Grupo 20841" transform="translate(-531.506 -1524.387)">
    <path id="Caminho_38342" data-name="Caminho 38342" d="M395.865,92.082h18.241a39.157,39.157,0,0,1,4.947-15.962A15.767,15.767,0,0,1,432,67a15.961,15.961,0,0,1,13.14,9.121,39.568,39.568,0,0,1,4.831,15.962h18.164A3.865,3.865,0,0,1,472,95.947l-3.633,50.861a9.855,9.855,0,0,1-10.28,10.048H405.952a9.932,9.932,0,0,1-10.087-9.971L392,96.025a3.865,3.865,0,0,1,3.865-3.865Zm22.763,0h26.589a34.16,34.16,0,0,0-4.058-13.488,9.74,9.74,0,0,0-18.241,0,33.962,33.962,0,0,0-4.251,13.488Z" transform="translate(139.506 1457.387)" fill="#ea501f"/>
    <path id="Caminho_38343" data-name="Caminho 38343" d="M418.783,139.077a1.855,1.855,0,0,1,2.048-3.053c.541.387,1.121.735,1.7,1.082a22.791,22.791,0,0,0,11.594,3.865,7.728,7.728,0,0,0,6.84-3.362l.232-.309a10.035,10.035,0,0,0,.966-2.2,6.763,6.763,0,0,0-.231-4.445,9.353,9.353,0,0,0-3.865-3.864,18.741,18.741,0,0,0-4.908-2.049,19.667,19.667,0,0,1-10.628-6.029,9.312,9.312,0,0,1,0-10.705,10.316,10.316,0,0,1,8.7-4.908,22.688,22.688,0,0,1,11.865,2.705,1.855,1.855,0,0,1-1.7,3.285,18.667,18.667,0,0,0-9.894-2.319,6.762,6.762,0,0,0-5.875,2.744,5.951,5.951,0,0,0-.27,6.725,16.392,16.392,0,0,0,8.7,4.869,23.569,23.569,0,0,1,5.8,2.435,12.987,12.987,0,0,1,5.333,5.759,10.162,10.162,0,0,1,.425,6.917,10.484,10.484,0,0,1-1.391,3.092l-.309.541a11.591,11.591,0,0,1-9.894,4.947,26.471,26.471,0,0,1-13.372-4.367C420.058,139.929,419.44,139.542,418.783,139.077Z" transform="translate(139.506 1457.388)" fill="#fff"/>
  </g>
</svg>
