<svg xmlns="http://www.w3.org/2000/svg" width="80.016" height="68.549" viewBox="0 0 80.016 68.549">
  <g id="Grupo_20689" data-name="Grupo 20689" transform="translate(-39.798 -77.015)">
    <path id="Caminho_38394" data-name="Caminho 38394" d="M59.513,77c0,16.613,9.85,32.566,13.71,38.152a4.918,4.918,0,0,0,4.08,2.1h24.92a5.015,5.015,0,0,0,4.08-2.1c3.86-5.55,13.71-21.538,13.71-38.152Z" transform="translate(-0.198 0.015)" fill="#1c90f7"/>
    <path id="Caminho_38399" data-name="Caminho 38399" d="M81.276,88.945c1.764-7.131,2.463-11.872,2.463-11.872H75.1a99.145,99.145,0,0,1-2.72,14.077c-.074.368-.184.7-.294,1.066-1.213,4.521-2.72,9.225-4.521,14-.625,1.653-1.286,3.345-1.985,5.035a2.221,2.221,0,0,0-.294-.294l-.184-.184a76.825,76.825,0,0,1-5.918-11.32c-.037-.147-.11-.257-.147-.4q-.441-1.048-.882-2.205A76.785,76.785,0,0,1,53.6,77.221v-.074H40v6.689h5.844a80.209,80.209,0,0,0,14.849,33.411,4.783,4.783,0,0,0,.7.808,4.413,4.413,0,0,1,.4.441l.4.405c-.7,1.469-1.433,2.9-2.169,4.374-.221.441-.478.882-.7,1.323-1.286,2.425-2.646,4.814-4.043,7.166h7.939c1.764-2.572,3.381-5.256,4.888-7.976,1.654-3.014,3.161-6.138,4.521-9.226,1.691-3.9,3.161-7.755,4.447-11.43.257-.735.478-1.47.735-2.168s.478-1.434.7-2.132q.992-3.2,1.764-6.065c.331-1.213.662-2.389.919-3.492A2.342,2.342,0,0,0,81.276,88.945Z" transform="translate(-0.202 0.015)" fill="#121150"/>
    <path id="Caminho_38400" data-name="Caminho 38400" d="M57.126,145.537a5.111,5.111,0,1,0-5.256-5.109A5.178,5.178,0,0,0,57.126,145.537Z" transform="translate(-0.2 0.027)" fill="#121150"/>
    <path id="Caminho_38401" data-name="Caminho 38401" d="M104.2,145.133a5.111,5.111,0,1,0-5.256-5.109A5.178,5.178,0,0,0,104.2,145.133Z" transform="translate(-0.19 0.027)" fill="#121150"/>
  </g>
</svg>
