<svg width="104" height="104" viewBox="0 0 104 104" fill="none" xmlns="http://www.w3.org/2000/svg">
<path d="M4.29883 54.7488C4.29883 91.4695 44.0501 114.42 75.8512 96.0596C90.6101 87.5385 99.702 71.791 99.702 54.7488C99.702 18.0281 59.9507 -4.92238 28.1496 13.438C13.3907 21.959 4.29883 37.7067 4.29883 54.7488Z" fill="#D9EDFF"/>
<path d="M82.4266 45.4028V81.6012C82.4266 82.9185 81.3588 83.9863 80.0415 83.9863H23.9671C22.6498 83.9864 21.582 82.9185 21.582 81.6012V45.4028H82.4266Z" fill="white" stroke="#23489F" stroke-width="1.04" stroke-linecap="round" stroke-linejoin="round"/>
<path d="M57.698 65.7273L82.4266 45.4028L55.6171 23.967C53.505 22.277 50.5036 22.277 48.3915 23.967L21.582 45.4028L46.2843 65.7452L57.698 65.7273Z" fill="#B0D9FF" stroke="#23489F" stroke-width="1.04" stroke-linecap="round" stroke-linejoin="round"/>
<path d="M53.6334 62.9571C52.6504 62.2869 51.3573 62.2869 50.3742 62.9571L21.7461 82.4717C22.1043 83.3853 22.9854 83.9863 23.9666 83.9863H80.041C81.0218 83.9857 81.9023 83.3849 82.2603 82.4717L53.6334 62.9571Z" fill="white" stroke="#23489F" stroke-width="1.04" stroke-linecap="round" stroke-linejoin="round"/>
<path d="M73.6987 94.9899C73.6987 93.7974 63.9866 92.8207 52.0051 92.8207C40.0237 92.8207 30.3105 93.7926 30.3105 94.9899C30.3105 96.1873 40.0237 97.1591 52.0004 97.1591C63.9771 97.1591 73.6987 96.1884 73.6987 94.9899Z" fill="#B0D9FF"/>
<path d="M29.0898 24.4487C29.0898 42.0765 48.1725 53.0939 63.4385 44.28C70.5235 40.1895 74.8881 32.6298 74.8881 24.4487C74.8881 6.82096 55.8055 -4.19638 40.5394 4.61751C33.4543 8.70801 29.0898 16.2676 29.0898 24.4487Z" fill="#B0D9FF" stroke="#23489F" stroke-width="1.04" stroke-linecap="round" stroke-linejoin="round"/>
<path d="M68.3662 24.4523C68.3585 11.4165 54.242 3.27747 42.9564 9.80204C31.6709 16.3267 31.6805 32.6215 42.9738 39.1328C48.2119 42.1528 54.6629 42.1509 59.8992 39.1277C61.0712 38.4551 61.4732 36.9579 60.796 35.7886C60.103 34.6433 58.63 34.2482 57.4569 34.893C49.4218 39.5401 39.3694 33.7462 39.3624 24.4642C39.3555 15.1821 49.3993 9.37332 57.4412 14.0084C57.8364 14.236 58.2183 14.486 58.585 14.757H58.678C60.0277 14.7583 61.1214 15.8521 61.1228 17.2017V17.2971C62.658 19.3665 63.4856 21.8755 63.4827 24.4523V28.0764C63.454 28.9848 62.4526 29.5214 61.6804 29.0423C61.3445 28.834 61.1352 28.4715 61.1228 28.0764V17.1993C61.1224 15.3173 59.0849 14.1415 57.4552 15.0829C57.0167 15.3361 56.6677 15.7194 56.4563 16.1797C54.9475 15.242 53.2061 14.7463 51.4298 14.7487C43.9673 14.7081 39.2594 22.7611 42.9556 29.2441C45.9473 34.4914 52.9574 35.7548 57.5928 31.8818C60.5129 35.5144 66.2704 34.6237 67.9562 30.2786C68.2292 29.5753 68.3682 28.8272 68.3662 28.0729V24.4523ZM56.2262 24.4523C56.2271 28.1511 52.2237 30.4636 49.0201 28.6151C45.8164 26.7666 45.8153 22.1432 49.018 20.293C49.749 19.8708 50.5784 19.6485 51.4226 19.6487C54.0741 19.652 56.2229 21.8008 56.2262 24.4523Z" fill="white" stroke="#23489F" stroke-width="1.04" stroke-linecap="round" stroke-linejoin="round"/>
</svg>
