<svg width="104" height="104" viewBox="0 0 104 104" fill="none" xmlns="http://www.w3.org/2000/svg">
<path d="M1.54883 52C1.54883 90.8367 43.5908 115.11 77.2244 95.6913C92.8339 86.6792 102.45 70.0242 102.45 52C102.45 13.1633 60.4077 -11.1097 26.774 8.30872C11.1646 17.3208 1.54883 33.9758 1.54883 52Z" fill="#D9EDFF"/>
<path d="M64.5843 96.4103C64.5843 95.149 56.9953 94.1261 47.633 94.1261C38.2706 94.1261 30.6816 95.149 30.6816 96.4103C30.6816 97.6715 38.272 98.6944 47.633 98.6944C56.994 98.6944 64.5843 97.6728 64.5843 96.4103Z" fill="#B0D9FF"/>
<path d="M15.1547 51.1297C15.316 49.4772 16.0727 47.9397 17.2837 46.8036L21.2592 42.9605C22.7822 41.3067 25.4066 41.351 26.8731 43.0552C27.9578 44.0768 28.9416 45.1993 30.0262 46.3181L33.081 49.4775C34.8598 50.9854 34.813 53.7444 32.9839 55.191C31.6595 56.4725 30.4348 57.7552 29.0109 58.9344C28.6985 59.1659 28.6052 59.5927 28.7927 59.9334C29.6643 61.9767 30.7943 63.8998 32.1553 65.6557C34.8305 69.1909 38.0862 72.2466 41.7837 74.6926C42.577 75.2072 43.523 75.5755 44.3163 76.0888C44.673 76.3394 45.1646 76.2587 45.4224 75.9072L49.3979 72.0641C50.8985 70.3589 53.5695 70.4039 55.0118 72.1588L61.2197 78.5811C62.9237 80.122 62.8785 82.8117 61.1239 84.2946C59.9496 85.5281 58.6278 86.609 57.5028 87.893C55.9212 89.5702 53.6314 90.3873 51.3452 90.0901C48.0326 89.7302 44.8269 88.704 41.9211 87.0731C35.2765 83.7249 29.4245 78.9946 24.7579 73.1993C21.2163 68.965 18.4314 64.1518 16.5257 58.971C15.4556 56.5024 14.9857 53.815 15.1547 51.1297Z" fill="#B0D9FF"/>
<path d="M61.2166 78.5811L55.0086 72.1587C53.5664 70.4039 50.8954 70.3589 49.3948 72.0641L47.5938 73.8046L59.3776 85.9935C59.9667 85.436 60.5607 84.8823 61.1207 84.2945C62.8755 82.8116 62.9206 80.122 61.2166 78.5811Z" fill="white"/>
<path d="M61.2166 78.5811L55.0086 72.1587C53.5664 70.4039 50.8954 70.3589 49.3948 72.0641L47.5938 73.8046L59.3776 85.9935C59.9667 85.436 60.5607 84.8823 61.1207 84.2945C62.8755 82.8116 62.9206 80.122 61.2166 78.5811Z" stroke="#23489F" stroke-width="1.04"/>
<path d="M15.1547 51.1297C15.316 49.4772 16.0727 47.9397 17.2837 46.8036L21.2592 42.9605C22.7822 41.3067 25.4066 41.351 26.8731 43.0552C27.9578 44.0768 28.9416 45.1993 30.0262 46.3181L33.081 49.4775C34.8598 50.9854 34.813 53.7444 32.9839 55.191C31.6595 56.4725 30.4348 57.7552 29.0109 58.9344C28.6985 59.1659 28.6052 59.5927 28.7927 59.9334C29.6643 61.9767 30.7943 63.8998 32.1553 65.6557C34.8305 69.1909 38.0862 72.2466 41.7837 74.6926C42.577 75.2072 43.523 75.5755 44.3163 76.0888C44.673 76.3393 45.1646 76.2587 45.4224 75.9072L49.3979 72.0641C50.8985 70.3589 53.5695 70.4039 55.0118 72.1588L61.2197 78.5811C62.9237 80.122 62.8785 82.8117 61.1239 84.2946C59.9496 85.5281 58.6278 86.609 57.5028 87.893C55.9212 89.5702 53.6314 90.3873 51.3452 90.0901C48.0326 89.7302 44.8269 88.704 41.9211 87.0731C35.2765 83.7249 29.4245 78.9946 24.7579 73.1993C21.2163 68.965 18.4314 64.1518 16.5257 58.971C15.4556 56.5024 14.9857 53.815 15.1547 51.1297Z" stroke="#23489F" stroke-width="1.04" stroke-linecap="round" stroke-linejoin="round"/>
<path d="M19.459 44.7011L21.2601 42.9605C22.783 41.3068 25.4076 41.351 26.874 43.0552C27.9586 44.0768 28.9424 45.1993 30.0271 46.3181L33.0806 49.4775C34.8594 50.9854 34.8126 53.7444 32.9835 55.1909C32.3932 55.7624 31.8231 56.3337 31.2454 56.8949L19.459 44.7011Z" fill="white" stroke="#23489F" stroke-width="1.04"/>
<path d="M71.8681 3.45911C53.914 5.16032 42.8812 23.9261 50.1253 40.4418L43.7395 55.0371C43.3316 55.9725 44.0891 56.9986 45.1031 56.8842C45.1786 56.8758 45.2532 56.8608 45.3261 56.8394L60.5243 52.3695C77.8854 63.0503 100.298 50.9318 100.868 30.5562C101.312 14.6429 87.7147 1.93757 71.8681 3.45911Z" fill="white"/>
<path d="M71.8681 3.45911C53.914 5.16032 42.8812 23.9261 50.1253 40.4418L43.7395 55.0371C43.3316 55.9725 44.0891 56.9986 45.1031 56.8842C45.1786 56.8758 45.2532 56.8608 45.3261 56.8394L60.5243 52.3695C77.8854 63.0503 100.298 50.9318 100.868 30.5562C101.312 14.6429 87.7147 1.93757 71.8681 3.45911Z" stroke="#23489F" stroke-width="1.04" stroke-linecap="round" stroke-linejoin="round"/>
<path d="M61.8029 23.2079C61.8029 24.2275 60.6993 24.8646 59.8165 24.3548C58.9336 23.8451 58.9336 22.5708 59.8165 22.0611C60.0177 21.9448 60.2461 21.8836 60.4786 21.8836C61.2099 21.8837 61.8029 22.4765 61.8029 23.2079Z" fill="#23489F"/>
<path d="M86.9668 23.2079C86.9668 24.2275 88.0704 24.8646 88.9533 24.3548C89.8362 23.8451 89.8362 22.5708 88.9533 22.0611C88.7519 21.9448 88.5236 21.8837 88.2911 21.8836C87.5596 21.8836 86.9668 22.4765 86.9668 23.2079Z" fill="#23489F"/>
<path d="M74.385 47.0458C81.5865 47.2005 87.7989 42.0206 88.9412 34.9086C88.9958 34.4886 88.8396 34.0685 88.5238 33.7862C88.1971 33.4939 87.7557 33.3649 87.3231 33.4355C78.7523 34.8077 70.0178 34.8077 61.4471 33.4355C61.0148 33.3652 60.5739 33.4941 60.2476 33.7862C59.9315 34.0684 59.7748 34.4883 59.8289 34.9086C60.9717 42.0203 67.1838 47.2 74.385 47.0458Z" fill="#B0D9FF" stroke="#23489F" stroke-width="1.04" stroke-linecap="round" stroke-linejoin="round"/>
<path d="M63.6953 42.6667C67.0338 41.0929 70.6952 40.3252 74.3845 40.4254C78.0743 40.3257 81.736 41.0934 85.075 42.6667C79.1452 48.5074 69.6252 48.5074 63.6953 42.6667Z" fill="white" stroke="#23489F" stroke-width="1.04" stroke-linecap="round" stroke-linejoin="round"/>
</svg>
