<svg width="104" height="104" viewBox="0 0 104 104" fill="none" xmlns="http://www.w3.org/2000/svg">
<path d="M1.5498 51.9998C1.5498 90.8365 43.5918 115.11 77.2254 95.6911C92.8349 86.679 102.451 70.024 102.451 51.9998C102.451 13.1631 60.4086 -11.11 26.775 8.3085C11.1655 17.3206 1.5498 33.9756 1.5498 51.9998Z" fill="#D9EDFF"/>
<path d="M77.722 36.6758H12.3496C10.7405 36.6758 9.43604 37.9803 9.43604 39.5893V81.8769H80.6304V39.5893C80.6304 37.9822 79.3291 36.6787 77.722 36.6758Z" fill="white" stroke="#020064" stroke-width="1.04" stroke-linecap="round" stroke-linejoin="round"/>
<path d="M75.6095 41.7017H14.533L14.4624 81.8765H75.6095V41.7017Z" fill="#B0D9FF"/>
<path d="M75.6095 41.7017H14.533L14.4624 81.8765H75.6095V41.7017Z" stroke="#020064" stroke-width="1.04" stroke-linecap="round" stroke-linejoin="round"/>
<path d="M6.50488 91.9287C6.50488 93.8628 40.0103 95.0717 66.8146 94.1046C79.2545 93.6558 86.9178 92.8263 86.9178 91.9287C86.9178 89.9947 53.4124 88.7859 26.6081 89.753C14.1682 90.2018 6.50488 91.0312 6.50488 91.9287Z" fill="#B0D9FF"/>
<path d="M86.9181 86.903H3.15527V83.3337C3.15527 82.5292 3.80753 81.877 4.61205 81.877H85.4588C86.2634 81.877 86.9156 82.5292 86.9156 83.3337L86.9181 86.903Z" fill="white" stroke="#020064" stroke-width="1.04" stroke-linecap="round" stroke-linejoin="round"/>
<path d="M86.9181 86.9028C79.1395 89.1249 71.0856 90.2524 62.9958 90.2527H27.0776C18.9878 90.2524 10.9339 89.1249 3.15527 86.9028H86.9181Z" fill="#B0D9FF" stroke="#020064" stroke-width="1.04" stroke-linecap="round" stroke-linejoin="round"/>
<path d="M87.6495 71.3452C87.6474 73.7574 85.6915 75.7118 83.2792 75.7117H27.9225C25.509 75.7116 23.5522 73.7549 23.5522 71.3414V37.0352H87.6495V71.3452Z" fill="#B0D9FF"/>
<path d="M87.6495 28.297C87.6495 25.8834 85.6928 23.9269 83.2792 23.9268H27.9225C25.509 23.9269 23.5522 25.8834 23.5522 28.297V37.0375H87.6495V28.297Z" fill="white" stroke="#020064" stroke-width="1.04" stroke-linecap="round" stroke-linejoin="round"/>
<path d="M27.9224 30.4817C27.9224 32.1634 29.7428 33.2144 31.1992 32.3735C31.8751 31.9833 32.2914 31.2622 32.2914 30.4817C32.2914 28.8001 30.471 27.7491 29.0147 28.5898C28.3387 28.9801 27.9224 29.7013 27.9224 30.4817Z" fill="#B0D9FF" stroke="#020064" stroke-width="1.04" stroke-linecap="round" stroke-linejoin="round"/>
<path d="M35.2061 30.4817C35.2061 32.1634 37.0265 33.2144 38.4829 32.3735C39.1587 31.9833 39.5751 31.2622 39.5751 30.4817C39.5751 28.8001 37.7546 27.7491 36.2984 28.5898C35.6224 28.9801 35.2061 29.7013 35.2061 30.4817Z" fill="#B0D9FF" stroke="#020064" stroke-width="1.04" stroke-linecap="round" stroke-linejoin="round"/>
<path d="M42.4902 30.4817C42.4902 32.1634 44.3107 33.2144 45.7669 32.3735C46.4429 31.9833 46.8592 31.2622 46.8592 30.4817C46.8592 28.8001 45.0388 27.7491 43.5824 28.5898C42.9066 28.9801 42.4902 29.7013 42.4902 30.4817Z" fill="#B0D9FF" stroke="#020064" stroke-width="1.04" stroke-linecap="round" stroke-linejoin="round"/>
<path d="M87.6495 71.3452C87.6474 73.7574 85.6915 75.7118 83.2792 75.7117H27.9225C25.509 75.7116 23.5522 73.7549 23.5522 71.3414V37.0352H87.6495V71.3452Z" stroke="#020064" stroke-width="1.04" stroke-linecap="round" stroke-linejoin="round"/>
<path d="M73.0782 64.7136C73.0782 66.6501 71.5084 68.2199 69.5719 68.2199H38.7114C36.7746 68.2206 35.2044 66.6504 35.2051 64.7136V46.4782C35.2065 44.5417 36.776 42.9721 38.7126 42.9707H69.5719C71.5085 42.9721 73.0781 44.5417 73.0794 46.4783L73.0782 64.7136Z" fill="white"/>
<path d="M35.2036 47.1782H73.078V51.3871H35.2036V47.1782Z" fill="#B0D9FF"/>
<path d="M39.4126 64.0125L49.9327 64.0112" stroke="#020064" stroke-width="1.04" stroke-linecap="round" stroke-linejoin="round"/>
<path d="M39.4126 55.5947H68.8706V59.8036H39.4126V55.5947Z" fill="#B0D9FF"/>
<path d="M73.0782 64.7136C73.0782 66.6501 71.5084 68.2199 69.5719 68.2199H38.7114C36.7746 68.2206 35.2044 66.6504 35.2051 64.7136V46.4782C35.2065 44.5417 36.776 42.9721 38.7126 42.9707H69.5719C71.5085 42.9721 73.0781 44.5417 73.0794 46.4783L73.0782 64.7136Z" stroke="#020064" stroke-width="1.04" stroke-linecap="round" stroke-linejoin="round"/>
<path d="M35.2036 47.1782H73.078V51.3871H35.2036V47.1782Z" stroke="#020064" stroke-width="1.04" stroke-linecap="round" stroke-linejoin="round"/>
<path d="M39.4126 55.5947H68.8706V59.8036H39.4126V55.5947Z" stroke="#020064" stroke-width="1.04" stroke-linecap="round" stroke-linejoin="round"/>
<path d="M64.8433 21.9844H92.0159V44.9116H64.8433V21.9844Z" fill="white"/>
<path d="M64.8433 21.9844H92.0159V44.9116H64.8433V21.9844Z" stroke="#020064" stroke-width="1.04" stroke-linecap="round" stroke-linejoin="round"/>
<path d="M75.583 33.4482C75.5789 35.6395 77.9485 37.0137 79.8483 35.9216C80.7335 35.4127 81.2784 34.469 81.2764 33.4482C81.2805 31.2568 78.911 29.8826 77.0111 30.9747C76.126 31.4835 75.5812 32.4272 75.583 33.4482Z" fill="#B0D9FF" stroke="#020064" stroke-width="1.04" stroke-linecap="round" stroke-linejoin="round"/>
<path d="M83.7671 21.9819V17.2269C83.8304 13.1184 79.4224 10.4822 75.8328 12.4816C74.1154 13.4381 73.0628 15.2613 73.0931 17.2269V21.9819H68.2397V17.2269C68.2477 9.38285 76.744 4.48885 83.5332 8.4177C86.6777 10.2374 88.6155 13.5938 88.6192 17.2269V21.9819H83.7671Z" fill="#B0D9FF" stroke="#020064" stroke-width="1.04" stroke-linecap="round" stroke-linejoin="round"/>
</svg>
