<svg width="104" height="104" viewBox="0 0 104 104" fill="none" xmlns="http://www.w3.org/2000/svg">
<path d="M1.5498 51.9998C1.5498 90.8365 43.5918 115.11 77.2254 95.6911C92.8349 86.679 102.451 70.024 102.451 51.9998C102.451 13.1631 60.4086 -11.11 26.775 8.3085C11.1655 17.3206 1.5498 33.9756 1.5498 51.9998Z" fill="#D9EDFF"/>
<path d="M37.7677 90.842C37.8001 92.5797 50.9871 93.3878 61.5043 92.2966C66.3888 91.7899 69.3869 90.9804 69.3678 90.1734C69.3354 88.4357 56.1484 87.6276 45.6312 88.7188C40.7467 89.2256 37.7486 90.035 37.7677 90.842Z" fill="#B0D9FF"/>
<path d="M51.9594 87.8564C52.9271 88.4067 54.1186 88.3815 55.0621 87.7908C61.6207 83.7132 86.9543 66.5525 86.5003 45.0807L86.0728 24.8616C86.0416 23.5857 85.2161 22.4655 84.0068 22.0577C71.8987 17.9839 61.4302 14.5747 52.7376 7.51671C52.1937 7.07532 51.4103 7.09241 50.8861 7.55707C42.4949 14.9757 32.1803 18.8289 20.2615 23.4072C19.0689 23.8635 18.2908 25.019 18.3165 26.2956L18.7441 46.5149C19.1982 67.9866 45.237 84.0601 51.9594 87.8564Z" fill="white"/>
<path d="M52.126 78.3525C52.8661 78.7727 53.7769 78.7533 54.4985 78.302C59.5107 75.1855 78.8811 62.0646 78.533 45.6481L78.2063 30.1888C78.1836 29.2131 77.5523 28.3559 76.6273 28.0447C67.4718 24.9634 59.541 22.3791 52.9333 17.0982C52.3923 16.6661 51.6196 16.683 51.0981 17.1385C44.7212 22.6881 36.9052 25.6104 27.8909 29.0763C26.9771 29.4248 26.3795 30.3083 26.3963 31.2861L26.7243 46.7441C27.0762 63.1606 46.9839 75.4502 52.126 78.3525Z" fill="#B0D9FF"/>
<path d="M51.9594 87.8564C52.9271 88.4067 54.1186 88.3815 55.0621 87.7908C61.6207 83.7132 86.9543 66.5525 86.5003 45.0807L86.0728 24.8616C86.0416 23.5857 85.2161 22.4655 84.0068 22.0577C71.8987 17.9839 61.4302 14.5747 52.7376 7.51671C52.1937 7.07532 51.4103 7.09241 50.8861 7.55707C42.4949 14.9757 32.1803 18.8289 20.2615 23.4072C19.0689 23.8635 18.2908 25.019 18.3165 26.2956L18.7441 46.5149C19.1982 67.9866 45.237 84.0601 51.9594 87.8564Z" stroke="#020064" stroke-width="1.04" stroke-linecap="round" stroke-linejoin="round"/>
<path d="M52.126 78.3525C52.8661 78.7727 53.7769 78.7533 54.4985 78.302C59.5108 75.1855 78.8811 62.0646 78.533 45.6481L78.2063 30.1888C78.1836 29.2131 77.5523 28.3559 76.6273 28.0447C67.4718 24.9634 59.541 22.3791 52.9333 17.0982C52.3923 16.6661 51.6196 16.683 51.0981 17.1385C44.7212 22.6881 36.9052 25.6104 27.8909 29.0763C26.9771 29.4248 26.3795 30.3083 26.3963 31.2861L26.7243 46.7441C27.0762 63.1606 46.9839 75.4502 52.126 78.3525Z" stroke="#020064" stroke-width="1.04" stroke-linecap="round" stroke-linejoin="round"/>
<path d="M48.7309 58.6593C47.7732 58.6789 46.8471 58.3157 46.158 57.6503L38.7922 50.5873C36.7665 48.6881 37.5563 45.3081 40.2139 44.5033C41.4747 44.1215 42.8435 44.4574 43.7843 45.3795L48.5468 49.9441L62.9252 34.9476C64.8471 32.9432 68.2182 33.7709 68.9931 36.4377C69.3528 37.6752 69.0249 39.0107 68.1329 39.941L51.2585 57.5494C50.5971 58.2408 49.6875 58.6403 48.7309 58.6593Z" fill="white" stroke="#020064" stroke-width="1.04" stroke-linecap="round" stroke-linejoin="round"/>
<path d="M58.2485 69.5368C58.2374 84.9345 74.8991 94.5702 88.2396 86.8808C94.4397 83.307 98.2583 76.6932 98.2531 69.5368C98.2641 54.139 81.6024 44.5034 68.2621 52.1927C62.0619 55.7665 58.2434 62.3803 58.2485 69.5368Z" fill="white" stroke="#020064" stroke-width="1.04" stroke-linecap="round" stroke-linejoin="round"/>
<path d="M71.8019 69.21C71.9067 74.1618 77.3326 77.143 81.5685 74.5764C83.5344 73.3851 84.7155 71.2356 84.6668 68.9376L84.5987 65.7202C84.4938 60.7684 79.0679 57.7871 74.832 60.3538C72.8662 61.5449 71.6852 63.6944 71.7339 65.9926L71.8019 69.21Z" fill="white" stroke="#020064" stroke-width="1.04" stroke-linecap="round" stroke-linejoin="round"/>
<path d="M91.9337 84.1267C84.4783 91.1193 72.9502 91.3656 65.2026 84.6981C69.2713 74.3211 83.0477 72.2399 90.0001 80.9521C90.7714 81.9187 91.4157 82.9801 91.9174 84.1104" fill="#B0D9FF"/>
<path d="M91.9337 84.1267C84.4783 91.1193 72.9502 91.3656 65.2026 84.6981C69.2713 74.3211 83.0477 72.2399 90.0001 80.9521C90.7714 81.9187 91.4157 82.9801 91.9174 84.1104" stroke="#020064" stroke-width="1.04" stroke-linecap="round" stroke-linejoin="round"/>
<path d="M71.7739 65.161C72.3031 60.2377 77.9636 57.7335 81.9627 60.6535C82.5351 61.0714 83.0345 61.581 83.4406 62.1617C80.4013 65.2346 75.9185 66.387 71.7739 65.161Z" fill="#B0D9FF" stroke="#020064" stroke-width="1.04" stroke-linecap="round" stroke-linejoin="round"/>
</svg>
