<svg width="104" height="104" viewBox="0 0 104 104" fill="none" xmlns="http://www.w3.org/2000/svg">
<path d="M1.5498 52C1.5498 90.8368 43.5918 115.11 77.2254 95.6913C92.8349 86.6792 102.451 70.0242 102.451 52C102.451 13.1633 60.4086 -11.1097 26.775 8.30875C11.1655 17.3208 1.5498 33.9759 1.5498 52Z" fill="#D9EDFF"/>
<path d="M24.5249 94.6723C24.5114 96.7083 49.479 97.9822 69.4666 96.9652C78.7538 96.4926 84.4739 95.6184 84.4676 94.6723C84.4811 92.6363 59.5134 91.3625 39.5258 92.3795C30.2386 92.852 24.5186 93.7263 24.5249 94.6723Z" fill="#B0D9FF"/>
<path d="M34.2164 13.1318H69.4813L83.586 27.2365V78.3604C83.586 79.3356 82.7953 80.1262 81.8202 80.1262H34.2164C33.2412 80.1262 32.4507 79.3356 32.4507 78.3604V14.895C32.4521 13.9208 33.2422 13.1317 34.2164 13.1318Z" fill="white"/>
<path d="M34.2164 13.1318H69.4813L83.586 27.2365V78.3604C83.586 79.3356 82.7953 80.1262 81.8202 80.1262H34.2164C33.2412 80.1262 32.4507 79.3356 32.4507 78.3604V14.895C32.4521 13.9208 33.2422 13.1317 34.2164 13.1318Z" stroke="#020064" stroke-width="1.04" stroke-linecap="round" stroke-linejoin="round"/>
<path d="M83.5856 27.2364L69.481 13.1318V25.4732C69.481 26.4485 70.2715 27.239 71.2467 27.239L83.5856 27.2364Z" fill="white" stroke="#020064" stroke-width="1.04" stroke-linecap="round" stroke-linejoin="round"/>
<path d="M17.4717 66.0227C17.4606 81.6302 34.3492 91.3968 47.8713 83.6028C54.1558 79.9803 58.0264 73.2764 58.0212 66.0227C58.0324 50.4151 41.1436 40.6484 27.6216 48.4425C21.337 52.0649 17.4665 58.7688 17.4717 66.0227Z" fill="#B0D9FF" stroke="#020064" stroke-width="1.04" stroke-linecap="round" stroke-linejoin="round"/>
<path d="M21.8799 66.0227C21.8799 78.2368 35.1021 85.8706 45.6798 79.7635C50.589 76.9292 53.6132 71.6912 53.6132 66.0227C53.6132 53.8084 40.391 46.1747 29.8132 52.2817C24.904 55.116 21.8799 60.354 21.8799 66.0227Z" fill="white"/>
<path d="M21.8799 66.0227C21.8799 78.2368 35.1021 85.8706 45.6798 79.7635C50.589 76.9292 53.6132 71.6912 53.6132 66.0227C53.6132 53.8084 40.391 46.1747 29.8132 52.2817C24.904 55.116 21.8799 60.354 21.8799 66.0227Z" stroke="#020064" stroke-width="1.04" stroke-linecap="round" stroke-linejoin="round"/>
<path d="M41.9199 21.9468H61.3131" stroke="#020064" stroke-width="1.04" stroke-linecap="round" stroke-linejoin="round"/>
<path d="M41.9199 28.1179H61.3131" stroke="#020064" stroke-width="1.04" stroke-linecap="round" stroke-linejoin="round"/>
<path d="M41.9199 34.2881H74.5361" stroke="#020064" stroke-width="1.04" stroke-linecap="round" stroke-linejoin="round"/>
<path d="M41.9199 40.4583H74.5361" stroke="#020064" stroke-width="1.04" stroke-linecap="round" stroke-linejoin="round"/>
<path d="M56.0249 46.6294H74.5364" stroke="#020064" stroke-width="1.04" stroke-linecap="round" stroke-linejoin="round"/>
<path d="M61.313 52.7996H74.536" stroke="#020064" stroke-width="1.04" stroke-linecap="round" stroke-linejoin="round"/>
<path d="M63.958 58.9709H74.5362" stroke="#020064" stroke-width="1.04" stroke-linecap="round" stroke-linejoin="round"/>
<path d="M64.8398 65.1411H74.5364" stroke="#020064" stroke-width="1.04" stroke-linecap="round" stroke-linejoin="round"/>
<path d="M63.958 71.311H74.5362" stroke="#020064" stroke-width="1.04" stroke-linecap="round" stroke-linejoin="round"/>
<path d="M73 34.3856C72.9942 42.3629 81.7731 47.3548 88.8021 43.3711C92.0688 41.5196 94.0808 38.0931 94.0781 34.3856C94.0839 26.4083 85.3049 21.4164 78.276 25.4001C75.0092 27.2516 72.9973 30.6781 73 34.3856Z" fill="#B0D9FF" stroke="#020064" stroke-width="1.04" stroke-linecap="round" stroke-linejoin="round"/>
<path d="M75.2915 34.3857C75.2915 40.6286 82.1646 44.5303 87.663 41.4089C90.2149 39.9602 91.7868 37.283 91.7868 34.3857C91.7868 28.1428 84.9138 24.2411 79.4153 27.3625C76.8635 28.8112 75.2915 31.4884 75.2915 34.3857Z" fill="white"/>
<path d="M75.2915 34.3857C75.2915 40.6286 82.1646 44.5303 87.663 41.4089C90.2149 39.9602 91.7868 37.283 91.7868 34.3857C91.7868 28.1428 84.9138 24.2411 79.4153 27.3625C76.8635 28.8112 75.2915 31.4884 75.2915 34.3857Z" stroke="#020064" stroke-width="1.04" stroke-linecap="round" stroke-linejoin="round"/>
<path d="M82.0371 38.4405C81.7135 38.4407 81.403 38.3143 81.1743 38.0892L78.7348 35.6897C78.083 35.0255 78.407 33.9166 79.3179 33.6936C79.7253 33.594 80.1561 33.7073 80.4584 33.9937L82.0358 35.5447L86.0534 31.5943C86.7064 30.9305 87.8454 31.2107 88.1035 32.0987C88.2273 32.5244 88.1025 32.9824 87.779 33.2904L82.8986 38.0892C82.6702 38.314 82.3603 38.4404 82.0371 38.4405Z" fill="#B0D9FF" stroke="#020064" stroke-width="1.04"/>
<path d="M30.8699 63.1816H44.13C44.6105 63.1816 45 63.5357 45 63.9725V74.209C45 74.6458 44.6105 74.9998 44.13 74.9998H30.8699C30.3895 74.9998 30 74.6458 30 74.209V63.9716C30 63.535 30.3896 63.1811 30.8699 63.1816Z" fill="#B0D9FF"/>
<path d="M30.8699 63.1816H44.13C44.6105 63.1816 45 63.5357 45 63.9725V74.209C45 74.6458 44.6105 74.9998 44.13 74.9998H30.8699C30.3895 74.9998 30 74.6458 30 74.209V63.9716C30 63.535 30.3896 63.1811 30.8699 63.1816Z" stroke="#020064" stroke-width="1.04" stroke-linecap="round" stroke-linejoin="round"/>
<path d="M31.501 63.1821V60.6821C31.501 57.5443 34.2987 55.0005 37.7502 55C41.2016 55.0005 43.9994 57.5443 43.9994 60.6821V63.1821H41.4997V60.6821C41.4997 58.7995 39.821 57.2734 37.7502 57.2734C35.6793 57.2734 34.0006 58.7995 34.0006 60.6821V63.1821H31.501Z" fill="white" stroke="#020064" stroke-width="1.04" stroke-linecap="round" stroke-linejoin="round"/>
<path d="M39.5003 68.8632C39.5052 67.6383 38.0497 66.868 36.8805 67.4766C35.7114 68.0852 35.7053 69.6162 36.8696 70.2324C36.9123 70.2551 36.956 70.276 37.0006 70.2952V71.1356C37.0006 71.5134 37.3374 71.8196 37.753 71.8196C38.1685 71.8196 38.5053 71.5134 38.5053 71.1356V70.2952C39.1129 70.0322 39.5001 69.475 39.5003 68.8632Z" fill="white" stroke="#020064" stroke-width="1.04" stroke-linecap="round" stroke-linejoin="round"/>
</svg>
