<svg width="104" height="104" viewBox="0 0 104 104" fill="none" xmlns="http://www.w3.org/2000/svg">
<path d="M1.5498 51.9998C1.5498 90.8365 43.5918 115.11 77.2254 95.6911C92.8349 86.679 102.451 70.024 102.451 51.9998C102.451 13.1631 60.4086 -11.11 26.775 8.3085C11.1655 17.3206 1.5498 33.9756 1.5498 51.9998Z" fill="#D9EDFF"/>
<path d="M52.7678 42.6665C52.7574 54.7902 41.641 63.8627 29.7612 61.4429" stroke="#020064" stroke-width="1.04" stroke-linecap="round" stroke-linejoin="round"/>
<path d="M29.7729 51.866V42.6664C29.7723 29.966 40.0678 19.6699 52.7682 19.6699C65.4686 19.6704 75.7648 29.9662 75.7648 42.6664C75.6517 49.3487 73.9441 55.9071 70.7841 61.796" stroke="#020064" stroke-width="1.04" stroke-linecap="round" stroke-linejoin="round"/>
<path d="M62.1655 59.1577C66.2622 61.5763 71.1098 62.3911 75.772 61.4444" stroke="#020064" stroke-width="1.04" stroke-linecap="round" stroke-linejoin="round"/>
<path d="M59.6182 62.9932C63.3286 65.2459 67.5873 66.4345 71.9281 66.4288C73.0726 66.4286 74.2157 66.3469 75.3486 66.1841" stroke="#020064" stroke-width="1.04" stroke-linecap="round" stroke-linejoin="round"/>
<path d="M56.4941 66.4614C61.0878 69.4496 66.4519 71.036 71.932 71.0271C72.587 71.0271 73.2361 71.0053 73.8793 70.9616" stroke="#020064" stroke-width="1.04" stroke-linecap="round" stroke-linejoin="round"/>
<path d="M52.7679 74.8467C48.1146 77.3243 43.0024 78.8207 37.7476 79.2434" stroke="#020064" stroke-width="1.04" stroke-linecap="round" stroke-linejoin="round"/>
<path d="M52.7681 74.8467C57.4203 77.3236 62.5311 78.82 67.7847 79.2434" stroke="#020064" stroke-width="1.04" stroke-linecap="round" stroke-linejoin="round"/>
<path d="M61.8872 82.9462C58.7436 82.4248 55.6792 81.5047 52.7683 80.208C49.8574 81.5047 46.7931 82.4248 43.6494 82.9462" stroke="#020064" stroke-width="1.04" stroke-linecap="round" stroke-linejoin="round"/>
<path d="M49.7021 84.8257H55.8344" stroke="#020064" stroke-width="1.04" stroke-linecap="round" stroke-linejoin="round"/>
<path d="M34.3716 52.3783V42.6666C34.3716 32.5062 42.608 24.2694 52.7683 24.2686C62.9287 24.2691 71.1657 32.5062 71.1651 42.6666C71.0425 49.0855 69.2681 55.3645 66.0128 60.8981" stroke="#020064" stroke-width="1.04" stroke-linecap="round" stroke-linejoin="round"/>
<path d="M38.9711 51.0643V42.6668C38.9704 35.0466 45.1477 28.8687 52.768 28.8687C60.3889 28.8679 66.5669 35.0459 66.5662 42.6668C66.1638 60.2942 53.8464 74.5036 34.3423 75.592" stroke="#020064" stroke-width="1.04" stroke-linecap="round" stroke-linejoin="round"/>
<path d="M52.7568 69.519C58.207 73.2241 64.5862 75.3279 71.1712 75.592" stroke="#020064" stroke-width="1.04" stroke-linecap="round" stroke-linejoin="round"/>
<path d="M29.7729 51.8665C36.3401 54.6035 43.577 49.774 43.5699 42.6593C43.5699 37.5792 47.6882 33.4609 52.7682 33.4609C57.8503 33.4624 61.9683 37.5848 61.9641 42.6669C61.9634 58.3293 49.2671 71.0262 33.6047 71.0275C32.9497 71.0275 32.3005 71.0057 31.6573 70.9621" stroke="#020064" stroke-width="1.04" stroke-linecap="round" stroke-linejoin="round"/>
<path d="M29.8359 56.7371C39.0852 59.2069 48.1631 52.2399 48.1696 42.6665C48.1696 40.1269 50.2285 38.0681 52.7681 38.0679C55.3083 38.0673 57.368 40.1262 57.368 42.6665C57.3672 55.7898 46.7279 66.428 33.6046 66.4286C32.4601 66.4284 31.3169 66.3467 30.184 66.184" stroke="#020064" stroke-width="1.04" stroke-linecap="round" stroke-linejoin="round"/>
<path d="M32.0721 10.4717H16.739C15.0456 10.4718 13.6729 11.8445 13.6729 13.5378V28.8685C13.6736 29.715 14.36 30.4009 15.2065 30.4009H17.5058C18.3527 30.4016 19.0395 29.7153 19.0395 28.8685V17.3696C19.0395 16.5232 19.7256 15.8371 20.572 15.8371H32.0721C32.919 15.8371 33.6053 15.1503 33.6046 14.3034V12.0041C33.6046 11.1578 32.9184 10.4718 32.0721 10.4717Z" fill="white" stroke="#020064" stroke-width="1.04" stroke-linecap="round" stroke-linejoin="round"/>
<path d="M90.327 28.8684V13.5377C90.327 11.8444 88.9542 10.4717 87.2608 10.4717H71.9277C71.0809 10.471 70.394 11.1573 70.394 12.004V14.3033C70.3933 15.1507 71.0804 15.8377 71.9277 15.837H83.4254C84.2717 15.8371 84.9578 16.5232 84.9578 17.3695V28.8684C84.9586 29.715 85.6449 30.4008 86.4915 30.4008H88.7908C89.6386 30.4029 90.327 29.7162 90.327 28.8684Z" fill="white" stroke="#020064" stroke-width="1.04" stroke-linecap="round" stroke-linejoin="round"/>
<path d="M71.9277 94.7896H87.2608C88.9519 94.7896 90.3235 93.4206 90.327 91.7297V76.3928C90.327 75.546 89.6402 74.8596 88.7933 74.8604H86.494C85.6475 74.8604 84.961 75.5463 84.9603 76.3928V87.8917C84.9603 88.738 84.2743 89.4241 83.428 89.4241H71.9277C71.0804 89.4234 70.3933 90.1105 70.394 90.9578V93.2571C70.394 94.104 71.0809 94.7902 71.9277 94.7896Z" fill="white" stroke="#020064" stroke-width="1.04" stroke-linecap="round" stroke-linejoin="round"/>
<path d="M13.6729 76.3928V91.7297C13.6729 93.4231 15.0456 94.7959 16.739 94.7959H32.0721C32.9184 94.7959 33.6046 94.1098 33.6046 93.2634V90.9578C33.6053 90.111 32.919 89.4241 32.0721 89.4241H20.5719C19.7256 89.4241 19.0395 88.738 19.0395 87.8917V76.3928C19.0395 75.546 18.3527 74.8596 17.5058 74.8604H15.2065C14.36 74.8604 13.6736 75.5463 13.6729 76.3928Z" fill="white" stroke="#020064" stroke-width="1.04" stroke-linecap="round" stroke-linejoin="round"/>
<path d="M81 52C80.9959 58.1449 87.2433 61.9901 92.2454 58.9215C94.5701 57.4953 96.0019 54.8559 96 52C96.0041 45.8551 89.7567 42.0099 84.7546 45.0785C82.4299 46.5047 80.9981 49.1441 81 52Z" fill="#B0D9FF" stroke="#020064" stroke-width="1.04" stroke-linecap="round" stroke-linejoin="round"/>
<path d="M82.6309 51.9999C82.6309 56.8087 87.522 59.8142 91.4349 57.4098C93.2509 56.2939 94.3696 54.2316 94.3696 51.9999C94.3696 47.191 89.4784 44.1855 85.5655 46.5899C83.7495 47.7058 82.6309 49.768 82.6309 51.9999Z" fill="white"/>
<path d="M82.6309 51.9999C82.6309 56.8087 87.522 59.8142 91.4349 57.4098C93.2509 56.2939 94.3696 54.2316 94.3696 51.9999C94.3696 47.191 89.4784 44.1855 85.5655 46.5899C83.7495 47.7058 82.6309 49.768 82.6309 51.9999Z" stroke="#020064" stroke-width="1.04" stroke-linecap="round" stroke-linejoin="round"/>
<path d="M87.4313 55.1236C87.201 55.1238 86.9801 55.0264 86.8173 54.853L85.0813 53.0047C84.6174 52.493 84.848 51.6388 85.4963 51.4671C85.7861 51.3904 86.0927 51.4777 86.3079 51.6983L87.4304 52.893L90.2895 49.85C90.7542 49.3387 91.5647 49.5545 91.7484 50.2385C91.8365 50.5664 91.7477 50.9193 91.5175 51.1565L88.0444 54.853C87.8819 55.0261 87.6613 55.1235 87.4313 55.1236Z" fill="#B0D9FF" stroke="#020064" stroke-width="1.04"/>
<path d="M21 70.5C20.9912 83.1738 34.319 91.1046 44.9901 84.7756C49.9496 81.8341 53.0041 76.3903 53 70.5C53.0088 57.8262 39.6809 49.8954 29.0099 56.2244C24.0504 59.1659 20.9959 64.6097 21 70.5Z" fill="#B0D9FF" stroke="#020064" stroke-width="1.04" stroke-linecap="round" stroke-linejoin="round"/>
<path d="M24.479 70.5001C24.479 80.4183 34.9134 86.6172 43.2609 81.658C47.1351 79.3565 49.5216 75.1031 49.5216 70.5001C49.5216 60.5818 39.0872 54.3829 30.7396 59.3421C26.8655 61.6436 24.479 65.897 24.479 70.5001Z" fill="white"/>
<path d="M24.479 70.5001C24.479 80.4183 34.9134 86.6172 43.2609 81.658C47.1351 79.3565 49.5216 75.1031 49.5216 70.5001C49.5216 60.5818 39.0872 54.3829 30.7396 59.3421C26.8655 61.6436 24.479 65.897 24.479 70.5001Z" stroke="#020064" stroke-width="1.04" stroke-linecap="round" stroke-linejoin="round"/>
<path d="M31.5732 68.1929H42.0375C42.4167 68.1928 42.7241 68.4804 42.7241 68.835V77.1474C42.7241 77.5021 42.4167 77.7896 42.0375 77.7896H31.5732C31.1941 77.7896 30.8867 77.5021 30.8867 77.1474V68.8343C30.8867 68.4798 31.1942 68.1925 31.5732 68.1929Z" fill="#B0D9FF"/>
<path d="M31.5732 68.1929H42.0375C42.4167 68.1928 42.7241 68.4804 42.7241 68.835V77.1474C42.7241 77.5021 42.4167 77.7896 42.0375 77.7896H31.5732C31.1941 77.7896 30.8867 77.5021 30.8867 77.1474V68.8343C30.8867 68.4798 31.1942 68.1925 31.5732 68.1929Z" stroke="#020064" stroke-width="1.04" stroke-linecap="round" stroke-linejoin="round"/>
<path d="M32.0713 68.1934V66.1634C32.0713 63.6154 34.2791 61.5497 37.0029 61.5493C39.7266 61.5497 41.9345 63.6154 41.9345 66.1634V68.1934H39.9618V66.1634C39.9618 64.6346 38.6371 63.3954 37.0029 63.3954C35.3686 63.3954 34.0439 64.6346 34.0439 66.1634V68.1934H32.0713Z" fill="white" stroke="#020064" stroke-width="1.04" stroke-linecap="round" stroke-linejoin="round"/>
<path d="M38.3839 72.8069C38.3877 71.8123 37.2391 71.1868 36.3165 71.681C35.3938 72.1752 35.389 73.4184 36.3078 73.9188C36.3415 73.9372 36.376 73.9542 36.4112 73.9698V74.6522C36.4112 74.959 36.677 75.2076 37.0049 75.2076C37.3329 75.2076 37.5987 74.959 37.5987 74.6522V73.9698C38.0782 73.7562 38.3837 73.3037 38.3839 72.8069Z" fill="white" stroke="#020064" stroke-width="1.04" stroke-linecap="round" stroke-linejoin="round"/>
</svg>
