<svg width="56" height="56" viewBox="0 0 56 56" fill="none" xmlns="http://www.w3.org/2000/svg">
<g id="Ilustracoes">
<path id="Vector" d="M1.35254 27.4817C1.35254 47.9948 23.5586 60.8155 41.3235 50.559C49.5682 45.7989 54.6471 37.0019 54.6471 27.4817C54.6471 6.96859 32.4411 -5.85213 14.6762 4.40444C6.43145 9.16452 1.35254 17.9615 1.35254 27.4817Z" fill="#D9EDFF"/>
<path id="Vector_2" d="M10.2329 44.19L14.2831 6.27271L44.6409 9.51545L40.5907 47.4327L10.2329 44.19Z" fill="white" stroke="#020064" stroke-width="0.64" stroke-linecap="round" stroke-linejoin="round"/>
<path id="Vector_3" d="M23.4259 25.3846L25.176 26.9501L27.5209 27.0767L28.2537 29.3071L30.2203 30.5895L29.74 32.8878L30.8026 34.981L29.2377 36.731L29.1105 39.076L26.8801 39.8088L25.5984 41.776L23.3 41.295L21.2062 42.3576L19.4561 40.7927L17.1119 40.6655L16.3784 38.4351L14.4118 37.1534L14.8922 34.8551L13.8296 32.7612L15.3951 31.0112L15.5217 28.6669L17.7521 27.9334L19.0338 25.9668L21.3321 26.4471L23.4259 25.3846Z" fill="#B0D9FF" stroke="#020064" stroke-width="0.64" stroke-linecap="round" stroke-linejoin="round"/>
<path id="Vector_4" d="M17.251 16.2472L17.7692 11.3956L40.1502 13.7863L39.6319 18.6378L17.251 16.2472Z" fill="#B0D9FF" stroke="#020064" stroke-width="0.64" stroke-linecap="round" stroke-linejoin="round"/>
<path id="Vector_5" d="M25.7529 20.8545L39.2431 22.2955" stroke="#020064" stroke-width="0.64" stroke-linecap="round" stroke-linejoin="round"/>
<path id="Vector_6" d="M32.0645 25.2421L38.8509 25.9675" stroke="#020064" stroke-width="0.64" stroke-linecap="round" stroke-linejoin="round"/>
<path id="Vector_7" d="M32.6309 29.2331L38.436 29.8533" stroke="#020064" stroke-width="0.64" stroke-linecap="round" stroke-linejoin="round"/>
<path id="Vector_8" d="M20.3923 38.5257L18.8161 38.4411L18.3238 36.9408L17.0001 36.0781L17.3232 34.5326L16.6084 33.1243L17.6609 31.9478L17.7469 30.3709L19.2458 29.878L20.1092 28.5549L21.654 28.878L23.063 28.1632L24.2395 29.2158L25.817 29.3017L26.31 30.8013L27.6317 31.6634L27.3086 33.2095L28.0234 34.6179L26.9715 35.795L26.8863 37.3718L25.386 37.8648L24.524 39.1878L22.9777 38.8641L21.5694 39.5789L20.3923 38.5257Z" stroke="#020064" stroke-width="0.64" stroke-linecap="round" stroke-linejoin="round"/>
<path id="Vector_9" d="M40.6885 46.5132L39.4161 38.6723C39.2013 37.3428 37.6278 36.7444 36.5838 37.5952C36.0993 37.9901 35.8623 38.6135 35.962 39.2305L36.5016 42.5694C36.9513 45.3507 33.8229 45.1888 34.6143 50.0826L35.3818 54.8325L44.8988 53.2943C44.5752 51.9641 44.5179 50.583 44.7303 49.2306C45.146 46.9329 45.6143 45.0336 45.144 42.1197C44.667 39.1666 43.799 37.9035 41.923 34.9543L40.6885 46.5132Z" fill="white"/>
<path id="Vector_10" d="M44.8988 53.2943C44.5752 51.9641 44.5179 50.583 44.7303 49.2306C45.146 46.9329 45.6143 45.0336 45.144 42.1197C44.667 39.1666 43.799 37.9035 41.923 34.9543L40.6885 46.5132L39.4161 38.6723C39.2013 37.3428 37.6278 36.7444 36.5838 37.5952C36.0993 37.9901 35.8623 38.6135 35.962 39.2305L36.5016 42.5694C36.9513 45.3507 33.8229 45.1888 34.6143 50.0826L35.3818 54.8325" stroke="#020064" stroke-width="0.64" stroke-linecap="round" stroke-linejoin="round"/>
</g>
</svg>
