<svg width="25" height="24" viewBox="0 0 25 24" fill="none" xmlns="http://www.w3.org/2000/svg">
<g id="certificate">
<rect width="24" height="24" transform="translate(0.5)" fill="#1273DD"/>
<g id="Oval">
<circle cx="15.5" cy="15" r="3" stroke="#8AC0FF" stroke-width="1.5" stroke-linecap="round" stroke-linejoin="round"/>
<circle cx="15.5" cy="15" r="3" stroke="white" stroke-opacity="0.8" stroke-width="1.5" stroke-linecap="round" stroke-linejoin="round"/>
</g>
<g id="Path">
<path d="M13.5 17.5V22L15.5 20.5L17.5 22V17.5" stroke="#8AC0FF" stroke-width="1.5" stroke-linecap="round" stroke-linejoin="round"/>
<path d="M13.5 17.5V22L15.5 20.5L17.5 22V17.5" stroke="white" stroke-opacity="0.8" stroke-width="1.5" stroke-linecap="round" stroke-linejoin="round"/>
</g>
<g id="Path_2">
<path d="M10.5 19H5.5C4.39543 19 3.5 18.1046 3.5 17V7C3.5 5.9 4.4 5 5.5 5H19.5C20.6046 5 21.5 5.89543 21.5 7V17C21.4993 17.7138 21.1182 18.3731 20.5 18.73" stroke="#8AC0FF" stroke-width="1.5" stroke-linecap="round" stroke-linejoin="round"/>
<path d="M10.5 19H5.5C4.39543 19 3.5 18.1046 3.5 17V7C3.5 5.9 4.4 5 5.5 5H19.5C20.6046 5 21.5 5.89543 21.5 7V17C21.4993 17.7138 21.1182 18.3731 20.5 18.73" stroke="white" stroke-opacity="0.8" stroke-width="1.5" stroke-linecap="round" stroke-linejoin="round"/>
</g>
<g id="Path_3">
<path d="M6.5 9H18.5" stroke="#8AC0FF" stroke-width="1.5" stroke-linecap="round" stroke-linejoin="round"/>
<path d="M6.5 9H18.5" stroke="white" stroke-opacity="0.8" stroke-width="1.5" stroke-linecap="round" stroke-linejoin="round"/>
</g>
<g id="Path_4">
<path d="M6.5 12H9.5" stroke="#8AC0FF" stroke-width="1.5" stroke-linecap="round" stroke-linejoin="round"/>
<path d="M6.5 12H9.5" stroke="white" stroke-opacity="0.8" stroke-width="1.5" stroke-linecap="round" stroke-linejoin="round"/>
</g>
<g id="Path_5">
<path d="M6.5 15H8.5" stroke="#8AC0FF" stroke-width="1.5" stroke-linecap="round" stroke-linejoin="round"/>
<path d="M6.5 15H8.5" stroke="white" stroke-opacity="0.8" stroke-width="1.5" stroke-linecap="round" stroke-linejoin="round"/>
</g>
</g>
</svg>
