<svg width="56" height="56" viewBox="0 0 56 56" fill="none" xmlns="http://www.w3.org/2000/svg">
<g id="Ilustracoes">
<path id="Vector" d="M0.834473 28C0.834473 48.9121 23.4725 61.9822 41.5829 51.5261C49.988 46.6734 55.1657 37.7053 55.1657 28C55.1657 7.08793 32.5277 -5.98216 14.4173 4.47394C6.01218 9.3266 0.834473 18.2947 0.834473 28Z" fill="#D9EDFF"/>
<path id="Vector_2" d="M9.01319 41.5943C9.00526 42.6906 24.8226 43.3765 37.4843 42.8289C43.3671 42.5744 46.9902 42.1037 46.9866 41.5943C46.9945 40.498 31.1772 39.8122 18.5154 40.3598C12.6327 40.6143 9.00953 41.085 9.01319 41.5943Z" fill="#D9EDFF"/>
<path id="Vector_3" d="M8.06348 23.3119H47.9351V40.3998H8.06348V23.3119Z" fill="white"/>
<path id="Vector_4" d="M39.9613 40.3998H16.0386V37.8082C16.0382 37.3527 16.4069 36.9831 16.8624 36.9823H39.1381C39.5941 36.9823 39.9637 37.3521 39.9633 37.8082L39.9613 40.3998Z" fill="#B0D9FF"/>
<path id="Vector_5" d="M41.1006 23.3139H14.8994V19.5786C14.8994 19.1229 15.2689 18.7535 15.7246 18.7535H40.2749C40.7308 18.7531 41.1007 19.1227 41.1006 19.5786V23.3139Z" fill="#B0D9FF"/>
<path id="Vector_6" d="M38.3103 15.3381H17.6895C16.7776 15.3377 16.0382 16.0771 16.0386 16.9891V18.7549H39.9613V16.9891C39.9617 16.0771 39.2223 15.3377 38.3103 15.3381Z" fill="#B0D9FF"/>
<path id="Vector_7" d="M30.8477 26.73H38.8221V30.1474H30.8477V26.73Z" fill="#B0D9FF"/>
<path id="Vector_8" d="M8.06348 23.3119H47.9351V40.3998H8.06348V23.3119Z" stroke="#020064" stroke-width="0.64" stroke-linecap="round" stroke-linejoin="round"/>
<path id="Vector_9" d="M39.9613 40.3998H16.0386V37.8082C16.0382 37.3527 16.4069 36.9831 16.8624 36.9823H39.1381C39.5941 36.9823 39.9637 37.3521 39.9633 37.8082L39.9613 40.3998Z" stroke="#020064" stroke-width="0.64" stroke-linecap="round" stroke-linejoin="round"/>
<path id="Vector_10" d="M41.1006 23.3139H14.8994V19.5786C14.8994 19.1229 15.2689 18.7535 15.7246 18.7535H40.2749C40.7308 18.7531 41.1007 19.1227 41.1006 19.5786V23.3139Z" stroke="#020064" stroke-width="0.64" stroke-linecap="round" stroke-linejoin="round"/>
<path id="Vector_11" d="M38.3103 15.3381H17.6895C16.7776 15.3377 16.0382 16.0771 16.0386 16.9891V18.7549H39.9613V16.9891C39.9617 16.0771 39.2223 15.3377 38.3103 15.3381Z" stroke="#020064" stroke-width="0.64" stroke-linecap="round" stroke-linejoin="round"/>
<path id="Vector_12" d="M30.8477 26.73H38.8221V30.1474H30.8477V26.73Z" stroke="#020064" stroke-width="0.64" stroke-linecap="round" stroke-linejoin="round"/>
<path id="Vector_13" d="M37.6833 23.3139H18.3169V9.64216C18.3169 9.01309 18.8267 8.50298 19.4559 8.50259H33.1263L37.6833 13.0589V23.3139Z" fill="white"/>
<path id="Vector_14" d="M33.126 8.50259V12.1081C33.126 12.6333 33.5516 13.0589 34.0768 13.0589H37.6844L33.126 8.50259Z" fill="#D9EDFF"/>
<path id="Vector_15" d="M37.6833 23.3139H18.3169V9.64216C18.3169 9.01309 18.8267 8.50298 19.4559 8.50259H33.1263L37.6833 13.0589V23.3139Z" stroke="#020064" stroke-width="0.64" stroke-linecap="round" stroke-linejoin="round"/>
<path id="Vector_16" d="M33.126 8.50259V12.1081C33.126 12.6333 33.5516 13.0589 34.0768 13.0589H37.6844" stroke="#020064" stroke-width="0.64" stroke-linecap="round" stroke-linejoin="round"/>
<path id="Vector_17" d="M37.6833 36.9823V47.2373C37.6821 47.8658 37.1721 48.3746 36.5437 48.3742H19.4559C18.8268 48.3743 18.3169 47.8643 18.3169 47.2353V36.9803L37.6833 36.9823Z" fill="white"/>
<path id="Vector_18" d="M37.6833 36.9823V47.2373C37.6821 47.8658 37.1722 48.3746 36.5437 48.3742H19.4559C18.8268 48.3743 18.3169 47.8643 18.3169 47.2353V36.9803L37.6833 36.9823Z" stroke="#020064" stroke-width="0.64" stroke-linecap="round" stroke-linejoin="round"/>
<path id="Vector_19" d="M12.6206 27.869H17.1769" stroke="#020064" stroke-width="0.64" stroke-linecap="round" stroke-linejoin="round"/>
<path id="Vector_20" d="M33.9202 46.0937C34.2861 46.094 34.5152 45.698 34.3325 45.3809C34.3257 45.3691 34.3184 45.3577 34.3107 45.3466L31.6451 41.538C31.2609 40.9917 30.4481 41.0012 30.0769 41.5563L29.031 43.1258C28.7667 43.5215 28.2504 43.6608 27.8229 43.4518L26.9956 43.0443C26.5666 42.8349 26.0487 42.9761 25.7854 43.3744L24.4951 45.331C24.2943 45.637 24.5001 46.0456 24.8654 46.0664C24.8737 46.0669 24.882 46.0671 24.8903 46.0672L33.9202 46.0937Z" fill="#B0D9FF"/>
<path id="Vector_21" d="M26.2912 37.5521C26.2574 39.7445 23.863 41.0781 21.9812 39.9527C21.1348 39.4464 20.6104 38.5383 20.5952 37.5521V36.9823H26.2912V37.5521Z" fill="#B0D9FF" stroke="#020064" stroke-width="0.64" stroke-linecap="round" stroke-linejoin="round"/>
<path id="Vector_22" d="M33.9202 46.0937C34.2861 46.094 34.5152 45.698 34.3325 45.3809C34.3257 45.3691 34.3184 45.3577 34.3107 45.3466L31.6451 41.538C31.2609 40.9917 30.4481 41.0012 30.0769 41.5563L29.031 43.1258C28.7667 43.5215 28.2504 43.6608 27.8229 43.4518L26.9956 43.0443C26.5666 42.8349 26.0487 42.9761 25.7854 43.3744L24.4951 45.331C24.2943 45.637 24.5001 46.0456 24.8654 46.0664C24.8737 46.0669 24.882 46.0671 24.8903 46.0672L33.9202 46.0937Z" stroke="#020064" stroke-width="0.64" stroke-linecap="round" stroke-linejoin="round"/>
<path id="Vector_23" d="M44.518 28.4387C44.518 29.7541 43.0941 30.5762 41.9549 29.9185C40.8158 29.2608 40.8158 27.6166 41.9549 26.959C42.2147 26.8089 42.5093 26.73 42.8093 26.73C43.753 26.73 44.518 27.4951 44.518 28.4387Z" fill="#B0D9FF" stroke="#020064" stroke-width="0.64" stroke-linecap="round" stroke-linejoin="round"/>
</g>
</svg>
