<svg width="56" height="56" viewBox="0 0 56 56" fill="none" xmlns="http://www.w3.org/2000/svg">
<g id="erp.svg">
<path id="Vector" d="M0.834473 28C0.834473 48.912 23.4725 61.9821 41.5829 51.526C49.988 46.6734 55.1657 37.7053 55.1657 28C55.1657 7.08787 32.5277 -5.98222 14.4173 4.47388C6.01218 9.32654 0.834473 18.2946 0.834473 28Z" fill="#D9EDFF"/>
<path id="Vector_2" d="M9.98362 21.5638H44.6313C44.6313 21.5638 46.3679 21.5638 46.3679 23.3004V46.4116C46.3679 46.4116 46.3679 48.1481 44.6313 48.1481H9.98362C9.98362 48.1481 8.24707 48.1481 8.24707 46.4116V23.3004C8.24707 23.3004 8.24707 21.5638 9.98362 21.5638Z" fill="#B0D9FF"/>
<path id="Vector_3" d="M50.8822 6.01489C50.8822 6.01489 50.8822 3.50684 48.8761 3.50684H6.24102C4.23486 3.50684 4.23486 6.01489 4.23486 6.01489H50.8822Z" fill="white" stroke="#020064" stroke-width="0.64" stroke-linecap="round" stroke-linejoin="round"/>
<path id="Vector_4" d="M50.8019 7.01791C50.8019 7.01791 47.2907 16.0471 46.7889 17.0495C46.2871 18.0519 45.7858 18.0526 45.7858 18.0526H8.74885C8.74885 18.0526 8.24701 18.0526 7.74577 17.0495C7.24454 16.0464 4.23465 7.01791 4.23465 7.01791C4.23465 7.01791 3.73275 5.51294 5.23772 5.51294H49.8002C51.3038 5.51294 50.8019 7.01791 50.8019 7.01791Z" fill="#B0D9FF" stroke="#020064" stroke-width="0.64" stroke-miterlimit="10"/>
<path id="Vector_5" d="M9.98362 18.0526H44.6313C44.6313 18.0526 46.3679 18.0526 46.3679 19.7892V42.9003C46.3679 42.9003 46.3679 44.6369 44.6313 44.6369H9.98362C9.98362 44.6369 8.24707 44.6369 8.24707 42.9003V19.7892C8.24707 19.7892 8.24707 18.0526 9.98362 18.0526Z" fill="white" stroke="#020064" stroke-width="0.64" stroke-linecap="round" stroke-linejoin="round"/>
<path id="Vector_6" d="M13.1289 23.5706H41.4871C41.4871 23.5706 42.3557 23.5706 42.3557 24.4392V32.7336C42.3557 32.7336 42.3557 33.6021 41.4871 33.6021H13.1289C13.1289 33.6021 12.2603 33.6021 12.2603 32.7336V24.4392C12.2603 24.4392 12.2603 23.5706 13.1289 23.5706Z" fill="#B0D9FF" stroke="#020064" stroke-width="0.64" stroke-linecap="round" stroke-linejoin="round"/>
<path id="Vector_7" d="M23.6625 35.6085H30.9538C30.9538 35.6085 31.8224 35.6085 31.8224 36.4771V39.756C31.8224 39.756 31.8224 40.6246 30.9538 40.6246H23.6625C23.6625 40.6246 22.7939 40.6246 22.7939 39.756V36.4771C22.7939 36.4771 22.7939 35.6085 23.6625 35.6085Z" fill="#B0D9FF" stroke="#020064" stroke-width="0.64" stroke-linecap="round" stroke-linejoin="round"/>
<path id="Vector_8" d="M13.2632 18.0526H41.3524V21.0619H13.2632V18.0526Z" fill="#B0D9FF" stroke="#020064" stroke-width="0.64" stroke-linecap="round" stroke-linejoin="round"/>
<path id="Vector_9" d="M14.2662 25.5768H15.7712M17.7774 25.5768H19.2823M21.2885 25.5768H22.7935M24.7997 25.5768H26.3046M28.3108 25.5768H29.8158M31.822 25.5768H33.3263M35.3332 25.5768H36.8374M38.8443 25.5768H40.3486M14.2662 27.5829H15.7712M17.7774 27.5829H19.2823M21.2885 27.5829H22.7935M24.7997 27.5829H26.3046M28.3109 27.5829H29.8158M31.822 27.5829H33.3263M35.3332 27.5829H36.8375M38.8443 27.5829H40.3486M14.2662 29.5891H15.7712M17.7774 29.5891H19.2823M21.2885 29.5891H22.7935M24.7997 29.5891H26.3046M28.3108 29.5891H29.8158M31.822 29.5891H33.3263M35.3332 29.5891H36.8374M38.8443 29.5891H40.3486M14.2662 31.596H15.7712M17.7774 31.596H19.2823M21.2885 31.596H33.3263M35.3332 31.596H36.8375M38.8443 31.596H40.3486M50.8019 7.01791C50.8019 7.01791 47.2907 16.0471 46.7889 17.0495C46.2871 18.0519 45.7858 18.0526 45.7858 18.0526H8.74885C8.74885 18.0526 8.24701 18.0526 7.74577 17.0495C7.24454 16.0464 4.23465 7.01791 4.23465 7.01791C4.23465 7.01791 3.73275 5.51294 5.23772 5.51294H49.8002C51.3038 5.51294 50.8019 7.01791 50.8019 7.01791Z" stroke="#020064" stroke-width="0.64" stroke-linecap="round" stroke-linejoin="round"/>
<path id="Vector_10" d="M18.6532 42.6048C18.5835 41.8834 17.9416 41.3553 17.2202 41.4259C16.8976 41.4571 14.4874 41.8333 14.2028 41.5739C13.5916 41.0123 13.9787 39.4204 15.1108 38.3704L20.9969 32.7336C21.7471 32.057 21.4837 30.8221 20.5227 30.5107C20.0767 30.3661 19.5875 30.4705 19.2393 30.7844L13.6445 36.0138L19.276 29.507C20.0011 28.8038 19.6931 27.5794 18.7216 27.303C18.2332 27.1641 17.7084 27.3194 17.3744 27.7018L11.673 34.388L16.319 28.112C16.9051 27.2891 16.3805 26.1404 15.3749 26.0443C14.9082 25.9997 14.4531 26.2075 14.1811 26.5894L13.1488 28.0394C13.191 27.0328 12.1277 26.358 11.2349 26.8248C11.033 26.9303 10.8621 27.0869 10.7392 27.2787L5.79234 34.7071C4.41371 36.5267 3.32404 38.5481 2.56168 40.6999L1.22852 42.3217L7.05554 47.117C8.0498 45.9089 9.97584 45.7445 17.4742 44.0379C18.1957 43.9681 18.7238 43.3263 18.6532 42.6048Z" fill="white"/>
<path id="Vector_11" d="M7.05554 47.117C8.0498 45.9089 9.97584 45.7445 17.4742 44.0379C18.4796 43.9401 19.0021 42.7907 18.4147 41.9689C18.1421 41.5875 17.6868 41.3805 17.2202 41.4259C16.8976 41.4571 14.4874 41.8333 14.2028 41.5739C13.5916 41.0123 13.9787 39.4204 15.1108 38.3704L20.9969 32.7336C21.7471 32.057 21.4837 30.8221 20.5227 30.5107C20.0767 30.3661 19.5875 30.4705 19.2393 30.7844L13.6445 36.0138L19.276 29.507C20.0011 28.8038 19.6931 27.5794 18.7216 27.303C18.2332 27.1641 17.7084 27.3194 17.3744 27.7018L11.673 34.388L16.319 28.112C16.9051 27.2891 16.3805 26.1404 15.3749 26.0443C14.9082 25.9997 14.4531 26.2075 14.1811 26.5894L13.1488 28.0394C13.191 27.0328 12.1277 26.358 11.2349 26.8248C11.033 26.9303 10.8621 27.0869 10.7392 27.2787L5.79234 34.7071C4.41371 36.5267 3.32404 38.5481 2.56168 40.6999L1.22852 42.3217M13.1474 28.0393L9.67297 33.1254" stroke="#020064" stroke-width="0.64" stroke-linecap="round" stroke-linejoin="round"/>
<path id="Vector_12" d="M36.4486 42.6049C36.5184 41.8834 37.1602 41.3554 37.8816 41.4259C38.2049 41.4572 40.6145 41.8334 40.899 41.574C41.5103 41.0123 41.1232 39.4204 39.991 38.3705L34.1049 32.7336C33.3603 32.0512 33.6336 30.8186 34.5969 30.5149C35.0366 30.3762 35.5169 30.4786 35.8619 30.7845L41.4559 36.0138L35.8245 29.507C35.1134 28.789 35.4462 27.5704 36.4236 27.3135C36.8974 27.189 37.4013 27.3387 37.7302 27.7018L43.4309 34.388L38.7842 28.1087C38.2103 27.2769 38.752 26.1357 39.7592 26.0546C40.213 26.018 40.6534 26.2191 40.9228 26.5861L41.9545 28.036C41.9133 27.0289 42.9778 26.3549 43.8706 26.8228C44.0718 26.9283 44.2421 27.0842 44.3647 27.2753L49.3068 34.7038C50.6867 36.5242 51.7774 38.5468 52.5402 40.6999L53.8754 42.3217L48.0484 47.1172C47.0541 45.9089 45.1281 45.7446 37.6297 44.0379C36.9074 43.9692 36.3781 43.327 36.4486 42.6049Z" fill="white"/>
<path id="Vector_13" d="M48.0463 47.1171C47.052 45.9089 45.126 45.7446 37.6276 44.0379C36.6223 43.9401 36.0998 42.7907 36.6871 41.9689C36.9597 41.5876 37.4151 41.3806 37.8817 41.4259C38.2049 41.4572 40.6145 41.8334 40.899 41.574C41.5103 41.0123 41.1232 39.4204 39.991 38.3705L34.1049 32.7336C33.3603 32.0512 33.6336 30.8186 34.5969 30.5149C35.0366 30.3762 35.5169 30.4786 35.8619 30.7845L41.456 36.0138L35.8246 29.507C35.1134 28.789 35.4462 27.5704 36.4236 27.3135C36.8974 27.189 37.4013 27.3387 37.7302 27.7018L43.4309 34.388L38.7842 28.1087C38.2103 27.2769 38.752 26.1357 39.7592 26.0546C40.213 26.018 40.6534 26.2191 40.9228 26.5861L41.9544 28.036C41.9133 27.0289 42.9779 26.3549 43.8706 26.8228C44.0718 26.9283 44.2421 27.0842 44.3647 27.2753L49.3068 34.7038C50.6867 36.5242 51.7774 38.5468 52.5402 40.6999L53.8754 42.3217M41.9544 28.0394L45.4289 33.1255" stroke="#020064" stroke-width="0.64" stroke-linecap="round" stroke-linejoin="round"/>
</g>
</svg>
