<svg width="57" height="56" viewBox="0 0 57 56" fill="none" xmlns="http://www.w3.org/2000/svg">
<g id="Ilustracoes">
<path id="Vector" d="M1.33447 28C1.33447 48.9121 23.9725 61.9822 42.0829 51.5261C50.488 46.6734 55.6657 37.7053 55.6657 28C55.6657 7.08793 33.0277 -5.98216 14.9173 4.47394C6.51218 9.3266 1.33447 18.2947 1.33447 28Z" fill="#D9EDFF"/>
<path id="Vector_2" d="M17.9253 50.1203C17.9253 50.9045 26.9805 51.3946 34.2247 51.0025C37.5867 50.8205 39.6578 50.4842 39.6578 50.1203C39.6578 49.3361 30.6026 48.8459 23.3584 49.238C19.9964 49.42 17.9253 49.7563 17.9253 50.1203Z" fill="#B0D9FF"/>
<path id="Vector_3" d="M48.2962 15.9113H8.36279V12.6515C8.3654 11.7523 9.09366 11.0241 9.99273 11.0215H46.6663C47.5654 11.0241 48.2936 11.7523 48.2962 12.6515V15.9113Z" fill="white" stroke="#020064" stroke-width="0.64" stroke-linecap="round" stroke-linejoin="round"/>
<path id="Vector_4" d="M9.99268 13.4664C9.99268 14.0938 10.6718 14.4859 11.2151 14.1722C11.4673 14.0266 11.6226 13.7576 11.6226 13.4664C11.6226 12.8391 10.9435 12.4469 10.4002 12.7606C10.148 12.9062 9.99268 13.1752 9.99268 13.4664Z" fill="#B0D9FF" stroke="#020064" stroke-width="0.64" stroke-linecap="round" stroke-linejoin="round"/>
<path id="Vector_5" d="M13.2529 13.4664C13.2529 14.0938 13.9321 14.4859 14.4754 14.1722C14.7275 14.0266 14.8829 13.7576 14.8829 13.4664C14.8829 12.8391 14.2037 12.4469 13.6604 12.7606C13.4083 12.9062 13.2529 13.1752 13.2529 13.4664Z" fill="#B0D9FF" stroke="#020064" stroke-width="0.64" stroke-linecap="round" stroke-linejoin="round"/>
<path id="Vector_6" d="M16.5127 13.4664C16.5127 14.0938 17.1918 14.4859 17.7351 14.1722C17.9873 14.0266 18.1426 13.7576 18.1426 13.4664C18.1426 12.8391 17.4635 12.4469 16.9202 12.7606C16.668 12.9062 16.5127 13.1752 16.5127 13.4664Z" fill="#B0D9FF" stroke="#020064" stroke-width="0.64" stroke-linecap="round" stroke-linejoin="round"/>
<path id="Vector_7" d="M48.2962 41.9903C48.2936 42.8894 47.5654 43.6176 46.6663 43.6202H9.99273C9.09366 43.6176 8.3654 42.8894 8.36279 41.9903V15.9113H48.2962V41.9903Z" fill="#B0D9FF" stroke="#020064" stroke-width="0.64" stroke-linecap="round" stroke-linejoin="round"/>
<path id="Vector_8" d="M12.3462 27.1923C12.3462 26.4489 12.9489 25.8462 13.6923 25.8462H36.8462C37.5897 25.8462 38.1923 26.4489 38.1923 27.1923C38.1923 27.9358 37.5897 28.5385 36.8462 28.5385H13.6923C12.9489 28.5385 12.3462 27.9358 12.3462 27.1923Z" fill="white" stroke="#020064" stroke-width="0.64" stroke-linecap="round" stroke-linejoin="round"/>
</g>
</svg>
