<svg width="104" height="104" viewBox="0 0 104 104" fill="none" xmlns="http://www.w3.org/2000/svg">
<path d="M2.43311 48.9743C2.43311 85.4818 41.9537 108.299 73.5701 90.0452C88.2434 81.5737 97.2825 65.9175 97.2825 48.9743C97.2825 12.4667 57.762 -10.3506 26.1454 7.90321C11.4722 16.3749 2.43311 32.0311 2.43311 48.9743Z" fill="#D9EDFF"/>
<path d="M35.7939 94.4794C50.3149 98.5616 65.9111 95.5383 77.855 86.326V69.8459H47.0288L35.7939 94.4794Z" fill="#B0D9FF"/>
<path d="M35.7679 94.5375L47.0312 69.8506H7.24316C12.9377 81.663 23.2605 90.5969 35.7679 94.5375Z" fill="white"/>
<path d="M77.8547 87.7522V69.8506H47.0286L35.2246 95.7278" stroke="#23489F" stroke-width="1.04" stroke-linecap="round" stroke-linejoin="round"/>
<path d="M5.60791 69.8506H47.0286L35.2247 95.7278" stroke="#23489F" stroke-width="1.04" stroke-linecap="round" stroke-linejoin="round"/>
<path d="M27.4658 73.4075H33.9868" stroke="#23489F" stroke-width="1.04" stroke-linecap="round" stroke-linejoin="round"/>
<path d="M13.8315 76.9644H20.3525" stroke="#23489F" stroke-width="1.04" stroke-linecap="round" stroke-linejoin="round"/>
<path d="M30.4302 79.9285H36.951" stroke="#23489F" stroke-width="1.04" stroke-linecap="round" stroke-linejoin="round"/>
<path d="M19.7593 83.4854H26.2801" stroke="#23489F" stroke-width="1.04" stroke-linecap="round" stroke-linejoin="round"/>
<path d="M32.1586 69.8459H8.44629V20.6427C8.44629 19.9879 8.97705 19.457 9.63187 19.457H30.973C31.6277 19.457 32.1586 19.9879 32.1586 20.6427V69.8459Z" fill="white"/>
<path d="M32.1586 69.8459H8.44629V20.6427C8.44629 19.9879 8.97705 19.457 9.63187 19.457H30.973C31.6277 19.457 32.1586 19.9879 32.1586 20.6427V69.8459Z" stroke="#23489F" stroke-width="1.04" stroke-linecap="round" stroke-linejoin="round"/>
<path d="M43.5228 69.846H32.1587V39.2227H42.3372C42.992 39.2227 43.5228 39.7535 43.5228 40.4083V69.846Z" fill="white"/>
<path d="M43.5228 69.846H32.1587V39.2227H42.3372C42.992 39.2227 43.5228 39.7535 43.5228 40.4083V69.846Z" stroke="#23489F" stroke-width="1.04" stroke-linecap="round" stroke-linejoin="round"/>
<path d="M25.2432 23.908H29.1949V29.8361H25.2432V23.908Z" fill="#B0D9FF"/>
<path d="M25.2432 23.908H29.1949V29.8361H25.2432V23.908Z" stroke="#23489F" stroke-width="1.04" stroke-linecap="round" stroke-linejoin="round"/>
<path d="M18.3262 23.908H22.2778V29.8361H18.3262V23.908Z" fill="#B0D9FF"/>
<path d="M18.3262 23.908H22.2778V29.8361H18.3262V23.908Z" stroke="#23489F" stroke-width="1.04" stroke-linecap="round" stroke-linejoin="round"/>
<path d="M11.4102 23.908H15.3619V29.8361H11.4102V23.908Z" fill="#B0D9FF"/>
<path d="M11.4102 23.908H15.3619V29.8361H11.4102V23.908Z" stroke="#23489F" stroke-width="1.04" stroke-linecap="round" stroke-linejoin="round"/>
<path d="M25.2432 32.8H29.1949V38.7281H25.2432V32.8Z" fill="#B0D9FF"/>
<path d="M25.2432 32.8H29.1949V38.7281H25.2432V32.8Z" stroke="#23489F" stroke-width="1.04" stroke-linecap="round" stroke-linejoin="round"/>
<path d="M18.3262 32.8H22.2778V38.7281H18.3262V32.8Z" fill="#B0D9FF"/>
<path d="M18.3262 32.8H22.2778V38.7281H18.3262V32.8Z" stroke="#23489F" stroke-width="1.04" stroke-linecap="round" stroke-linejoin="round"/>
<path d="M11.4102 32.8H15.3619V38.7281H11.4102V32.8Z" fill="#B0D9FF"/>
<path d="M11.4102 32.8H15.3619V38.7281H11.4102V32.8Z" stroke="#23489F" stroke-width="1.04" stroke-linecap="round" stroke-linejoin="round"/>
<path d="M25.2432 41.6924H29.1949V47.6204H25.2432V41.6924Z" fill="#B0D9FF"/>
<path d="M25.2432 41.6924H29.1949V47.6204H25.2432V41.6924Z" stroke="#23489F" stroke-width="1.04" stroke-linecap="round" stroke-linejoin="round"/>
<path d="M18.3262 41.6924H22.2778V47.6204H18.3262V41.6924Z" fill="#B0D9FF"/>
<path d="M18.3262 41.6924H22.2778V47.6204H18.3262V41.6924Z" stroke="#23489F" stroke-width="1.04" stroke-linecap="round" stroke-linejoin="round"/>
<path d="M11.4102 41.6924H15.3619V47.6204H11.4102V41.6924Z" fill="#B0D9FF"/>
<path d="M11.4102 41.6924H15.3619V47.6204H11.4102V41.6924Z" stroke="#23489F" stroke-width="1.04" stroke-linecap="round" stroke-linejoin="round"/>
<path d="M37.278 66.7527C37.2936 64.4305 34.8286 62.9295 32.7727 64.0092C31.8419 61.9335 29.3991 61.0124 27.3295 61.9569C25.2491 57.6862 19.3255 57.2691 16.6671 61.2062C16.0135 62.1742 15.6481 63.3077 15.6132 64.4751C13.8609 62.8615 11.0189 63.7501 10.4977 66.0744C10.0631 68.0123 11.5406 69.852 13.5265 69.846H34.18C35.9214 69.9266 37.3559 68.4942 37.278 66.7527Z" fill="#B0D9FF"/>
<path d="M37.278 66.7527C37.2936 64.4305 34.8286 62.9295 32.7727 64.0092C31.8419 61.9335 29.3991 61.0124 27.3295 61.9569C25.2491 57.6862 19.3255 57.2691 16.6671 61.2062C16.0135 62.1742 15.6481 63.3077 15.6132 64.4751C13.8609 62.8615 11.0189 63.7501 10.4977 66.0744C10.0631 68.0123 11.5406 69.852 13.5265 69.846H34.18C35.9214 69.9266 37.3559 68.4942 37.278 66.7527Z" stroke="#23489F" stroke-width="1.04" stroke-linecap="round" stroke-linejoin="round"/>
<path d="M32.1587 44.1631H40.5564V50.0911H32.1587V44.1631Z" fill="#B0D9FF"/>
<path d="M32.1587 44.1631H40.5564V50.0911H32.1587V44.1631Z" stroke="#23489F" stroke-width="1.04" stroke-linecap="round" stroke-linejoin="round"/>
<path d="M32.1587 53.5483H40.5564V59.4765H32.1587V53.5483Z" fill="#B0D9FF"/>
<path d="M32.1587 53.5483H40.5564V59.4765H32.1587V53.5483Z" stroke="#23489F" stroke-width="1.04" stroke-linecap="round" stroke-linejoin="round"/>
<path d="M97.4175 73.4029H54.7354V24.7925C54.7354 24.1378 55.2661 23.6069 55.9209 23.6069H96.2319C96.8868 23.6069 97.4175 24.1378 97.4175 24.7925V73.4029Z" fill="#B0D9FF"/>
<path d="M96.3492 36.8859C95.9984 36.888 95.6511 36.9551 95.3248 37.0839C94.7621 33.4915 90.5215 31.8555 87.6919 34.1389C86.7791 34.8755 86.1731 35.9252 85.9916 37.0839C83.9535 36.2812 81.8108 37.9858 82.1347 40.1522C82.3441 41.5531 83.5521 42.5866 84.9685 42.5768H96.3504C98.5409 42.581 99.9144 40.2123 98.8228 38.3133C98.3142 37.4286 97.3708 36.8839 96.3504 36.8859H96.3492Z" fill="white" stroke="#23489F" stroke-width="1.04" stroke-linejoin="round"/>
<path d="M96.3492 36.8859C95.9984 36.888 95.6511 36.9551 95.3248 37.0839C94.7621 33.4915 90.5215 31.8555 87.6919 34.1389C86.7791 34.8755 86.1731 35.9252 85.9916 37.0839C83.9535 36.2812 81.8108 37.9858 82.1347 40.1522C82.3441 41.5531 83.5521 42.5866 84.9685 42.5768H96.3504C98.5409 42.581 99.9144 40.2123 98.8228 38.3133C98.3142 37.4286 97.3708 36.8839 96.3504 36.8859H96.3492Z" fill="white" stroke="#23489F" stroke-width="1.04" stroke-linejoin="round"/>
<path d="M75.4835 30.9576C75.1328 30.9595 74.7854 31.0267 74.4592 31.1556C73.8964 27.5633 69.6559 25.9272 66.8262 28.2108C65.9135 28.9472 65.3075 29.997 65.126 31.1556C63.0879 30.3529 60.9452 32.0575 61.269 34.2239C61.4784 35.6244 62.6856 36.6577 64.1016 36.6486H75.4835C77.674 36.6444 79.0385 34.2706 77.9396 32.3757C77.4316 31.4996 76.4963 30.9596 75.4835 30.9576Z" fill="white" stroke="#23489F" stroke-width="1.04" stroke-linejoin="round"/>
<path d="M75.4835 30.9576C75.1328 30.9595 74.7854 31.0267 74.4592 31.1556C73.8964 27.5633 69.6559 25.9272 66.8262 28.2108C65.9135 28.9472 65.3075 29.997 65.126 31.1556C63.0879 30.3529 60.9452 32.0575 61.269 34.2239C61.4784 35.6244 62.6856 36.6577 64.1016 36.6486H75.4835C77.674 36.6444 79.0385 34.2706 77.9396 32.3757C77.4316 31.4996 76.4963 30.9596 75.4835 30.9576Z" fill="white" stroke="#23489F" stroke-width="1.04" stroke-linejoin="round"/>
<path d="M83.7827 59.1802H97.4173V73.4076H83.7827V59.1802Z" fill="white"/>
<path d="M83.7827 59.1802H97.4173V73.4076H83.7827V59.1802Z" stroke="#23489F" stroke-width="1.04" stroke-linecap="round" stroke-linejoin="round"/>
<path d="M97.4175 59.1753H82.953C82.0403 59.1753 81.4699 58.1873 81.9262 57.3969C81.9331 57.3849 81.9402 57.373 81.9476 57.3612L83.4296 54.9901C83.6463 54.6434 84.0262 54.4328 84.435 54.4329H97.4176L97.4175 59.1753Z" fill="white"/>
<path d="M97.4175 59.1753H82.953C82.0403 59.1753 81.4699 58.1873 81.9262 57.3969C81.9331 57.3849 81.9402 57.373 81.9476 57.3612L83.4296 54.9901C83.6463 54.6434 84.0262 54.4328 84.435 54.4329H97.4176L97.4175 59.1753Z" stroke="#23489F" stroke-width="1.04" stroke-linecap="round" stroke-linejoin="round"/>
<path d="M80.2261 73.4028V71.0315C80.2261 70.3767 80.7569 69.8459 81.4118 69.8459H83.7829V73.4028H80.2261Z" fill="white" stroke="#23489F" stroke-width="1.04" stroke-linecap="round" stroke-linejoin="round"/>
<path d="M87.9326 67.4795H90.8966V71.0363H87.9326V67.4795Z" fill="#B0D9FF"/>
<path d="M87.9326 67.4795H90.8966V71.0363H87.9326V67.4795Z" stroke="#23489F" stroke-width="1.04" stroke-linecap="round" stroke-linejoin="round"/>
<path d="M90.8965 67.4795H93.8605V71.0363H90.8965V67.4795Z" fill="#B0D9FF"/>
<path d="M90.8965 67.4795H93.8605V71.0363H90.8965V67.4795Z" stroke="#23489F" stroke-width="1.04" stroke-linecap="round" stroke-linejoin="round"/>
<path d="M87.9326 61.5513H90.8966V65.1081H87.9326V61.5513Z" fill="#B0D9FF" stroke="#23489F" stroke-width="1.04" stroke-linecap="round" stroke-linejoin="round"/>
<path d="M90.8965 61.5513H93.8605V65.1081H90.8965V61.5513Z" fill="#B0D9FF"/>
<path d="M90.8965 61.5513H93.8605V65.1081H90.8965V61.5513Z" stroke="#23489F" stroke-width="1.04" stroke-linecap="round" stroke-linejoin="round"/>
<path d="M97.4175 85.259C97.4175 85.9137 96.8868 86.4446 96.2319 86.4446H55.9209C55.2661 86.4446 54.7354 85.9138 54.7354 85.259V73.4028H97.4175V85.259Z" fill="white" stroke="#23489F" stroke-width="1.04" stroke-linecap="round" stroke-linejoin="round"/>
<path d="M71.9266 73.4029H65.4058V53.2473H70.741C71.3958 53.2473 71.9266 53.7782 71.9266 54.4329V73.4029Z" fill="white"/>
<path d="M71.9266 73.4029H65.4058V53.2473H70.741C71.3958 53.2473 71.9266 53.7782 71.9266 54.4329V73.4029Z" stroke="#23489F" stroke-width="1.04" stroke-linecap="round" stroke-linejoin="round"/>
<path d="M61.256 27.7566C58.9643 27.7566 57.1064 29.6144 57.1064 31.9062C57.1064 34.3166 59.4574 38.2931 60.336 39.6969C60.7611 40.3757 61.7498 40.3757 62.175 39.6969C63.0547 38.2931 65.4057 34.3166 65.4057 31.9062C65.4057 29.6144 63.5478 27.7566 61.256 27.7566Z" fill="#B0D9FF" stroke="#23489F" stroke-width="1.04" stroke-linecap="round" stroke-linejoin="round"/>
<path d="M60.0703 31.911C60.0703 32.8237 61.0583 33.3941 61.8487 32.9378C62.2156 32.726 62.4415 32.3345 62.4415 31.911C62.4415 30.9983 61.4535 30.4279 60.6631 30.8842C60.2963 31.096 60.0703 31.4874 60.0703 31.911Z" fill="white" stroke="white" stroke-width="1.04" stroke-linecap="round" stroke-linejoin="round"/>
<path d="M90.8967 38.427C88.6049 38.427 86.7471 40.2848 86.7471 42.5766C86.7471 44.987 89.0981 48.9635 89.9766 50.3673C90.4017 51.0461 91.3905 51.0461 91.8156 50.3673C92.6953 48.9635 95.0464 44.987 95.0464 42.5766C95.0464 40.2848 93.1885 38.427 90.8967 38.427Z" fill="#B0D9FF" stroke="#23489F" stroke-width="1.04" stroke-linecap="round" stroke-linejoin="round"/>
<path d="M89.7109 42.5814C89.7109 43.4941 90.6989 44.0645 91.4894 43.6082C91.8562 43.3964 92.0821 43.005 92.0821 42.5814C92.0821 41.6688 91.0941 41.0983 90.3037 41.5547C89.9369 41.7665 89.7109 42.1578 89.7109 42.5814Z" fill="white" stroke="white" stroke-width="1.04" stroke-linecap="round" stroke-linejoin="round"/>
<path d="M80.2258 73.4075H71.9265L68.3696 86.4492H83.7826L80.2258 73.4075Z" fill="#B0D9FF" stroke="#23489F" stroke-width="1.04" stroke-linecap="round" stroke-linejoin="round"/>
<path d="M65.4059 73.4028H54.7354V42.5767H64.2202C64.8751 42.5767 65.4059 43.1075 65.4059 43.7622V73.4028Z" fill="white"/>
<path d="M65.4059 73.4028H54.7354V42.5767H64.2202C64.8751 42.5767 65.4059 43.1075 65.4059 43.7622V73.4028Z" stroke="#23489F" stroke-width="1.04" stroke-linecap="round" stroke-linejoin="round"/>
<path d="M72.5194 46.7263C72.5194 48.5048 70.1481 50.8759 70.1481 50.8759C70.1481 50.8759 67.7769 48.5048 67.7769 46.7263C67.7769 44.901 69.753 43.7601 71.3337 44.6728C72.0674 45.0964 72.5194 45.8792 72.5194 46.7263Z" fill="white" stroke="#23489F" stroke-width="1.04" stroke-linecap="round" stroke-linejoin="round"/>
<path d="M66.773 69.0303C66.4252 69.0325 66.0832 69.1187 65.776 69.2816C65.3042 68.2413 64.2683 67.5725 63.1261 67.5708C62.7135 67.5714 62.3059 67.6608 61.9309 67.8328C60.4632 64.8158 56.28 64.5191 54.401 67.2986C53.9382 67.9832 53.6796 68.7852 53.6553 69.6113C53.4514 69.4244 53.2146 69.2769 52.957 69.1761V73.4029H66.773C68.0051 73.4607 69.0201 72.4464 68.9629 71.2142C68.9596 70.0071 67.9801 69.0303 66.773 69.0303Z" fill="#B0D9FF" stroke="#23489F" stroke-width="1.04" stroke-linecap="round" stroke-linejoin="round"/>
<path d="M100.974 16.4932C100.974 13.874 98.8509 11.7507 96.2317 11.7507H55.9207C53.3015 11.7507 51.1782 13.874 51.1782 16.4932V97.1152C51.1782 99.7344 53.3015 101.858 55.9207 101.858H96.2317C98.8509 101.858 100.974 99.7344 100.974 97.1152V16.4932ZM97.4173 85.259C97.4173 85.9138 96.8865 86.4446 96.2317 86.4446H55.9207C55.2658 86.4446 54.7351 85.9138 54.7351 85.259V24.7925C54.7351 24.1377 55.2658 23.6069 55.9207 23.6069H96.2317C96.8865 23.6069 97.4173 24.1377 97.4173 24.7925V85.259Z" fill="white"/>
<path d="M100.974 16.4932C100.974 13.874 98.8509 11.7507 96.2317 11.7507H55.9207C53.3015 11.7507 51.1782 13.874 51.1782 16.4932V97.1152C51.1782 99.7344 53.3015 101.858 55.9207 101.858H96.2317C98.8509 101.858 100.974 99.7344 100.974 97.1152V16.4932ZM97.4173 85.259C97.4173 85.9138 96.8865 86.4446 96.2317 86.4446H55.9207C55.2658 86.4446 54.7351 85.9138 54.7351 85.259V24.7925C54.7351 24.1377 55.2658 23.6069 55.9207 23.6069H96.2317C96.8865 23.6069 97.4173 24.1377 97.4173 24.7925V85.259Z" stroke="#23489F" stroke-width="1.04" stroke-linecap="round" stroke-linejoin="round"/>
<path d="M67.1841 17.6834C67.1841 18.5962 68.1721 19.1666 68.9625 18.7102C69.3294 18.4984 69.5553 18.107 69.5553 17.6834C69.5553 16.7708 68.5672 16.2004 67.7768 16.6567C67.4101 16.8685 67.1841 17.2598 67.1841 17.6834Z" fill="#23489F"/>
<path d="M72.5195 17.6833H83.1901H72.5195Z" fill="white"/>
<path d="M72.5195 17.6833H83.1901" stroke="#23489F" stroke-width="1.04" stroke-linecap="round" stroke-linejoin="round"/>
<path d="M72.2231 94.1559C72.2231 97.1221 75.4342 98.976 78.003 97.4929C79.1952 96.8046 79.9296 95.5325 79.9296 94.1559C79.9296 91.1896 76.7186 89.3357 74.1497 90.8189C72.9576 91.5072 72.2231 92.7792 72.2231 94.1559Z" fill="white" stroke="#23489F" stroke-width="1.04" stroke-linecap="round" stroke-linejoin="round"/>
<path d="M60.0703 46.7312H63.0343V50.2881H60.0703V46.7312Z" fill="#B0D9FF"/>
<path d="M60.0703 46.7312H63.0343V50.2881H60.0703V46.7312Z" stroke="#23489F" stroke-width="1.04" stroke-linecap="round" stroke-linejoin="round"/>
<path d="M54.7354 46.7312H57.6994V50.2881H54.7354V46.7312Z" fill="#B0D9FF"/>
<path d="M54.7354 46.7312H57.6994V50.2881H54.7354V46.7312Z" stroke="#23489F" stroke-width="1.04" stroke-linecap="round" stroke-linejoin="round"/>
<path d="M60.0703 52.6592H63.0343V56.216H60.0703V52.6592Z" fill="#B0D9FF"/>
<path d="M60.0703 52.6592H63.0343V56.216H60.0703V52.6592Z" stroke="#23489F" stroke-width="1.04" stroke-linecap="round" stroke-linejoin="round"/>
<path d="M54.7354 52.6592H57.6994V56.216H54.7354V52.6592Z" fill="#B0D9FF" stroke="#23489F" stroke-width="1.04" stroke-linecap="round" stroke-linejoin="round"/>
<path d="M60.0703 58.5872H63.0343V62.144H60.0703V58.5872Z" fill="#B0D9FF" stroke="#23489F" stroke-width="1.04" stroke-linecap="round" stroke-linejoin="round"/>
<path d="M54.7354 58.5872H57.6994V62.144H54.7354V58.5872Z" fill="#B0D9FF"/>
<path d="M54.7354 58.5872H57.6994V62.144H54.7354V58.5872Z" stroke="#23489F" stroke-width="1.04" stroke-linecap="round" stroke-linejoin="round"/>
<path d="M65.4058 56.2161H69.5554V59.7729H65.4058V56.2161Z" fill="#B0D9FF"/>
<path d="M65.4058 56.2161H69.5554V59.7729H65.4058V56.2161Z" stroke="#23489F" stroke-width="1.04" stroke-linecap="round" stroke-linejoin="round"/>
<path d="M65.4058 62.144H69.5554V65.7009H65.4058V62.144Z" fill="#B0D9FF"/>
<path d="M65.4058 62.144H69.5554V65.7009H65.4058V62.144Z" stroke="#23489F" stroke-width="1.04" stroke-linecap="round" stroke-linejoin="round"/>
<path d="M63.6274 75.7788H65.4059" stroke="#23489F" stroke-width="1.04" stroke-linecap="round" stroke-linejoin="round"/>
<path d="M65.9985 79.9285H67.777" stroke="#23489F" stroke-width="1.04" stroke-linecap="round" stroke-linejoin="round"/>
<path d="M57.1064 78.1499H58.8849" stroke="#23489F" stroke-width="1.04" stroke-linecap="round" stroke-linejoin="round"/>
<path d="M60.6631 82.8923H62.4415" stroke="#23489F" stroke-width="1.04" stroke-linecap="round" stroke-linejoin="round"/>
<path d="M88.5255 75.7788H86.7471" stroke="#23489F" stroke-width="1.04" stroke-linecap="round" stroke-linejoin="round"/>
<path d="M86.1539 79.9285H84.3755" stroke="#23489F" stroke-width="1.04" stroke-linecap="round" stroke-linejoin="round"/>
<path d="M95.046 78.1499H93.2676" stroke="#23489F" stroke-width="1.04" stroke-linecap="round" stroke-linejoin="round"/>
<path d="M91.4894 82.8923H89.7109" stroke="#23489F" stroke-width="1.04" stroke-linecap="round" stroke-linejoin="round"/>
<path d="M25.2432 50.5845H29.1949V56.5125H25.2432V50.5845Z" fill="#B0D9FF" stroke="#23489F" stroke-width="1.04" stroke-linecap="round" stroke-linejoin="round"/>
<path d="M18.3262 50.5845H22.2778V56.5125H18.3262V50.5845Z" fill="#B0D9FF" stroke="#23489F" stroke-width="1.04" stroke-linecap="round" stroke-linejoin="round"/>
<path d="M11.4102 50.5845H15.3619V56.5125H11.4102V50.5845Z" fill="#B0D9FF" stroke="#23489F" stroke-width="1.04" stroke-linecap="round" stroke-linejoin="round"/>
</svg>
