<svg width="56" height="56" viewBox="0 0 56 56" fill="none" xmlns="http://www.w3.org/2000/svg">
<g id="Ilustracoes">
<path id="Vector" d="M3.63623 27.9775C3.63623 46.7327 23.9393 58.4546 40.1817 49.0771C47.7198 44.7249 52.3636 36.6818 52.3636 27.9775C52.3636 9.22236 32.0605 -2.4996 15.8181 6.87797C8.27994 11.2301 3.63623 19.2732 3.63623 27.9775Z" fill="#D9EDFF"/>
<path id="Vector_2" d="M19.8311 29.3931H36.1693V54.861H19.8311V29.3931Z" fill="white"/>
<path id="Vector_3" d="M19.8311 29.3931H36.1693V54.861H19.8311V29.3931Z" stroke="#020064" stroke-width="0.64" stroke-linecap="round" stroke-linejoin="round"/>
<path id="Vector_4" d="M22.04 46.5975C22.037 48.8171 24.4379 50.2078 26.3618 49.1006C27.2571 48.5853 27.8084 47.6305 27.8069 46.5975C27.81 44.3778 25.4091 42.9872 23.4853 44.0944C22.5899 44.6096 22.0386 45.5645 22.04 46.5975Z" fill="#B0D9FF"/>
<path id="Vector_5" d="M22.04 49.9615C22.037 52.1812 24.4379 53.5718 26.3618 52.4647C27.2571 51.9493 27.8084 50.9945 27.8069 49.9615C27.81 47.7418 25.4091 46.3512 23.4853 47.4584C22.5899 47.9736 22.0386 48.9285 22.04 49.9615Z" fill="#B0D9FF"/>
<path id="Vector_6" d="M24.9233 47.0781C23.9943 47.0785 23.1227 47.5271 22.5825 48.2829C23.7325 49.8841 26.1146 49.8841 27.2646 48.2829C26.7243 47.5269 25.8524 47.0783 24.9233 47.0781Z" fill="white"/>
<path id="Vector_7" d="M22.04 46.5975C22.037 48.8171 24.4379 50.2078 26.3618 49.1006C27.2571 48.5853 27.8084 47.6305 27.8069 46.5975C27.81 44.3778 25.4091 42.9872 23.4853 44.0944C22.5899 44.6096 22.0386 45.5645 22.04 46.5975Z" stroke="#020064" stroke-width="0.64" stroke-linecap="round" stroke-linejoin="round"/>
<path id="Vector_8" d="M22.04 49.9615C22.037 52.1812 24.4379 53.5718 26.3618 52.4647C27.2571 51.9493 27.8084 50.9945 27.8069 49.9615C27.81 47.7418 25.4091 46.3512 23.4853 47.4584C22.5899 47.9736 22.0386 48.9285 22.04 49.9615Z" stroke="#020064" stroke-width="0.64" stroke-linecap="round" stroke-linejoin="round"/>
<path id="Vector_9" d="M17.1357 8.05298H38.8645V42.1274H17.1357V8.05298Z" fill="white"/>
<path id="Vector_10" d="M17.1357 8.05298H38.8645V42.1274H17.1357V8.05298Z" stroke="#020064" stroke-width="0.64" stroke-linecap="round" stroke-linejoin="round"/>
<path id="Vector_11" d="M36.889 40.4555C36.889 41.3785 36.1407 42.1268 35.2177 42.1268H20.7822C19.8591 42.1268 19.1108 41.3785 19.1108 40.4555V21.8782H36.889V40.4555Z" fill="#B0D9FF" stroke="#020064" stroke-width="0.64" stroke-linecap="round" stroke-linejoin="round"/>
<path id="Vector_12" d="M34.9137 26.3244C34.9134 26.8698 34.4711 27.3118 33.9258 27.3118H22.074C21.3138 27.3307 20.8182 26.5195 21.1819 25.8516C21.3592 25.5261 21.7036 25.3273 22.074 25.3365H33.9258C34.4714 25.3365 34.9137 25.7788 34.9137 26.3244Z" fill="white" stroke="#020064" stroke-width="0.64" stroke-linecap="round" stroke-linejoin="round"/>
<path id="Vector_13" d="M25.531 39.6575H23.0617C21.9716 39.6579 21.0874 38.7748 21.0864 37.6847V37.6664C21.0868 37.4026 21.3008 37.1888 21.5646 37.1889H25.531V39.6575Z" fill="white" stroke="#020064" stroke-width="0.64" stroke-linecap="round" stroke-linejoin="round"/>
<path id="Vector_14" d="M25.5308 37.1889H30.4692V39.6581H25.5308V37.1889Z" fill="white" stroke="#020064" stroke-width="0.64" stroke-linecap="round" stroke-linejoin="round"/>
<path id="Vector_15" d="M34.9138 37.6847C34.9141 38.7758 34.0295 39.6603 32.9385 39.66H30.4692V37.1889H34.4356C34.6995 37.1888 34.9135 37.4026 34.9138 37.6664V37.6847Z" fill="white" stroke="#020064" stroke-width="0.64" stroke-linecap="round" stroke-linejoin="round"/>
<path id="Vector_16" d="M20.0986 10.5222H35.9009V13.4854H20.0986V10.5222Z" fill="#B0D9FF" stroke="#020064" stroke-width="0.64" stroke-linecap="round" stroke-linejoin="round"/>
<path id="Vector_17" d="M33.9261 13.4848H22.5684V4.10481C22.5667 2.46734 23.8935 1.13905 25.531 1.13916H36.3954C35.0317 1.13916 33.9261 2.24469 33.9261 3.6084V13.4848Z" fill="white"/>
<path id="Vector_18" d="M33.9261 13.4848H22.5684V4.10481C22.5667 2.46734 23.8935 1.13905 25.531 1.13916H36.3954C35.0317 1.13916 33.9261 2.24469 33.9261 3.6084V13.4848Z" stroke="#020064" stroke-width="0.64" stroke-linecap="round" stroke-linejoin="round"/>
<path id="Vector_19" d="M33.9258 3.60845C33.9259 2.14433 35.1926 1.00177 36.649 1.15195C37.9394 1.33008 38.8917 2.44681 38.8637 3.74915V4.59578C38.8647 5.14186 38.4224 5.58522 37.8763 5.58555H33.9258V3.60845Z" fill="#B0D9FF" stroke="#020064" stroke-width="0.64" stroke-linecap="round" stroke-linejoin="round"/>
<path id="Vector_20" d="M25.5308 25.3365H30.4692V27.3119H25.5308V25.3365Z" stroke="#020064" stroke-width="0.64" stroke-linecap="round" stroke-linejoin="round"/>
<path id="Vector_21" d="M34.914 30.2751C34.914 30.8206 34.4717 31.263 33.9261 31.263H22.0744C21.3138 31.2629 20.8385 30.4397 21.2188 29.781C21.3953 29.4754 21.7214 29.2871 22.0744 29.2871H33.9261C34.4717 29.2871 34.914 29.7294 34.914 30.2751Z" fill="white" stroke="#020064" stroke-width="0.64" stroke-linecap="round" stroke-linejoin="round"/>
<path id="Vector_22" d="M25.5308 29.2871H30.4692V31.2624H25.5308V29.2871Z" stroke="#020064" stroke-width="0.64" stroke-linecap="round" stroke-linejoin="round"/>
<path id="Vector_23" d="M34.9137 34.2256C34.9137 34.7713 34.4714 35.2136 33.9258 35.2136H22.074C21.3138 35.2325 20.8182 34.4213 21.1819 33.7534C21.3592 33.4279 21.7036 33.2291 22.074 33.2383H33.9258C34.4711 33.2383 34.9134 33.6802 34.9137 34.2256Z" fill="white" stroke="#020064" stroke-width="0.64" stroke-linecap="round" stroke-linejoin="round"/>
<path id="Vector_24" d="M25.5308 33.2383H30.4692V35.2136H25.5308V33.2383Z" stroke="#020064" stroke-width="0.64" stroke-linecap="round" stroke-linejoin="round"/>
<path id="Vector_25" d="M19.1108 16.4481H36.8884V23.3619H19.1108V16.4481Z" fill="#B0D9FF"/>
<path id="Vector_26" d="M19.1108 16.4481H36.8884V23.3619H19.1108V16.4481Z" stroke="#020064" stroke-width="0.64" stroke-linecap="round" stroke-linejoin="round"/>
</g>
</svg>
