<svg width="56" height="56" viewBox="0 0 56 56" fill="none" xmlns="http://www.w3.org/2000/svg">
<g id="Ilustracoes">
<path id="Vector" d="M3.17676 28C3.17676 47.67 24.4701 59.9637 41.5048 50.1287C49.4106 45.5643 54.2807 37.1289 54.2807 28C54.2807 8.33008 32.9875 -3.96363 15.9528 5.87137C8.04694 10.4357 3.17676 18.8712 3.17676 28Z" fill="#D9EDFF"/>
<path id="Vector_2" d="M0.834473 45.4335C0.834473 46.776 16.287 47.615 28.6491 46.9438C34.3863 46.6322 37.9206 46.0565 37.9206 45.4335C37.9206 44.091 22.468 43.252 10.106 43.9232C4.36877 44.2347 0.834473 44.8104 0.834473 45.4335Z" fill="#B0D9FF"/>
<path id="Vector_3" d="M39.1099 45.0131C39.1099 45.6593 45.7571 46.0631 51.0749 45.74C53.5429 45.5901 55.0632 45.313 55.0632 45.0131C55.0632 44.367 48.416 43.9631 43.0982 44.2862C40.6302 44.4361 39.1099 44.7132 39.1099 45.0131Z" fill="#B0D9FF"/>
<path id="Vector_4" d="M3.52051 35.0383H35.4286V44.3469H3.52051V35.0383Z" fill="#B0D9FF" stroke="#020064" stroke-width="0.64" stroke-linecap="round" stroke-linejoin="round"/>
<path id="Vector_5" d="M16.9561 29.4967H21.9943V32.5195H16.9561V29.4967Z" fill="white"/>
<path id="Vector_6" d="M16.9561 29.4967H21.9943V32.5195H16.9561V29.4967Z" stroke="#020064" stroke-width="0.64" stroke-linecap="round" stroke-linejoin="round"/>
<path id="Vector_7" d="M3.85645 6.32104H35.0925V29.496H3.85645V6.32104Z" fill="white" stroke="#020064" stroke-width="0.64" stroke-linecap="round" stroke-linejoin="round"/>
<path id="Vector_8" d="M6.58545 9.05005H32.3636V26.7672H6.58545V9.05005Z" fill="#B0D9FF"/>
<path id="Vector_9" d="M6.58545 9.05005H32.3636V26.7672H6.58545V9.05005Z" stroke="#020064" stroke-width="0.64" stroke-linecap="round" stroke-linejoin="round"/>
<path id="Vector_10" d="M26.1846 11.5426H28.911V14.269H26.1846V11.5426Z" fill="white" stroke="#020064" stroke-width="0.64" stroke-linecap="round" stroke-linejoin="round"/>
<path id="Vector_11" d="M26.1846 16.5457H28.911V19.272H26.1846V16.5457Z" fill="white" stroke="#020064" stroke-width="0.64" stroke-linecap="round" stroke-linejoin="round"/>
<path id="Vector_12" d="M26.1846 21.5488H28.911V24.2752H26.1846V21.5488Z" fill="white" stroke="#020064" stroke-width="0.64" stroke-linecap="round" stroke-linejoin="round"/>
<path id="Vector_13" d="M20.6646 11.5426H23.3909V14.269H20.6646V11.5426Z" fill="white" stroke="#020064" stroke-width="0.64" stroke-linecap="round" stroke-linejoin="round"/>
<path id="Vector_14" d="M20.6646 16.5457H23.3909V19.272H20.6646V16.5457Z" fill="white" stroke="#020064" stroke-width="0.64" stroke-linecap="round" stroke-linejoin="round"/>
<path id="Vector_15" d="M20.6646 21.5488H23.3909V24.2752H20.6646V21.5488Z" fill="white" stroke="#020064" stroke-width="0.64" stroke-linecap="round" stroke-linejoin="round"/>
<path id="Vector_16" d="M9.53857 11.5426H17.7848V24.2746H9.53857V11.5426Z" fill="white" stroke="#020064" stroke-width="0.64" stroke-linecap="round" stroke-linejoin="round"/>
<path id="Vector_17" d="M27.4149 35.0383H11.5317V33.3589C11.5317 32.8951 11.908 32.5191 12.3718 32.5195H26.5755C27.0391 32.5195 27.4149 32.8953 27.4149 33.3589L27.4149 35.0383Z" fill="white" stroke="#020064" stroke-width="0.64" stroke-linecap="round" stroke-linejoin="round"/>
<path id="Vector_18" d="M32.6294 44.3475H6.31982V38.7497C6.31982 38.2858 6.69587 37.9097 7.1598 37.9097H31.79C32.2539 37.9097 32.6298 38.2859 32.6294 38.7497V44.3475Z" fill="white" stroke="#020064" stroke-width="0.64" stroke-linecap="round" stroke-linejoin="round"/>
<path id="Vector_19" d="M54.846 37.9774C54.846 37.0499 54.094 36.298 53.1665 36.298H40.8863C39.959 36.2984 39.2075 37.0501 39.2075 37.9774V43.5075C39.2071 43.9713 39.5831 44.3475 40.0469 44.3475H54.0066C54.4704 44.3475 54.8463 43.9713 54.846 43.5075V37.9774Z" fill="white" stroke="#020064" stroke-width="0.64" stroke-linecap="round" stroke-linejoin="round"/>
<path id="Vector_20" d="M52.5722 36.3683C52.5722 35.4408 51.8203 34.6889 50.8928 34.6889H43.1633C42.235 34.6879 41.4819 35.44 41.4819 36.3683V39.0896C41.4816 39.5537 41.8579 39.93 42.322 39.9296H51.7328C52.1966 39.9297 52.5725 39.5534 52.5722 39.0896V36.3683Z" fill="#B0D9FF" stroke="#020064" stroke-width="0.64" stroke-linecap="round" stroke-linejoin="round"/>
<path id="Vector_21" d="M50.3754 37.3731C50.3757 37.5122 50.2628 37.6251 50.1237 37.6247H44.3023C43.8387 37.6248 43.4629 37.249 43.4629 36.7854V30.513C43.4639 29.7598 44.0748 29.1498 44.828 29.1498H51.5131C50.8849 29.1502 50.3757 29.6593 50.3754 30.2875V37.3731Z" fill="white" stroke="#020064" stroke-width="0.64" stroke-linecap="round" stroke-linejoin="round"/>
<path id="Vector_22" d="M50.3755 30.2857C50.3757 29.6109 50.9595 29.0845 51.6307 29.1537C52.2261 29.2351 52.6658 29.7501 52.6528 30.3508V30.7412C52.6528 30.9923 52.4492 31.196 52.198 31.196H50.3774L50.3755 30.2857Z" stroke="#020064" stroke-width="0.64" stroke-linecap="round" stroke-linejoin="round"/>
<path id="Vector_23" d="M51.3311 42.1385C51.3311 42.7847 52.0305 43.1886 52.5902 42.8655C52.8498 42.7156 53.0098 42.4385 53.0098 42.1385C53.0098 41.4924 52.3103 41.0886 51.7507 41.4116C51.4911 41.5616 51.3311 41.8387 51.3311 42.1385Z" fill="#020064"/>
</g>
</svg>
