<svg width="56" height="56" viewBox="0 0 56 56" fill="none" xmlns="http://www.w3.org/2000/svg">
<g id="Ilustracoes">
<path id="Vector" d="M3.48438 29.3472C3.48438 35.2286 5.82077 40.8692 9.97958 45.028C14.1384 49.1868 19.7789 51.5232 25.6604 51.5232C31.5418 51.5232 37.1824 49.1868 41.3412 45.028C45.5 40.8692 47.8364 35.2286 47.8364 29.3472C47.8364 23.4658 45.5 17.8252 41.3412 13.6664C37.1824 9.5076 31.5418 7.1712 25.6604 7.1712C19.7789 7.1712 14.1384 9.5076 9.97958 13.6664C5.82077 17.8252 3.48438 23.4658 3.48438 29.3472Z" fill="#D9EDFF"/>
<path id="Vector_2" d="M21.2476 33.5944C15.1181 33.6659 9.86188 38.6511 9.86188 44.7933V48.4069C9.85869 49.0253 9.97405 49.6387 10.2017 50.2137C10.5662 51.1701 11.2126 51.9932 12.0553 52.574C12.898 53.1549 13.8973 53.466 14.9208 53.4663H18.8958V50.2137H23.5994V53.4663H27.5744C28.5979 53.466 29.5972 53.1549 30.4399 52.574C31.2826 51.9932 31.929 51.1701 32.2935 50.2137C32.5211 49.6387 32.6365 49.0253 32.6333 48.4069V44.7933C32.6333 38.6511 27.377 33.6659 21.2476 33.5944Z" fill="#B0D9FF"/>
<path id="Vector_3" d="M21.2476 33.5944C15.1181 33.6659 9.86188 38.6511 9.86188 44.7933V48.4069C9.85869 49.0253 9.97405 49.6387 10.2017 50.2137C10.5662 51.1701 11.2126 51.9932 12.0553 52.574C12.898 53.1549 13.8973 53.466 14.9208 53.4663H18.8958V50.2137H23.5994V53.4663H27.5744C28.5979 53.466 29.5972 53.1549 30.4399 52.574C31.2826 51.9932 31.929 51.1701 32.2935 50.2137C32.5211 49.6387 32.6365 49.0253 32.6333 48.4069V44.7933C32.6333 38.6511 27.377 33.6659 21.2476 33.5944Z" stroke="#020064" stroke-width="0.64" stroke-linecap="round" stroke-linejoin="round"/>
<path id="Vector_4" d="M23.5986 53.4664V49.8528C23.5986 49.6616 23.6746 49.4783 23.8097 49.3432C23.9449 49.208 24.1282 49.1321 24.3194 49.1321H27.5715C27.7623 49.131 27.945 49.0548 28.08 48.9198C28.2149 48.7849 28.2912 48.6022 28.2922 48.4113V43.9623" stroke="#020064" stroke-width="0.64" stroke-linecap="round" stroke-linejoin="round"/>
<path id="Vector_5" d="M18.9013 53.4664V49.8528C18.9013 49.6616 18.8254 49.4783 18.6902 49.3432C18.5551 49.208 18.3718 49.1321 18.1806 49.1321H14.9263C14.7355 49.131 14.5527 49.0548 14.4178 48.9198C14.2828 48.7849 14.2066 48.6022 14.2056 48.4113V43.9623" stroke="#020064" stroke-width="0.64" stroke-linecap="round" stroke-linejoin="round"/>
<path id="Vector_6" d="M23.6344 33.5944H21.2505V51.6396L27.7032 41.9564C27.793 41.8215 27.837 41.6611 27.8284 41.4992C27.8198 41.3373 27.7591 41.1824 27.6555 41.0578L26.8405 40.0798C26.7621 39.9858 26.7078 39.874 26.6825 39.7543C26.6571 39.6345 26.6613 39.5104 26.6948 39.3926C26.7283 39.2749 26.79 39.1671 26.8746 39.0786C26.9593 38.9902 27.0642 38.9237 27.1804 38.8851L27.2535 38.8607C27.3743 38.8204 27.4829 38.7501 27.5691 38.6565C27.6553 38.5628 27.7164 38.4487 27.7465 38.325C27.7767 38.2013 27.7749 38.072 27.7414 37.9492C27.708 37.8263 27.6439 37.714 27.5551 37.6227L23.6344 33.5944Z" fill="white" stroke="#020064" stroke-width="0.64" stroke-linecap="round" stroke-linejoin="round"/>
<path id="Vector_7" d="M18.8605 33.5944H21.2472V51.6396L14.7918 41.9564C14.7019 41.8215 14.658 41.6611 14.6666 41.4992C14.6752 41.3373 14.7358 41.1824 14.8395 41.0578L15.655 40.0798C15.7333 39.9857 15.7874 39.874 15.8127 39.7543C15.8381 39.6345 15.8338 39.5105 15.8003 39.3928C15.7668 39.2751 15.7051 39.1673 15.6206 39.0788C15.5361 38.9904 15.4312 38.9238 15.3152 38.8851L15.2414 38.8607C15.1206 38.8204 15.0121 38.7501 14.9258 38.6565C14.8396 38.5628 14.7786 38.4487 14.7484 38.325C14.7183 38.2013 14.7201 38.072 14.7535 37.9492C14.787 37.8263 14.8511 37.714 14.9398 37.6227L18.8605 33.5944Z" fill="white" stroke="#020064" stroke-width="0.64" stroke-linecap="round" stroke-linejoin="round"/>
<path id="Vector_8" d="M23.8793 35.8497C23.8821 35.5041 23.7588 35.1693 23.5324 34.9081C23.306 34.6469 22.9921 34.4773 22.6496 34.431C21.718 34.3194 20.7765 34.3194 19.8449 34.431C19.5023 34.4775 19.1885 34.6474 18.9622 34.9088C18.736 35.1702 18.6128 35.5051 18.6158 35.8508C18.205 37.6338 17.7942 39.399 18.373 41.1365L21.2475 51.6396L24.1221 41.1354C24.7009 39.4001 24.2901 37.6327 23.8793 35.8497Z" fill="white" stroke="#020064" stroke-width="0.64" stroke-linecap="round" stroke-linejoin="round"/>
<path id="Vector_9" d="M22.6083 39.7073L21.999 41.1132H20.4955L19.8862 39.7073L21.2473 38.8574L22.6083 39.7073Z" fill="#B0D9FF" stroke="#020064" stroke-width="0.64" stroke-linecap="round" stroke-linejoin="round"/>
<path id="Vector_10" d="M19.4248 44.979L21.2477 51.6396L23.0705 44.979C22.9856 43.6301 22.6208 42.3135 21.9994 41.1132H20.4959C19.8745 42.3135 19.5097 43.6301 19.4248 44.979Z" fill="#B0D9FF" stroke="#020064" stroke-width="0.64" stroke-linecap="round" stroke-linejoin="round"/>
<path id="Vector_11" d="M18.656 35.4124L18.6161 35.8498C18.2369 37.493 17.8594 39.1207 18.2552 40.7285L19.8862 39.7084L21.2445 38.8602L18.656 35.4124Z" fill="#B0D9FF" stroke="#020064" stroke-width="0.64" stroke-linecap="round" stroke-linejoin="round"/>
<path id="Vector_12" d="M23.8337 35.4124L23.8736 35.8498C24.2528 37.493 24.6303 39.1207 24.2345 40.7285L22.6035 39.7084L21.2446 38.8602L23.8337 35.4124Z" fill="#B0D9FF" stroke="#020064" stroke-width="0.64" stroke-linecap="round" stroke-linejoin="round"/>
<path id="Vector_13" d="M20.7029 53.4664H23.5985V49.8528H20.7029C20.2236 49.8528 19.764 50.0431 19.4251 50.3819C19.0861 50.7208 18.8957 51.1803 18.8955 51.6596C18.8957 52.1388 19.0861 52.5984 19.4251 52.9372C19.764 53.276 20.2236 53.4664 20.7029 53.4664Z" fill="white" stroke="#020064" stroke-width="0.64" stroke-linecap="round" stroke-linejoin="round"/>
<path id="Vector_14" d="M19.94 53.4664H18.8955V49.8528H19.94C20.4192 49.8528 20.8788 50.0431 21.2176 50.382C21.5564 50.7208 21.7468 51.1804 21.7468 51.6596C21.7468 52.1388 21.5564 52.5983 21.2176 52.9372C20.8788 53.276 20.4192 53.4664 19.94 53.4664Z" fill="white" stroke="#020064" stroke-width="0.64" stroke-linecap="round" stroke-linejoin="round"/>
<path id="Vector_15" d="M18.645 31.4229V35.3979L21.2474 38.8623L23.8497 35.3979V31.4229H18.645Z" fill="white"/>
<path id="Vector_16" d="M18.645 31.4229V35.3979L21.2474 38.8623L23.8497 35.3979V31.4229H18.645Z" stroke="#020064" stroke-width="0.64" stroke-linecap="round" stroke-linejoin="round"/>
<path id="Vector_17" d="M28.5452 24.4092V22.5846C28.5452 20.649 27.7763 18.7927 26.4077 17.4241C25.039 16.0554 23.1827 15.2865 21.2471 15.2865C19.3115 15.2865 17.4552 16.0554 16.0866 17.4241C14.7179 18.7927 13.949 20.649 13.949 22.5846V24.4092C13.5618 24.4092 13.1906 24.5629 12.9168 24.8367C12.6431 25.1105 12.4893 25.4817 12.4893 25.8689C12.4893 26.256 12.6431 26.6273 12.9168 26.9011C13.1906 27.1748 13.5618 27.3286 13.949 27.3286C13.9795 27.3286 14.0083 27.3214 14.0383 27.3198C14.2961 29.0473 15.1657 30.6248 16.4888 31.7651C17.8119 32.9054 19.5004 33.5326 21.2471 33.5326C22.9938 33.5326 24.6824 32.9054 26.0055 31.7651C27.3286 30.6248 28.1982 29.0473 28.456 27.3198C28.4865 27.3198 28.5147 27.3286 28.5452 27.3286C28.9324 27.3286 29.3037 27.1748 29.5774 26.9011C29.8512 26.6273 30.005 26.256 30.005 25.8689C30.005 25.4817 29.8512 25.1105 29.5774 24.8367C29.3037 24.5629 28.9324 24.4092 28.5452 24.4092Z" fill="white"/>
<path id="Vector_18" d="M28.5452 24.4092V22.5846C28.5452 20.649 27.7763 18.7927 26.4077 17.4241C25.039 16.0554 23.1827 15.2865 21.2471 15.2865C19.3115 15.2865 17.4552 16.0554 16.0866 17.4241C14.7179 18.7927 13.949 20.649 13.949 22.5846V24.4092C13.5618 24.4092 13.1906 24.5629 12.9168 24.8367C12.6431 25.1105 12.4893 25.4817 12.4893 25.8689C12.4893 26.256 12.6431 26.6273 12.9168 26.9011C13.1906 27.1748 13.5618 27.3286 13.949 27.3286C13.9795 27.3286 14.0083 27.3214 14.0383 27.3198C14.2961 29.0473 15.1657 30.6248 16.4888 31.7651C17.8119 32.9054 19.5004 33.5326 21.2471 33.5326C22.9938 33.5326 24.6824 32.9054 26.0055 31.7651C27.3286 30.6248 28.1982 29.0473 28.456 27.3198C28.4865 27.3198 28.5147 27.3286 28.5452 27.3286C28.9324 27.3286 29.3037 27.1748 29.5774 26.9011C29.8512 26.6273 30.005 26.256 30.005 25.8689C30.005 25.4817 29.8512 25.1105 29.5774 24.8367C29.3037 24.5629 28.9324 24.4092 28.5452 24.4092Z" stroke="#020064" stroke-width="0.64" stroke-linecap="round" stroke-linejoin="round"/>
<path id="Vector_19" d="M16.1387 27.5111C16.1387 27.7531 16.2348 27.9852 16.4059 28.1563C16.5771 28.3275 16.8092 28.4236 17.0512 28.4236C17.2932 28.4236 17.5253 28.3275 17.6965 28.1563C17.8676 27.9852 17.9638 27.7531 17.9638 27.5111C17.9638 27.269 17.8676 27.0369 17.6965 26.8658C17.5253 26.6947 17.2932 26.5985 17.0512 26.5985C16.8092 26.5985 16.5771 26.6947 16.4059 26.8658C16.2348 27.0369 16.1387 27.269 16.1387 27.5111Z" fill="#B0D9FF"/>
<path id="Vector_20" d="M24.5312 27.5111C24.5313 27.7531 24.6274 27.9852 24.7985 28.1563C24.9697 28.3275 25.2018 28.4236 25.4438 28.4236C25.6858 28.4236 25.9179 28.3275 26.0891 28.1563C26.2602 27.9852 26.3563 27.7531 26.3563 27.5111C26.3563 27.269 26.2602 27.0369 26.0891 26.8658C25.9179 26.6947 25.6858 26.5985 25.4438 26.5985C25.2018 26.5985 24.9697 26.6947 24.7985 26.8658C24.6274 27.0369 24.5312 27.269 24.5312 27.5111Z" fill="#B0D9FF"/>
<path id="Vector_21" d="M19.0518 29.3644C19.6437 29.9281 20.4298 30.2425 21.2472 30.2425C22.0646 30.2425 22.8507 29.9281 23.4426 29.3644" stroke="#020064" stroke-width="0.64" stroke-linecap="round" stroke-linejoin="round"/>
<path id="Vector_22" d="M25.2613 25.1393C25.1712 24.9224 25.0189 24.737 24.8235 24.6066C24.6281 24.4762 24.3985 24.4066 24.1636 24.4066C23.9287 24.4066 23.6991 24.4762 23.5037 24.6066C23.3084 24.737 23.156 24.9224 23.0659 25.1393" stroke="#020064" stroke-width="0.64" stroke-linecap="round" stroke-linejoin="round"/>
<path id="Vector_23" d="M19.4171 25.1393C19.327 24.9224 19.1747 24.737 18.9793 24.6066C18.7839 24.4762 18.5543 24.4066 18.3194 24.4066C18.0845 24.4066 17.8549 24.4762 17.6595 24.6066C17.4641 24.737 17.3118 24.9224 17.2217 25.1393" stroke="#020064" stroke-width="0.64" stroke-linecap="round" stroke-linejoin="round"/>
<path id="Vector_24" d="M29.2751 20.4263V23.6884C29.2741 23.8793 29.1978 24.062 29.0629 24.1969C28.9279 24.3319 28.7452 24.4081 28.5544 24.4091C28.4565 24.4084 28.3598 24.3884 28.2697 24.3502C28.1796 24.3119 28.098 24.2563 28.0295 24.1865C27.961 24.1166 27.9069 24.0339 27.8705 23.9431C27.834 23.8523 27.8158 23.7552 27.817 23.6574C27.8143 22.7459 27.5483 21.8546 27.051 21.0907C26.5537 20.3267 25.8464 19.7228 25.014 19.3514C24.1782 19.7529 23.271 19.9843 22.3451 20.0322H22.2896C22.2979 20.3115 22.2409 20.5889 22.1231 20.8423C22.0053 21.0957 21.83 21.3182 21.6111 21.4919C21.3975 21.7007 21.1398 21.8589 20.8569 21.9549C20.574 22.0508 20.2732 22.0821 19.9767 22.0463C19.917 22.037 19.8606 22.013 19.8126 21.9763C19.7646 21.9397 19.7266 21.8917 19.7019 21.8366C19.6772 21.7815 19.6667 21.7211 19.6713 21.6609C19.6759 21.6007 19.6955 21.5426 19.7283 21.4919C19.8164 21.3244 19.8672 21.1398 19.8772 20.9508C19.8873 20.7618 19.8563 20.5729 19.7865 20.397C19.4217 19.3314 17.962 19.3026 17.962 19.3026L17.4802 19.3536C16.6479 19.7251 15.9407 20.3291 15.4435 21.093C14.9463 21.8569 14.6804 22.7482 14.6777 23.6596C14.6789 23.7574 14.6608 23.8544 14.6243 23.9452C14.5879 24.036 14.5339 24.1186 14.4655 24.1885C14.397 24.2583 14.3154 24.314 14.2254 24.3522C14.1354 24.3905 14.0387 24.4106 13.9409 24.4114C13.7501 24.4103 13.5674 24.3341 13.4324 24.1991C13.2975 24.0642 13.2212 23.8815 13.2202 23.6906V20.4263C13.2206 19.75 13.3646 19.0814 13.6427 18.4648C13.9208 17.8483 14.3267 17.2978 14.8335 16.8499C14.9678 16.7297 15.0576 16.5678 15.0885 16.3903C15.4151 14.7498 18.0513 13.4636 21.2479 13.4636C24.4446 13.4636 27.0719 14.7498 27.4079 16.3903C27.439 16.5679 27.529 16.7298 27.6634 16.8499C28.1699 17.298 28.5754 17.8486 28.8532 18.4651C29.1311 19.0816 29.2748 19.7501 29.2751 20.4263Z" fill="white"/>
<path id="Vector_25" d="M22.2895 20.0322C22.2673 19.4262 21.9169 18.9373 21.6104 18.9373" stroke="#020064" stroke-width="0.64" stroke-linecap="round" stroke-linejoin="round"/>
<path id="Vector_26" d="M29.2751 20.4263V23.6884C29.2741 23.8793 29.1978 24.062 29.0629 24.1969C28.9279 24.3319 28.7452 24.4081 28.5544 24.4091C28.4565 24.4084 28.3598 24.3884 28.2697 24.3502C28.1796 24.3119 28.098 24.2563 28.0295 24.1865C27.961 24.1166 27.9069 24.0339 27.8705 23.9431C27.834 23.8523 27.8158 23.7552 27.817 23.6574C27.8143 22.7459 27.5483 21.8546 27.051 21.0907C26.5537 20.3267 25.8464 19.7228 25.014 19.3514C24.1782 19.7529 23.271 19.9843 22.3451 20.0322H22.2896C22.2979 20.3115 22.2409 20.5889 22.1231 20.8423C22.0053 21.0957 21.83 21.3182 21.6111 21.4919C21.3975 21.7007 21.1398 21.8589 20.8569 21.9549C20.574 22.0508 20.2732 22.0821 19.9767 22.0463C19.917 22.037 19.8606 22.013 19.8126 21.9763C19.7646 21.9397 19.7266 21.8917 19.7019 21.8366C19.6772 21.7815 19.6667 21.7211 19.6713 21.6609C19.6759 21.6007 19.6955 21.5426 19.7283 21.4919C19.8164 21.3244 19.8672 21.1398 19.8772 20.9508C19.8873 20.7618 19.8563 20.5729 19.7865 20.397C19.4217 19.3314 17.962 19.3026 17.962 19.3026L17.4802 19.3536C16.6479 19.7251 15.9407 20.3291 15.4435 21.093C14.9463 21.8569 14.6804 22.7482 14.6777 23.6596C14.6789 23.7574 14.6608 23.8544 14.6243 23.9452C14.5879 24.036 14.5339 24.1186 14.4655 24.1885C14.397 24.2583 14.3154 24.314 14.2254 24.3522C14.1354 24.3905 14.0387 24.4106 13.9409 24.4114C13.7501 24.4103 13.5674 24.3341 13.4324 24.1991C13.2975 24.0642 13.2212 23.8815 13.2202 23.6906V20.4263C13.2206 19.75 13.3646 19.0814 13.6427 18.4648C13.9208 17.8483 14.3267 17.2978 14.8335 16.8499C14.9678 16.7297 15.0576 16.5678 15.0885 16.3903C15.4151 14.7498 18.0513 13.4636 21.2479 13.4636C24.4446 13.4636 27.0719 14.7498 27.4079 16.3903C27.439 16.5679 27.529 16.7298 27.6634 16.8499C28.1699 17.298 28.5754 17.8486 28.8532 18.4651C29.1311 19.0816 29.2748 19.7501 29.2751 20.4263Z" stroke="#020064" stroke-width="0.64" stroke-linecap="round" stroke-linejoin="round"/>
<path id="Vector_27" d="M11.8589 26.9017V28.3099C11.859 29.4304 12.3042 30.5049 13.0966 31.2971C13.8889 32.0894 14.9635 32.5344 16.084 32.5344H16.553" stroke="#020064" stroke-width="0.64" stroke-linecap="round" stroke-linejoin="round"/>
<path id="Vector_28" d="M10.9214 23.1468V22.2077C10.9214 19.469 12.0093 16.8424 13.9459 14.9059C15.8824 12.9693 18.5089 11.8814 21.2476 11.8814C23.9863 11.8814 26.6129 12.9693 28.5494 14.9059C30.486 16.8424 31.5739 19.469 31.5739 22.2077V23.1468" stroke="#020064" stroke-width="0.64" stroke-linecap="round" stroke-linejoin="round"/>
<path id="Vector_29" d="M12.7983 27.8409H10.9688C10.7069 27.8404 10.4559 27.7361 10.2709 27.5508C10.0858 27.3654 9.98193 27.1143 9.98193 26.8524V24.1358C9.98193 23.8738 10.086 23.6225 10.2713 23.4372C10.4566 23.252 10.7079 23.1479 10.9699 23.1479H12.7994L12.7983 27.8409Z" fill="#B0D9FF" stroke="#020064" stroke-width="0.64" stroke-linecap="round" stroke-linejoin="round"/>
<path id="Vector_30" d="M11.8592 26.9018C11.8561 27.027 11.8782 27.1515 11.924 27.2681C11.9698 27.3847 12.0385 27.4909 12.1259 27.5805C12.2134 27.6702 12.318 27.7414 12.4334 27.79C12.5488 27.8387 12.6728 27.8637 12.798 27.8637C12.9233 27.8637 13.0473 27.8387 13.1627 27.79C13.2781 27.7414 13.3827 27.6702 13.4701 27.5805C13.5576 27.4909 13.6263 27.3847 13.6721 27.2681C13.7179 27.1515 13.74 27.027 13.7369 26.9018V24.0854C13.731 23.8404 13.6294 23.6073 13.454 23.4361C13.2786 23.2649 13.0432 23.1691 12.798 23.1691C12.5529 23.1691 12.3175 23.2649 12.1421 23.4361C11.9667 23.6073 11.8651 23.8404 11.8592 24.0854V26.9018Z" fill="white" stroke="#020064" stroke-width="0.64" stroke-linecap="round" stroke-linejoin="round"/>
<path id="Vector_31" d="M29.6964 27.8409H31.5259C31.7878 27.8404 32.0388 27.7361 32.2238 27.5508C32.4089 27.3654 32.5128 27.1143 32.5128 26.8524V24.1358C32.5128 24.0061 32.4872 23.8776 32.4376 23.7578C32.3879 23.6379 32.3152 23.529 32.2234 23.4372C32.1317 23.3455 32.0228 23.2727 31.9029 23.2231C31.783 23.1734 31.6546 23.1479 31.5248 23.1479H29.6953L29.6964 27.8409Z" fill="#B0D9FF" stroke="#020064" stroke-width="0.64" stroke-linecap="round" stroke-linejoin="round"/>
<path id="Vector_32" d="M30.635 26.9017C30.635 27.1507 30.5361 27.3894 30.3601 27.5654C30.1841 27.7415 29.9453 27.8403 29.6964 27.8403C29.4475 27.8403 29.2087 27.7415 29.0327 27.5654C28.8567 27.3894 28.7578 27.1507 28.7578 26.9017V24.0854C28.7578 23.8365 28.8567 23.5977 29.0327 23.4217C29.2087 23.2457 29.4475 23.1468 29.6964 23.1468C29.9453 23.1468 30.1841 23.2457 30.3601 23.4217C30.5361 23.5977 30.635 23.8365 30.635 24.0854V26.9017Z" fill="white" stroke="#020064" stroke-width="0.64" stroke-linecap="round" stroke-linejoin="round"/>
<path id="Vector_33" d="M19.3696 32.5345C19.3696 32.813 19.287 33.0853 19.1322 33.3169C18.9775 33.5484 18.7575 33.7289 18.5002 33.8355C18.2428 33.9421 17.9596 33.9699 17.6865 33.9155C17.4133 33.8612 17.1624 33.727 16.9655 33.53C16.7686 33.333 16.6345 33.082 16.5802 32.8088C16.5259 32.5356 16.5539 32.2525 16.6606 31.9952C16.7672 31.7379 16.9478 31.518 17.1795 31.3633C17.4111 31.2087 17.6834 31.1262 17.962 31.1263C18.3353 31.1264 18.6934 31.2749 18.9573 31.5389C19.2213 31.803 19.3696 32.1611 19.3696 32.5345Z" fill="#B0D9FF" stroke="#020064" stroke-width="0.64" stroke-linecap="round" stroke-linejoin="round"/>
<path id="Vector_34" d="M35.5617 2.53363H49.1224C50.0216 2.53363 50.8841 2.89087 51.52 3.52675C52.1558 4.16263 52.5131 5.02507 52.5131 5.92434V14.7393C52.5133 15.1847 52.4258 15.6258 52.2554 16.0374C52.0851 16.449 51.8354 16.8229 51.5205 17.138C51.2057 17.453 50.8318 17.7029 50.4203 17.8734C50.0088 18.0439 49.5678 18.1317 49.1224 18.1317H39.824L36.0812 21.0866C36.0416 21.141 35.9867 21.1824 35.9235 21.2056C35.8603 21.2287 35.7917 21.2325 35.7263 21.2165C35.6609 21.2006 35.6018 21.1655 35.5564 21.1158C35.511 21.0661 35.4814 21.004 35.4714 20.9375L36.3368 18.1317H35.5606C34.6614 18.1317 33.7989 17.7744 33.163 17.1386C32.5272 16.5027 32.1699 15.6402 32.1699 14.741V5.926C32.1697 5.4805 32.2573 5.03931 32.4277 4.62767C32.598 4.21602 32.8478 3.84199 33.1628 3.52694C33.4778 3.21189 33.8518 2.96201 34.2634 2.79157C34.6751 2.62114 35.1162 2.53348 35.5617 2.53363Z" fill="white"/>
<path id="Vector_35" d="M35.5617 2.53363H49.1224C50.0216 2.53363 50.8841 2.89087 51.52 3.52675C52.1558 4.16263 52.5131 5.02507 52.5131 5.92434V14.7393C52.5133 15.1847 52.4258 15.6258 52.2554 16.0374C52.0851 16.449 51.8354 16.8229 51.5205 17.138C51.2057 17.453 50.8318 17.7029 50.4203 17.8734C50.0088 18.0439 49.5678 18.1317 49.1224 18.1317H39.824L36.0812 21.0866C36.0416 21.141 35.9867 21.1824 35.9235 21.2056C35.8603 21.2287 35.7917 21.2325 35.7263 21.2165C35.6609 21.2006 35.6018 21.1655 35.5564 21.1158C35.511 21.0661 35.4814 21.004 35.4714 20.9375L36.3368 18.1317H35.5606C34.6614 18.1317 33.7989 17.7744 33.163 17.1386C32.5272 16.5027 32.1699 15.6402 32.1699 14.741V5.926C32.1697 5.4805 32.2573 5.03931 32.4277 4.62767C32.598 4.21602 32.8478 3.84199 33.1628 3.52694C33.4778 3.21189 33.8518 2.96201 34.2634 2.79157C34.6751 2.62114 35.1162 2.53348 35.5617 2.53363Z" stroke="#020064" stroke-width="0.64" stroke-linecap="round" stroke-linejoin="round"/>
<path id="Vector_36" d="M37.3027 10.6944C37.3027 10.9738 37.4137 11.2417 37.6113 11.4393C37.8088 11.6368 38.0767 11.7478 38.3561 11.7478C38.6355 11.7478 38.9034 11.6368 39.1009 11.4393C39.2985 11.2417 39.4095 10.9738 39.4095 10.6944C39.4095 10.415 39.2985 10.1471 39.1009 9.94957C38.9034 9.75203 38.6355 9.64105 38.3561 9.64105C38.0767 9.64105 37.8088 9.75203 37.6113 9.94957C37.4137 10.1471 37.3027 10.415 37.3027 10.6944Z" fill="#B0D9FF" stroke="#020064" stroke-width="0.64" stroke-linecap="round" stroke-linejoin="round"/>
<path id="Vector_37" d="M41.2856 10.6944C41.2856 10.9738 41.3966 11.2417 41.5942 11.4393C41.7917 11.6368 42.0596 11.7478 42.339 11.7478C42.6184 11.7478 42.8863 11.6368 43.0838 11.4393C43.2814 11.2417 43.3924 10.9738 43.3924 10.6944C43.3924 10.415 43.2814 10.1471 43.0838 9.94957C42.8863 9.75203 42.6184 9.64105 42.339 9.64105C42.0596 9.64105 41.7917 9.75203 41.5942 9.94957C41.3966 10.1471 41.2856 10.415 41.2856 10.6944Z" fill="#B0D9FF" stroke="#020064" stroke-width="0.64" stroke-linecap="round" stroke-linejoin="round"/>
<path id="Vector_38" d="M45.2529 10.6944C45.2529 10.8327 45.2802 10.9697 45.3331 11.0975C45.386 11.2253 45.4636 11.3414 45.5615 11.4393C45.6593 11.5371 45.7754 11.6147 45.9032 11.6676C46.031 11.7205 46.168 11.7478 46.3063 11.7478C46.4446 11.7478 46.5816 11.7205 46.7094 11.6676C46.8372 11.6147 46.9533 11.5371 47.0511 11.4393C47.1489 11.3414 47.2265 11.2253 47.2795 11.0975C47.3324 10.9697 47.3597 10.8327 47.3597 10.6944C47.3597 10.5561 47.3324 10.4191 47.2795 10.2913C47.2265 10.1635 47.1489 10.0474 47.0511 9.94957C46.9533 9.85176 46.8372 9.77417 46.7094 9.72123C46.5816 9.6683 46.4446 9.64105 46.3063 9.64105C46.168 9.64105 46.031 9.6683 45.9032 9.72123C45.7754 9.77417 45.6593 9.85176 45.5615 9.94957C45.4636 10.0474 45.386 10.1635 45.3331 10.2913C45.2802 10.4191 45.2529 10.5561 45.2529 10.6944Z" fill="#B0D9FF" stroke="#020064" stroke-width="0.64" stroke-linecap="round" stroke-linejoin="round"/>
</g>
</svg>
