<svg width="450" height="286" viewBox="0 0 450 286" fill="none" xmlns="http://www.w3.org/2000/svg">
<rect x="119.5" y="54.5" width="211" height="178" rx="3.5" fill="white"/>
<rect x="119.5" y="54.5" width="211" height="178" rx="3.5" stroke="#DBDADE"/>
<g clip-path="url(#clip0_744_8900)">
<circle cx="147" cy="81" r="6.75" stroke="#4B465C" stroke-width="1.5" stroke-linecap="round" stroke-linejoin="round"/>
<circle cx="147" cy="81" r="6.75" stroke="white" stroke-opacity="0.2" stroke-width="1.5" stroke-linecap="round" stroke-linejoin="round"/>
<path d="M147 77.25V81L149.25 83.25" stroke="#4B465C" stroke-width="1.5" stroke-linecap="round" stroke-linejoin="round"/>
<path d="M147 77.25V81L149.25 83.25" stroke="white" stroke-opacity="0.2" stroke-width="1.5" stroke-linecap="round" stroke-linejoin="round"/>
</g>
<path d="M161.98 85V77.956L160.408 78.412V77.476L162.424 76.6H163.204V85H161.98ZM168.17 85.144C167.442 85.144 166.814 84.964 166.286 84.604C165.766 84.236 165.366 83.728 165.086 83.08C164.806 82.424 164.666 81.664 164.666 80.8C164.666 79.936 164.806 79.18 165.086 78.532C165.366 77.876 165.766 77.368 166.286 77.008C166.814 76.64 167.442 76.456 168.17 76.456C168.906 76.456 169.53 76.64 170.042 77.008C170.562 77.368 170.962 77.876 171.242 78.532C171.53 79.18 171.674 79.936 171.674 80.8C171.674 81.664 171.53 82.424 171.242 83.08C170.962 83.728 170.562 84.236 170.042 84.604C169.53 84.964 168.906 85.144 168.17 85.144ZM168.17 84.076C168.61 84.076 168.998 83.944 169.334 83.68C169.678 83.416 169.946 83.04 170.138 82.552C170.338 82.064 170.438 81.48 170.438 80.8C170.438 80.112 170.338 79.528 170.138 79.048C169.946 78.56 169.678 78.188 169.334 77.932C168.998 77.668 168.61 77.536 168.17 77.536C167.73 77.536 167.338 77.668 166.994 77.932C166.65 78.188 166.378 78.56 166.178 79.048C165.986 79.528 165.89 80.112 165.89 80.8C165.89 81.48 165.986 82.064 166.178 82.552C166.378 83.04 166.65 83.416 166.994 83.68C167.338 83.944 167.73 84.076 168.17 84.076ZM173.554 85.06C173.33 85.06 173.142 84.988 172.99 84.844C172.846 84.692 172.774 84.512 172.774 84.304C172.774 84.088 172.846 83.908 172.99 83.764C173.142 83.612 173.33 83.536 173.554 83.536C173.786 83.536 173.974 83.612 174.118 83.764C174.262 83.908 174.334 84.088 174.334 84.304C174.334 84.512 174.262 84.692 174.118 84.844C173.974 84.988 173.786 85.06 173.554 85.06ZM173.554 80.224C173.33 80.224 173.142 80.152 172.99 80.008C172.846 79.856 172.774 79.676 172.774 79.468C172.774 79.252 172.846 79.072 172.99 78.928C173.142 78.776 173.33 78.7 173.554 78.7C173.786 78.7 173.974 78.776 174.118 78.928C174.262 79.072 174.334 79.252 174.334 79.468C174.334 79.676 174.262 79.856 174.118 80.008C173.974 80.152 173.786 80.224 173.554 80.224ZM179.622 85V83.284H175.398V82.348L179.43 76.6H180.81V82.24H182.01V83.284H180.81V85H179.622ZM176.706 82.24H179.682V77.92L176.706 82.24ZM183.115 85V84.136C183.683 83.704 184.219 83.268 184.723 82.828C185.235 82.388 185.691 81.952 186.091 81.52C186.491 81.08 186.803 80.652 187.027 80.236C187.259 79.812 187.375 79.408 187.375 79.024C187.375 78.752 187.323 78.5 187.219 78.268C187.123 78.036 186.967 77.848 186.751 77.704C186.543 77.552 186.259 77.476 185.899 77.476C185.547 77.476 185.255 77.552 185.023 77.704C184.791 77.856 184.615 78.06 184.495 78.316C184.383 78.564 184.327 78.84 184.327 79.144H183.163C183.171 78.568 183.295 78.08 183.535 77.68C183.775 77.28 184.103 76.976 184.519 76.768C184.935 76.56 185.403 76.456 185.923 76.456C186.459 76.456 186.923 76.556 187.315 76.756C187.707 76.948 188.015 77.232 188.239 77.608C188.463 77.984 188.575 78.436 188.575 78.964C188.575 79.348 188.495 79.732 188.335 80.116C188.183 80.492 187.975 80.86 187.711 81.22C187.447 81.58 187.151 81.928 186.823 82.264C186.503 82.592 186.171 82.904 185.827 83.2C185.483 83.496 185.155 83.764 184.843 84.004H188.827V85H183.115Z" fill="#4B465C"/>
<path d="M161.98 85V77.956L160.408 78.412V77.476L162.424 76.6H163.204V85H161.98ZM168.17 85.144C167.442 85.144 166.814 84.964 166.286 84.604C165.766 84.236 165.366 83.728 165.086 83.08C164.806 82.424 164.666 81.664 164.666 80.8C164.666 79.936 164.806 79.18 165.086 78.532C165.366 77.876 165.766 77.368 166.286 77.008C166.814 76.64 167.442 76.456 168.17 76.456C168.906 76.456 169.53 76.64 170.042 77.008C170.562 77.368 170.962 77.876 171.242 78.532C171.53 79.18 171.674 79.936 171.674 80.8C171.674 81.664 171.53 82.424 171.242 83.08C170.962 83.728 170.562 84.236 170.042 84.604C169.53 84.964 168.906 85.144 168.17 85.144ZM168.17 84.076C168.61 84.076 168.998 83.944 169.334 83.68C169.678 83.416 169.946 83.04 170.138 82.552C170.338 82.064 170.438 81.48 170.438 80.8C170.438 80.112 170.338 79.528 170.138 79.048C169.946 78.56 169.678 78.188 169.334 77.932C168.998 77.668 168.61 77.536 168.17 77.536C167.73 77.536 167.338 77.668 166.994 77.932C166.65 78.188 166.378 78.56 166.178 79.048C165.986 79.528 165.89 80.112 165.89 80.8C165.89 81.48 165.986 82.064 166.178 82.552C166.378 83.04 166.65 83.416 166.994 83.68C167.338 83.944 167.73 84.076 168.17 84.076ZM173.554 85.06C173.33 85.06 173.142 84.988 172.99 84.844C172.846 84.692 172.774 84.512 172.774 84.304C172.774 84.088 172.846 83.908 172.99 83.764C173.142 83.612 173.33 83.536 173.554 83.536C173.786 83.536 173.974 83.612 174.118 83.764C174.262 83.908 174.334 84.088 174.334 84.304C174.334 84.512 174.262 84.692 174.118 84.844C173.974 84.988 173.786 85.06 173.554 85.06ZM173.554 80.224C173.33 80.224 173.142 80.152 172.99 80.008C172.846 79.856 172.774 79.676 172.774 79.468C172.774 79.252 172.846 79.072 172.99 78.928C173.142 78.776 173.33 78.7 173.554 78.7C173.786 78.7 173.974 78.776 174.118 78.928C174.262 79.072 174.334 79.252 174.334 79.468C174.334 79.676 174.262 79.856 174.118 80.008C173.974 80.152 173.786 80.224 173.554 80.224ZM179.622 85V83.284H175.398V82.348L179.43 76.6H180.81V82.24H182.01V83.284H180.81V85H179.622ZM176.706 82.24H179.682V77.92L176.706 82.24ZM183.115 85V84.136C183.683 83.704 184.219 83.268 184.723 82.828C185.235 82.388 185.691 81.952 186.091 81.52C186.491 81.08 186.803 80.652 187.027 80.236C187.259 79.812 187.375 79.408 187.375 79.024C187.375 78.752 187.323 78.5 187.219 78.268C187.123 78.036 186.967 77.848 186.751 77.704C186.543 77.552 186.259 77.476 185.899 77.476C185.547 77.476 185.255 77.552 185.023 77.704C184.791 77.856 184.615 78.06 184.495 78.316C184.383 78.564 184.327 78.84 184.327 79.144H183.163C183.171 78.568 183.295 78.08 183.535 77.68C183.775 77.28 184.103 76.976 184.519 76.768C184.935 76.56 185.403 76.456 185.923 76.456C186.459 76.456 186.923 76.556 187.315 76.756C187.707 76.948 188.015 77.232 188.239 77.608C188.463 77.984 188.575 78.436 188.575 78.964C188.575 79.348 188.495 79.732 188.335 80.116C188.183 80.492 187.975 80.86 187.711 81.22C187.447 81.58 187.151 81.928 186.823 82.264C186.503 82.592 186.171 82.904 185.827 83.2C185.483 83.496 185.155 83.764 184.843 84.004H188.827V85H183.115Z" fill="white" fill-opacity="0.2"/>
<g clip-path="url(#clip1_744_8900)">
<circle cx="203.75" cy="75" r="0.75" stroke="#4B465C" stroke-width="1.5" stroke-linecap="round" stroke-linejoin="round"/>
<circle cx="203.75" cy="75" r="0.75" stroke="white" stroke-opacity="0.2" stroke-width="1.5" stroke-linecap="round" stroke-linejoin="round"/>
<path d="M199.25 87.75L201.5 84.75" stroke="#4B465C" stroke-width="1.5" stroke-linecap="round" stroke-linejoin="round"/>
<path d="M199.25 87.75L201.5 84.75" stroke="white" stroke-opacity="0.2" stroke-width="1.5" stroke-linecap="round" stroke-linejoin="round"/>
<path d="M206 87.75L204.5 84.75L202.25 82.5L203 78" stroke="#4B465C" stroke-width="1.5" stroke-linecap="round" stroke-linejoin="round"/>
<path d="M206 87.75L204.5 84.75L202.25 82.5L203 78" stroke="white" stroke-opacity="0.2" stroke-width="1.5" stroke-linecap="round" stroke-linejoin="round"/>
<path d="M198.5 81L200 78.75L203 78L205.25 80.25L207.5 81" stroke="#4B465C" stroke-width="1.5" stroke-linecap="round" stroke-linejoin="round"/>
<path d="M198.5 81L200 78.75L203 78L205.25 80.25L207.5 81" stroke="white" stroke-opacity="0.2" stroke-width="1.5" stroke-linecap="round" stroke-linejoin="round"/>
</g>
<path d="M216.888 85V76.6H219.732C220.396 76.6 220.94 76.712 221.364 76.936C221.788 77.16 222.1 77.46 222.3 77.836C222.508 78.204 222.612 78.624 222.612 79.096C222.612 79.544 222.508 79.96 222.3 80.344C222.1 80.72 221.784 81.024 221.352 81.256C220.92 81.48 220.368 81.592 219.696 81.592H218.088V85H216.888ZM221.304 85L219.492 81.268H220.812L222.696 85H221.304ZM218.088 80.68H219.66C220.252 80.68 220.684 80.536 220.956 80.248C221.236 79.952 221.376 79.576 221.376 79.12C221.376 78.656 221.24 78.288 220.968 78.016C220.696 77.744 220.256 77.608 219.648 77.608H218.088V80.68ZM226.49 85.144C225.906 85.144 225.39 85.012 224.942 84.748C224.502 84.476 224.158 84.1 223.91 83.62C223.662 83.14 223.538 82.58 223.538 81.94C223.538 81.292 223.662 80.728 223.91 80.248C224.158 79.76 224.506 79.38 224.954 79.108C225.402 78.836 225.918 78.7 226.502 78.7C227.102 78.7 227.614 78.836 228.038 79.108C228.462 79.372 228.786 79.728 229.01 80.176C229.234 80.616 229.346 81.108 229.346 81.652C229.346 81.732 229.342 81.816 229.334 81.904C229.334 81.992 229.33 82.092 229.322 82.204H224.414V81.364H228.146C228.13 80.836 227.966 80.428 227.654 80.14C227.342 79.844 226.954 79.696 226.49 79.696C226.17 79.696 225.874 79.772 225.602 79.924C225.338 80.076 225.122 80.3 224.954 80.596C224.794 80.884 224.714 81.252 224.714 81.7V82.036C224.714 82.492 224.794 82.88 224.954 83.2C225.114 83.512 225.326 83.748 225.59 83.908C225.862 84.068 226.158 84.148 226.478 84.148C226.878 84.148 227.198 84.068 227.438 83.908C227.678 83.74 227.854 83.516 227.966 83.236H229.178C229.074 83.596 228.898 83.92 228.65 84.208C228.402 84.496 228.094 84.724 227.726 84.892C227.366 85.06 226.954 85.144 226.49 85.144ZM233.059 85C232.675 85 232.343 84.94 232.063 84.82C231.783 84.7 231.567 84.5 231.415 84.22C231.263 83.94 231.187 83.56 231.187 83.08V79.864H230.131V78.844H231.187L231.343 77.284H232.387V78.844H234.115V79.864H232.387V83.092C232.387 83.436 232.459 83.672 232.603 83.8C232.747 83.92 232.995 83.98 233.347 83.98H234.079V85H233.059ZM235.557 85V78.844H236.757V85H235.557ZM236.157 77.74C235.925 77.74 235.733 77.668 235.581 77.524C235.437 77.38 235.365 77.196 235.365 76.972C235.365 76.756 235.437 76.58 235.581 76.444C235.733 76.3 235.925 76.228 236.157 76.228C236.381 76.228 236.569 76.3 236.721 76.444C236.873 76.58 236.949 76.756 236.949 76.972C236.949 77.196 236.873 77.38 236.721 77.524C236.569 77.668 236.381 77.74 236.157 77.74ZM238.484 85V78.844H239.564L239.66 79.984C239.804 79.712 239.988 79.48 240.212 79.288C240.436 79.096 240.7 78.952 241.004 78.856C241.316 78.752 241.664 78.7 242.048 78.7V79.972H241.508C241.268 79.972 241.036 80.004 240.812 80.068C240.596 80.124 240.4 80.224 240.224 80.368C240.056 80.504 239.924 80.692 239.828 80.932C239.732 81.172 239.684 81.476 239.684 81.844V85H238.484ZM245.164 85.144C244.676 85.144 244.268 85.06 243.94 84.892C243.62 84.716 243.38 84.484 243.22 84.196C243.06 83.908 242.98 83.596 242.98 83.26C242.98 82.86 243.08 82.516 243.28 82.228C243.488 81.94 243.784 81.72 244.168 81.568C244.552 81.416 245.012 81.34 245.548 81.34H247.108C247.108 80.972 247.06 80.668 246.964 80.428C246.868 80.188 246.716 80.008 246.508 79.888C246.308 79.768 246.048 79.708 245.728 79.708C245.376 79.708 245.076 79.792 244.828 79.96C244.58 80.128 244.424 80.376 244.36 80.704H243.16C243.208 80.28 243.352 79.92 243.592 79.624C243.832 79.328 244.136 79.1 244.504 78.94C244.88 78.78 245.288 78.7 245.728 78.7C246.296 78.7 246.768 78.8 247.144 79C247.528 79.2 247.816 79.484 248.008 79.852C248.208 80.212 248.308 80.644 248.308 81.148V85H247.252L247.156 83.968C247.076 84.136 246.972 84.292 246.844 84.436C246.724 84.572 246.58 84.696 246.412 84.808C246.252 84.912 246.068 84.992 245.86 85.048C245.652 85.112 245.42 85.144 245.164 85.144ZM245.392 84.172C245.64 84.172 245.868 84.12 246.076 84.016C246.284 83.904 246.46 83.76 246.604 83.584C246.756 83.4 246.872 83.196 246.952 82.972C247.032 82.74 247.076 82.496 247.084 82.24V82.18H245.668C245.324 82.18 245.048 82.224 244.84 82.312C244.632 82.4 244.48 82.52 244.384 82.672C244.288 82.816 244.24 82.984 244.24 83.176C244.24 83.376 244.284 83.552 244.372 83.704C244.46 83.848 244.592 83.964 244.768 84.052C244.944 84.132 245.152 84.172 245.392 84.172ZM252.527 85.144C251.967 85.144 251.467 85.004 251.027 84.724C250.595 84.444 250.259 84.064 250.019 83.584C249.779 83.096 249.659 82.544 249.659 81.928C249.659 81.304 249.779 80.752 250.019 80.272C250.267 79.784 250.607 79.4 251.039 79.12C251.479 78.84 251.987 78.7 252.563 78.7C253.035 78.7 253.447 78.796 253.799 78.988C254.151 79.172 254.427 79.432 254.627 79.768V76.36H255.827V85H254.759L254.639 84.052C254.511 84.244 254.351 84.424 254.159 84.592C253.975 84.752 253.747 84.884 253.475 84.988C253.203 85.092 252.887 85.144 252.527 85.144ZM252.743 84.1C253.119 84.1 253.447 84.012 253.727 83.836C254.015 83.652 254.235 83.4 254.387 83.08C254.539 82.752 254.615 82.368 254.615 81.928C254.615 81.488 254.539 81.104 254.387 80.776C254.235 80.448 254.015 80.196 253.727 80.02C253.447 79.836 253.119 79.744 252.743 79.744C252.383 79.744 252.063 79.836 251.783 80.02C251.503 80.196 251.283 80.448 251.123 80.776C250.963 81.104 250.883 81.488 250.883 81.928C250.883 82.36 250.963 82.74 251.123 83.068C251.283 83.396 251.503 83.652 251.783 83.836C252.063 84.012 252.383 84.1 252.743 84.1ZM259.472 85.144C258.984 85.144 258.576 85.06 258.248 84.892C257.928 84.716 257.688 84.484 257.528 84.196C257.368 83.908 257.288 83.596 257.288 83.26C257.288 82.86 257.388 82.516 257.588 82.228C257.796 81.94 258.092 81.72 258.476 81.568C258.86 81.416 259.32 81.34 259.856 81.34H261.416C261.416 80.972 261.368 80.668 261.272 80.428C261.176 80.188 261.024 80.008 260.816 79.888C260.616 79.768 260.356 79.708 260.036 79.708C259.684 79.708 259.384 79.792 259.136 79.96C258.888 80.128 258.732 80.376 258.668 80.704H257.468C257.516 80.28 257.66 79.92 257.9 79.624C258.14 79.328 258.444 79.1 258.812 78.94C259.188 78.78 259.596 78.7 260.036 78.7C260.604 78.7 261.076 78.8 261.452 79C261.836 79.2 262.124 79.484 262.316 79.852C262.516 80.212 262.616 80.644 262.616 81.148V85H261.56L261.464 83.968C261.384 84.136 261.28 84.292 261.152 84.436C261.032 84.572 260.888 84.696 260.72 84.808C260.56 84.912 260.376 84.992 260.168 85.048C259.96 85.112 259.728 85.144 259.472 85.144ZM259.7 84.172C259.948 84.172 260.176 84.12 260.384 84.016C260.592 83.904 260.768 83.76 260.912 83.584C261.064 83.4 261.18 83.196 261.26 82.972C261.34 82.74 261.384 82.496 261.392 82.24V82.18H259.976C259.632 82.18 259.356 82.224 259.148 82.312C258.94 82.4 258.788 82.52 258.692 82.672C258.596 82.816 258.548 82.984 258.548 83.176C258.548 83.376 258.592 83.552 258.68 83.704C258.768 83.848 258.9 83.964 259.076 84.052C259.252 84.132 259.46 84.172 259.7 84.172Z" fill="#4B465C"/>
<path d="M216.888 85V76.6H219.732C220.396 76.6 220.94 76.712 221.364 76.936C221.788 77.16 222.1 77.46 222.3 77.836C222.508 78.204 222.612 78.624 222.612 79.096C222.612 79.544 222.508 79.96 222.3 80.344C222.1 80.72 221.784 81.024 221.352 81.256C220.92 81.48 220.368 81.592 219.696 81.592H218.088V85H216.888ZM221.304 85L219.492 81.268H220.812L222.696 85H221.304ZM218.088 80.68H219.66C220.252 80.68 220.684 80.536 220.956 80.248C221.236 79.952 221.376 79.576 221.376 79.12C221.376 78.656 221.24 78.288 220.968 78.016C220.696 77.744 220.256 77.608 219.648 77.608H218.088V80.68ZM226.49 85.144C225.906 85.144 225.39 85.012 224.942 84.748C224.502 84.476 224.158 84.1 223.91 83.62C223.662 83.14 223.538 82.58 223.538 81.94C223.538 81.292 223.662 80.728 223.91 80.248C224.158 79.76 224.506 79.38 224.954 79.108C225.402 78.836 225.918 78.7 226.502 78.7C227.102 78.7 227.614 78.836 228.038 79.108C228.462 79.372 228.786 79.728 229.01 80.176C229.234 80.616 229.346 81.108 229.346 81.652C229.346 81.732 229.342 81.816 229.334 81.904C229.334 81.992 229.33 82.092 229.322 82.204H224.414V81.364H228.146C228.13 80.836 227.966 80.428 227.654 80.14C227.342 79.844 226.954 79.696 226.49 79.696C226.17 79.696 225.874 79.772 225.602 79.924C225.338 80.076 225.122 80.3 224.954 80.596C224.794 80.884 224.714 81.252 224.714 81.7V82.036C224.714 82.492 224.794 82.88 224.954 83.2C225.114 83.512 225.326 83.748 225.59 83.908C225.862 84.068 226.158 84.148 226.478 84.148C226.878 84.148 227.198 84.068 227.438 83.908C227.678 83.74 227.854 83.516 227.966 83.236H229.178C229.074 83.596 228.898 83.92 228.65 84.208C228.402 84.496 228.094 84.724 227.726 84.892C227.366 85.06 226.954 85.144 226.49 85.144ZM233.059 85C232.675 85 232.343 84.94 232.063 84.82C231.783 84.7 231.567 84.5 231.415 84.22C231.263 83.94 231.187 83.56 231.187 83.08V79.864H230.131V78.844H231.187L231.343 77.284H232.387V78.844H234.115V79.864H232.387V83.092C232.387 83.436 232.459 83.672 232.603 83.8C232.747 83.92 232.995 83.98 233.347 83.98H234.079V85H233.059ZM235.557 85V78.844H236.757V85H235.557ZM236.157 77.74C235.925 77.74 235.733 77.668 235.581 77.524C235.437 77.38 235.365 77.196 235.365 76.972C235.365 76.756 235.437 76.58 235.581 76.444C235.733 76.3 235.925 76.228 236.157 76.228C236.381 76.228 236.569 76.3 236.721 76.444C236.873 76.58 236.949 76.756 236.949 76.972C236.949 77.196 236.873 77.38 236.721 77.524C236.569 77.668 236.381 77.74 236.157 77.74ZM238.484 85V78.844H239.564L239.66 79.984C239.804 79.712 239.988 79.48 240.212 79.288C240.436 79.096 240.7 78.952 241.004 78.856C241.316 78.752 241.664 78.7 242.048 78.7V79.972H241.508C241.268 79.972 241.036 80.004 240.812 80.068C240.596 80.124 240.4 80.224 240.224 80.368C240.056 80.504 239.924 80.692 239.828 80.932C239.732 81.172 239.684 81.476 239.684 81.844V85H238.484ZM245.164 85.144C244.676 85.144 244.268 85.06 243.94 84.892C243.62 84.716 243.38 84.484 243.22 84.196C243.06 83.908 242.98 83.596 242.98 83.26C242.98 82.86 243.08 82.516 243.28 82.228C243.488 81.94 243.784 81.72 244.168 81.568C244.552 81.416 245.012 81.34 245.548 81.34H247.108C247.108 80.972 247.06 80.668 246.964 80.428C246.868 80.188 246.716 80.008 246.508 79.888C246.308 79.768 246.048 79.708 245.728 79.708C245.376 79.708 245.076 79.792 244.828 79.96C244.58 80.128 244.424 80.376 244.36 80.704H243.16C243.208 80.28 243.352 79.92 243.592 79.624C243.832 79.328 244.136 79.1 244.504 78.94C244.88 78.78 245.288 78.7 245.728 78.7C246.296 78.7 246.768 78.8 247.144 79C247.528 79.2 247.816 79.484 248.008 79.852C248.208 80.212 248.308 80.644 248.308 81.148V85H247.252L247.156 83.968C247.076 84.136 246.972 84.292 246.844 84.436C246.724 84.572 246.58 84.696 246.412 84.808C246.252 84.912 246.068 84.992 245.86 85.048C245.652 85.112 245.42 85.144 245.164 85.144ZM245.392 84.172C245.64 84.172 245.868 84.12 246.076 84.016C246.284 83.904 246.46 83.76 246.604 83.584C246.756 83.4 246.872 83.196 246.952 82.972C247.032 82.74 247.076 82.496 247.084 82.24V82.18H245.668C245.324 82.18 245.048 82.224 244.84 82.312C244.632 82.4 244.48 82.52 244.384 82.672C244.288 82.816 244.24 82.984 244.24 83.176C244.24 83.376 244.284 83.552 244.372 83.704C244.46 83.848 244.592 83.964 244.768 84.052C244.944 84.132 245.152 84.172 245.392 84.172ZM252.527 85.144C251.967 85.144 251.467 85.004 251.027 84.724C250.595 84.444 250.259 84.064 250.019 83.584C249.779 83.096 249.659 82.544 249.659 81.928C249.659 81.304 249.779 80.752 250.019 80.272C250.267 79.784 250.607 79.4 251.039 79.12C251.479 78.84 251.987 78.7 252.563 78.7C253.035 78.7 253.447 78.796 253.799 78.988C254.151 79.172 254.427 79.432 254.627 79.768V76.36H255.827V85H254.759L254.639 84.052C254.511 84.244 254.351 84.424 254.159 84.592C253.975 84.752 253.747 84.884 253.475 84.988C253.203 85.092 252.887 85.144 252.527 85.144ZM252.743 84.1C253.119 84.1 253.447 84.012 253.727 83.836C254.015 83.652 254.235 83.4 254.387 83.08C254.539 82.752 254.615 82.368 254.615 81.928C254.615 81.488 254.539 81.104 254.387 80.776C254.235 80.448 254.015 80.196 253.727 80.02C253.447 79.836 253.119 79.744 252.743 79.744C252.383 79.744 252.063 79.836 251.783 80.02C251.503 80.196 251.283 80.448 251.123 80.776C250.963 81.104 250.883 81.488 250.883 81.928C250.883 82.36 250.963 82.74 251.123 83.068C251.283 83.396 251.503 83.652 251.783 83.836C252.063 84.012 252.383 84.1 252.743 84.1ZM259.472 85.144C258.984 85.144 258.576 85.06 258.248 84.892C257.928 84.716 257.688 84.484 257.528 84.196C257.368 83.908 257.288 83.596 257.288 83.26C257.288 82.86 257.388 82.516 257.588 82.228C257.796 81.94 258.092 81.72 258.476 81.568C258.86 81.416 259.32 81.34 259.856 81.34H261.416C261.416 80.972 261.368 80.668 261.272 80.428C261.176 80.188 261.024 80.008 260.816 79.888C260.616 79.768 260.356 79.708 260.036 79.708C259.684 79.708 259.384 79.792 259.136 79.96C258.888 80.128 258.732 80.376 258.668 80.704H257.468C257.516 80.28 257.66 79.92 257.9 79.624C258.14 79.328 258.444 79.1 258.812 78.94C259.188 78.78 259.596 78.7 260.036 78.7C260.604 78.7 261.076 78.8 261.452 79C261.836 79.2 262.124 79.484 262.316 79.852C262.516 80.212 262.616 80.644 262.616 81.148V85H261.56L261.464 83.968C261.384 84.136 261.28 84.292 261.152 84.436C261.032 84.572 260.888 84.696 260.72 84.808C260.56 84.912 260.376 84.992 260.168 85.048C259.96 85.112 259.728 85.144 259.472 85.144ZM259.7 84.172C259.948 84.172 260.176 84.12 260.384 84.016C260.592 83.904 260.768 83.76 260.912 83.584C261.064 83.4 261.18 83.196 261.26 82.972C261.34 82.74 261.384 82.496 261.392 82.24V82.18H259.976C259.632 82.18 259.356 82.224 259.148 82.312C258.94 82.4 258.788 82.52 258.692 82.672C258.596 82.816 258.548 82.984 258.548 83.176C258.548 83.376 258.592 83.552 258.68 83.704C258.768 83.848 258.9 83.964 259.076 84.052C259.252 84.132 259.46 84.172 259.7 84.172Z" fill="white" fill-opacity="0.2"/>
<g clip-path="url(#clip2_744_8900)">
<rect x="270.25" y="75" width="13.5" height="9" rx="1" stroke="#4B465C" stroke-width="1.5" stroke-linecap="round" stroke-linejoin="round"/>
<rect x="270.25" y="75" width="13.5" height="9" rx="1" stroke="white" stroke-opacity="0.2" stroke-width="1.5" stroke-linecap="round" stroke-linejoin="round"/>
<path d="M273.25 87H280.75" stroke="#4B465C" stroke-width="1.5" stroke-linecap="round" stroke-linejoin="round"/>
<path d="M273.25 87H280.75" stroke="white" stroke-opacity="0.2" stroke-width="1.5" stroke-linecap="round" stroke-linejoin="round"/>
<path d="M274.75 84V87" stroke="#4B465C" stroke-width="1.5" stroke-linecap="round" stroke-linejoin="round"/>
<path d="M274.75 84V87" stroke="white" stroke-opacity="0.2" stroke-width="1.5" stroke-linecap="round" stroke-linejoin="round"/>
<path d="M279.25 84V87" stroke="#4B465C" stroke-width="1.5" stroke-linecap="round" stroke-linejoin="round"/>
<path d="M279.25 84V87" stroke="white" stroke-opacity="0.2" stroke-width="1.5" stroke-linecap="round" stroke-linejoin="round"/>
</g>
<path d="M290.825 85V77.3H293.432C294.048 77.3 294.554 77.4027 294.95 77.608C295.353 77.8133 295.65 78.092 295.841 78.444C296.039 78.796 296.138 79.1957 296.138 79.643C296.138 80.0757 296.043 80.468 295.852 80.82C295.661 81.172 295.364 81.4543 294.961 81.667C294.565 81.8797 294.055 81.986 293.432 81.986H291.925V85H290.825ZM291.925 81.073H293.388C293.982 81.073 294.4 80.9447 294.642 80.688C294.891 80.424 295.016 80.0757 295.016 79.643C295.016 79.1957 294.891 78.8473 294.642 78.598C294.4 78.3413 293.982 78.213 293.388 78.213H291.925V81.073ZM297.356 85V77.3H299.545C300.44 77.3 301.177 77.4577 301.756 77.773C302.343 78.0883 302.776 78.5357 303.054 79.115C303.34 79.687 303.483 80.369 303.483 81.161C303.483 81.953 303.34 82.635 303.054 83.207C302.776 83.779 302.343 84.2227 301.756 84.538C301.177 84.846 300.44 85 299.545 85H297.356ZM298.456 84.076H299.512C300.216 84.076 300.774 83.9587 301.184 83.724C301.602 83.4893 301.899 83.1557 302.075 82.723C302.259 82.283 302.35 81.7623 302.35 81.161C302.35 80.5523 302.259 80.028 302.075 79.588C301.899 79.148 301.602 78.8107 301.184 78.576C300.774 78.3413 300.216 78.224 299.512 78.224H298.456V84.076ZM306.809 85L303.949 77.3H305.126L307.469 83.856L309.823 77.3H310.989L308.118 85H306.809Z" fill="#4B465C"/>
<path d="M290.825 85V77.3H293.432C294.048 77.3 294.554 77.4027 294.95 77.608C295.353 77.8133 295.65 78.092 295.841 78.444C296.039 78.796 296.138 79.1957 296.138 79.643C296.138 80.0757 296.043 80.468 295.852 80.82C295.661 81.172 295.364 81.4543 294.961 81.667C294.565 81.8797 294.055 81.986 293.432 81.986H291.925V85H290.825ZM291.925 81.073H293.388C293.982 81.073 294.4 80.9447 294.642 80.688C294.891 80.424 295.016 80.0757 295.016 79.643C295.016 79.1957 294.891 78.8473 294.642 78.598C294.4 78.3413 293.982 78.213 293.388 78.213H291.925V81.073ZM297.356 85V77.3H299.545C300.44 77.3 301.177 77.4577 301.756 77.773C302.343 78.0883 302.776 78.5357 303.054 79.115C303.34 79.687 303.483 80.369 303.483 81.161C303.483 81.953 303.34 82.635 303.054 83.207C302.776 83.779 302.343 84.2227 301.756 84.538C301.177 84.846 300.44 85 299.545 85H297.356ZM298.456 84.076H299.512C300.216 84.076 300.774 83.9587 301.184 83.724C301.602 83.4893 301.899 83.1557 302.075 82.723C302.259 82.283 302.35 81.7623 302.35 81.161C302.35 80.5523 302.259 80.028 302.075 79.588C301.899 79.148 301.602 78.8107 301.184 78.576C300.774 78.3413 300.216 78.224 299.512 78.224H298.456V84.076ZM306.809 85L303.949 77.3H305.126L307.469 83.856L309.823 77.3H310.989L308.118 85H306.809Z" fill="white" fill-opacity="0.2"/>
<g clip-path="url(#clip3_744_8900)">
<path d="M225 160C240.464 160 253 147.464 253 132C253 116.536 240.464 104 225 104C209.536 104 197 116.536 197 132C197 147.464 209.536 160 225 160Z" fill="#FF9F43"/>
<path d="M225 160C240.464 160 253 147.464 253 132C253 116.536 240.464 104 225 104C209.536 104 197 116.536 197 132C197 147.464 209.536 160 225 160Z" fill="white" fill-opacity="0.8"/>
<path d="M252.65 132C252.65 147.271 240.271 159.65 225 159.65C209.729 159.65 197.35 147.271 197.35 132C197.35 116.729 209.729 104.35 225 104.35C240.271 104.35 252.65 116.729 252.65 132Z" stroke="#FF9F43"/>
<path d="M252.65 132C252.65 147.271 240.271 159.65 225 159.65C209.729 159.65 197.35 147.271 197.35 132C197.35 116.729 209.729 104.35 225 104.35C240.271 104.35 252.65 116.729 252.65 132Z" stroke="white" stroke-opacity="0.4"/>
<g clip-path="url(#clip4_744_8900)">
<path d="M220 138.75C220 139.164 220.336 139.5 220.75 139.5C221.164 139.5 221.5 139.164 221.5 138.75H220ZM231.25 138.75L230.834 139.374C231.064 139.527 231.36 139.542 231.604 139.411C231.848 139.281 232 139.027 232 138.75H231.25ZM229 137.25L229.416 136.626C229.119 136.428 228.722 136.467 228.47 136.72L229 137.25ZM227.5 138.75L226.97 139.28C227.263 139.573 227.737 139.573 228.03 139.28L227.5 138.75ZM226 137.25L226.53 136.72C226.237 136.427 225.763 136.427 225.47 136.72L226 137.25ZM224.5 138.75L223.97 139.28C224.263 139.573 224.737 139.573 225.03 139.28L224.5 138.75ZM223 137.25L223.53 136.72C223.278 136.467 222.881 136.428 222.584 136.626L223 137.25ZM220.334 138.126C219.989 138.356 219.896 138.821 220.126 139.166C220.356 139.511 220.821 139.604 221.166 139.374L220.334 138.126ZM223.75 127.5C223.336 127.5 223 127.836 223 128.25C223 128.664 223.336 129 223.75 129V127.5ZM228.25 129C228.664 129 229 128.664 229 128.25C229 127.836 228.664 127.5 228.25 127.5V129ZM223.75 130.5C223.336 130.5 223 130.836 223 131.25C223 131.664 223.336 132 223.75 132V130.5ZM228.25 132C228.664 132 229 131.664 229 131.25C229 130.836 228.664 130.5 228.25 130.5V132ZM226.75 133.5C226.336 133.5 226 133.836 226 134.25C226 134.664 226.336 135 226.75 135V133.5ZM228.25 135C228.664 135 229 134.664 229 134.25C229 133.836 228.664 133.5 228.25 133.5V135ZM220.75 138.75H221.5V126.75H220.75H220V138.75H220.75ZM220.75 126.75H221.5C221.5 126.336 221.836 126 222.25 126V125.25V124.5C221.007 124.5 220 125.507 220 126.75H220.75ZM222.25 125.25V126H229.75V125.25V124.5H222.25V125.25ZM229.75 125.25V126C230.164 126 230.5 126.336 230.5 126.75H231.25H232C232 125.507 230.993 124.5 229.75 124.5V125.25ZM231.25 126.75H230.5V138.75H231.25H232V126.75H231.25ZM231.25 138.75L231.666 138.126L229.416 136.626L229 137.25L228.584 137.874L230.834 139.374L231.25 138.75ZM229 137.25L228.47 136.72L226.97 138.22L227.5 138.75L228.03 139.28L229.53 137.78L229 137.25ZM227.5 138.75L228.03 138.22L226.53 136.72L226 137.25L225.47 137.78L226.97 139.28L227.5 138.75ZM226 137.25L225.47 136.72L223.97 138.22L224.5 138.75L225.03 139.28L226.53 137.78L226 137.25ZM224.5 138.75L225.03 138.22L223.53 136.72L223 137.25L222.47 137.78L223.97 139.28L224.5 138.75ZM223 137.25L222.584 136.626L220.334 138.126L220.75 138.75L221.166 139.374L223.416 137.874L223 137.25ZM223.75 128.25V129H228.25V128.25V127.5H223.75V128.25ZM223.75 131.25V132H228.25V131.25V130.5H223.75V131.25ZM226.75 134.25V135H228.25V134.25V133.5H226.75V134.25Z" fill="#1F2233"/>
</g>
</g>
<path d="M196.89 189V175.92L194.082 176.568V174.048L198.258 172.2H200.226V189H196.89ZM210.632 189.288C209.064 189.288 207.72 188.92 206.6 188.184C205.496 187.448 204.64 186.432 204.032 185.136C203.44 183.824 203.144 182.312 203.144 180.6C203.144 178.888 203.44 177.384 204.032 176.088C204.64 174.776 205.496 173.752 206.6 173.016C207.72 172.28 209.064 171.912 210.632 171.912C212.184 171.912 213.512 172.28 214.616 173.016C215.736 173.752 216.592 174.776 217.184 176.088C217.792 177.384 218.096 178.888 218.096 180.6C218.096 182.312 217.792 183.824 217.184 185.136C216.592 186.432 215.736 187.448 214.616 188.184C213.512 188.92 212.184 189.288 210.632 189.288ZM210.608 186.384C211.44 186.384 212.168 186.152 212.792 185.688C213.416 185.208 213.904 184.536 214.256 183.672C214.608 182.808 214.784 181.784 214.784 180.6C214.784 179.4 214.608 178.376 214.256 177.528C213.904 176.664 213.416 176 212.792 175.536C212.168 175.072 211.44 174.84 210.608 174.84C209.792 174.84 209.064 175.072 208.424 175.536C207.8 176 207.312 176.664 206.96 177.528C206.608 178.376 206.432 179.4 206.432 180.6C206.432 181.784 206.608 182.808 206.96 183.672C207.312 184.536 207.8 185.208 208.424 185.688C209.064 186.152 209.792 186.384 210.608 186.384ZM227.957 189.288C226.389 189.288 225.045 188.92 223.925 188.184C222.821 187.448 221.965 186.432 221.357 185.136C220.765 183.824 220.469 182.312 220.469 180.6C220.469 178.888 220.765 177.384 221.357 176.088C221.965 174.776 222.821 173.752 223.925 173.016C225.045 172.28 226.389 171.912 227.957 171.912C229.509 171.912 230.837 172.28 231.941 173.016C233.061 173.752 233.917 174.776 234.509 176.088C235.117 177.384 235.421 178.888 235.421 180.6C235.421 182.312 235.117 183.824 234.509 185.136C233.917 186.432 233.061 187.448 231.941 188.184C230.837 188.92 229.509 189.288 227.957 189.288ZM227.933 186.384C228.765 186.384 229.493 186.152 230.117 185.688C230.741 185.208 231.229 184.536 231.581 183.672C231.933 182.808 232.109 181.784 232.109 180.6C232.109 179.4 231.933 178.376 231.581 177.528C231.229 176.664 230.741 176 230.117 175.536C229.493 175.072 228.765 174.84 227.933 174.84C227.117 174.84 226.389 175.072 225.749 175.536C225.125 176 224.637 176.664 224.285 177.528C223.933 178.376 223.757 179.4 223.757 180.6C223.757 181.784 223.933 182.808 224.285 183.672C224.637 184.536 225.125 185.208 225.749 185.688C226.389 186.152 227.117 186.384 227.933 186.384ZM245.283 189.288C243.715 189.288 242.371 188.92 241.251 188.184C240.147 187.448 239.291 186.432 238.683 185.136C238.091 183.824 237.795 182.312 237.795 180.6C237.795 178.888 238.091 177.384 238.683 176.088C239.291 174.776 240.147 173.752 241.251 173.016C242.371 172.28 243.715 171.912 245.283 171.912C246.835 171.912 248.163 172.28 249.267 173.016C250.387 173.752 251.243 174.776 251.835 176.088C252.443 177.384 252.747 178.888 252.747 180.6C252.747 182.312 252.443 183.824 251.835 185.136C251.243 186.432 250.387 187.448 249.267 188.184C248.163 188.92 246.835 189.288 245.283 189.288ZM245.259 186.384C246.091 186.384 246.819 186.152 247.443 185.688C248.067 185.208 248.555 184.536 248.907 183.672C249.259 182.808 249.435 181.784 249.435 180.6C249.435 179.4 249.259 178.376 248.907 177.528C248.555 176.664 248.067 176 247.443 175.536C246.819 175.072 246.091 174.84 245.259 174.84C244.443 174.84 243.715 175.072 243.075 175.536C242.451 176 241.963 176.664 241.611 177.528C241.259 178.376 241.083 179.4 241.083 180.6C241.083 181.784 241.259 182.808 241.611 183.672C241.963 184.536 242.451 185.208 243.075 185.688C243.715 186.152 244.443 186.384 245.259 186.384ZM257.52 189V175.92L254.712 176.568V174.048L258.888 172.2H260.856V189H257.52ZM163.609 217V205.8H164.953L170.921 214.776V205.8H172.265V217H170.921L164.953 208.024V217H163.609ZM178.415 217.192C177.669 217.192 176.997 217.021 176.399 216.68C175.802 216.328 175.327 215.837 174.975 215.208C174.634 214.579 174.463 213.837 174.463 212.984C174.463 212.131 174.639 211.389 174.991 210.76C175.343 210.131 175.818 209.645 176.415 209.304C177.023 208.952 177.701 208.776 178.447 208.776C179.205 208.776 179.882 208.952 180.479 209.304C181.077 209.645 181.546 210.131 181.887 210.76C182.229 211.389 182.399 212.131 182.399 212.984C182.399 213.837 182.223 214.579 181.871 215.208C181.53 215.837 181.055 216.328 180.447 216.68C179.85 217.021 179.173 217.192 178.415 217.192ZM178.415 216.04C178.885 216.04 179.317 215.928 179.711 215.704C180.106 215.469 180.421 215.128 180.655 214.68C180.901 214.221 181.023 213.656 181.023 212.984C181.023 212.301 180.906 211.736 180.671 211.288C180.437 210.84 180.122 210.504 179.727 210.28C179.333 210.045 178.906 209.928 178.447 209.928C177.999 209.928 177.573 210.045 177.167 210.28C176.773 210.504 176.453 210.84 176.207 211.288C175.962 211.736 175.839 212.301 175.839 212.984C175.839 213.656 175.962 214.221 176.207 214.68C176.453 215.128 176.767 215.469 177.151 215.704C177.546 215.928 177.967 216.04 178.415 216.04ZM184.523 217V208.968H185.739L185.835 210.12C186.091 209.693 186.433 209.363 186.859 209.128C187.286 208.893 187.761 208.776 188.283 208.776C188.699 208.776 189.078 208.835 189.419 208.952C189.761 209.059 190.059 209.229 190.315 209.464C190.571 209.688 190.779 209.976 190.939 210.328C191.217 209.837 191.595 209.459 192.075 209.192C192.566 208.915 193.089 208.776 193.643 208.776C194.262 208.776 194.801 208.904 195.259 209.16C195.729 209.405 196.091 209.784 196.347 210.296C196.603 210.797 196.731 211.437 196.731 212.216V217H195.403V212.36C195.403 211.549 195.238 210.941 194.907 210.536C194.577 210.131 194.107 209.928 193.499 209.928C193.083 209.928 192.705 210.04 192.363 210.264C192.033 210.477 191.771 210.792 191.579 211.208C191.398 211.624 191.307 212.136 191.307 212.744V217H189.963V212.36C189.963 211.549 189.798 210.941 189.467 210.536C189.137 210.131 188.667 209.928 188.059 209.928C187.654 209.928 187.281 210.04 186.939 210.264C186.609 210.477 186.347 210.792 186.155 211.208C185.963 211.624 185.867 212.136 185.867 212.744V217H184.523ZM202.58 217.192C201.834 217.192 201.167 217.016 200.58 216.664C199.994 216.312 199.53 215.821 199.188 215.192C198.858 214.563 198.692 213.827 198.692 212.984C198.692 212.131 198.858 211.395 199.188 210.776C199.519 210.147 199.978 209.656 200.564 209.304C201.162 208.952 201.844 208.776 202.612 208.776C203.402 208.776 204.074 208.952 204.628 209.304C205.183 209.656 205.604 210.115 205.892 210.68C206.191 211.245 206.34 211.869 206.34 212.552C206.34 212.659 206.34 212.771 206.34 212.888C206.34 213.005 206.335 213.139 206.324 213.288H199.7V212.248H205.012C204.98 211.512 204.735 210.941 204.276 210.536C203.828 210.12 203.263 209.912 202.58 209.912C202.132 209.912 201.711 210.019 201.316 210.232C200.922 210.435 200.602 210.733 200.356 211.128C200.122 211.523 200.004 212.019 200.004 212.616V213.064C200.004 213.725 200.127 214.28 200.372 214.728C200.618 215.165 200.932 215.496 201.316 215.72C201.711 215.944 202.132 216.056 202.58 216.056C203.146 216.056 203.61 215.933 203.972 215.688C204.346 215.432 204.618 215.085 204.788 214.648H206.116C205.978 215.139 205.748 215.576 205.428 215.96C205.108 216.333 204.708 216.632 204.228 216.856C203.759 217.08 203.21 217.192 202.58 217.192ZM216.435 217.192C215.657 217.192 214.969 217.011 214.371 216.648C213.785 216.275 213.326 215.773 212.995 215.144C212.675 214.504 212.515 213.779 212.515 212.968C212.515 212.157 212.675 211.437 212.995 210.808C213.326 210.179 213.785 209.683 214.371 209.32C214.969 208.957 215.662 208.776 216.451 208.776C217.102 208.776 217.678 208.909 218.179 209.176C218.681 209.443 219.065 209.816 219.331 210.296V205.48H220.675V217H219.459L219.331 215.688C219.161 215.944 218.942 216.189 218.675 216.424C218.419 216.648 218.105 216.835 217.731 216.984C217.358 217.123 216.926 217.192 216.435 217.192ZM216.579 216.024C217.113 216.024 217.582 215.901 217.987 215.656C218.403 215.4 218.723 215.043 218.947 214.584C219.171 214.125 219.283 213.592 219.283 212.984C219.283 212.376 219.171 211.843 218.947 211.384C218.723 210.925 218.403 210.573 217.987 210.328C217.582 210.072 217.113 209.944 216.579 209.944C216.067 209.944 215.603 210.072 215.187 210.328C214.782 210.573 214.462 210.925 214.227 211.384C214.003 211.843 213.891 212.376 213.891 212.984C213.891 213.592 214.003 214.125 214.227 214.584C214.462 215.043 214.782 215.4 215.187 215.656C215.603 215.901 216.067 216.024 216.579 216.024ZM226.738 217.192C225.992 217.192 225.32 217.021 224.722 216.68C224.125 216.328 223.65 215.837 223.298 215.208C222.957 214.579 222.786 213.837 222.786 212.984C222.786 212.131 222.962 211.389 223.314 210.76C223.666 210.131 224.141 209.645 224.738 209.304C225.346 208.952 226.024 208.776 226.77 208.776C227.528 208.776 228.205 208.952 228.802 209.304C229.4 209.645 229.869 210.131 230.21 210.76C230.552 211.389 230.722 212.131 230.722 212.984C230.722 213.837 230.546 214.579 230.194 215.208C229.853 215.837 229.378 216.328 228.77 216.68C228.173 217.021 227.496 217.192 226.738 217.192ZM226.738 216.04C227.208 216.04 227.64 215.928 228.034 215.704C228.429 215.469 228.744 215.128 228.978 214.68C229.224 214.221 229.346 213.656 229.346 212.984C229.346 212.301 229.229 211.736 228.994 211.288C228.76 210.84 228.445 210.504 228.05 210.28C227.656 210.045 227.229 209.928 226.77 209.928C226.322 209.928 225.896 210.045 225.49 210.28C225.096 210.504 224.776 210.84 224.53 211.288C224.285 211.736 224.162 212.301 224.162 212.984C224.162 213.656 224.285 214.221 224.53 214.68C224.776 215.128 225.09 215.469 225.474 215.704C225.869 215.928 226.29 216.04 226.738 216.04ZM240.984 217.192C240.226 217.192 239.544 217.016 238.936 216.664C238.338 216.312 237.864 215.821 237.512 215.192C237.17 214.563 237 213.827 237 212.984C237 212.141 237.17 211.405 237.512 210.776C237.864 210.147 238.338 209.656 238.936 209.304C239.544 208.952 240.226 208.776 240.984 208.776C241.944 208.776 242.744 209.027 243.384 209.528C244.024 210.019 244.429 210.68 244.6 211.512H243.224C243.117 211.011 242.856 210.621 242.44 210.344C242.024 210.067 241.533 209.928 240.968 209.928C240.509 209.928 240.082 210.045 239.688 210.28C239.304 210.504 238.989 210.845 238.744 211.304C238.498 211.752 238.376 212.312 238.376 212.984C238.376 213.485 238.445 213.928 238.584 214.312C238.733 214.696 238.925 215.021 239.16 215.288C239.394 215.544 239.666 215.736 239.976 215.864C240.296 215.992 240.626 216.056 240.968 216.056C241.352 216.056 241.698 215.997 242.008 215.88C242.317 215.752 242.578 215.571 242.792 215.336C243.005 215.091 243.149 214.797 243.224 214.456H244.6C244.429 215.277 244.018 215.939 243.368 216.44C242.728 216.941 241.933 217.192 240.984 217.192ZM246.716 217V205.48H248.06V217H246.716ZM250.662 217V208.968H252.006V217H250.662ZM251.334 207.24C251.067 207.24 250.843 207.155 250.662 206.984C250.491 206.803 250.406 206.579 250.406 206.312C250.406 206.045 250.491 205.832 250.662 205.672C250.843 205.501 251.067 205.416 251.334 205.416C251.59 205.416 251.809 205.501 251.99 205.672C252.171 205.832 252.262 206.045 252.262 206.312C252.262 206.579 252.171 206.803 251.99 206.984C251.809 207.155 251.59 207.24 251.334 207.24ZM258.138 217.192C257.391 217.192 256.724 217.016 256.138 216.664C255.551 216.312 255.087 215.821 254.746 215.192C254.415 214.563 254.25 213.827 254.25 212.984C254.25 212.131 254.415 211.395 254.746 210.776C255.076 210.147 255.535 209.656 256.122 209.304C256.719 208.952 257.402 208.776 258.17 208.776C258.959 208.776 259.631 208.952 260.186 209.304C260.74 209.656 261.162 210.115 261.45 210.68C261.748 211.245 261.898 211.869 261.898 212.552C261.898 212.659 261.898 212.771 261.898 212.888C261.898 213.005 261.892 213.139 261.882 213.288H255.258V212.248H260.57C260.538 211.512 260.292 210.941 259.834 210.536C259.386 210.12 258.82 209.912 258.138 209.912C257.69 209.912 257.268 210.019 256.874 210.232C256.479 210.435 256.159 210.733 255.914 211.128C255.679 211.523 255.562 212.019 255.562 212.616V213.064C255.562 213.725 255.684 214.28 255.93 214.728C256.175 215.165 256.49 215.496 256.874 215.72C257.268 215.944 257.69 216.056 258.138 216.056C258.703 216.056 259.167 215.933 259.53 215.688C259.903 215.432 260.175 215.085 260.346 214.648H261.674C261.535 215.139 261.306 215.576 260.986 215.96C260.666 216.333 260.266 216.632 259.786 216.856C259.316 217.08 258.767 217.192 258.138 217.192ZM263.919 217V208.968H265.135L265.215 210.376C265.471 209.875 265.834 209.485 266.303 209.208C266.783 208.92 267.327 208.776 267.935 208.776C268.564 208.776 269.108 208.899 269.567 209.144C270.026 209.389 270.383 209.768 270.639 210.28C270.895 210.792 271.023 211.437 271.023 212.216V217H269.679V212.36C269.679 211.549 269.503 210.941 269.151 210.536C268.799 210.131 268.292 209.928 267.631 209.928C267.183 209.928 266.778 210.04 266.415 210.264C266.063 210.477 265.78 210.792 265.567 211.208C265.364 211.624 265.263 212.131 265.263 212.728V217H263.919ZM276.499 217C276.019 217 275.603 216.925 275.251 216.776C274.899 216.627 274.627 216.376 274.435 216.024C274.253 215.661 274.163 215.176 274.163 214.568V210.104H272.771V208.968H274.163L274.339 207.032H275.507V208.968H277.859V210.104H275.507V214.568C275.507 215.069 275.608 215.411 275.811 215.592C276.013 215.763 276.371 215.848 276.883 215.848H277.747V217H276.499ZM283.153 217.192C282.407 217.192 281.74 217.016 281.153 216.664C280.567 216.312 280.103 215.821 279.761 215.192C279.431 214.563 279.265 213.827 279.265 212.984C279.265 212.131 279.431 211.395 279.761 210.776C280.092 210.147 280.551 209.656 281.137 209.304C281.735 208.952 282.417 208.776 283.185 208.776C283.975 208.776 284.647 208.952 285.201 209.304C285.756 209.656 286.177 210.115 286.465 210.68C286.764 211.245 286.913 211.869 286.913 212.552C286.913 212.659 286.913 212.771 286.913 212.888C286.913 213.005 286.908 213.139 286.897 213.288H280.273V212.248H285.585C285.553 211.512 285.308 210.941 284.849 210.536C284.401 210.12 283.836 209.912 283.153 209.912C282.705 209.912 282.284 210.019 281.889 210.232C281.495 210.435 281.175 210.733 280.929 211.128C280.695 211.523 280.577 212.019 280.577 212.616V213.064C280.577 213.725 280.7 214.28 280.945 214.728C281.191 215.165 281.505 215.496 281.889 215.72C282.284 215.944 282.705 216.056 283.153 216.056C283.719 216.056 284.183 215.933 284.545 215.688C284.919 215.432 285.191 215.085 285.361 214.648H286.689C286.551 215.139 286.321 215.576 286.001 215.96C285.681 216.333 285.281 216.632 284.801 216.856C284.332 217.08 283.783 217.192 283.153 217.192Z" fill="#131313"/>
<defs>
<clipPath id="clip0_744_8900">
<rect width="18" height="18" fill="white" transform="translate(138 72)"/>
</clipPath>
<clipPath id="clip1_744_8900">
<rect width="18" height="18" fill="white" transform="translate(194 72)"/>
</clipPath>
<clipPath id="clip2_744_8900">
<rect width="18" height="18" fill="white" transform="translate(268 72)"/>
</clipPath>
<clipPath id="clip3_744_8900">
<rect width="56" height="56" fill="white" transform="translate(197 104)"/>
</clipPath>
<clipPath id="clip4_744_8900">
<rect width="18" height="18" fill="white" transform="translate(217 123)"/>
</clipPath>
</defs>
</svg>
