<svg width="450" height="286" viewBox="0 0 450 286" fill="none" xmlns="http://www.w3.org/2000/svg">
<rect x="234.5" y="71.5" width="127" height="143" rx="18.6667" fill="white"/>
<rect x="234.5" y="71.5" width="127" height="143" rx="18.6667" stroke="#DBDADE"/>
<g clip-path="url(#clip0_743_8806)">
<path d="M298 147C313.464 147 326 134.464 326 119C326 103.536 313.464 91 298 91C282.536 91 270 103.536 270 119C270 134.464 282.536 147 298 147Z" fill="#DE3C4B" fill-opacity="0.08"/>
<path d="M325.65 119C325.65 134.271 313.271 146.65 298 146.65C282.729 146.65 270.35 134.271 270.35 119C270.35 103.729 282.729 91.3501 298 91.3501C313.271 91.3501 325.65 103.729 325.65 119Z" stroke="#DE3C4B" stroke-opacity="0.16"/>
<path d="M311.993 127.248L310.717 121.875L311.993 114.303C312.038 114.014 311.844 113.742 311.556 113.691H311.473C311.216 113.693 310.996 113.876 310.948 114.128L309.733 121.307C309.725 121.348 309.688 121.378 309.646 121.377H305.13L303.818 127.252C303.786 127.39 303.811 127.535 303.888 127.655C303.961 127.776 304.081 127.861 304.22 127.891C304.258 127.895 304.296 127.895 304.334 127.891C304.436 127.89 304.536 127.861 304.622 127.808C304.741 127.732 304.824 127.613 304.854 127.475L305.96 122.513C305.97 122.473 306.006 122.444 306.048 122.444H309.68C309.72 122.442 309.756 122.467 309.768 122.505L310.944 127.493C311.003 127.731 311.215 127.899 311.46 127.904C311.637 127.892 311.799 127.799 311.897 127.65C311.982 127.535 312.016 127.39 311.993 127.248Z" fill="#DE3C4B"/>
<path d="M304.871 120.043C304.821 120.109 304.806 120.196 304.832 120.275L305.125 121.206H309.576L309.807 119.837L305.16 119.903C305.047 119.898 304.938 119.95 304.871 120.043Z" fill="#DE3C4B"/>
<path d="M290.878 121.376H286.362C286.319 121.377 286.283 121.348 286.274 121.306L286.016 119.781V119.737L285.067 114.132C285.021 113.878 284.798 113.693 284.538 113.695H284.455C284.166 113.744 283.971 114.018 284.018 114.307L285.29 121.853V121.897L284.014 127.248C283.982 127.385 284.006 127.53 284.079 127.65C284.152 127.77 284.27 127.855 284.407 127.886C284.693 127.949 284.977 127.775 285.05 127.492L286.243 122.504C286.252 122.466 286.287 122.44 286.327 122.443H289.959C289.999 122.442 290.034 122.469 290.043 122.509L291.175 127.484C291.204 127.623 291.287 127.744 291.407 127.82C291.493 127.874 291.593 127.903 291.695 127.903C291.733 127.908 291.771 127.908 291.809 127.903C291.947 127.874 292.068 127.789 292.141 127.667C292.218 127.548 292.243 127.403 292.211 127.265L290.878 121.376Z" fill="#DE3C4B"/>
<path d="M290.882 121.206L291.175 120.279C291.201 120.197 291.184 120.107 291.131 120.038C291.067 119.95 290.964 119.9 290.855 119.903L286.199 119.837L286.427 121.206H290.882Z" fill="#DE3C4B"/>
<path d="M297.134 117.538H298.878V126.448H297.134V117.538Z" fill="#DE3C4B"/>
<path d="M300.434 126.619H295.573C295.267 126.62 294.974 126.741 294.758 126.956C294.541 127.171 294.417 127.463 294.414 127.768V127.904L301.592 127.904V127.768C301.589 127.463 301.466 127.171 301.249 126.956C301.032 126.741 300.739 126.62 300.434 126.619Z" fill="#DE3C4B"/>
<path d="M299.04 115.68L299.083 115.645L300.989 113.988H295.026L298.038 116.545L299.04 115.68Z" fill="#DE3C4B"/>
<path d="M301.238 113.997L299.354 115.64H305.794L305.798 113.992L305.151 113.988L301.238 113.997Z" fill="#DE3C4B"/>
<path d="M298.104 116.725C298.085 116.74 298.062 116.747 298.038 116.747C298.018 116.745 297.998 116.737 297.982 116.725L296.893 115.815H293.028V117.105C293.031 117.246 293.145 117.361 293.286 117.363H302.716C302.785 117.364 302.852 117.338 302.901 117.289C302.951 117.241 302.979 117.174 302.979 117.105V115.815H299.14L298.104 116.725Z" fill="#DE3C4B"/>
<path d="M294.742 113.988H290.213L290.209 115.637L296.705 115.641L294.742 113.988Z" fill="#DE3C4B"/>
<path d="M301.029 113.813H305.121C305.269 113.801 305.404 113.723 305.488 113.599C305.54 113.531 305.578 113.454 305.602 113.372L305.72 113.018H300.417L300.53 113.367C300.588 113.605 300.786 113.782 301.029 113.813Z" fill="#DE3C4B"/>
<path d="M305.234 112.528C305.149 111.813 304.718 111.186 304.081 110.851C303.444 110.516 302.683 110.516 302.046 110.851C301.41 111.186 300.978 111.813 300.893 112.528L300.867 112.821H305.265L305.234 112.528Z" fill="#DE3C4B"/>
<path d="M292.342 112.804V113.385H292.097C292.034 113.385 291.983 113.436 291.983 113.499V113.814L293.195 113.813V113.499C293.195 113.436 293.144 113.385 293.081 113.385H292.836L292.836 112.808C293.18 112.731 293.471 112.505 293.632 112.192C293.742 111.97 293.782 111.72 293.745 111.474L293.688 110.924C293.673 110.803 293.57 110.713 293.448 110.714H291.721C291.6 110.713 291.496 110.803 291.481 110.924L291.406 111.496C291.37 111.741 291.41 111.992 291.52 112.213C291.693 112.522 291.994 112.738 292.342 112.804Z" fill="#DE3C4B"/>
</g>
<path d="M293.068 179.288C291.5 179.288 290.156 178.92 289.036 178.184C287.932 177.448 287.076 176.432 286.468 175.136C285.876 173.824 285.58 172.312 285.58 170.6C285.58 168.888 285.876 167.384 286.468 166.088C287.076 164.776 287.932 163.752 289.036 163.016C290.156 162.28 291.5 161.912 293.068 161.912C294.62 161.912 295.948 162.28 297.052 163.016C298.172 163.752 299.028 164.776 299.62 166.088C300.228 167.384 300.532 168.888 300.532 170.6C300.532 172.312 300.228 173.824 299.62 175.136C299.028 176.432 298.172 177.448 297.052 178.184C295.948 178.92 294.62 179.288 293.068 179.288ZM293.044 176.384C293.876 176.384 294.604 176.152 295.228 175.688C295.852 175.208 296.34 174.536 296.692 173.672C297.044 172.808 297.22 171.784 297.22 170.6C297.22 169.4 297.044 168.376 296.692 167.528C296.34 166.664 295.852 166 295.228 165.536C294.604 165.072 293.876 164.84 293.044 164.84C292.228 164.84 291.5 165.072 290.86 165.536C290.236 166 289.748 166.664 289.396 167.528C289.044 168.376 288.868 169.4 288.868 170.6C288.868 171.784 289.044 172.808 289.396 173.672C289.748 174.536 290.236 175.208 290.86 175.688C291.5 176.152 292.228 176.384 293.044 176.384ZM311.114 179V175.952H302.882V173.384L310.706 162.2H314.354V173.144H316.538V175.952H314.354V179H311.114ZM306.338 173.144H311.33V165.776L306.338 173.144ZM264.929 198.192C263.83 198.192 262.865 197.947 262.033 197.456C261.201 196.965 260.545 196.288 260.065 195.424C259.595 194.549 259.361 193.541 259.361 192.4C259.361 191.259 259.595 190.256 260.065 189.392C260.545 188.517 261.201 187.835 262.033 187.344C262.865 186.853 263.83 186.608 264.929 186.608C266.027 186.608 266.993 186.853 267.825 187.344C268.667 187.835 269.318 188.517 269.777 189.392C270.246 190.256 270.481 191.259 270.481 192.4C270.481 193.541 270.246 194.549 269.777 195.424C269.318 196.288 268.667 196.965 267.825 197.456C266.993 197.947 266.027 198.192 264.929 198.192ZM264.929 196.256C265.611 196.256 266.203 196.101 266.705 195.792C267.206 195.472 267.59 195.024 267.857 194.448C268.134 193.872 268.273 193.189 268.273 192.4C268.273 191.6 268.134 190.917 267.857 190.352C267.59 189.776 267.206 189.333 266.705 189.024C266.203 188.715 265.611 188.56 264.929 188.56C264.246 188.56 263.654 188.715 263.153 189.024C262.651 189.333 262.262 189.776 261.985 190.352C261.707 190.917 261.569 191.6 261.569 192.4C261.569 193.189 261.707 193.872 261.985 194.448C262.262 195.024 262.651 195.472 263.153 195.792C263.654 196.101 264.246 196.256 264.929 196.256ZM277.571 198.192C276.461 198.192 275.501 197.952 274.691 197.472C273.88 196.981 273.256 196.304 272.819 195.44C272.381 194.565 272.163 193.557 272.163 192.416C272.163 191.275 272.381 190.267 272.819 189.392C273.256 188.517 273.88 187.835 274.691 187.344C275.501 186.853 276.461 186.608 277.571 186.608C278.936 186.608 280.051 186.944 280.915 187.616C281.779 188.288 282.317 189.237 282.531 190.464H280.163C280.024 189.867 279.736 189.403 279.299 189.072C278.861 188.731 278.28 188.56 277.555 188.56C276.893 188.56 276.323 188.72 275.843 189.04C275.363 189.349 274.995 189.792 274.739 190.368C274.493 190.933 274.371 191.616 274.371 192.416C274.371 193.205 274.493 193.888 274.739 194.464C274.995 195.04 275.363 195.483 275.843 195.792C276.323 196.101 276.893 196.256 277.555 196.256C278.28 196.256 278.861 196.101 279.299 195.792C279.736 195.472 280.024 195.029 280.163 194.464H282.531C282.317 195.627 281.779 196.539 280.915 197.2C280.051 197.861 278.936 198.192 277.571 198.192ZM288.935 198.192C288.113 198.192 287.367 198.027 286.695 197.696C286.023 197.365 285.489 196.869 285.095 196.208C284.7 195.547 284.503 194.704 284.503 193.68V186.8H286.663V193.696C286.663 194.251 286.753 194.72 286.935 195.104C287.116 195.477 287.377 195.755 287.719 195.936C288.071 196.117 288.487 196.208 288.967 196.208C289.457 196.208 289.873 196.117 290.215 195.936C290.567 195.755 290.833 195.477 291.015 195.104C291.207 194.72 291.303 194.251 291.303 193.696V186.8H293.463V193.68C293.463 194.704 293.255 195.547 292.839 196.208C292.433 196.869 291.889 197.365 291.207 197.696C290.524 198.027 289.767 198.192 288.935 198.192ZM295.776 198V186.8H299.984C300.89 186.8 301.637 186.955 302.224 187.264C302.821 187.563 303.264 187.979 303.552 188.512C303.85 189.035 304 189.627 304 190.288C304 190.907 303.856 191.483 303.568 192.016C303.29 192.539 302.853 192.96 302.256 193.28C301.669 193.6 300.912 193.76 299.984 193.76H297.936V198H295.776ZM297.936 192.016H299.84C300.533 192.016 301.029 191.861 301.328 191.552C301.637 191.243 301.792 190.821 301.792 190.288C301.792 189.744 301.637 189.323 301.328 189.024C301.029 188.715 300.533 188.56 299.84 188.56H297.936V192.016ZM303.951 198L308.047 186.8H310.495L314.575 198H312.287L309.263 189.264L306.223 198H303.951ZM305.759 195.456L306.335 193.776H312.031L312.591 195.456H305.759ZM316.255 198V186.8H320.047C321.348 186.8 322.42 187.035 323.263 187.504C324.116 187.963 324.745 188.613 325.151 189.456C325.567 190.288 325.775 191.269 325.775 192.4C325.775 193.531 325.567 194.517 325.151 195.36C324.745 196.192 324.116 196.843 323.263 197.312C322.42 197.771 321.348 198 320.047 198H316.255ZM318.415 196.144H319.919C320.836 196.144 321.561 195.995 322.095 195.696C322.628 195.397 323.007 194.971 323.231 194.416C323.455 193.851 323.567 193.179 323.567 192.4C323.567 191.611 323.455 190.939 323.231 190.384C323.007 189.819 322.628 189.387 322.095 189.088C321.561 188.789 320.836 188.64 319.919 188.64H318.415V196.144ZM326.383 198L330.479 186.8H332.927L337.007 198H334.719L331.695 189.264L328.655 198H326.383ZM328.191 195.456L328.767 193.776H334.463L335.023 195.456H328.191Z" fill="#4B4B4B"/>
<rect x="88.5" y="71.5" width="127" height="143" rx="18.6667" fill="white"/>
<rect x="88.5" y="71.5" width="127" height="143" rx="18.6667" stroke="#DBDADE"/>
<g clip-path="url(#clip1_743_8806)">
<path d="M152 143C167.464 143 180 130.464 180 115C180 99.536 167.464 87 152 87C136.536 87 124 99.536 124 115C124 130.464 136.536 143 152 143Z" fill="#11AB6B" fill-opacity="0.08"/>
<path d="M179.65 115C179.65 130.271 167.271 142.65 152 142.65C136.729 142.65 124.35 130.271 124.35 115C124.35 99.7295 136.729 87.3501 152 87.3501C167.271 87.3501 179.65 99.7295 179.65 115Z" stroke="#11AB6B" stroke-opacity="0.16"/>
<path d="M165.993 123.248L164.717 117.875L165.993 110.303C166.038 110.014 165.844 109.742 165.556 109.691H165.473C165.216 109.693 164.996 109.876 164.948 110.128L163.733 117.307C163.725 117.348 163.688 117.378 163.646 117.377H159.13L157.818 123.252C157.786 123.39 157.811 123.535 157.888 123.655C157.961 123.776 158.081 123.861 158.22 123.891C158.258 123.895 158.296 123.895 158.334 123.891C158.436 123.89 158.536 123.861 158.622 123.808C158.741 123.732 158.824 123.613 158.854 123.475L159.96 118.513C159.97 118.473 160.006 118.444 160.048 118.444H163.68C163.72 118.442 163.756 118.467 163.768 118.505L164.944 123.493C165.003 123.731 165.215 123.899 165.46 123.904C165.637 123.892 165.799 123.799 165.897 123.65C165.982 123.535 166.016 123.39 165.993 123.248Z" fill="#11AB6B"/>
<path d="M158.871 116.043C158.821 116.109 158.806 116.196 158.832 116.275L159.125 117.206H163.576L163.807 115.837L159.16 115.903C159.047 115.898 158.938 115.95 158.871 116.043Z" fill="#11AB6B"/>
<path d="M144.878 117.376H140.362C140.319 117.377 140.283 117.348 140.274 117.306L140.016 115.781V115.737L139.067 110.132C139.021 109.878 138.798 109.693 138.538 109.695H138.455C138.166 109.744 137.971 110.018 138.018 110.307L139.29 117.853V117.897L138.014 123.248C137.982 123.385 138.006 123.53 138.079 123.65C138.152 123.77 138.27 123.855 138.407 123.886C138.693 123.949 138.977 123.775 139.05 123.492L140.243 118.504C140.252 118.466 140.287 118.44 140.327 118.443H143.959C143.999 118.442 144.034 118.469 144.043 118.509L145.175 123.484C145.204 123.623 145.287 123.744 145.407 123.82C145.493 123.874 145.593 123.903 145.695 123.903C145.733 123.908 145.771 123.908 145.809 123.903C145.947 123.874 146.068 123.789 146.141 123.667C146.218 123.548 146.243 123.403 146.211 123.265L144.878 117.376Z" fill="#11AB6B"/>
<path d="M144.882 117.206L145.175 116.279C145.201 116.197 145.184 116.107 145.131 116.038C145.067 115.95 144.964 115.9 144.855 115.903L140.199 115.837L140.427 117.206H144.882Z" fill="#11AB6B"/>
<path d="M151.134 113.538H152.878V122.448H151.134V113.538Z" fill="#11AB6B"/>
<path d="M154.434 122.619H149.573C149.267 122.62 148.974 122.741 148.758 122.956C148.541 123.171 148.417 123.463 148.414 123.768V123.904L155.592 123.904V123.768C155.589 123.463 155.466 123.171 155.249 122.956C155.032 122.741 154.739 122.62 154.434 122.619Z" fill="#11AB6B"/>
<path d="M153.04 111.68L153.083 111.645L154.989 109.988H149.026L152.038 112.545L153.04 111.68Z" fill="#11AB6B"/>
<path d="M155.238 109.997L153.354 111.64H159.794L159.798 109.992L159.151 109.988L155.238 109.997Z" fill="#11AB6B"/>
<path d="M152.104 112.725C152.085 112.74 152.062 112.747 152.038 112.747C152.018 112.745 151.998 112.737 151.982 112.725L150.893 111.815H147.028V113.105C147.031 113.246 147.145 113.361 147.286 113.363H156.716C156.785 113.364 156.852 113.338 156.901 113.289C156.951 113.241 156.979 113.174 156.979 113.105V111.815H153.14L152.104 112.725Z" fill="#11AB6B"/>
<path d="M148.742 109.988H144.213L144.209 111.637L150.705 111.641L148.742 109.988Z" fill="#11AB6B"/>
<path d="M155.029 109.813H159.121C159.269 109.801 159.404 109.723 159.488 109.599C159.54 109.531 159.578 109.454 159.602 109.372L159.72 109.018H154.417L154.53 109.367C154.588 109.605 154.786 109.782 155.029 109.813Z" fill="#11AB6B"/>
<path d="M159.234 108.528C159.149 107.813 158.718 107.186 158.081 106.851C157.444 106.516 156.683 106.516 156.046 106.851C155.41 107.186 154.978 107.813 154.893 108.528L154.867 108.821H159.265L159.234 108.528Z" fill="#11AB6B"/>
<path d="M146.342 108.804V109.385H146.097C146.034 109.385 145.983 109.436 145.983 109.499V109.814L147.195 109.813V109.499C147.195 109.436 147.144 109.385 147.081 109.385H146.836L146.836 108.808C147.18 108.731 147.471 108.505 147.632 108.192C147.742 107.97 147.782 107.72 147.745 107.474L147.688 106.924C147.673 106.803 147.57 106.713 147.448 106.714H145.721C145.6 106.713 145.496 106.803 145.481 106.924L145.406 107.496C145.37 107.741 145.41 107.992 145.52 108.213C145.693 108.522 145.994 108.738 146.342 108.804Z" fill="#11AB6B"/>
</g>
<path d="M147.666 175.288C146.098 175.288 144.754 174.92 143.634 174.184C142.53 173.448 141.674 172.432 141.066 171.136C140.474 169.824 140.178 168.312 140.178 166.6C140.178 164.888 140.474 163.384 141.066 162.088C141.674 160.776 142.53 159.752 143.634 159.016C144.754 158.28 146.098 157.912 147.666 157.912C149.218 157.912 150.546 158.28 151.65 159.016C152.77 159.752 153.626 160.776 154.218 162.088C154.826 163.384 155.13 164.888 155.13 166.6C155.13 168.312 154.826 169.824 154.218 171.136C153.626 172.432 152.77 173.448 151.65 174.184C150.546 174.92 149.218 175.288 147.666 175.288ZM147.642 172.384C148.474 172.384 149.202 172.152 149.826 171.688C150.45 171.208 150.938 170.536 151.29 169.672C151.642 168.808 151.818 167.784 151.818 166.6C151.818 165.4 151.642 164.376 151.29 163.528C150.938 162.664 150.45 162 149.826 161.536C149.202 161.072 148.474 160.84 147.642 160.84C146.826 160.84 146.098 161.072 145.458 161.536C144.834 162 144.346 162.664 143.994 163.528C143.642 164.376 143.466 165.4 143.466 166.6C143.466 167.784 143.642 168.808 143.994 169.672C144.346 170.536 144.834 171.208 145.458 171.688C146.098 172.152 146.826 172.384 147.642 172.384ZM163.551 175.288C162.463 175.288 161.463 175.088 160.551 174.688C159.639 174.288 158.911 173.68 158.367 172.864C157.823 172.048 157.535 171.016 157.503 169.768H160.695C160.711 170.296 160.831 170.776 161.055 171.208C161.279 171.624 161.599 171.96 162.015 172.216C162.447 172.456 162.967 172.576 163.575 172.576C164.135 172.576 164.607 172.464 164.991 172.24C165.391 172.016 165.695 171.72 165.903 171.352C166.111 170.984 166.215 170.56 166.215 170.08C166.215 169.52 166.079 169.048 165.807 168.664C165.535 168.28 165.151 167.992 164.655 167.8C164.175 167.592 163.615 167.488 162.975 167.488H161.727V164.824H162.975C163.759 164.824 164.415 164.648 164.943 164.296C165.471 163.928 165.735 163.384 165.735 162.664C165.735 162.056 165.535 161.568 165.135 161.2C164.751 160.832 164.223 160.648 163.551 160.648C162.783 160.648 162.183 160.872 161.751 161.32C161.335 161.768 161.103 162.32 161.055 162.976H157.911C157.959 161.92 158.223 161.016 158.703 160.264C159.183 159.496 159.839 158.912 160.671 158.512C161.503 158.112 162.463 157.912 163.551 157.912C164.703 157.912 165.679 158.12 166.479 158.536C167.279 158.936 167.887 159.48 168.303 160.168C168.719 160.84 168.927 161.584 168.927 162.4C168.927 163.04 168.799 163.616 168.543 164.128C168.303 164.624 167.983 165.04 167.583 165.376C167.183 165.712 166.727 165.96 166.215 166.12C166.855 166.232 167.407 166.472 167.871 166.84C168.351 167.208 168.719 167.68 168.975 168.256C169.247 168.816 169.383 169.464 169.383 170.2C169.383 171.112 169.159 171.96 168.711 172.744C168.263 173.512 167.607 174.128 166.743 174.592C165.879 175.056 164.815 175.288 163.551 175.288ZM130.624 194V182.8H132.784V192.32H137.712V194H130.624ZM139.786 194V182.8H141.946V194H139.786ZM147.617 194L143.537 182.8H145.841L148.945 191.792L152.065 182.8H154.353L150.273 194H147.617ZM155.906 194V182.8H160.098C160.994 182.8 161.735 182.955 162.322 183.264C162.919 183.573 163.362 183.989 163.65 184.512C163.938 185.024 164.082 185.595 164.082 186.224C164.082 186.821 163.938 187.381 163.65 187.904C163.372 188.416 162.94 188.832 162.354 189.152C161.767 189.461 161.004 189.616 160.066 189.616H158.066V194H155.906ZM161.714 194L159.41 189.072H161.746L164.178 194H161.714ZM158.066 188.048H159.97C160.62 188.048 161.1 187.888 161.41 187.568C161.719 187.248 161.874 186.827 161.874 186.304C161.874 185.781 161.719 185.371 161.41 185.072C161.111 184.763 160.626 184.608 159.954 184.608H158.066V188.048ZM166.223 194V182.8H173.599V184.544H168.383V187.472H173.119V189.152H168.383V192.256H173.599V194H166.223Z" fill="#4B4B4B"/>
<defs>
<clipPath id="clip0_743_8806">
<rect width="56" height="56" fill="white" transform="translate(270 91)"/>
</clipPath>
<clipPath id="clip1_743_8806">
<rect width="56" height="56" fill="white" transform="translate(124 87)"/>
</clipPath>
</defs>
</svg>
